M48
; DRILL file {KiCad (7.0.0)} date Mon Mar 13 22:43:07 2023
; FORMAT={-:-/ absolute / metric / decimal}
; #@! TF.CreationDate,2023-03-13T22:43:07-04:00
; #@! TF.GenerationSoftware,Kicad,Pcbnew,(7.0.0)
; #@! TF.FileFunction,Plated,1,4,PTH
FMAT,2
METRIC
; #@! TA.AperFunction,Plated,PTH,ViaDrill
T1C0.300
; #@! TA.AperFunction,Plated,PTH,ViaDrill
T2C0.400
; #@! TA.AperFunction,Plated,PTH,ViaDrill
T3C0.600
; #@! TA.AperFunction,Plated,PTH,ComponentDrill
T4C0.719
; #@! TA.AperFunction,Plated,PTH,ComponentDrill
T5C0.762
; #@! TA.AperFunction,Plated,PTH,ComponentDrill
T6C0.787
; #@! TA.AperFunction,Plated,PTH,ComponentDrill
T7C0.800
; #@! TA.AperFunction,Plated,PTH,ComponentDrill
T8C0.991
; #@! TA.AperFunction,Plated,PTH,ComponentDrill
T9C1.000
; #@! TA.AperFunction,Plated,PTH,ComponentDrill
T10C1.016
; #@! TA.AperFunction,Plated,PTH,ComponentDrill
T11C1.020
; #@! TA.AperFunction,Plated,PTH,ComponentDrill
T12C1.295
%
G90
G05
T1
X194.196Y-23.622
X194.838Y-22.893
X195.466Y-22.098
X196.126Y-21.336
X216.471Y-73.025
X231.203Y-73.025
X234.201Y-23.622
X234.843Y-22.893
X235.471Y-22.098
X236.131Y-21.336
X256.476Y-73.025
X271.209Y-73.025
X274.18Y-23.622
X274.823Y-22.893
X275.45Y-22.098
X276.111Y-21.336
X296.354Y-73.025
X311.087Y-73.025
X314.185Y-23.597
X314.828Y-22.867
X315.455Y-22.073
X316.116Y-21.311
T2
X111.569Y-37.465
X111.569Y-62.23
X111.569Y-86.995
X111.569Y-111.76
X112.204Y-35.56
X112.204Y-60.325
X112.204Y-85.09
X112.204Y-109.855
X112.84Y-33.655
X112.84Y-58.42
X112.84Y-83.185
X112.84Y-107.95
X113.474Y-31.75
X113.474Y-56.515
X113.474Y-81.28
X113.474Y-106.045
X124.904Y-42.545
X124.904Y-92.075
X124.904Y-116.84
X125.539Y-40.005
X125.539Y-89.535
X125.539Y-114.3
X126.174Y-37.465
X126.174Y-86.995
X126.174Y-111.76
X126.809Y-34.925
X126.809Y-84.455
X126.809Y-109.22
X127.444Y-32.385
X127.444Y-81.915
X127.444Y-106.68
X128.079Y-29.845
X128.079Y-54.61
X128.079Y-62.23
X128.079Y-64.77
X128.079Y-67.31
X128.079Y-79.375
X128.079Y-104.14
X128.714Y-27.305
X128.714Y-52.07
X128.714Y-57.15
X128.714Y-76.835
X128.714Y-101.6
X129.35Y-24.765
X129.35Y-49.53
X129.35Y-59.69
X129.35Y-74.295
X129.35Y-99.06
X136.588Y-119.507
X138.239Y-37.465
X138.239Y-62.23
X138.239Y-86.995
X138.239Y-111.76
X138.874Y-35.56
X138.874Y-60.325
X138.874Y-85.09
X138.874Y-109.855
X139.51Y-33.655
X139.51Y-58.42
X139.51Y-83.185
X139.51Y-107.95
X140.144Y-31.75
X140.144Y-56.515
X140.144Y-81.28
X140.144Y-106.045
X151.575Y-42.545
X151.575Y-67.31
X151.575Y-92.075
X151.575Y-116.84
X152.209Y-40.005
X152.209Y-64.77
X152.209Y-89.535
X152.209Y-114.3
X152.844Y-37.465
X152.844Y-62.23
X152.844Y-86.995
X152.844Y-111.76
X153.48Y-34.925
X153.48Y-59.69
X153.48Y-84.455
X153.48Y-109.22
X154.114Y-32.385
X154.114Y-57.15
X154.114Y-81.915
X154.114Y-106.68
X154.749Y-29.845
X154.749Y-54.61
X154.749Y-79.375
X154.749Y-104.14
X155.385Y-27.305
X155.385Y-52.07
X155.385Y-76.835
X155.385Y-101.6
X156.019Y-24.765
X156.019Y-49.53
X156.019Y-74.295
X156.019Y-99.06
X182.562Y-100.33
X183.07Y-97.79
X186.362Y-96.774
X186.373Y-47.244
X194.203Y-38.1
X194.203Y-62.865
X194.203Y-87.63
X194.203Y-112.395
X194.838Y-36.195
X194.838Y-60.96
X194.838Y-85.725
X194.838Y-110.49
X195.473Y-34.29
X195.473Y-59.055
X195.473Y-83.82
X195.473Y-108.585
X196.108Y-32.385
X196.108Y-57.15
X196.108Y-81.915
X196.108Y-106.68
X222.567Y-100.33
X223.075Y-97.79
X226.367Y-96.774
X226.377Y-47.244
X234.208Y-38.1
X234.208Y-62.865
X234.208Y-87.63
X234.208Y-112.395
X234.843Y-36.195
X234.843Y-60.96
X234.843Y-85.725
X234.843Y-110.49
X235.478Y-34.29
X235.478Y-59.055
X235.478Y-83.82
X235.478Y-108.585
X236.113Y-32.385
X236.113Y-57.15
X236.113Y-81.915
X236.113Y-106.68
X262.56Y-100.33
X263.068Y-97.79
X266.36Y-96.774
X266.37Y-47.244
X274.2Y-38.1
X274.2Y-62.865
X274.2Y-87.63
X274.2Y-112.395
X274.835Y-36.195
X274.835Y-60.96
X274.835Y-85.725
X274.835Y-110.49
X275.47Y-34.29
X275.47Y-59.055
X275.47Y-83.82
X275.47Y-108.585
X276.105Y-32.385
X276.105Y-57.15
X276.105Y-81.915
X276.105Y-106.68
X302.565Y-100.33
X303.073Y-97.79
X306.365Y-96.774
X306.375Y-47.244
X314.205Y-38.1
X314.205Y-62.865
X314.205Y-87.63
X314.205Y-112.395
X314.84Y-36.195
X314.84Y-60.96
X314.84Y-85.725
X314.84Y-110.49
X315.475Y-34.29
X315.475Y-59.055
X315.475Y-83.82
X315.475Y-108.585
X316.11Y-32.385
X316.11Y-57.15
X316.11Y-81.915
X316.11Y-106.68
T3
X121.094Y-120.269
X132.27Y-69.85
X132.27Y-96.774
X147.764Y-120.269
X158.94Y-69.85
X158.94Y-96.774
T4
X122.999Y-24.765
X122.999Y-27.305
X122.999Y-29.845
X122.999Y-32.385
X122.999Y-34.925
X122.999Y-37.465
X122.999Y-40.005
X122.999Y-42.545
X122.999Y-45.085
X122.999Y-49.53
X122.999Y-52.07
X122.999Y-54.61
X122.999Y-57.15
X122.999Y-59.69
X122.999Y-62.23
X122.999Y-64.77
X122.999Y-67.31
X122.999Y-69.85
X122.999Y-74.295
X122.999Y-76.835
X122.999Y-79.375
X122.999Y-81.915
X122.999Y-84.455
X122.999Y-86.995
X122.999Y-89.535
X122.999Y-92.075
X122.999Y-94.615
X122.999Y-99.06
X122.999Y-101.6
X122.999Y-104.14
X122.999Y-106.68
X122.999Y-109.22
X122.999Y-111.76
X122.999Y-114.3
X122.999Y-116.84
X122.999Y-119.38
X130.619Y-24.765
X130.619Y-27.305
X130.619Y-29.845
X130.619Y-32.385
X130.619Y-34.925
X130.619Y-37.465
X130.619Y-40.005
X130.619Y-42.545
X130.619Y-45.085
X130.619Y-49.53
X130.619Y-52.07
X130.619Y-54.61
X130.619Y-57.15
X130.619Y-59.69
X130.619Y-62.23
X130.619Y-64.77
X130.619Y-67.31
X130.619Y-69.85
X130.619Y-74.295
X130.619Y-76.835
X130.619Y-79.375
X130.619Y-81.915
X130.619Y-84.455
X130.619Y-86.995
X130.619Y-89.535
X130.619Y-92.075
X130.619Y-94.615
X130.619Y-99.06
X130.619Y-101.6
X130.619Y-104.14
X130.619Y-106.68
X130.619Y-109.22
X130.619Y-111.76
X130.619Y-114.3
X130.619Y-116.84
X130.619Y-119.38
X149.669Y-24.765
X149.669Y-27.305
X149.669Y-29.845
X149.669Y-32.385
X149.669Y-34.925
X149.669Y-37.465
X149.669Y-40.005
X149.669Y-42.545
X149.669Y-45.085
X149.669Y-49.53
X149.669Y-52.07
X149.669Y-54.61
X149.669Y-57.15
X149.669Y-59.69
X149.669Y-62.23
X149.669Y-64.77
X149.669Y-67.31
X149.669Y-69.85
X149.669Y-74.295
X149.669Y-76.835
X149.669Y-79.375
X149.669Y-81.915
X149.669Y-84.455
X149.669Y-86.995
X149.669Y-89.535
X149.669Y-92.075
X149.669Y-94.615
X149.669Y-99.06
X149.669Y-101.6
X149.669Y-104.14
X149.669Y-106.68
X149.669Y-109.22
X149.669Y-111.76
X149.669Y-114.3
X149.669Y-116.84
X149.669Y-119.38
X157.29Y-24.765
X157.29Y-27.305
X157.29Y-29.845
X157.29Y-32.385
X157.29Y-34.925
X157.29Y-37.465
X157.29Y-40.005
X157.29Y-42.545
X157.29Y-45.085
X157.29Y-49.53
X157.29Y-52.07
X157.29Y-54.61
X157.29Y-57.15
X157.29Y-59.69
X157.29Y-62.23
X157.29Y-64.77
X157.29Y-67.31
X157.29Y-69.85
X157.29Y-74.295
X157.29Y-76.835
X157.29Y-79.375
X157.29Y-81.915
X157.29Y-84.455
X157.29Y-86.995
X157.29Y-89.535
X157.29Y-92.075
X157.29Y-94.615
X157.29Y-99.06
X157.29Y-101.6
X157.29Y-104.14
X157.29Y-106.68
X157.29Y-109.22
X157.29Y-111.76
X157.29Y-114.3
X157.29Y-116.84
X157.29Y-119.38
X177.058Y-24.765
X177.058Y-27.305
X177.058Y-29.845
X177.058Y-32.385
X177.058Y-34.925
X177.058Y-37.465
X177.058Y-40.005
X177.058Y-42.545
X177.058Y-45.085
X177.058Y-49.53
X177.058Y-52.07
X177.058Y-54.61
X177.058Y-57.15
X177.058Y-59.69
X177.058Y-62.23
X177.058Y-64.77
X177.058Y-67.31
X177.058Y-69.85
X177.058Y-74.295
X177.058Y-76.835
X177.058Y-79.375
X177.058Y-81.915
X177.058Y-84.455
X177.058Y-86.995
X177.058Y-89.535
X177.058Y-92.075
X177.058Y-94.615
X177.058Y-99.06
X177.058Y-101.6
X177.058Y-104.14
X177.058Y-106.68
X177.058Y-109.22
X177.058Y-111.76
X177.058Y-114.3
X177.058Y-116.84
X177.058Y-119.38
X184.678Y-24.765
X184.678Y-27.305
X184.678Y-29.845
X184.678Y-32.385
X184.678Y-34.925
X184.678Y-37.465
X184.678Y-40.005
X184.678Y-42.545
X184.678Y-45.085
X184.678Y-49.53
X184.678Y-52.07
X184.678Y-54.61
X184.678Y-57.15
X184.678Y-59.69
X184.678Y-62.23
X184.678Y-64.77
X184.678Y-67.31
X184.678Y-69.85
X184.678Y-74.295
X184.678Y-76.835
X184.678Y-79.375
X184.678Y-81.915
X184.678Y-84.455
X184.678Y-86.995
X184.678Y-89.535
X184.678Y-92.075
X184.678Y-94.615
X184.678Y-99.06
X184.678Y-101.6
X184.678Y-104.14
X184.678Y-106.68
X184.678Y-109.22
X184.678Y-111.76
X184.678Y-114.3
X184.678Y-116.84
X184.678Y-119.38
X217.063Y-24.765
X217.063Y-27.305
X217.063Y-29.845
X217.063Y-32.385
X217.063Y-34.925
X217.063Y-37.465
X217.063Y-40.005
X217.063Y-42.545
X217.063Y-45.085
X217.063Y-49.53
X217.063Y-52.07
X217.063Y-54.61
X217.063Y-57.15
X217.063Y-59.69
X217.063Y-62.23
X217.063Y-64.77
X217.063Y-67.31
X217.063Y-69.85
X217.063Y-74.295
X217.063Y-76.835
X217.063Y-79.375
X217.063Y-81.915
X217.063Y-84.455
X217.063Y-86.995
X217.063Y-89.535
X217.063Y-92.075
X217.063Y-94.615
X217.063Y-99.06
X217.063Y-101.6
X217.063Y-104.14
X217.063Y-106.68
X217.063Y-109.22
X217.063Y-111.76
X217.063Y-114.3
X217.063Y-116.84
X217.063Y-119.38
X224.683Y-24.765
X224.683Y-27.305
X224.683Y-29.845
X224.683Y-32.385
X224.683Y-34.925
X224.683Y-37.465
X224.683Y-40.005
X224.683Y-42.545
X224.683Y-45.085
X224.683Y-49.53
X224.683Y-52.07
X224.683Y-54.61
X224.683Y-57.15
X224.683Y-59.69
X224.683Y-62.23
X224.683Y-64.77
X224.683Y-67.31
X224.683Y-69.85
X224.683Y-74.295
X224.683Y-76.835
X224.683Y-79.375
X224.683Y-81.915
X224.683Y-84.455
X224.683Y-86.995
X224.683Y-89.535
X224.683Y-92.075
X224.683Y-94.615
X224.683Y-99.06
X224.683Y-101.6
X224.683Y-104.14
X224.683Y-106.68
X224.683Y-109.22
X224.683Y-111.76
X224.683Y-114.3
X224.683Y-116.84
X224.683Y-119.38
X257.055Y-24.765
X257.055Y-27.305
X257.055Y-29.845
X257.055Y-32.385
X257.055Y-34.925
X257.055Y-37.465
X257.055Y-40.005
X257.055Y-42.545
X257.055Y-45.085
X257.055Y-49.53
X257.055Y-52.07
X257.055Y-54.61
X257.055Y-57.15
X257.055Y-59.69
X257.055Y-62.23
X257.055Y-64.77
X257.055Y-67.31
X257.055Y-69.85
X257.055Y-74.295
X257.055Y-76.835
X257.055Y-79.375
X257.055Y-81.915
X257.055Y-84.455
X257.055Y-86.995
X257.055Y-89.535
X257.055Y-92.075
X257.055Y-94.615
X257.055Y-99.06
X257.055Y-101.6
X257.055Y-104.14
X257.055Y-106.68
X257.055Y-109.22
X257.055Y-111.76
X257.055Y-114.3
X257.055Y-116.84
X257.055Y-119.38
X264.675Y-24.765
X264.675Y-27.305
X264.675Y-29.845
X264.675Y-32.385
X264.675Y-34.925
X264.675Y-37.465
X264.675Y-40.005
X264.675Y-42.545
X264.675Y-45.085
X264.675Y-49.53
X264.675Y-52.07
X264.675Y-54.61
X264.675Y-57.15
X264.675Y-59.69
X264.675Y-62.23
X264.675Y-64.77
X264.675Y-67.31
X264.675Y-69.85
X264.675Y-74.295
X264.675Y-76.835
X264.675Y-79.375
X264.675Y-81.915
X264.675Y-84.455
X264.675Y-86.995
X264.675Y-89.535
X264.675Y-92.075
X264.675Y-94.615
X264.675Y-99.06
X264.675Y-101.6
X264.675Y-104.14
X264.675Y-106.68
X264.675Y-109.22
X264.675Y-111.76
X264.675Y-114.3
X264.675Y-116.84
X264.675Y-119.38
X297.06Y-24.765
X297.06Y-27.305
X297.06Y-29.845
X297.06Y-32.385
X297.06Y-34.925
X297.06Y-37.465
X297.06Y-40.005
X297.06Y-42.545
X297.06Y-45.085
X297.06Y-49.53
X297.06Y-52.07
X297.06Y-54.61
X297.06Y-57.15
X297.06Y-59.69
X297.06Y-62.23
X297.06Y-64.77
X297.06Y-67.31
X297.06Y-69.85
X297.06Y-74.295
X297.06Y-76.835
X297.06Y-79.375
X297.06Y-81.915
X297.06Y-84.455
X297.06Y-86.995
X297.06Y-89.535
X297.06Y-92.075
X297.06Y-94.615
X297.06Y-99.06
X297.06Y-101.6
X297.06Y-104.14
X297.06Y-106.68
X297.06Y-109.22
X297.06Y-111.76
X297.06Y-114.3
X297.06Y-116.84
X297.06Y-119.38
X304.68Y-24.765
X304.68Y-27.305
X304.68Y-29.845
X304.68Y-32.385
X304.68Y-34.925
X304.68Y-37.465
X304.68Y-40.005
X304.68Y-42.545
X304.68Y-45.085
X304.68Y-49.53
X304.68Y-52.07
X304.68Y-54.61
X304.68Y-57.15
X304.68Y-59.69
X304.68Y-62.23
X304.68Y-64.77
X304.68Y-67.31
X304.68Y-69.85
X304.68Y-74.295
X304.68Y-76.835
X304.68Y-79.375
X304.68Y-81.915
X304.68Y-84.455
X304.68Y-86.995
X304.68Y-89.535
X304.68Y-92.075
X304.68Y-94.615
X304.68Y-99.06
X304.68Y-101.6
X304.68Y-104.14
X304.68Y-106.68
X304.68Y-109.22
X304.68Y-111.76
X304.68Y-114.3
X304.68Y-116.84
X304.68Y-119.38
T5
X54.102Y-33.274
X54.102Y-35.814
X54.102Y-38.354
X54.102Y-40.894
X54.102Y-43.434
X54.102Y-45.974
T6
X107.251Y-24.701
X107.251Y-27.241
X107.251Y-29.781
X107.251Y-32.322
X107.251Y-34.861
X107.251Y-37.401
X107.251Y-39.941
X107.251Y-42.481
X107.251Y-49.466
X107.251Y-52.006
X107.251Y-54.546
X107.251Y-57.087
X107.251Y-59.627
X107.251Y-62.166
X107.251Y-64.706
X107.251Y-67.246
X107.251Y-74.231
X107.251Y-76.772
X107.251Y-79.311
X107.251Y-81.852
X107.251Y-84.391
X107.251Y-86.931
X107.251Y-89.471
X107.251Y-92.011
X107.251Y-98.996
X107.251Y-101.536
X107.251Y-104.076
X107.251Y-106.617
X107.251Y-109.156
X107.251Y-111.697
X107.251Y-114.236
X107.251Y-116.776
X114.871Y-24.701
X114.871Y-27.241
X114.871Y-29.781
X114.871Y-32.322
X114.871Y-34.861
X114.871Y-37.401
X114.871Y-39.941
X114.871Y-42.481
X114.871Y-49.466
X114.871Y-52.006
X114.871Y-54.546
X114.871Y-57.087
X114.871Y-59.627
X114.871Y-62.166
X114.871Y-64.706
X114.871Y-67.246
X114.871Y-74.231
X114.871Y-76.772
X114.871Y-79.311
X114.871Y-81.852
X114.871Y-84.391
X114.871Y-86.931
X114.871Y-89.471
X114.871Y-92.011
X114.871Y-98.996
X114.871Y-101.536
X114.871Y-104.076
X114.871Y-106.617
X114.871Y-109.156
X114.871Y-111.697
X114.871Y-114.236
X114.871Y-116.776
X133.921Y-24.701
X133.921Y-27.241
X133.921Y-29.781
X133.921Y-32.322
X133.921Y-34.861
X133.921Y-37.401
X133.921Y-39.941
X133.921Y-42.481
X133.921Y-49.466
X133.921Y-52.006
X133.921Y-54.546
X133.921Y-57.087
X133.921Y-59.627
X133.921Y-62.166
X133.921Y-64.706
X133.921Y-67.246
X133.921Y-74.231
X133.921Y-76.772
X133.921Y-79.311
X133.921Y-81.852
X133.921Y-84.391
X133.921Y-86.931
X133.921Y-89.471
X133.921Y-92.011
X133.921Y-98.996
X133.921Y-101.536
X133.921Y-104.076
X133.921Y-106.617
X133.921Y-109.156
X133.921Y-111.697
X133.921Y-114.236
X133.921Y-116.776
X141.541Y-24.701
X141.541Y-27.241
X141.541Y-29.781
X141.541Y-32.322
X141.541Y-34.861
X141.541Y-37.401
X141.541Y-39.941
X141.541Y-42.481
X141.541Y-49.466
X141.541Y-52.006
X141.541Y-54.546
X141.541Y-57.087
X141.541Y-59.627
X141.541Y-62.166
X141.541Y-64.706
X141.541Y-67.246
X141.541Y-74.231
X141.541Y-76.772
X141.541Y-79.311
X141.541Y-81.852
X141.541Y-84.391
X141.541Y-86.931
X141.541Y-89.471
X141.541Y-92.011
X141.541Y-98.996
X141.541Y-101.536
X141.541Y-104.076
X141.541Y-106.617
X141.541Y-109.156
X141.541Y-111.697
X141.541Y-114.236
X141.541Y-116.776
X192.806Y-27.368
X192.806Y-29.909
X192.806Y-32.448
X192.806Y-34.989
X192.806Y-37.529
X192.806Y-40.069
X192.806Y-42.608
X192.806Y-45.148
X192.806Y-52.133
X192.806Y-54.673
X192.806Y-57.213
X192.806Y-59.753
X192.806Y-62.293
X192.806Y-64.834
X192.806Y-67.373
X192.806Y-69.913
X192.806Y-76.898
X192.806Y-79.438
X192.806Y-81.978
X192.806Y-84.519
X192.806Y-87.058
X192.806Y-89.599
X192.806Y-92.138
X192.806Y-94.678
X192.806Y-101.663
X192.806Y-104.203
X192.806Y-106.743
X192.806Y-109.283
X192.806Y-111.823
X192.806Y-114.363
X192.806Y-116.903
X192.806Y-119.444
X200.426Y-27.368
X200.426Y-29.909
X200.426Y-32.448
X200.426Y-34.989
X200.426Y-37.529
X200.426Y-40.069
X200.426Y-42.608
X200.426Y-45.148
X200.426Y-52.133
X200.426Y-54.673
X200.426Y-57.213
X200.426Y-59.753
X200.426Y-62.293
X200.426Y-64.834
X200.426Y-67.373
X200.426Y-69.913
X200.426Y-76.898
X200.426Y-79.438
X200.426Y-81.978
X200.426Y-84.519
X200.426Y-87.058
X200.426Y-89.599
X200.426Y-92.138
X200.426Y-94.678
X200.426Y-101.663
X200.426Y-104.203
X200.426Y-106.743
X200.426Y-109.283
X200.426Y-111.823
X200.426Y-114.363
X200.426Y-116.903
X200.426Y-119.444
X232.811Y-27.368
X232.811Y-29.909
X232.811Y-32.448
X232.811Y-34.989
X232.811Y-37.529
X232.811Y-40.069
X232.811Y-42.608
X232.811Y-45.148
X232.811Y-52.133
X232.811Y-54.673
X232.811Y-57.213
X232.811Y-59.753
X232.811Y-62.293
X232.811Y-64.834
X232.811Y-67.373
X232.811Y-69.913
X232.811Y-76.898
X232.811Y-79.438
X232.811Y-81.978
X232.811Y-84.519
X232.811Y-87.058
X232.811Y-89.599
X232.811Y-92.138
X232.811Y-94.678
X232.811Y-101.663
X232.811Y-104.203
X232.811Y-106.743
X232.811Y-109.283
X232.811Y-111.823
X232.811Y-114.363
X232.811Y-116.903
X232.811Y-119.444
X240.431Y-27.368
X240.431Y-29.909
X240.431Y-32.448
X240.431Y-34.989
X240.431Y-37.529
X240.431Y-40.069
X240.431Y-42.608
X240.431Y-45.148
X240.431Y-52.133
X240.431Y-54.673
X240.431Y-57.213
X240.431Y-59.753
X240.431Y-62.293
X240.431Y-64.834
X240.431Y-67.373
X240.431Y-69.913
X240.431Y-76.898
X240.431Y-79.438
X240.431Y-81.978
X240.431Y-84.519
X240.431Y-87.058
X240.431Y-89.599
X240.431Y-92.138
X240.431Y-94.678
X240.431Y-101.663
X240.431Y-104.203
X240.431Y-106.743
X240.431Y-109.283
X240.431Y-111.823
X240.431Y-114.363
X240.431Y-116.903
X240.431Y-119.444
X272.803Y-27.368
X272.803Y-29.909
X272.803Y-32.448
X272.803Y-34.989
X272.803Y-37.529
X272.803Y-40.069
X272.803Y-42.608
X272.803Y-45.148
X272.803Y-52.133
X272.803Y-54.673
X272.803Y-57.213
X272.803Y-59.753
X272.803Y-62.293
X272.803Y-64.834
X272.803Y-67.373
X272.803Y-69.913
X272.803Y-76.898
X272.803Y-79.438
X272.803Y-81.978
X272.803Y-84.519
X272.803Y-87.058
X272.803Y-89.599
X272.803Y-92.138
X272.803Y-94.678
X272.803Y-101.663
X272.803Y-104.203
X272.803Y-106.743
X272.803Y-109.283
X272.803Y-111.823
X272.803Y-114.363
X272.803Y-116.903
X272.803Y-119.444
X280.423Y-27.368
X280.423Y-29.909
X280.423Y-32.448
X280.423Y-34.989
X280.423Y-37.529
X280.423Y-40.069
X280.423Y-42.608
X280.423Y-45.148
X280.423Y-52.133
X280.423Y-54.673
X280.423Y-57.213
X280.423Y-59.753
X280.423Y-62.293
X280.423Y-64.834
X280.423Y-67.373
X280.423Y-69.913
X280.423Y-76.898
X280.423Y-79.438
X280.423Y-81.978
X280.423Y-84.519
X280.423Y-87.058
X280.423Y-89.599
X280.423Y-92.138
X280.423Y-94.678
X280.423Y-101.663
X280.423Y-104.203
X280.423Y-106.743
X280.423Y-109.283
X280.423Y-111.823
X280.423Y-114.363
X280.423Y-116.903
X280.423Y-119.444
X312.808Y-27.368
X312.808Y-29.909
X312.808Y-32.448
X312.808Y-34.989
X312.808Y-37.529
X312.808Y-40.069
X312.808Y-42.608
X312.808Y-45.148
X312.808Y-52.133
X312.808Y-54.673
X312.808Y-57.213
X312.808Y-59.753
X312.808Y-62.293
X312.808Y-64.834
X312.808Y-67.373
X312.808Y-69.913
X312.808Y-76.898
X312.808Y-79.438
X312.808Y-81.978
X312.808Y-84.519
X312.808Y-87.058
X312.808Y-89.599
X312.808Y-92.138
X312.808Y-94.678
X312.808Y-101.663
X312.808Y-104.203
X312.808Y-106.743
X312.808Y-109.283
X312.808Y-111.823
X312.808Y-114.363
X312.808Y-116.903
X312.808Y-119.444
X320.428Y-27.368
X320.428Y-29.909
X320.428Y-32.448
X320.428Y-34.989
X320.428Y-37.529
X320.428Y-40.069
X320.428Y-42.608
X320.428Y-45.148
X320.428Y-52.133
X320.428Y-54.673
X320.428Y-57.213
X320.428Y-59.753
X320.428Y-62.293
X320.428Y-64.834
X320.428Y-67.373
X320.428Y-69.913
X320.428Y-76.898
X320.428Y-79.438
X320.428Y-81.978
X320.428Y-84.519
X320.428Y-87.058
X320.428Y-89.599
X320.428Y-92.138
X320.428Y-94.678
X320.428Y-101.663
X320.428Y-104.203
X320.428Y-106.743
X320.428Y-109.283
X320.428Y-111.823
X320.428Y-114.363
X320.428Y-116.903
X320.428Y-119.444
T7
X45.441Y-108.458
X47.941Y-108.458
X107.144Y-45.974
X107.144Y-70.612
X107.144Y-95.504
X109.644Y-45.974
X109.644Y-70.612
X109.644Y-95.504
X118.935Y-24.765
X118.935Y-27.305
X118.935Y-29.845
X118.935Y-32.385
X118.935Y-34.925
X118.935Y-37.465
X118.935Y-40.005
X118.935Y-42.545
X118.935Y-45.085
X118.935Y-49.53
X118.935Y-52.07
X118.935Y-54.61
X118.935Y-57.15
X118.935Y-59.69
X118.935Y-62.23
X118.935Y-64.77
X118.935Y-67.31
X118.935Y-69.85
X118.935Y-74.295
X118.935Y-76.835
X118.935Y-79.375
X118.935Y-81.915
X118.935Y-84.455
X118.935Y-86.995
X118.935Y-89.535
X118.935Y-92.075
X118.935Y-94.615
X118.935Y-99.06
X118.935Y-101.6
X118.935Y-104.14
X118.935Y-106.68
X118.935Y-109.22
X118.935Y-111.76
X118.935Y-114.3
X118.935Y-116.84
X118.935Y-119.38
X133.814Y-45.974
X134.069Y-70.866
X134.069Y-95.504
X136.314Y-45.974
X136.569Y-70.866
X136.569Y-95.504
X145.606Y-24.765
X145.606Y-27.305
X145.606Y-29.845
X145.606Y-32.385
X145.606Y-34.925
X145.606Y-37.465
X145.606Y-40.005
X145.606Y-42.545
X145.606Y-45.085
X145.606Y-49.53
X145.606Y-52.07
X145.606Y-54.61
X145.606Y-57.15
X145.606Y-59.69
X145.606Y-62.23
X145.606Y-64.77
X145.606Y-67.31
X145.606Y-69.85
X145.606Y-74.295
X145.606Y-76.835
X145.606Y-79.375
X145.606Y-81.915
X145.606Y-84.455
X145.606Y-86.995
X145.606Y-89.535
X145.606Y-92.075
X145.606Y-94.615
X145.606Y-99.06
X145.606Y-101.6
X145.606Y-104.14
X145.606Y-106.68
X145.606Y-109.22
X145.606Y-111.76
X145.606Y-114.3
X145.606Y-116.84
X145.606Y-119.38
X188.742Y-24.765
X188.742Y-27.305
X188.742Y-29.845
X188.742Y-32.385
X188.742Y-34.925
X188.742Y-37.465
X188.742Y-40.005
X188.742Y-42.545
X188.742Y-45.085
X188.742Y-49.53
X188.742Y-52.07
X188.742Y-54.61
X188.742Y-57.15
X188.742Y-59.69
X188.742Y-62.23
X188.742Y-64.77
X188.742Y-67.31
X188.742Y-69.85
X188.742Y-74.295
X188.742Y-76.835
X188.742Y-79.375
X188.742Y-81.915
X188.742Y-84.455
X188.742Y-86.995
X188.742Y-89.535
X188.742Y-92.075
X188.742Y-94.615
X188.742Y-99.06
X188.742Y-101.6
X188.742Y-104.14
X188.742Y-106.68
X188.742Y-109.22
X188.742Y-111.76
X188.742Y-114.3
X188.742Y-116.84
X188.742Y-119.38
X198.033Y-48.514
X198.033Y-73.406
X198.033Y-98.806
X200.533Y-48.514
X200.533Y-73.406
X200.533Y-98.806
X228.747Y-24.765
X228.747Y-27.305
X228.747Y-29.845
X228.747Y-32.385
X228.747Y-34.925
X228.747Y-37.465
X228.747Y-40.005
X228.747Y-42.545
X228.747Y-45.085
X228.747Y-49.53
X228.747Y-52.07
X228.747Y-54.61
X228.747Y-57.15
X228.747Y-59.69
X228.747Y-62.23
X228.747Y-64.77
X228.747Y-67.31
X228.747Y-69.85
X228.747Y-74.295
X228.747Y-76.835
X228.747Y-79.375
X228.747Y-81.915
X228.747Y-84.455
X228.747Y-86.995
X228.747Y-89.535
X228.747Y-92.075
X228.747Y-94.615
X228.747Y-99.06
X228.747Y-101.6
X228.747Y-104.14
X228.747Y-106.68
X228.747Y-109.22
X228.747Y-111.76
X228.747Y-114.3
X228.747Y-116.84
X228.747Y-119.38
X238.038Y-48.514
X238.038Y-73.406
X238.038Y-98.806
X240.538Y-48.514
X240.538Y-73.406
X240.538Y-98.806
X268.739Y-24.765
X268.739Y-27.305
X268.739Y-29.845
X268.739Y-32.385
X268.739Y-34.925
X268.739Y-37.465
X268.739Y-40.005
X268.739Y-42.545
X268.739Y-45.085
X268.739Y-49.53
X268.739Y-52.07
X268.739Y-54.61
X268.739Y-57.15
X268.739Y-59.69
X268.739Y-62.23
X268.739Y-64.77
X268.739Y-67.31
X268.739Y-69.85
X268.739Y-74.295
X268.739Y-76.835
X268.739Y-79.375
X268.739Y-81.915
X268.739Y-84.455
X268.739Y-86.995
X268.739Y-89.535
X268.739Y-92.075
X268.739Y-94.615
X268.739Y-99.06
X268.739Y-101.6
X268.739Y-104.14
X268.739Y-106.68
X268.739Y-109.22
X268.739Y-111.76
X268.739Y-114.3
X268.739Y-116.84
X268.739Y-119.38
X278.03Y-48.514
X278.03Y-73.406
X278.03Y-98.806
X280.53Y-48.514
X280.53Y-73.406
X280.53Y-98.806
X308.744Y-24.765
X308.744Y-27.305
X308.744Y-29.845
X308.744Y-32.385
X308.744Y-34.925
X308.744Y-37.465
X308.744Y-40.005
X308.744Y-42.545
X308.744Y-45.085
X308.744Y-49.53
X308.744Y-52.07
X308.744Y-54.61
X308.744Y-57.15
X308.744Y-59.69
X308.744Y-62.23
X308.744Y-64.77
X308.744Y-67.31
X308.744Y-69.85
X308.744Y-74.295
X308.744Y-76.835
X308.744Y-79.375
X308.744Y-81.915
X308.744Y-84.455
X308.744Y-86.995
X308.744Y-89.535
X308.744Y-92.075
X308.744Y-94.615
X308.744Y-99.06
X308.744Y-101.6
X308.744Y-104.14
X308.744Y-106.68
X308.744Y-109.22
X308.744Y-111.76
X308.744Y-114.3
X308.744Y-116.84
X308.744Y-119.38
X318.035Y-48.514
X318.035Y-73.406
X318.035Y-98.806
X320.535Y-48.514
X320.535Y-73.406
X320.535Y-98.806
T8
X167.513Y-97.79
X167.513Y-100.33
X167.513Y-102.87
X167.513Y-105.41
X167.513Y-107.95
X167.513Y-110.49
X167.513Y-113.03
X167.513Y-115.57
X167.513Y-118.11
X167.513Y-120.65
X170.053Y-97.79
X170.053Y-100.33
X170.053Y-102.87
X170.053Y-105.41
X170.053Y-107.95
X170.053Y-110.49
X170.053Y-113.03
X170.053Y-115.57
X170.053Y-118.11
X170.053Y-120.65
X207.518Y-97.79
X207.518Y-100.33
X207.518Y-102.87
X207.518Y-105.41
X207.518Y-107.95
X207.518Y-110.49
X207.518Y-113.03
X207.518Y-115.57
X207.518Y-118.11
X207.518Y-120.65
X210.058Y-97.79
X210.058Y-100.33
X210.058Y-102.87
X210.058Y-105.41
X210.058Y-107.95
X210.058Y-110.49
X210.058Y-113.03
X210.058Y-115.57
X210.058Y-118.11
X210.058Y-120.65
X247.51Y-97.79
X247.51Y-100.33
X247.51Y-102.87
X247.51Y-105.41
X247.51Y-107.95
X247.51Y-110.49
X247.51Y-113.03
X247.51Y-115.57
X247.51Y-118.11
X247.51Y-120.65
X250.05Y-97.79
X250.05Y-100.33
X250.05Y-102.87
X250.05Y-105.41
X250.05Y-107.95
X250.05Y-110.49
X250.05Y-113.03
X250.05Y-115.57
X250.05Y-118.11
X250.05Y-120.65
X287.515Y-97.79
X287.515Y-100.33
X287.515Y-102.87
X287.515Y-105.41
X287.515Y-107.95
X287.515Y-110.49
X287.515Y-113.03
X287.515Y-115.57
X287.515Y-118.11
X287.515Y-120.65
X290.055Y-97.79
X290.055Y-100.33
X290.055Y-102.87
X290.055Y-105.41
X290.055Y-107.95
X290.055Y-110.49
X290.055Y-113.03
X290.055Y-115.57
X290.055Y-118.11
X290.055Y-120.65
T9
X40.304Y-100.076
X41.402Y-117.856
X43.942Y-117.856
X45.304Y-100.076
X46.482Y-117.856
X95.758Y-118.11
X98.298Y-118.11
X100.838Y-118.11
T10
X54.102Y-57.912
X54.102Y-60.452
X54.102Y-62.992
X54.102Y-65.532
X54.102Y-68.072
X54.102Y-70.612
X54.102Y-75.692
X54.102Y-78.232
X54.102Y-80.772
X54.102Y-83.312
X54.102Y-85.852
X54.102Y-88.392
X54.102Y-90.932
X54.102Y-93.472
X76.962Y-55.245
X76.962Y-57.785
X79.502Y-55.245
X79.502Y-57.785
X82.042Y-55.245
X82.042Y-57.785
X102.362Y-57.912
X102.362Y-60.452
X102.362Y-62.992
X102.362Y-65.532
X102.362Y-68.072
X102.362Y-70.612
X102.362Y-73.152
X102.362Y-75.692
X102.362Y-79.756
X102.362Y-82.296
X102.362Y-84.836
X102.362Y-87.376
X102.362Y-89.916
X102.362Y-92.456
X102.362Y-94.996
X102.362Y-97.536
X102.362Y-100.076
X102.362Y-102.616
X167.513Y-26.035
X167.513Y-28.575
X167.513Y-31.115
X167.513Y-33.655
X167.513Y-36.195
X167.513Y-38.735
X167.513Y-41.275
X167.513Y-43.815
X167.513Y-46.355
X167.513Y-48.895
X167.513Y-51.435
X167.513Y-53.975
X167.513Y-56.515
X167.513Y-59.055
X167.513Y-61.595
X167.513Y-64.135
X167.513Y-66.675
X167.513Y-69.215
X167.513Y-71.755
X167.513Y-74.295
X167.513Y-76.835
X167.513Y-79.375
X167.513Y-81.915
X167.513Y-84.455
X167.513Y-86.995
X170.053Y-26.035
X170.053Y-28.575
X170.053Y-31.115
X170.053Y-33.655
X170.053Y-36.195
X170.053Y-38.735
X170.053Y-41.275
X170.053Y-43.815
X170.053Y-46.355
X170.053Y-48.895
X170.053Y-51.435
X170.053Y-53.975
X170.053Y-56.515
X170.053Y-59.055
X170.053Y-61.595
X170.053Y-64.135
X170.053Y-66.675
X170.053Y-69.215
X170.053Y-71.755
X170.053Y-74.295
X170.053Y-76.835
X170.053Y-79.375
X170.053Y-81.915
X170.053Y-84.455
X170.053Y-86.995
X207.518Y-26.035
X207.518Y-28.575
X207.518Y-31.115
X207.518Y-33.655
X207.518Y-36.195
X207.518Y-38.735
X207.518Y-41.275
X207.518Y-43.815
X207.518Y-46.355
X207.518Y-48.895
X207.518Y-51.435
X207.518Y-53.975
X207.518Y-56.515
X207.518Y-59.055
X207.518Y-61.595
X207.518Y-64.135
X207.518Y-66.675
X207.518Y-69.215
X207.518Y-71.755
X207.518Y-74.295
X207.518Y-76.835
X207.518Y-79.375
X207.518Y-81.915
X207.518Y-84.455
X207.518Y-86.995
X210.058Y-26.035
X210.058Y-28.575
X210.058Y-31.115
X210.058Y-33.655
X210.058Y-36.195
X210.058Y-38.735
X210.058Y-41.275
X210.058Y-43.815
X210.058Y-46.355
X210.058Y-48.895
X210.058Y-51.435
X210.058Y-53.975
X210.058Y-56.515
X210.058Y-59.055
X210.058Y-61.595
X210.058Y-64.135
X210.058Y-66.675
X210.058Y-69.215
X210.058Y-71.755
X210.058Y-74.295
X210.058Y-76.835
X210.058Y-79.375
X210.058Y-81.915
X210.058Y-84.455
X210.058Y-86.995
X247.51Y-26.035
X247.51Y-28.575
X247.51Y-31.115
X247.51Y-33.655
X247.51Y-36.195
X247.51Y-38.735
X247.51Y-41.275
X247.51Y-43.815
X247.51Y-46.355
X247.51Y-48.895
X247.51Y-51.435
X247.51Y-53.975
X247.51Y-56.515
X247.51Y-59.055
X247.51Y-61.595
X247.51Y-64.135
X247.51Y-66.675
X247.51Y-69.215
X247.51Y-71.755
X247.51Y-74.295
X247.51Y-76.835
X247.51Y-79.375
X247.51Y-81.915
X247.51Y-84.455
X247.51Y-86.995
X250.05Y-26.035
X250.05Y-28.575
X250.05Y-31.115
X250.05Y-33.655
X250.05Y-36.195
X250.05Y-38.735
X250.05Y-41.275
X250.05Y-43.815
X250.05Y-46.355
X250.05Y-48.895
X250.05Y-51.435
X250.05Y-53.975
X250.05Y-56.515
X250.05Y-59.055
X250.05Y-61.595
X250.05Y-64.135
X250.05Y-66.675
X250.05Y-69.215
X250.05Y-71.755
X250.05Y-74.295
X250.05Y-76.835
X250.05Y-79.375
X250.05Y-81.915
X250.05Y-84.455
X250.05Y-86.995
X287.515Y-26.035
X287.515Y-28.575
X287.515Y-31.115
X287.515Y-33.655
X287.515Y-36.195
X287.515Y-38.735
X287.515Y-41.275
X287.515Y-43.815
X287.515Y-46.355
X287.515Y-48.895
X287.515Y-51.435
X287.515Y-53.975
X287.515Y-56.515
X287.515Y-59.055
X287.515Y-61.595
X287.515Y-64.135
X287.515Y-66.675
X287.515Y-69.215
X287.515Y-71.755
X287.515Y-74.295
X287.515Y-76.835
X287.515Y-79.375
X287.515Y-81.915
X287.515Y-84.455
X287.515Y-86.995
X290.055Y-26.035
X290.055Y-28.575
X290.055Y-31.115
X290.055Y-33.655
X290.055Y-36.195
X290.055Y-38.735
X290.055Y-41.275
X290.055Y-43.815
X290.055Y-46.355
X290.055Y-48.895
X290.055Y-51.435
X290.055Y-53.975
X290.055Y-56.515
X290.055Y-59.055
X290.055Y-61.595
X290.055Y-64.135
X290.055Y-66.675
X290.055Y-69.215
X290.055Y-71.755
X290.055Y-74.295
X290.055Y-76.835
X290.055Y-79.375
X290.055Y-81.915
X290.055Y-84.455
X290.055Y-86.995
T11
X68.834Y-65.553
X68.834Y-68.093
X68.834Y-70.633
X68.834Y-73.173
X68.834Y-75.713
X68.834Y-78.253
X68.834Y-80.793
X68.834Y-83.333
X68.834Y-85.873
X68.834Y-88.413
X68.834Y-90.953
X68.834Y-93.493
X68.834Y-96.033
X68.834Y-98.573
X68.834Y-101.113
X94.234Y-65.553
X94.234Y-68.093
X94.234Y-70.633
X94.234Y-73.173
X94.234Y-75.713
X94.234Y-78.253
X94.234Y-80.793
X94.234Y-83.333
X94.234Y-85.873
X94.234Y-88.413
X94.234Y-90.953
X94.234Y-93.493
X94.234Y-96.033
X94.234Y-98.573
X94.234Y-101.113
T12
X42.164Y-84.328
X42.164Y-89.408
T0
M30
