M48
;GenerationSoftware,Autodesk,EAGLE,9.1.3*%
;CreationDate,2018-09-01T21:49:16Z*%
FMAT,2
ICI,OFF
METRIC,TZ,000.000
T11C0.305
T10C0.350
T9C0.508
T8C0.550
T7C0.800
T6C0.965
T5C1.000
T4C1.016
T3C2.000
T2C3.000
T1C4.000
%
G90
M71
T1
X41910Y60960
X96520Y76835
X3175Y76835
X3175Y3175
X96520Y3175
T2
X4660Y14070
X10560Y14070
X7560Y9370
T3
X44831Y3810
X58039Y3810
T4
X80645Y4445
X78105Y4445
X75565Y6985
X73025Y6985
X70485Y6985
X67945Y6985
X65405Y6985
X90805Y6985
X75565Y4445
X73025Y4445
X70485Y4445
X67945Y4445
X65405Y4445
X62865Y4445
X83185Y4445
X85725Y4445
X88265Y4445
X90805Y4445
X78105Y6985
X80645Y6985
X83185Y6985
X85725Y6985
X88265Y6985
X62865Y6985
T5
X76518Y76200
X76518Y73660
X73978Y76200
X73978Y73660
X71438Y76200
X71438Y73660
X68898Y76200
X68898Y73660
X66358Y76200
X66358Y73660
X63817Y76200
X63817Y73660
X61277Y76200
X61277Y73660
X58737Y76200
X58737Y73660
X56197Y76200
X56197Y73660
X53657Y76200
X53657Y73660
X51117Y76200
X51117Y73660
X48577Y76200
X48577Y73660
X46037Y76200
X46037Y73660
X43498Y76200
X43498Y73660
X40958Y76200
X40958Y73660
X38418Y76200
X38418Y73660
X35878Y76200
X35878Y73660
X33338Y76200
X33338Y73660
X30797Y76200
X30797Y73660
X28257Y76200
X28257Y73660
X25717Y76200
X25717Y73660
X23177Y76200
X23177Y73660
X20638Y76200
X20638Y73660
X18098Y76200
X18098Y73660
X15557Y76200
X15557Y73660
X13017Y76200
X13017Y73660
X10478Y76200
X10478Y73660
X36195Y59690
X36195Y62230
X33655Y59690
X33655Y62230
X31115Y59690
X31115Y62230
X28575Y59690
X28575Y62230
X26035Y59690
X26035Y62230
X23495Y59690
X23495Y62230
X20955Y59690
X20955Y62230
X18415Y59690
X18415Y62230
X15875Y59690
X15875Y62230
X13335Y59690
X13335Y62230
X10795Y59690
X10795Y62230
X8255Y59690
X8255Y62230
X5715Y59690
X5715Y62230
X94615Y59690
X94615Y62230
X92075Y59690
X92075Y62230
X89535Y59690
X89535Y62230
X86995Y59690
X86995Y62230
X84455Y59690
X84455Y62230
X81915Y59690
X81915Y62230
X79375Y59690
X79375Y62230
X76835Y59690
X76835Y62230
X65405Y59690
X65405Y62230
X62865Y59690
X62865Y62230
X60325Y59690
X60325Y62230
X57785Y59690
X57785Y62230
X55245Y59690
X55245Y62230
X52705Y59690
X52705Y62230
X50165Y59690
X50165Y62230
X47625Y59690
X47625Y62230
X89217Y76200
X89217Y73660
X79058Y73660
X79058Y76200
X81598Y73660
X81598Y76200
X84138Y73660
X86678Y76200
X86678Y73660
X84138Y76200
T6
X91440Y13970
X88900Y13970
X86360Y13970
X83820Y13970
X81280Y13970
X78740Y13970
X76200Y13970
X73660Y13970
X71120Y13970
X68580Y13970
X66040Y13970
X63500Y13970
X63500Y16510
X63500Y19050
X63500Y21590
X63500Y24130
X63500Y26670
X63500Y29210
X66040Y29210
X68580Y29210
X71120Y29210
X73660Y29210
X76200Y29210
X78740Y29210
X81280Y29210
X83820Y29210
X86360Y29210
X88900Y29210
X91440Y29210
X93980Y29210
X96520Y29210
X93980Y13970
X96520Y13970
T7
X51435Y3810
X17780Y16510
X17780Y21590
T8
X59690Y11430
X3175Y31750
X24447Y27622
X92710Y24130
X59690Y24130
X13970Y32385
X25400Y32385
X36830Y32385
X48260Y32385
X59690Y32385
X71120Y32385
X82550Y32385
X93980Y32385
T9
X6985Y40005
X18415Y40005
X29845Y40005
X41275Y40005
X52705Y40005
X64135Y40005
X76200Y40005
X12700Y41275
X24130Y41275
X35560Y41275
X46990Y41275
X58420Y41275
X69850Y41275
X81280Y41275
X92710Y41275
X66040Y26670
X71120Y26670
X76200Y26670
X81280Y26670
X86360Y26670
X91440Y26670
X96520Y26670
X66040Y16510
X71120Y16510
X76200Y16510
X81280Y16510
X86360Y16510
X96520Y16510
X66040Y21590
X71120Y21590
X76200Y21590
X81280Y21590
X86360Y21590
X96520Y21590
X91440Y21590
X91440Y16510
X24765Y13335
X29845Y13335
X34925Y13335
X40005Y13335
X40005Y8255
X40005Y3175
X9525Y3175
X14605Y3175
X19685Y3175
X24765Y3175
X29845Y3175
X34925Y3175
X24765Y8255
X29845Y8255
X34925Y8255
X45085Y24765
X50165Y24765
X55245Y24765
X50165Y29845
X55245Y29845
X45085Y29845
T10
X76200Y36830
X84138Y37465
X84166Y35560
X76200Y35560
X69850Y36830
X64770Y36830
X72708Y37465
X72736Y35560
X64770Y35560
X58420Y36830
X53340Y36830
X61277Y37465
X61306Y35560
X53340Y35560
X46990Y36830
X41910Y36830
X49847Y37465
X49876Y35560
X41910Y35560
X35560Y36830
X30480Y36830
X38418Y37465
X38446Y35560
X30480Y35560
X24130Y36830
X19050Y36830
X26987Y37465
X26987Y35560
X19050Y35560
X92710Y36830
X92710Y34925
X92710Y27940
X15557Y37465
X15557Y33683
X63500Y33655
X85408Y37465
X57785Y26670
X85408Y34290
X73978Y37465
X87630Y36830
X95567Y37465
X95567Y35560
X87630Y35560
X81280Y36830
X73978Y34290
X62547Y34290
X51117Y34290
X39688Y34290
X28257Y34290
X16828Y34290
X5398Y35878
X5398Y38418
X62547Y37465
X51117Y37465
X39688Y37465
X28257Y37465
X16828Y37465
X84773Y38100
X84773Y34925
X73343Y38100
X73343Y34925
X50165Y20320
X59690Y20320
X61912Y34925
X50482Y34925
X39053Y34925
X27622Y34925
X16192Y34925
X61912Y38100
X50482Y38100
X39053Y38100
X27622Y38100
X16192Y38100
X73343Y33655
X68580Y33655
T11
X67945Y56515
X71438Y43498
X69850Y58420
X72390Y60960
X70993Y48577
X73104Y58499
X65405Y57150
X63500Y48577
X63627Y42863
X70993Y42863
X77470Y53340
X74613Y43498
X80010Y53340
X82391Y44132
X89535Y57785
X82868Y47942
X79375Y54610
X82868Y43498
X87630Y58420
X82391Y48577
X86995Y57785
X74930Y48577
X78105Y54610
X75044Y42863
X78740Y53975
X82391Y42863
X74295Y57143
X71438Y47942
X69215Y57150
X73665Y57819
X70993Y44132
X68580Y55245
X75565Y55880
X63182Y43498
X66040Y55880
X74930Y56515
X59576Y42863
X52184Y42863
X52070Y48577
X88900Y53975
X86043Y43498
X93980Y54610
X86474Y45402
X75070Y45402
X63627Y45402
X52197Y45402
X40754Y45402
X29324Y45402
X17894Y45402
X6350Y45402
X93821Y44132
X94615Y47942
X95212Y53340
X90805Y53340
X94297Y43498
X93980Y48577
X88265Y54610
X86360Y48577
X92075Y54610
X89535Y55245
X86474Y42863
X90805Y55245
X93821Y42863
X94297Y46037
X82868Y44767
X53975Y56515
X86043Y44767
X74613Y44767
X63182Y44767
X51752Y44767
X40323Y44767
X28892Y44767
X17463Y44767
X5874Y44767
X59576Y48577
X86519Y44132
X86360Y47307
X14287Y46037
X75070Y44132
X74930Y47307
X63627Y44132
X94297Y44767
X63500Y47307
X52197Y44132
X52070Y47307
X40767Y44132
X25717Y46037
X14287Y44767
X40640Y47307
X29210Y47307
X29324Y44132
X17894Y44132
X17780Y47307
X37148Y46037
X25717Y44767
X6350Y44132
X6350Y47307
X60007Y43498
X56515Y55245
X60007Y47942
X48577Y46037
X37148Y44767
X57785Y55880
X59576Y44132
X57150Y54610
X51752Y43498
X59690Y53975
X60007Y46037
X48577Y44767
X54610Y53975
X48146Y42863
X93821Y45402
X93821Y46672
X82410Y45402
X71438Y46037
X60007Y44767
X82391Y46672
X70980Y45402
X71006Y46672
X59563Y46672
X59576Y45402
X82868Y46037
X71419Y44767
X48146Y46672
X48146Y45402
X36716Y45402
X40767Y42863
X25286Y45402
X25273Y46672
X13811Y45402
X13811Y46672
X8890Y54610
X5874Y43498
X13811Y44132
X12065Y56515
X14287Y47917
X14287Y43498
X12700Y55245
X13903Y48577
X7620Y54610
X6350Y48577
X6370Y42821
X13881Y42850
X20320Y54610
X17463Y43498
X25286Y44132
X23495Y55880
X25717Y47942
X25717Y43498
X24130Y53975
X25286Y48577
X17780Y55880
X17780Y48577
X17894Y42863
X25273Y42863
X31750Y54610
X28892Y43498
X36716Y44132
X34925Y55880
X37148Y47942
X37148Y43498
X35560Y53975
X36716Y48577
X29845Y55245
X29210Y48577
X29324Y42863
X36716Y42863
X43180Y53975
X49530Y53975
X40323Y43498
X45720Y54610
X48133Y44132
X46355Y55880
X48577Y47942
X45085Y55245
X48577Y43498
X48146Y48577
X42545Y56515
X40640Y48577
X36716Y46672
M30