G04 EAGLE Gerber RS-274X export*
G75*
%MOMM*%
%FSLAX34Y34*%
%LPD*%
%AMOC8*
5,1,8,0,0,1.08239X$1,22.5*%
G01*
%ADD10R,1.143000X0.381000*%
%ADD11R,2.844800X5.638800*%
%ADD12R,1.300000X1.500000*%
%ADD13R,2.400000X2.400000*%
%ADD14R,5.800000X6.200000*%
%ADD15R,1.600000X3.000000*%
%ADD16R,1.500000X1.300000*%
%ADD17R,3.000000X2.500000*%


D10*
X813562Y492125D03*
X813562Y485775D03*
X813562Y479425D03*
X813562Y473075D03*
X813562Y466725D03*
X813562Y460375D03*
X813562Y454025D03*
X813562Y447675D03*
X813562Y441325D03*
X813562Y434975D03*
X813562Y428625D03*
X813562Y422275D03*
X761238Y492125D03*
X761238Y485775D03*
X761238Y479425D03*
X761238Y473075D03*
X761238Y466725D03*
X761238Y460375D03*
X761238Y454025D03*
X761238Y447675D03*
X761238Y441325D03*
X761238Y434975D03*
X761238Y428625D03*
X761238Y422275D03*
D11*
X787400Y457200D03*
D10*
X699262Y492125D03*
X699262Y485775D03*
X699262Y479425D03*
X699262Y473075D03*
X699262Y466725D03*
X699262Y460375D03*
X699262Y454025D03*
X699262Y447675D03*
X699262Y441325D03*
X699262Y434975D03*
X699262Y428625D03*
X699262Y422275D03*
X646938Y492125D03*
X646938Y485775D03*
X646938Y479425D03*
X646938Y473075D03*
X646938Y466725D03*
X646938Y460375D03*
X646938Y454025D03*
X646938Y447675D03*
X646938Y441325D03*
X646938Y434975D03*
X646938Y428625D03*
X646938Y422275D03*
D11*
X673100Y457200D03*
D10*
X584962Y492125D03*
X584962Y485775D03*
X584962Y479425D03*
X584962Y473075D03*
X584962Y466725D03*
X584962Y460375D03*
X584962Y454025D03*
X584962Y447675D03*
X584962Y441325D03*
X584962Y434975D03*
X584962Y428625D03*
X584962Y422275D03*
X532638Y492125D03*
X532638Y485775D03*
X532638Y479425D03*
X532638Y473075D03*
X532638Y466725D03*
X532638Y460375D03*
X532638Y454025D03*
X532638Y447675D03*
X532638Y441325D03*
X532638Y434975D03*
X532638Y428625D03*
X532638Y422275D03*
D11*
X558800Y457200D03*
D10*
X470662Y492125D03*
X470662Y485775D03*
X470662Y479425D03*
X470662Y473075D03*
X470662Y466725D03*
X470662Y460375D03*
X470662Y454025D03*
X470662Y447675D03*
X470662Y441325D03*
X470662Y434975D03*
X470662Y428625D03*
X470662Y422275D03*
X418338Y492125D03*
X418338Y485775D03*
X418338Y479425D03*
X418338Y473075D03*
X418338Y466725D03*
X418338Y460375D03*
X418338Y454025D03*
X418338Y447675D03*
X418338Y441325D03*
X418338Y434975D03*
X418338Y428625D03*
X418338Y422275D03*
D11*
X444500Y457200D03*
D10*
X356362Y492125D03*
X356362Y485775D03*
X356362Y479425D03*
X356362Y473075D03*
X356362Y466725D03*
X356362Y460375D03*
X356362Y454025D03*
X356362Y447675D03*
X356362Y441325D03*
X356362Y434975D03*
X356362Y428625D03*
X356362Y422275D03*
X304038Y492125D03*
X304038Y485775D03*
X304038Y479425D03*
X304038Y473075D03*
X304038Y466725D03*
X304038Y460375D03*
X304038Y454025D03*
X304038Y447675D03*
X304038Y441325D03*
X304038Y434975D03*
X304038Y428625D03*
X304038Y422275D03*
D11*
X330200Y457200D03*
D10*
X242062Y492125D03*
X242062Y485775D03*
X242062Y479425D03*
X242062Y473075D03*
X242062Y466725D03*
X242062Y460375D03*
X242062Y454025D03*
X242062Y447675D03*
X242062Y441325D03*
X242062Y434975D03*
X242062Y428625D03*
X242062Y422275D03*
X189738Y492125D03*
X189738Y485775D03*
X189738Y479425D03*
X189738Y473075D03*
X189738Y466725D03*
X189738Y460375D03*
X189738Y454025D03*
X189738Y447675D03*
X189738Y441325D03*
X189738Y434975D03*
X189738Y428625D03*
X189738Y422275D03*
D11*
X215900Y457200D03*
D10*
X127762Y492125D03*
X127762Y485775D03*
X127762Y479425D03*
X127762Y473075D03*
X127762Y466725D03*
X127762Y460375D03*
X127762Y454025D03*
X127762Y447675D03*
X127762Y441325D03*
X127762Y434975D03*
X127762Y428625D03*
X127762Y422275D03*
X75438Y492125D03*
X75438Y485775D03*
X75438Y479425D03*
X75438Y473075D03*
X75438Y466725D03*
X75438Y460375D03*
X75438Y454025D03*
X75438Y447675D03*
X75438Y441325D03*
X75438Y434975D03*
X75438Y428625D03*
X75438Y422275D03*
D11*
X101600Y457200D03*
D10*
X927862Y492125D03*
X927862Y485775D03*
X927862Y479425D03*
X927862Y473075D03*
X927862Y466725D03*
X927862Y460375D03*
X927862Y454025D03*
X927862Y447675D03*
X927862Y441325D03*
X927862Y434975D03*
X927862Y428625D03*
X927862Y422275D03*
X875538Y492125D03*
X875538Y485775D03*
X875538Y479425D03*
X875538Y473075D03*
X875538Y466725D03*
X875538Y460375D03*
X875538Y454025D03*
X875538Y447675D03*
X875538Y441325D03*
X875538Y434975D03*
X875538Y428625D03*
X875538Y422275D03*
D11*
X901700Y457200D03*
D12*
X796900Y368300D03*
X777900Y368300D03*
X682600Y368300D03*
X663600Y368300D03*
X568300Y368300D03*
X549300Y368300D03*
X454000Y368300D03*
X435000Y368300D03*
X339700Y368300D03*
X320700Y368300D03*
X225400Y368300D03*
X206400Y368300D03*
X911200Y368300D03*
X892200Y368300D03*
X111100Y393700D03*
X92100Y393700D03*
X225400Y393700D03*
X206400Y393700D03*
X339700Y393700D03*
X320700Y393700D03*
X454000Y393700D03*
X435000Y393700D03*
X568300Y393700D03*
X549300Y393700D03*
X682600Y393700D03*
X663600Y393700D03*
X796900Y393700D03*
X777900Y393700D03*
X911200Y393700D03*
X892200Y393700D03*
D13*
X79600Y215900D03*
X123600Y215900D03*
X479200Y203200D03*
X435200Y203200D03*
D14*
X330200Y204800D03*
D15*
X353000Y276600D03*
X307400Y276600D03*
D16*
X393700Y238100D03*
X393700Y219100D03*
X393700Y288900D03*
X393700Y269900D03*
X266700Y276200D03*
X266700Y257200D03*
X393700Y187300D03*
X393700Y168300D03*
D17*
X66600Y292100D03*
X136600Y292100D03*
M02*
