G04 EAGLE Gerber RS-274X export*
G75*
%MOMM*%
%FSLAX34Y34*%
%LPD*%
%AMOC8*
5,1,8,0,0,1.08239X$1,22.5*%
G01*
%ADD10C,4.101600*%
%ADD11C,1.574800*%
%ADD12R,4.064000X4.064000*%
%ADD13C,3.276600*%
%ADD14C,4.901600*%
%ADD15C,1.409600*%
%ADD16C,1.609600*%
%ADD17P,1.759533X8X22.500000*%


D10*
X965200Y31750D03*
X31750Y31750D03*
X31750Y768350D03*
X965200Y768350D03*
X419100Y609600D03*
D11*
X965200Y292100D03*
X939800Y292100D03*
X914400Y292100D03*
X889000Y292100D03*
X863600Y292100D03*
X838200Y292100D03*
X812800Y292100D03*
X787400Y292100D03*
X762000Y292100D03*
X736600Y292100D03*
X711200Y292100D03*
X685800Y292100D03*
X660400Y292100D03*
X635000Y292100D03*
X635000Y266700D03*
X635000Y241300D03*
X635000Y215900D03*
X635000Y190500D03*
X635000Y165100D03*
X635000Y139700D03*
X660400Y139700D03*
X685800Y139700D03*
X711200Y139700D03*
X736600Y139700D03*
X762000Y139700D03*
X787400Y139700D03*
X812800Y139700D03*
X838200Y139700D03*
X863600Y139700D03*
X889000Y139700D03*
X914400Y139700D03*
X939800Y139700D03*
X965200Y139700D03*
D12*
X514350Y38100D03*
D13*
X580390Y38100D03*
X448310Y38100D03*
D14*
X75600Y93700D03*
X105600Y140700D03*
X46600Y140700D03*
D15*
X177800Y165100D03*
X177800Y215900D03*
D16*
X476250Y622300D03*
X476250Y596900D03*
X501650Y622300D03*
X501650Y596900D03*
X527050Y622300D03*
X527050Y596900D03*
X552450Y622300D03*
X552450Y596900D03*
X577850Y622300D03*
X577850Y596900D03*
X603250Y622300D03*
X603250Y596900D03*
X628650Y622300D03*
X628650Y596900D03*
X654050Y622300D03*
X654050Y596900D03*
X768350Y622300D03*
X768350Y596900D03*
X793750Y622300D03*
X793750Y596900D03*
X819150Y622300D03*
X819150Y596900D03*
X844550Y622300D03*
X844550Y596900D03*
X869950Y622300D03*
X869950Y596900D03*
X895350Y622300D03*
X895350Y596900D03*
X920750Y622300D03*
X920750Y596900D03*
X946150Y622300D03*
X946150Y596900D03*
X57150Y622300D03*
X57150Y596900D03*
X82550Y622300D03*
X82550Y596900D03*
X107950Y622300D03*
X107950Y596900D03*
X133350Y622300D03*
X133350Y596900D03*
X158750Y622300D03*
X158750Y596900D03*
X184150Y622300D03*
X184150Y596900D03*
X209550Y622300D03*
X209550Y596900D03*
X234950Y622300D03*
X234950Y596900D03*
X260350Y622300D03*
X260350Y596900D03*
X285750Y622300D03*
X285750Y596900D03*
X311150Y622300D03*
X311150Y596900D03*
X336550Y622300D03*
X336550Y596900D03*
X361950Y622300D03*
X361950Y596900D03*
X104775Y736600D03*
X104775Y762000D03*
X130175Y736600D03*
X130175Y762000D03*
X155575Y736600D03*
X155575Y762000D03*
X180975Y736600D03*
X180975Y762000D03*
X206375Y736600D03*
X206375Y762000D03*
X231775Y736600D03*
X231775Y762000D03*
X257175Y736600D03*
X257175Y762000D03*
X282575Y736600D03*
X282575Y762000D03*
X307975Y736600D03*
X307975Y762000D03*
X333375Y736600D03*
X333375Y762000D03*
X358775Y736600D03*
X358775Y762000D03*
X384175Y736600D03*
X384175Y762000D03*
X409575Y736600D03*
X409575Y762000D03*
X434975Y736600D03*
X434975Y762000D03*
X460375Y736600D03*
X460375Y762000D03*
X485775Y736600D03*
X485775Y762000D03*
X511175Y736600D03*
X511175Y762000D03*
X536575Y736600D03*
X536575Y762000D03*
X561975Y736600D03*
X561975Y762000D03*
X587375Y736600D03*
X587375Y762000D03*
X612775Y736600D03*
X612775Y762000D03*
X638175Y736600D03*
X638175Y762000D03*
X663575Y736600D03*
X663575Y762000D03*
X688975Y736600D03*
X688975Y762000D03*
X714375Y736600D03*
X714375Y762000D03*
X739775Y736600D03*
X739775Y762000D03*
X765175Y736600D03*
X765175Y762000D03*
X790575Y736600D03*
X790575Y762000D03*
X815975Y736600D03*
X815975Y762000D03*
X841375Y736600D03*
X841375Y762000D03*
X866775Y736600D03*
X866775Y762000D03*
X892175Y736600D03*
X892175Y762000D03*
D17*
X628650Y44450D03*
X654050Y44450D03*
X679450Y44450D03*
X704850Y44450D03*
X730250Y44450D03*
X755650Y44450D03*
X628650Y69850D03*
X654050Y69850D03*
X679450Y69850D03*
X704850Y69850D03*
X730250Y69850D03*
X755650Y69850D03*
X781050Y44450D03*
X806450Y44450D03*
X831850Y44450D03*
X857250Y44450D03*
X882650Y44450D03*
X908050Y44450D03*
X781050Y69850D03*
X806450Y69850D03*
X831850Y69850D03*
X857250Y69850D03*
X882650Y69850D03*
X908050Y69850D03*
M02*
