G04 EAGLE Gerber RS-274X export*
G75*
%MOMM*%
%FSLAX34Y34*%
%LPD*%
%AMOC8*
5,1,8,0,0,1.08239X$1,22.5*%
G01*
%ADD10C,4.101600*%
%ADD11R,1.244600X0.482600*%
%ADD12R,2.946400X5.740400*%
%ADD13C,1.574800*%
%ADD14R,4.064000X4.064000*%
%ADD15C,3.276600*%
%ADD16C,4.901600*%
%ADD17C,1.409600*%
%ADD18R,1.401600X1.601600*%
%ADD19C,1.609600*%
%ADD20R,2.501600X2.501600*%
%ADD21R,5.901600X6.301600*%
%ADD22R,1.701600X3.101600*%
%ADD23R,1.601600X1.401600*%
%ADD24R,3.101600X2.601600*%
%ADD25P,1.759533X8X22.500000*%

G36*
X966992Y700720D02*
X966992Y700720D01*
X967035Y700732D01*
X967101Y700739D01*
X968784Y701190D01*
X968825Y701209D01*
X968888Y701228D01*
X970468Y701965D01*
X970505Y701991D01*
X970564Y702020D01*
X971992Y703020D01*
X972023Y703052D01*
X972076Y703091D01*
X973309Y704324D01*
X973334Y704360D01*
X973380Y704408D01*
X974380Y705836D01*
X974398Y705877D01*
X974435Y705932D01*
X975172Y707512D01*
X975183Y707555D01*
X975210Y707616D01*
X975661Y709299D01*
X975663Y709331D01*
X975670Y709352D01*
X975670Y709367D01*
X975680Y709408D01*
X975832Y711145D01*
X975828Y711189D01*
X975832Y711255D01*
X975680Y712992D01*
X975668Y713035D01*
X975661Y713101D01*
X975210Y714784D01*
X975191Y714825D01*
X975172Y714888D01*
X974435Y716468D01*
X974409Y716505D01*
X974380Y716564D01*
X973380Y717992D01*
X973348Y718023D01*
X973309Y718076D01*
X972076Y719309D01*
X972040Y719334D01*
X971992Y719380D01*
X970564Y720380D01*
X970523Y720398D01*
X970468Y720435D01*
X968888Y721172D01*
X968845Y721183D01*
X968784Y721210D01*
X967101Y721661D01*
X967056Y721664D01*
X966992Y721680D01*
X965255Y721832D01*
X965211Y721828D01*
X965145Y721832D01*
X963408Y721680D01*
X963365Y721668D01*
X963299Y721661D01*
X961616Y721210D01*
X961575Y721191D01*
X961512Y721172D01*
X959932Y720435D01*
X959895Y720409D01*
X959836Y720380D01*
X958408Y719380D01*
X958377Y719348D01*
X958324Y719309D01*
X957091Y718076D01*
X957066Y718040D01*
X957020Y717992D01*
X956020Y716564D01*
X956002Y716523D01*
X955965Y716468D01*
X955228Y714888D01*
X955217Y714845D01*
X955190Y714784D01*
X954739Y713101D01*
X954736Y713056D01*
X954720Y712992D01*
X954568Y711255D01*
X954572Y711211D01*
X954568Y711145D01*
X954720Y709408D01*
X954732Y709365D01*
X954736Y709331D01*
X954736Y709315D01*
X954738Y709310D01*
X954739Y709299D01*
X955190Y707616D01*
X955209Y707575D01*
X955228Y707512D01*
X955965Y705932D01*
X955991Y705895D01*
X956020Y705836D01*
X957020Y704408D01*
X957052Y704377D01*
X957091Y704324D01*
X958324Y703091D01*
X958360Y703066D01*
X958408Y703020D01*
X959836Y702020D01*
X959877Y702002D01*
X959932Y701965D01*
X961512Y701228D01*
X961555Y701217D01*
X961616Y701190D01*
X963299Y700739D01*
X963344Y700736D01*
X963408Y700720D01*
X965145Y700568D01*
X965189Y700572D01*
X965255Y700568D01*
X966992Y700720D01*
G37*
G36*
X33542Y700720D02*
X33542Y700720D01*
X33585Y700732D01*
X33651Y700739D01*
X35334Y701190D01*
X35375Y701209D01*
X35438Y701228D01*
X37018Y701965D01*
X37055Y701991D01*
X37114Y702020D01*
X38542Y703020D01*
X38573Y703052D01*
X38626Y703091D01*
X39859Y704324D01*
X39884Y704360D01*
X39930Y704408D01*
X40930Y705836D01*
X40948Y705877D01*
X40985Y705932D01*
X41722Y707512D01*
X41733Y707555D01*
X41760Y707616D01*
X42211Y709299D01*
X42213Y709331D01*
X42220Y709352D01*
X42220Y709367D01*
X42230Y709408D01*
X42382Y711145D01*
X42378Y711189D01*
X42382Y711255D01*
X42230Y712992D01*
X42218Y713035D01*
X42211Y713101D01*
X41760Y714784D01*
X41741Y714825D01*
X41722Y714888D01*
X40985Y716468D01*
X40959Y716505D01*
X40930Y716564D01*
X39930Y717992D01*
X39898Y718023D01*
X39859Y718076D01*
X38626Y719309D01*
X38590Y719334D01*
X38542Y719380D01*
X37114Y720380D01*
X37073Y720398D01*
X37018Y720435D01*
X35438Y721172D01*
X35395Y721183D01*
X35334Y721210D01*
X33651Y721661D01*
X33606Y721664D01*
X33542Y721680D01*
X31805Y721832D01*
X31761Y721828D01*
X31695Y721832D01*
X29958Y721680D01*
X29915Y721668D01*
X29849Y721661D01*
X28166Y721210D01*
X28125Y721191D01*
X28062Y721172D01*
X26482Y720435D01*
X26445Y720409D01*
X26386Y720380D01*
X24958Y719380D01*
X24927Y719348D01*
X24874Y719309D01*
X23641Y718076D01*
X23616Y718040D01*
X23570Y717992D01*
X22570Y716564D01*
X22552Y716523D01*
X22515Y716468D01*
X21778Y714888D01*
X21767Y714845D01*
X21740Y714784D01*
X21289Y713101D01*
X21286Y713056D01*
X21270Y712992D01*
X21118Y711255D01*
X21122Y711211D01*
X21118Y711145D01*
X21270Y709408D01*
X21282Y709365D01*
X21286Y709331D01*
X21286Y709315D01*
X21288Y709310D01*
X21289Y709299D01*
X21740Y707616D01*
X21759Y707575D01*
X21778Y707512D01*
X22515Y705932D01*
X22541Y705895D01*
X22570Y705836D01*
X23570Y704408D01*
X23602Y704377D01*
X23641Y704324D01*
X24874Y703091D01*
X24910Y703066D01*
X24958Y703020D01*
X26386Y702020D01*
X26427Y702002D01*
X26482Y701965D01*
X28062Y701228D01*
X28105Y701217D01*
X28166Y701190D01*
X29849Y700739D01*
X29894Y700736D01*
X29958Y700720D01*
X31695Y700568D01*
X31739Y700572D01*
X31805Y700568D01*
X33542Y700720D01*
G37*
G36*
X966992Y75245D02*
X966992Y75245D01*
X967035Y75257D01*
X967101Y75264D01*
X968784Y75715D01*
X968825Y75734D01*
X968888Y75753D01*
X970468Y76490D01*
X970505Y76516D01*
X970564Y76545D01*
X971992Y77545D01*
X972023Y77577D01*
X972076Y77616D01*
X973309Y78849D01*
X973334Y78885D01*
X973380Y78933D01*
X974380Y80361D01*
X974398Y80402D01*
X974435Y80457D01*
X975172Y82037D01*
X975183Y82080D01*
X975210Y82141D01*
X975661Y83824D01*
X975663Y83856D01*
X975670Y83877D01*
X975670Y83892D01*
X975680Y83933D01*
X975832Y85670D01*
X975828Y85714D01*
X975832Y85780D01*
X975680Y87517D01*
X975668Y87560D01*
X975661Y87626D01*
X975210Y89309D01*
X975191Y89350D01*
X975172Y89413D01*
X974435Y90993D01*
X974409Y91030D01*
X974380Y91089D01*
X973380Y92517D01*
X973348Y92548D01*
X973309Y92601D01*
X972076Y93834D01*
X972040Y93859D01*
X971992Y93905D01*
X970564Y94905D01*
X970523Y94923D01*
X970468Y94960D01*
X968888Y95697D01*
X968845Y95708D01*
X968784Y95735D01*
X967101Y96186D01*
X967056Y96189D01*
X966992Y96205D01*
X965255Y96357D01*
X965211Y96353D01*
X965145Y96357D01*
X963408Y96205D01*
X963365Y96193D01*
X963299Y96186D01*
X961616Y95735D01*
X961575Y95716D01*
X961512Y95697D01*
X959932Y94960D01*
X959895Y94934D01*
X959836Y94905D01*
X958408Y93905D01*
X958377Y93873D01*
X958324Y93834D01*
X957091Y92601D01*
X957066Y92565D01*
X957020Y92517D01*
X956020Y91089D01*
X956002Y91048D01*
X955965Y90993D01*
X955228Y89413D01*
X955217Y89370D01*
X955190Y89309D01*
X954739Y87626D01*
X954736Y87581D01*
X954720Y87517D01*
X954568Y85780D01*
X954572Y85736D01*
X954568Y85670D01*
X954720Y83933D01*
X954732Y83890D01*
X954736Y83856D01*
X954736Y83840D01*
X954738Y83835D01*
X954739Y83824D01*
X955190Y82141D01*
X955209Y82100D01*
X955228Y82037D01*
X955965Y80457D01*
X955991Y80420D01*
X956020Y80361D01*
X957020Y78933D01*
X957052Y78902D01*
X957091Y78849D01*
X958324Y77616D01*
X958360Y77591D01*
X958408Y77545D01*
X959836Y76545D01*
X959877Y76527D01*
X959932Y76490D01*
X961512Y75753D01*
X961555Y75742D01*
X961616Y75715D01*
X963299Y75264D01*
X963344Y75261D01*
X963408Y75245D01*
X965145Y75093D01*
X965189Y75097D01*
X965255Y75093D01*
X966992Y75245D01*
G37*
D10*
X965200Y31750D03*
X31750Y31750D03*
X31750Y768350D03*
X965200Y768350D03*
X419100Y609600D03*
D11*
X813562Y492125D03*
X813562Y485775D03*
X813562Y479425D03*
X813562Y473075D03*
X813562Y466725D03*
X813562Y460375D03*
X813562Y454025D03*
X813562Y447675D03*
X813562Y441325D03*
X813562Y434975D03*
X813562Y428625D03*
X813562Y422275D03*
X761238Y492125D03*
X761238Y485775D03*
X761238Y479425D03*
X761238Y473075D03*
X761238Y466725D03*
X761238Y460375D03*
X761238Y454025D03*
X761238Y447675D03*
X761238Y441325D03*
X761238Y434975D03*
X761238Y428625D03*
X761238Y422275D03*
D12*
X787400Y457200D03*
D11*
X699262Y492125D03*
X699262Y485775D03*
X699262Y479425D03*
X699262Y473075D03*
X699262Y466725D03*
X699262Y460375D03*
X699262Y454025D03*
X699262Y447675D03*
X699262Y441325D03*
X699262Y434975D03*
X699262Y428625D03*
X699262Y422275D03*
X646938Y492125D03*
X646938Y485775D03*
X646938Y479425D03*
X646938Y473075D03*
X646938Y466725D03*
X646938Y460375D03*
X646938Y454025D03*
X646938Y447675D03*
X646938Y441325D03*
X646938Y434975D03*
X646938Y428625D03*
X646938Y422275D03*
D12*
X673100Y457200D03*
D11*
X584962Y492125D03*
X584962Y485775D03*
X584962Y479425D03*
X584962Y473075D03*
X584962Y466725D03*
X584962Y460375D03*
X584962Y454025D03*
X584962Y447675D03*
X584962Y441325D03*
X584962Y434975D03*
X584962Y428625D03*
X584962Y422275D03*
X532638Y492125D03*
X532638Y485775D03*
X532638Y479425D03*
X532638Y473075D03*
X532638Y466725D03*
X532638Y460375D03*
X532638Y454025D03*
X532638Y447675D03*
X532638Y441325D03*
X532638Y434975D03*
X532638Y428625D03*
X532638Y422275D03*
D12*
X558800Y457200D03*
D11*
X470662Y492125D03*
X470662Y485775D03*
X470662Y479425D03*
X470662Y473075D03*
X470662Y466725D03*
X470662Y460375D03*
X470662Y454025D03*
X470662Y447675D03*
X470662Y441325D03*
X470662Y434975D03*
X470662Y428625D03*
X470662Y422275D03*
X418338Y492125D03*
X418338Y485775D03*
X418338Y479425D03*
X418338Y473075D03*
X418338Y466725D03*
X418338Y460375D03*
X418338Y454025D03*
X418338Y447675D03*
X418338Y441325D03*
X418338Y434975D03*
X418338Y428625D03*
X418338Y422275D03*
D12*
X444500Y457200D03*
D11*
X356362Y492125D03*
X356362Y485775D03*
X356362Y479425D03*
X356362Y473075D03*
X356362Y466725D03*
X356362Y460375D03*
X356362Y454025D03*
X356362Y447675D03*
X356362Y441325D03*
X356362Y434975D03*
X356362Y428625D03*
X356362Y422275D03*
X304038Y492125D03*
X304038Y485775D03*
X304038Y479425D03*
X304038Y473075D03*
X304038Y466725D03*
X304038Y460375D03*
X304038Y454025D03*
X304038Y447675D03*
X304038Y441325D03*
X304038Y434975D03*
X304038Y428625D03*
X304038Y422275D03*
D12*
X330200Y457200D03*
D11*
X242062Y492125D03*
X242062Y485775D03*
X242062Y479425D03*
X242062Y473075D03*
X242062Y466725D03*
X242062Y460375D03*
X242062Y454025D03*
X242062Y447675D03*
X242062Y441325D03*
X242062Y434975D03*
X242062Y428625D03*
X242062Y422275D03*
X189738Y492125D03*
X189738Y485775D03*
X189738Y479425D03*
X189738Y473075D03*
X189738Y466725D03*
X189738Y460375D03*
X189738Y454025D03*
X189738Y447675D03*
X189738Y441325D03*
X189738Y434975D03*
X189738Y428625D03*
X189738Y422275D03*
D12*
X215900Y457200D03*
D11*
X127762Y492125D03*
X127762Y485775D03*
X127762Y479425D03*
X127762Y473075D03*
X127762Y466725D03*
X127762Y460375D03*
X127762Y454025D03*
X127762Y447675D03*
X127762Y441325D03*
X127762Y434975D03*
X127762Y428625D03*
X127762Y422275D03*
X75438Y492125D03*
X75438Y485775D03*
X75438Y479425D03*
X75438Y473075D03*
X75438Y466725D03*
X75438Y460375D03*
X75438Y454025D03*
X75438Y447675D03*
X75438Y441325D03*
X75438Y434975D03*
X75438Y428625D03*
X75438Y422275D03*
D12*
X101600Y457200D03*
D13*
X965200Y292100D03*
X939800Y292100D03*
X914400Y292100D03*
X889000Y292100D03*
X863600Y292100D03*
X838200Y292100D03*
X812800Y292100D03*
X787400Y292100D03*
X762000Y292100D03*
X736600Y292100D03*
X711200Y292100D03*
X685800Y292100D03*
X660400Y292100D03*
X635000Y292100D03*
X635000Y266700D03*
X635000Y241300D03*
X635000Y215900D03*
X635000Y190500D03*
X635000Y165100D03*
X635000Y139700D03*
X660400Y139700D03*
X685800Y139700D03*
X711200Y139700D03*
X736600Y139700D03*
X762000Y139700D03*
X787400Y139700D03*
X812800Y139700D03*
X838200Y139700D03*
X863600Y139700D03*
X889000Y139700D03*
X914400Y139700D03*
X939800Y139700D03*
X965200Y139700D03*
D14*
X514350Y38100D03*
D15*
X580390Y38100D03*
X448310Y38100D03*
D16*
X75600Y93700D03*
X105600Y140700D03*
X46600Y140700D03*
D17*
X177800Y165100D03*
X177800Y215900D03*
D11*
X927862Y492125D03*
X927862Y485775D03*
X927862Y479425D03*
X927862Y473075D03*
X927862Y466725D03*
X927862Y460375D03*
X927862Y454025D03*
X927862Y447675D03*
X927862Y441325D03*
X927862Y434975D03*
X927862Y428625D03*
X927862Y422275D03*
X875538Y492125D03*
X875538Y485775D03*
X875538Y479425D03*
X875538Y473075D03*
X875538Y466725D03*
X875538Y460375D03*
X875538Y454025D03*
X875538Y447675D03*
X875538Y441325D03*
X875538Y434975D03*
X875538Y428625D03*
X875538Y422275D03*
D12*
X901700Y457200D03*
D18*
X796900Y368300D03*
X777900Y368300D03*
X682600Y368300D03*
X663600Y368300D03*
X568300Y368300D03*
X549300Y368300D03*
X454000Y368300D03*
X435000Y368300D03*
X339700Y368300D03*
X320700Y368300D03*
X225400Y368300D03*
X206400Y368300D03*
X911200Y368300D03*
X892200Y368300D03*
D19*
X476250Y622300D03*
X476250Y596900D03*
X501650Y622300D03*
X501650Y596900D03*
X527050Y622300D03*
X527050Y596900D03*
X552450Y622300D03*
X552450Y596900D03*
X577850Y622300D03*
X577850Y596900D03*
X603250Y622300D03*
X603250Y596900D03*
X628650Y622300D03*
X628650Y596900D03*
X654050Y622300D03*
X654050Y596900D03*
X768350Y622300D03*
X768350Y596900D03*
X793750Y622300D03*
X793750Y596900D03*
X819150Y622300D03*
X819150Y596900D03*
X844550Y622300D03*
X844550Y596900D03*
X869950Y622300D03*
X869950Y596900D03*
X895350Y622300D03*
X895350Y596900D03*
X920750Y622300D03*
X920750Y596900D03*
X946150Y622300D03*
X946150Y596900D03*
X57150Y622300D03*
X57150Y596900D03*
X82550Y622300D03*
X82550Y596900D03*
X107950Y622300D03*
X107950Y596900D03*
X133350Y622300D03*
X133350Y596900D03*
X158750Y622300D03*
X158750Y596900D03*
X184150Y622300D03*
X184150Y596900D03*
X209550Y622300D03*
X209550Y596900D03*
X234950Y622300D03*
X234950Y596900D03*
X260350Y622300D03*
X260350Y596900D03*
X285750Y622300D03*
X285750Y596900D03*
X311150Y622300D03*
X311150Y596900D03*
X336550Y622300D03*
X336550Y596900D03*
X361950Y622300D03*
X361950Y596900D03*
X104775Y736600D03*
X104775Y762000D03*
X130175Y736600D03*
X130175Y762000D03*
X155575Y736600D03*
X155575Y762000D03*
X180975Y736600D03*
X180975Y762000D03*
X206375Y736600D03*
X206375Y762000D03*
X231775Y736600D03*
X231775Y762000D03*
X257175Y736600D03*
X257175Y762000D03*
X282575Y736600D03*
X282575Y762000D03*
X307975Y736600D03*
X307975Y762000D03*
X333375Y736600D03*
X333375Y762000D03*
X358775Y736600D03*
X358775Y762000D03*
X384175Y736600D03*
X384175Y762000D03*
X409575Y736600D03*
X409575Y762000D03*
X434975Y736600D03*
X434975Y762000D03*
X460375Y736600D03*
X460375Y762000D03*
X485775Y736600D03*
X485775Y762000D03*
X511175Y736600D03*
X511175Y762000D03*
X536575Y736600D03*
X536575Y762000D03*
X561975Y736600D03*
X561975Y762000D03*
X587375Y736600D03*
X587375Y762000D03*
X612775Y736600D03*
X612775Y762000D03*
X638175Y736600D03*
X638175Y762000D03*
X663575Y736600D03*
X663575Y762000D03*
X688975Y736600D03*
X688975Y762000D03*
X714375Y736600D03*
X714375Y762000D03*
X739775Y736600D03*
X739775Y762000D03*
X765175Y736600D03*
X765175Y762000D03*
X790575Y736600D03*
X790575Y762000D03*
X815975Y736600D03*
X815975Y762000D03*
X841375Y736600D03*
X841375Y762000D03*
X866775Y736600D03*
X866775Y762000D03*
X892175Y736600D03*
X892175Y762000D03*
D18*
X111100Y393700D03*
X92100Y393700D03*
X225400Y393700D03*
X206400Y393700D03*
X339700Y393700D03*
X320700Y393700D03*
X454000Y393700D03*
X435000Y393700D03*
X568300Y393700D03*
X549300Y393700D03*
X682600Y393700D03*
X663600Y393700D03*
X796900Y393700D03*
X777900Y393700D03*
X911200Y393700D03*
X892200Y393700D03*
D20*
X79600Y215900D03*
X123600Y215900D03*
X479200Y203200D03*
X435200Y203200D03*
D21*
X330200Y204800D03*
D22*
X353000Y276600D03*
X307400Y276600D03*
D23*
X393700Y238100D03*
X393700Y219100D03*
X393700Y288900D03*
X393700Y269900D03*
X266700Y276200D03*
X266700Y257200D03*
X393700Y187300D03*
X393700Y168300D03*
D24*
X66600Y292100D03*
X136600Y292100D03*
D25*
X628650Y44450D03*
X654050Y44450D03*
X679450Y44450D03*
X704850Y44450D03*
X730250Y44450D03*
X755650Y44450D03*
X628650Y69850D03*
X654050Y69850D03*
X679450Y69850D03*
X704850Y69850D03*
X730250Y69850D03*
X755650Y69850D03*
X781050Y44450D03*
X806450Y44450D03*
X831850Y44450D03*
X857250Y44450D03*
X882650Y44450D03*
X908050Y44450D03*
X781050Y69850D03*
X806450Y69850D03*
X831850Y69850D03*
X857250Y69850D03*
X882650Y69850D03*
X908050Y69850D03*
M02*
