%TF.GenerationSoftware,KiCad,Pcbnew,(7.0.0)*%
%TF.CreationDate,2023-07-16T15:36:17-04:00*%
%TF.ProjectId,luminator,6c756d69-6e61-4746-9f72-2e6b69636164,rev?*%
%TF.SameCoordinates,Original*%
%TF.FileFunction,Legend,Top*%
%TF.FilePolarity,Positive*%
%FSLAX46Y46*%
G04 Gerber Fmt 4.6, Leading zero omitted, Abs format (unit mm)*
G04 Created by KiCad (PCBNEW (7.0.0)) date 2023-07-16 15:36:17*
%MOMM*%
%LPD*%
G01*
G04 APERTURE LIST*
%ADD10C,0.200000*%
%ADD11C,0.300000*%
%ADD12C,0.120000*%
%ADD13C,0.152400*%
%ADD14C,1.500000*%
%ADD15R,1.473200X0.355600*%
%ADD16R,3.200001X6.000001*%
G04 APERTURE END LIST*
D10*
X115824000Y-67190077D02*
G75*
G03*
X115824000Y-67190077I-627923J0D01*
G01*
D11*
X114463571Y-88882857D02*
X112963571Y-88882857D01*
X112963571Y-88882857D02*
X114035000Y-88382857D01*
X114035000Y-88382857D02*
X112963571Y-87882857D01*
X112963571Y-87882857D02*
X114463571Y-87882857D01*
X114463571Y-87168571D02*
X112963571Y-87168571D01*
X112963571Y-87168571D02*
X112963571Y-86597142D01*
X112963571Y-86597142D02*
X113035000Y-86454285D01*
X113035000Y-86454285D02*
X113106428Y-86382856D01*
X113106428Y-86382856D02*
X113249285Y-86311428D01*
X113249285Y-86311428D02*
X113463571Y-86311428D01*
X113463571Y-86311428D02*
X113606428Y-86382856D01*
X113606428Y-86382856D02*
X113677857Y-86454285D01*
X113677857Y-86454285D02*
X113749285Y-86597142D01*
X113749285Y-86597142D02*
X113749285Y-87168571D01*
X114606428Y-84668571D02*
X114535000Y-84811428D01*
X114535000Y-84811428D02*
X114392142Y-84954285D01*
X114392142Y-84954285D02*
X114177857Y-85168571D01*
X114177857Y-85168571D02*
X114106428Y-85311428D01*
X114106428Y-85311428D02*
X114106428Y-85454285D01*
X114463571Y-85382856D02*
X114392142Y-85525714D01*
X114392142Y-85525714D02*
X114249285Y-85668571D01*
X114249285Y-85668571D02*
X113963571Y-85739999D01*
X113963571Y-85739999D02*
X113463571Y-85739999D01*
X113463571Y-85739999D02*
X113177857Y-85668571D01*
X113177857Y-85668571D02*
X113035000Y-85525714D01*
X113035000Y-85525714D02*
X112963571Y-85382856D01*
X112963571Y-85382856D02*
X112963571Y-85097142D01*
X112963571Y-85097142D02*
X113035000Y-84954285D01*
X113035000Y-84954285D02*
X113177857Y-84811428D01*
X113177857Y-84811428D02*
X113463571Y-84739999D01*
X113463571Y-84739999D02*
X113963571Y-84739999D01*
X113963571Y-84739999D02*
X114249285Y-84811428D01*
X114249285Y-84811428D02*
X114392142Y-84954285D01*
X114392142Y-84954285D02*
X114463571Y-85097142D01*
X114463571Y-85097142D02*
X114463571Y-85382856D01*
X112963571Y-83454285D02*
X112963571Y-83739999D01*
X112963571Y-83739999D02*
X113035000Y-83882856D01*
X113035000Y-83882856D02*
X113106428Y-83954285D01*
X113106428Y-83954285D02*
X113320714Y-84097142D01*
X113320714Y-84097142D02*
X113606428Y-84168570D01*
X113606428Y-84168570D02*
X114177857Y-84168570D01*
X114177857Y-84168570D02*
X114320714Y-84097142D01*
X114320714Y-84097142D02*
X114392142Y-84025713D01*
X114392142Y-84025713D02*
X114463571Y-83882856D01*
X114463571Y-83882856D02*
X114463571Y-83597142D01*
X114463571Y-83597142D02*
X114392142Y-83454285D01*
X114392142Y-83454285D02*
X114320714Y-83382856D01*
X114320714Y-83382856D02*
X114177857Y-83311427D01*
X114177857Y-83311427D02*
X113820714Y-83311427D01*
X113820714Y-83311427D02*
X113677857Y-83382856D01*
X113677857Y-83382856D02*
X113606428Y-83454285D01*
X113606428Y-83454285D02*
X113535000Y-83597142D01*
X113535000Y-83597142D02*
X113535000Y-83882856D01*
X113535000Y-83882856D02*
X113606428Y-84025713D01*
X113606428Y-84025713D02*
X113677857Y-84097142D01*
X113677857Y-84097142D02*
X113820714Y-84168570D01*
X112963571Y-82025714D02*
X112963571Y-82311428D01*
X112963571Y-82311428D02*
X113035000Y-82454285D01*
X113035000Y-82454285D02*
X113106428Y-82525714D01*
X113106428Y-82525714D02*
X113320714Y-82668571D01*
X113320714Y-82668571D02*
X113606428Y-82739999D01*
X113606428Y-82739999D02*
X114177857Y-82739999D01*
X114177857Y-82739999D02*
X114320714Y-82668571D01*
X114320714Y-82668571D02*
X114392142Y-82597142D01*
X114392142Y-82597142D02*
X114463571Y-82454285D01*
X114463571Y-82454285D02*
X114463571Y-82168571D01*
X114463571Y-82168571D02*
X114392142Y-82025714D01*
X114392142Y-82025714D02*
X114320714Y-81954285D01*
X114320714Y-81954285D02*
X114177857Y-81882856D01*
X114177857Y-81882856D02*
X113820714Y-81882856D01*
X113820714Y-81882856D02*
X113677857Y-81954285D01*
X113677857Y-81954285D02*
X113606428Y-82025714D01*
X113606428Y-82025714D02*
X113535000Y-82168571D01*
X113535000Y-82168571D02*
X113535000Y-82454285D01*
X113535000Y-82454285D02*
X113606428Y-82597142D01*
X113606428Y-82597142D02*
X113677857Y-82668571D01*
X113677857Y-82668571D02*
X113820714Y-82739999D01*
X113106428Y-81311428D02*
X113035000Y-81240000D01*
X113035000Y-81240000D02*
X112963571Y-81097143D01*
X112963571Y-81097143D02*
X112963571Y-80740000D01*
X112963571Y-80740000D02*
X113035000Y-80597143D01*
X113035000Y-80597143D02*
X113106428Y-80525714D01*
X113106428Y-80525714D02*
X113249285Y-80454285D01*
X113249285Y-80454285D02*
X113392142Y-80454285D01*
X113392142Y-80454285D02*
X113606428Y-80525714D01*
X113606428Y-80525714D02*
X114463571Y-81382857D01*
X114463571Y-81382857D02*
X114463571Y-80454285D01*
X113606428Y-79597143D02*
X113535000Y-79740000D01*
X113535000Y-79740000D02*
X113463571Y-79811429D01*
X113463571Y-79811429D02*
X113320714Y-79882857D01*
X113320714Y-79882857D02*
X113249285Y-79882857D01*
X113249285Y-79882857D02*
X113106428Y-79811429D01*
X113106428Y-79811429D02*
X113035000Y-79740000D01*
X113035000Y-79740000D02*
X112963571Y-79597143D01*
X112963571Y-79597143D02*
X112963571Y-79311429D01*
X112963571Y-79311429D02*
X113035000Y-79168572D01*
X113035000Y-79168572D02*
X113106428Y-79097143D01*
X113106428Y-79097143D02*
X113249285Y-79025714D01*
X113249285Y-79025714D02*
X113320714Y-79025714D01*
X113320714Y-79025714D02*
X113463571Y-79097143D01*
X113463571Y-79097143D02*
X113535000Y-79168572D01*
X113535000Y-79168572D02*
X113606428Y-79311429D01*
X113606428Y-79311429D02*
X113606428Y-79597143D01*
X113606428Y-79597143D02*
X113677857Y-79740000D01*
X113677857Y-79740000D02*
X113749285Y-79811429D01*
X113749285Y-79811429D02*
X113892142Y-79882857D01*
X113892142Y-79882857D02*
X114177857Y-79882857D01*
X114177857Y-79882857D02*
X114320714Y-79811429D01*
X114320714Y-79811429D02*
X114392142Y-79740000D01*
X114392142Y-79740000D02*
X114463571Y-79597143D01*
X114463571Y-79597143D02*
X114463571Y-79311429D01*
X114463571Y-79311429D02*
X114392142Y-79168572D01*
X114392142Y-79168572D02*
X114320714Y-79097143D01*
X114320714Y-79097143D02*
X114177857Y-79025714D01*
X114177857Y-79025714D02*
X113892142Y-79025714D01*
X113892142Y-79025714D02*
X113749285Y-79097143D01*
X113749285Y-79097143D02*
X113677857Y-79168572D01*
X113677857Y-79168572D02*
X113606428Y-79311429D01*
X116465000Y-88954285D02*
X116465000Y-88240000D01*
X116893571Y-89097142D02*
X115393571Y-88597142D01*
X115393571Y-88597142D02*
X116893571Y-88097142D01*
X116893571Y-86954286D02*
X115393571Y-86954286D01*
X116822142Y-86954286D02*
X116893571Y-87097143D01*
X116893571Y-87097143D02*
X116893571Y-87382857D01*
X116893571Y-87382857D02*
X116822142Y-87525714D01*
X116822142Y-87525714D02*
X116750714Y-87597143D01*
X116750714Y-87597143D02*
X116607857Y-87668571D01*
X116607857Y-87668571D02*
X116179285Y-87668571D01*
X116179285Y-87668571D02*
X116036428Y-87597143D01*
X116036428Y-87597143D02*
X115965000Y-87525714D01*
X115965000Y-87525714D02*
X115893571Y-87382857D01*
X115893571Y-87382857D02*
X115893571Y-87097143D01*
X115893571Y-87097143D02*
X115965000Y-86954286D01*
X116893571Y-85597143D02*
X116107857Y-85597143D01*
X116107857Y-85597143D02*
X115965000Y-85668571D01*
X115965000Y-85668571D02*
X115893571Y-85811428D01*
X115893571Y-85811428D02*
X115893571Y-86097143D01*
X115893571Y-86097143D02*
X115965000Y-86240000D01*
X116822142Y-85597143D02*
X116893571Y-85740000D01*
X116893571Y-85740000D02*
X116893571Y-86097143D01*
X116893571Y-86097143D02*
X116822142Y-86240000D01*
X116822142Y-86240000D02*
X116679285Y-86311428D01*
X116679285Y-86311428D02*
X116536428Y-86311428D01*
X116536428Y-86311428D02*
X116393571Y-86240000D01*
X116393571Y-86240000D02*
X116322142Y-86097143D01*
X116322142Y-86097143D02*
X116322142Y-85740000D01*
X116322142Y-85740000D02*
X116250714Y-85597143D01*
X115893571Y-84882857D02*
X117393571Y-84882857D01*
X115965000Y-84882857D02*
X115893571Y-84740000D01*
X115893571Y-84740000D02*
X115893571Y-84454285D01*
X115893571Y-84454285D02*
X115965000Y-84311428D01*
X115965000Y-84311428D02*
X116036428Y-84240000D01*
X116036428Y-84240000D02*
X116179285Y-84168571D01*
X116179285Y-84168571D02*
X116607857Y-84168571D01*
X116607857Y-84168571D02*
X116750714Y-84240000D01*
X116750714Y-84240000D02*
X116822142Y-84311428D01*
X116822142Y-84311428D02*
X116893571Y-84454285D01*
X116893571Y-84454285D02*
X116893571Y-84740000D01*
X116893571Y-84740000D02*
X116822142Y-84882857D01*
X115893571Y-83739999D02*
X115893571Y-83168571D01*
X115393571Y-83525714D02*
X116679285Y-83525714D01*
X116679285Y-83525714D02*
X116822142Y-83454285D01*
X116822142Y-83454285D02*
X116893571Y-83311428D01*
X116893571Y-83311428D02*
X116893571Y-83168571D01*
X116822142Y-82097142D02*
X116893571Y-82239999D01*
X116893571Y-82239999D02*
X116893571Y-82525714D01*
X116893571Y-82525714D02*
X116822142Y-82668571D01*
X116822142Y-82668571D02*
X116679285Y-82739999D01*
X116679285Y-82739999D02*
X116107857Y-82739999D01*
X116107857Y-82739999D02*
X115965000Y-82668571D01*
X115965000Y-82668571D02*
X115893571Y-82525714D01*
X115893571Y-82525714D02*
X115893571Y-82239999D01*
X115893571Y-82239999D02*
X115965000Y-82097142D01*
X115965000Y-82097142D02*
X116107857Y-82025714D01*
X116107857Y-82025714D02*
X116250714Y-82025714D01*
X116250714Y-82025714D02*
X116393571Y-82739999D01*
X116893571Y-81382857D02*
X115893571Y-81382857D01*
X116179285Y-81382857D02*
X116036428Y-81311428D01*
X116036428Y-81311428D02*
X115965000Y-81240000D01*
X115965000Y-81240000D02*
X115893571Y-81097142D01*
X115893571Y-81097142D02*
X115893571Y-80954285D01*
X120082857Y-89423571D02*
X119225714Y-89423571D01*
X119654285Y-89423571D02*
X119654285Y-87923571D01*
X119654285Y-87923571D02*
X119511428Y-88137857D01*
X119511428Y-88137857D02*
X119368571Y-88280714D01*
X119368571Y-88280714D02*
X119225714Y-88352142D01*
X121439999Y-87923571D02*
X120725713Y-87923571D01*
X120725713Y-87923571D02*
X120654285Y-88637857D01*
X120654285Y-88637857D02*
X120725713Y-88566428D01*
X120725713Y-88566428D02*
X120868571Y-88495000D01*
X120868571Y-88495000D02*
X121225713Y-88495000D01*
X121225713Y-88495000D02*
X121368571Y-88566428D01*
X121368571Y-88566428D02*
X121439999Y-88637857D01*
X121439999Y-88637857D02*
X121511428Y-88780714D01*
X121511428Y-88780714D02*
X121511428Y-89137857D01*
X121511428Y-89137857D02*
X121439999Y-89280714D01*
X121439999Y-89280714D02*
X121368571Y-89352142D01*
X121368571Y-89352142D02*
X121225713Y-89423571D01*
X121225713Y-89423571D02*
X120868571Y-89423571D01*
X120868571Y-89423571D02*
X120725713Y-89352142D01*
X120725713Y-89352142D02*
X120654285Y-89280714D01*
X109402857Y-89393571D02*
X108545714Y-89393571D01*
X108974285Y-89393571D02*
X108974285Y-87893571D01*
X108974285Y-87893571D02*
X108831428Y-88107857D01*
X108831428Y-88107857D02*
X108688571Y-88250714D01*
X108688571Y-88250714D02*
X108545714Y-88322142D01*
X110688571Y-88393571D02*
X110688571Y-89393571D01*
X110331428Y-87822142D02*
X109974285Y-88893571D01*
X109974285Y-88893571D02*
X110902856Y-88893571D01*
X119665714Y-55236428D02*
X119737142Y-55165000D01*
X119737142Y-55165000D02*
X119880000Y-55093571D01*
X119880000Y-55093571D02*
X120237142Y-55093571D01*
X120237142Y-55093571D02*
X120380000Y-55165000D01*
X120380000Y-55165000D02*
X120451428Y-55236428D01*
X120451428Y-55236428D02*
X120522857Y-55379285D01*
X120522857Y-55379285D02*
X120522857Y-55522142D01*
X120522857Y-55522142D02*
X120451428Y-55736428D01*
X120451428Y-55736428D02*
X119594285Y-56593571D01*
X119594285Y-56593571D02*
X120522857Y-56593571D01*
X121808571Y-55593571D02*
X121808571Y-56593571D01*
X121451428Y-55022142D02*
X121094285Y-56093571D01*
X121094285Y-56093571D02*
X122022856Y-56093571D01*
X109552857Y-56623571D02*
X108695714Y-56623571D01*
X109124285Y-56623571D02*
X109124285Y-55123571D01*
X109124285Y-55123571D02*
X108981428Y-55337857D01*
X108981428Y-55337857D02*
X108838571Y-55480714D01*
X108838571Y-55480714D02*
X108695714Y-55552142D01*
D12*
X122702000Y-90150000D02*
X122702000Y-54630000D01*
X125202000Y-90150000D02*
X122702000Y-90150000D01*
X122702000Y-87630000D02*
X125202000Y-87630000D01*
X122702000Y-54630000D02*
X125202000Y-54630000D01*
X125202000Y-54630000D02*
X125202000Y-90150000D01*
X107676000Y-54630000D02*
X107676000Y-90150000D01*
X105176000Y-54630000D02*
X107676000Y-54630000D01*
X107676000Y-57150000D02*
X105176000Y-57150000D01*
X107676000Y-90150000D02*
X105176000Y-90150000D01*
X105176000Y-90150000D02*
X105176000Y-54630000D01*
D13*
X112814100Y-67360800D02*
X112814100Y-67654460D01*
X112814100Y-77125538D02*
X112814100Y-77419200D01*
X112814100Y-77419200D02*
X117563900Y-77419200D01*
X117563900Y-67360800D02*
X112814100Y-67360800D01*
X117563900Y-67654460D02*
X117563900Y-67360800D01*
X117563900Y-77419200D02*
X117563900Y-77125540D01*
G36*
X111277400Y-74205498D02*
G01*
X111023400Y-74205498D01*
X111023400Y-73824498D01*
X111277400Y-73824498D01*
X111277400Y-74205498D01*
G37*
G36*
X119354600Y-73555499D02*
G01*
X119100600Y-73555499D01*
X119100600Y-73174499D01*
X119354600Y-73174499D01*
X119354600Y-73555499D01*
G37*
%LPC*%
D14*
X123952000Y-88900000D03*
X123952000Y-86360000D03*
X123952000Y-83820000D03*
X123952000Y-81280000D03*
X123952000Y-78740000D03*
X123952000Y-76200000D03*
X123952000Y-73660000D03*
X123952000Y-71120000D03*
X123952000Y-68580000D03*
X123952000Y-66040000D03*
X123952000Y-63500000D03*
X123952000Y-60960000D03*
X123952000Y-58420000D03*
X123952000Y-55880000D03*
X106426000Y-55880000D03*
X106426000Y-58420000D03*
X106426000Y-60960000D03*
X106426000Y-63500000D03*
X106426000Y-66040000D03*
X106426000Y-68580000D03*
X106426000Y-71120000D03*
X106426000Y-73660000D03*
X106426000Y-76200000D03*
X106426000Y-78740000D03*
X106426000Y-81280000D03*
X106426000Y-83820000D03*
X106426000Y-86360000D03*
X106426000Y-88900000D03*
D15*
X112267999Y-68164999D03*
X112267999Y-68815000D03*
X112267999Y-69464999D03*
X112267999Y-70115000D03*
X112267999Y-70764998D03*
X112267999Y-71415000D03*
X112267999Y-72064998D03*
X112267999Y-72714997D03*
X112267999Y-73364998D03*
X112267999Y-74014997D03*
X112267999Y-74664998D03*
X112267999Y-75314997D03*
X112267999Y-75964998D03*
X112267999Y-76614997D03*
X118109999Y-76614999D03*
X118109999Y-75964998D03*
X118109999Y-75314999D03*
X118109999Y-74664998D03*
X118109999Y-74015000D03*
X118109999Y-73364998D03*
X118109999Y-72715000D03*
X118109999Y-72064998D03*
X118109999Y-71415000D03*
X118109999Y-70764998D03*
X118109999Y-70115000D03*
X118109999Y-69464999D03*
X118109999Y-68815000D03*
X118109999Y-68164999D03*
D16*
X115188999Y-72389999D03*
M02*
