%TF.GenerationSoftware,KiCad,Pcbnew,(7.0.0)*%
%TF.CreationDate,2023-07-16T15:36:17-04:00*%
%TF.ProjectId,luminator,6c756d69-6e61-4746-9f72-2e6b69636164,rev?*%
%TF.SameCoordinates,Original*%
%TF.FileFunction,Paste,Top*%
%TF.FilePolarity,Positive*%
%FSLAX46Y46*%
G04 Gerber Fmt 4.6, Leading zero omitted, Abs format (unit mm)*
G04 Created by KiCad (PCBNEW (7.0.0)) date 2023-07-16 15:36:17*
%MOMM*%
%LPD*%
G01*
G04 APERTURE LIST*
%ADD10R,1.473200X0.355600*%
G04 APERTURE END LIST*
G36*
X115089000Y-70790000D02*
G01*
X113688999Y-70790000D01*
X113688999Y-69489999D01*
X115089000Y-69489999D01*
X115089000Y-70790000D01*
G37*
G36*
X115089000Y-73790000D02*
G01*
X113688999Y-73790000D01*
X113688999Y-72490000D01*
X115089000Y-72490000D01*
X115089000Y-73790000D01*
G37*
G36*
X115089000Y-75290001D02*
G01*
X113688999Y-75290001D01*
X113688999Y-73990000D01*
X115089000Y-73990000D01*
X115089000Y-75290001D01*
G37*
G36*
X116689001Y-70790000D02*
G01*
X115289000Y-70790000D01*
X115289000Y-69489999D01*
X116689001Y-69489999D01*
X116689001Y-70790000D01*
G37*
G36*
X116689001Y-72290000D02*
G01*
X115289000Y-72290000D01*
X115289000Y-70990000D01*
X116689001Y-70990000D01*
X116689001Y-72290000D01*
G37*
G36*
X116689001Y-73790000D02*
G01*
X115289000Y-73790000D01*
X115289000Y-72490000D01*
X116689001Y-72490000D01*
X116689001Y-73790000D01*
G37*
G36*
X116689001Y-75290001D02*
G01*
X115289000Y-75290001D01*
X115289000Y-73990000D01*
X116689001Y-73990000D01*
X116689001Y-75290001D01*
G37*
D10*
X112267999Y-68164999D03*
X112267999Y-68815000D03*
X112267999Y-69464999D03*
X112267999Y-70115000D03*
X112267999Y-70764998D03*
X112267999Y-71415000D03*
X112267999Y-72064998D03*
X112267999Y-72714997D03*
X112267999Y-73364998D03*
X112267999Y-74014997D03*
X112267999Y-74664998D03*
X112267999Y-75314997D03*
X112267999Y-75964998D03*
X112267999Y-76614997D03*
X118109999Y-76614999D03*
X118109999Y-75964998D03*
X118109999Y-75314999D03*
X118109999Y-74664998D03*
X118109999Y-74015000D03*
X118109999Y-73364998D03*
X118109999Y-72715000D03*
X118109999Y-72064998D03*
X118109999Y-71415000D03*
X118109999Y-70764998D03*
X118109999Y-70115000D03*
X118109999Y-69464999D03*
X118109999Y-68815000D03*
X118109999Y-68164999D03*
M02*
