M48
; DRILL file {KiCad (7.0.0)} date Sun Jul 16 15:37:20 2023
; FORMAT={-:-/ absolute / metric / decimal}
; #@! TF.CreationDate,2023-07-16T15:37:20-04:00
; #@! TF.GenerationSoftware,Kicad,Pcbnew,(7.0.0)
; #@! TF.FileFunction,Plated,1,2,PTH
FMAT,2
METRIC
; #@! TA.AperFunction,Plated,PTH,ComponentDrill
T1C0.800
%
G90
G05
T1
X106.426Y-55.88
X106.426Y-58.42
X106.426Y-60.96
X106.426Y-63.5
X106.426Y-66.04
X106.426Y-68.58
X106.426Y-71.12
X106.426Y-73.66
X106.426Y-76.2
X106.426Y-78.74
X106.426Y-81.28
X106.426Y-83.82
X106.426Y-86.36
X106.426Y-88.9
X123.952Y-55.88
X123.952Y-58.42
X123.952Y-60.96
X123.952Y-63.5
X123.952Y-66.04
X123.952Y-68.58
X123.952Y-71.12
X123.952Y-73.66
X123.952Y-76.2
X123.952Y-78.74
X123.952Y-81.28
X123.952Y-83.82
X123.952Y-86.36
X123.952Y-88.9
T0
M30
