%TF.GenerationSoftware,KiCad,Pcbnew,(7.0.0)*%
%TF.CreationDate,2023-07-16T15:36:17-04:00*%
%TF.ProjectId,luminator,6c756d69-6e61-4746-9f72-2e6b69636164,rev?*%
%TF.SameCoordinates,Original*%
%TF.FileFunction,Copper,L1,Top*%
%TF.FilePolarity,Positive*%
%FSLAX46Y46*%
G04 Gerber Fmt 4.6, Leading zero omitted, Abs format (unit mm)*
G04 Created by KiCad (PCBNEW (7.0.0)) date 2023-07-16 15:36:17*
%MOMM*%
%LPD*%
G01*
G04 APERTURE LIST*
%TA.AperFunction,ComponentPad*%
%ADD10C,1.500000*%
%TD*%
%TA.AperFunction,SMDPad,CuDef*%
%ADD11R,1.473200X0.355600*%
%TD*%
%TA.AperFunction,SMDPad,CuDef*%
%ADD12R,3.200001X6.000001*%
%TD*%
%TA.AperFunction,Conductor*%
%ADD13C,0.250000*%
%TD*%
G04 APERTURE END LIST*
D10*
X123952000Y-88900000D03*
X123952000Y-86360000D03*
X123952000Y-83820000D03*
X123952000Y-81280000D03*
X123952000Y-78740000D03*
X123952000Y-76200000D03*
X123952000Y-73660000D03*
X123952000Y-71120000D03*
X123952000Y-68580000D03*
X123952000Y-66040000D03*
X123952000Y-63500000D03*
X123952000Y-60960000D03*
X123952000Y-58420000D03*
X123952000Y-55880000D03*
X106426000Y-55880000D03*
X106426000Y-58420000D03*
X106426000Y-60960000D03*
X106426000Y-63500000D03*
X106426000Y-66040000D03*
X106426000Y-68580000D03*
X106426000Y-71120000D03*
X106426000Y-73660000D03*
X106426000Y-76200000D03*
X106426000Y-78740000D03*
X106426000Y-81280000D03*
X106426000Y-83820000D03*
X106426000Y-86360000D03*
X106426000Y-88900000D03*
D11*
X112267999Y-68164999D03*
X112267999Y-68815000D03*
X112267999Y-69464999D03*
X112267999Y-70115000D03*
X112267999Y-70764998D03*
X112267999Y-71415000D03*
X112267999Y-72064998D03*
X112267999Y-72714997D03*
X112267999Y-73364998D03*
X112267999Y-74014997D03*
X112267999Y-74664998D03*
X112267999Y-75314997D03*
X112267999Y-75964998D03*
X112267999Y-76614997D03*
X118109999Y-76614999D03*
X118109999Y-75964998D03*
X118109999Y-75314999D03*
X118109999Y-74664998D03*
X118109999Y-74015000D03*
X118109999Y-73364998D03*
X118109999Y-72715000D03*
X118109999Y-72064998D03*
X118109999Y-71415000D03*
X118109999Y-70764998D03*
X118109999Y-70115000D03*
X118109999Y-69464999D03*
X118109999Y-68815000D03*
X118109999Y-68164999D03*
D12*
X115188999Y-72389999D03*
D13*
X122408000Y-68584999D02*
X123678000Y-68584999D01*
X118090000Y-70769998D02*
X119461001Y-70769998D01*
X119237000Y-69469999D02*
X118090000Y-69469999D01*
X123678000Y-60964999D02*
X119868000Y-64774999D01*
X119868000Y-68838999D02*
X119237000Y-69469999D01*
X119461001Y-70769998D02*
X120884000Y-69346999D01*
X120884000Y-69346999D02*
X120884000Y-68838999D01*
X119868000Y-64774999D02*
X119868000Y-68838999D01*
X119360000Y-68584999D02*
X119360000Y-62742999D01*
X119348999Y-70120000D02*
X120376000Y-69092999D01*
X118090000Y-70120000D02*
X119348999Y-70120000D01*
X120376000Y-69092999D02*
X120376000Y-66806999D01*
X120376000Y-66806999D02*
X123678000Y-63504999D01*
X119124999Y-68820000D02*
X119360000Y-68584999D01*
X118090000Y-68820000D02*
X119124999Y-68820000D01*
X119360000Y-62742999D02*
X123678000Y-58424999D01*
X120884000Y-68838999D02*
X123678000Y-66044999D01*
X118090000Y-71420000D02*
X119572999Y-71420000D01*
X119572999Y-71420000D02*
X122408000Y-68584999D01*
X122733001Y-72069998D02*
X123678000Y-71124999D01*
X118090000Y-72069998D02*
X122733001Y-72069998D01*
X118090000Y-68169999D02*
X118090000Y-61472999D01*
X118090000Y-61472999D02*
X123678000Y-55884999D01*
X107932000Y-76195001D02*
X106662000Y-76195001D01*
X112250000Y-74010002D02*
X110878999Y-74010002D01*
X111103000Y-75310001D02*
X112250000Y-75310001D01*
X106662000Y-83815001D02*
X110472000Y-80005001D01*
X110472000Y-75941001D02*
X111103000Y-75310001D01*
X110878999Y-74010002D02*
X109456000Y-75433001D01*
X109456000Y-75433001D02*
X109456000Y-75941001D01*
X110472000Y-80005001D02*
X110472000Y-75941001D01*
X110980000Y-76195001D02*
X110980000Y-82037001D01*
X110991001Y-74660000D02*
X109964000Y-75687001D01*
X112250000Y-74660000D02*
X110991001Y-74660000D01*
X109964000Y-75687001D02*
X109964000Y-77973001D01*
X109964000Y-77973001D02*
X106662000Y-81275001D01*
X111215001Y-75960000D02*
X110980000Y-76195001D01*
X112250000Y-75960000D02*
X111215001Y-75960000D01*
X110980000Y-82037001D02*
X106662000Y-86355001D01*
X109456000Y-75941001D02*
X106662000Y-78735001D01*
X112250000Y-73360000D02*
X110767001Y-73360000D01*
X110767001Y-73360000D02*
X107932000Y-76195001D01*
X107606999Y-72710002D02*
X106662000Y-73655001D01*
X112250000Y-72710002D02*
X107606999Y-72710002D01*
X112250000Y-76610001D02*
X112250000Y-83307001D01*
X112250000Y-83307001D02*
X106662000Y-88895001D01*
X122438000Y-76195001D02*
X123708000Y-76195001D01*
X118120000Y-74010002D02*
X119491001Y-74010002D01*
X119267000Y-75310001D02*
X118120000Y-75310001D01*
X123708000Y-83815001D02*
X119898000Y-80005001D01*
X119898000Y-75941001D02*
X119267000Y-75310001D01*
X119491001Y-74010002D02*
X120914000Y-75433001D01*
X120914000Y-75433001D02*
X120914000Y-75941001D01*
X119898000Y-80005001D02*
X119898000Y-75941001D01*
X119390000Y-76195001D02*
X119390000Y-82037001D01*
X119378999Y-74660000D02*
X120406000Y-75687001D01*
X118120000Y-74660000D02*
X119378999Y-74660000D01*
X120406000Y-75687001D02*
X120406000Y-77973001D01*
X120406000Y-77973001D02*
X123708000Y-81275001D01*
X119154999Y-75960000D02*
X119390000Y-76195001D01*
X118120000Y-75960000D02*
X119154999Y-75960000D01*
X119390000Y-82037001D02*
X123708000Y-86355001D01*
X120914000Y-75941001D02*
X123708000Y-78735001D01*
X118120000Y-73360000D02*
X119602999Y-73360000D01*
X119602999Y-73360000D02*
X122438000Y-76195001D01*
X122763001Y-72710002D02*
X123708000Y-73655001D01*
X118120000Y-72710002D02*
X122763001Y-72710002D01*
X118120000Y-76610001D02*
X118120000Y-83307001D01*
X118120000Y-83307001D02*
X123708000Y-88895001D01*
X112268000Y-61468000D02*
X106680000Y-55880000D01*
X112268000Y-68165000D02*
X112268000Y-61468000D01*
X107624999Y-72064999D02*
X106680000Y-71120000D01*
X112268000Y-72064999D02*
X107624999Y-72064999D01*
X107950000Y-68580000D02*
X106680000Y-68580000D01*
X112268000Y-71415001D02*
X110785001Y-71415001D01*
X110785001Y-71415001D02*
X107950000Y-68580000D01*
X109474000Y-69342000D02*
X109474000Y-68834000D01*
X110896999Y-70764999D02*
X109474000Y-69342000D01*
X112268000Y-70764999D02*
X110896999Y-70764999D01*
X109474000Y-68834000D02*
X106680000Y-66040000D01*
X109982000Y-66802000D02*
X106680000Y-63500000D01*
X109982000Y-69088000D02*
X109982000Y-66802000D01*
X111009001Y-70115001D02*
X109982000Y-69088000D01*
X112268000Y-70115001D02*
X111009001Y-70115001D01*
X111121000Y-69465000D02*
X112268000Y-69465000D01*
X110490000Y-68834000D02*
X111121000Y-69465000D01*
X110490000Y-64770000D02*
X110490000Y-68834000D01*
X106680000Y-60960000D02*
X110490000Y-64770000D01*
X110998000Y-62738000D02*
X106680000Y-58420000D01*
X110998000Y-68580000D02*
X110998000Y-62738000D01*
X111233001Y-68815001D02*
X110998000Y-68580000D01*
X112268000Y-68815001D02*
X111233001Y-68815001D01*
M02*
