M48
; DRILL file {KiCad (7.0.0)} date Thu Dec 21 14:48:58 2023
; FORMAT={-:-/ absolute / metric / decimal}
; #@! TF.CreationDate,2023-12-21T14:48:58-05:00
; #@! TF.GenerationSoftware,Kicad,Pcbnew,(7.0.0)
; #@! TF.FileFunction,Plated,1,4,PTH
FMAT,2
METRIC
; #@! TA.AperFunction,Plated,PTH,ViaDrill
T1C0.500
; #@! TA.AperFunction,Plated,PTH,ComponentDrill
T2C0.762
; #@! TA.AperFunction,Plated,PTH,ComponentDrill
T3C0.787
; #@! TA.AperFunction,Plated,PTH,ComponentDrill
T4C0.800
; #@! TA.AperFunction,Plated,PTH,ComponentDrill
T5C0.864
; #@! TA.AperFunction,Plated,PTH,ComponentDrill
T6C0.889
; #@! TA.AperFunction,Plated,PTH,ComponentDrill
T7C0.900
; #@! TA.AperFunction,Plated,PTH,ComponentDrill
T8C0.991
; #@! TA.AperFunction,Plated,PTH,ComponentDrill
T9C1.016
; #@! TA.AperFunction,Plated,PTH,ComponentDrill
T10C1.020
; #@! TA.AperFunction,Plated,PTH,ComponentDrill
T11C1.110
; #@! TA.AperFunction,Plated,PTH,ComponentDrill
T12C1.300
%
G90
G05
T1
X83.439Y-102.972
X83.642Y-39.573
X83.642Y-55.474
X83.642Y-72.542
X83.642Y-89.56
X85.42Y-50.444
X85.573Y-103.886
X85.623Y-33.655
X85.877Y-60.96
X85.979Y-48.768
X86.131Y-44.577
X86.131Y-67.437
X86.131Y-84.201
X86.258Y-77.597
X86.385Y-96.647
X86.512Y-62.103
X86.766Y-79.502
X86.766Y-93.98
X86.766Y-95.123
X86.868Y-65.964
X87.02Y-33.782
X87.02Y-84.074
X87.147Y-44.831
X87.147Y-46.228
X87.401Y-61.341
X87.528Y-78.613
X88.671Y-35.154
X88.671Y-50.902
X88.671Y-67.92
X88.671Y-85.09
X88.671Y-99.822
X89.332Y-46.584
X89.332Y-61.976
X89.332Y-79.604
X89.332Y-95.758
X89.332Y-100.584
X89.992Y-45.923
X89.992Y-61.265
X89.992Y-78.943
X89.992Y-95.25
X89.992Y-102.87
X90.602Y-45.11
X90.653Y-60.554
X90.653Y-78.283
X90.653Y-94.539
X90.653Y-102.108
X91.262Y-44.399
X91.313Y-59.944
X91.313Y-77.572
X91.313Y-101.346
X91.364Y-94.082
X91.719Y-33.782
X91.923Y-83.261
X91.973Y-49.428
X91.973Y-78.08
X92.278Y-66.345
X92.329Y-61.976
X95.428Y-60.096
X97.409Y-104.038
X109.296Y-126.289
X109.906Y-124.358
X110.388Y-99.822
X110.414Y-60.147
X110.465Y-58.217
X110.566Y-115.265
X111.074Y-71.222
X111.074Y-100.584
X111.176Y-126.746
X111.684Y-70.561
X111.785Y-102.87
X111.989Y-126.187
X112.293Y-69.85
X112.395Y-102.108
X112.547Y-124.714
X113.005Y-70.561
X113.055Y-101.346
X113.208Y-124.206
X113.665Y-69.037
X113.817Y-113.386
X113.817Y-125.273
X114.304Y-71.556
X114.376Y-60.3
X114.478Y-115.418
X114.478Y-127.457
X114.681Y-104.038
X116.459Y-108.458
X117.221Y-119.837
X131.185Y-126.289
X131.795Y-124.358
X132.283Y-99.816
X132.309Y-60.147
X132.359Y-58.211
X132.461Y-115.265
X132.969Y-71.323
X132.969Y-100.578
X133.071Y-126.746
X133.579Y-70.612
X133.68Y-102.864
X133.883Y-126.187
X134.188Y-69.85
X134.29Y-102.102
X134.442Y-124.714
X134.899Y-70.663
X134.95Y-101.346
X135.103Y-124.206
X135.56Y-69.031
X135.706Y-125.273
X135.712Y-113.386
X136.199Y-71.55
X136.271Y-60.294
X136.367Y-127.457
X136.373Y-115.418
X136.779Y-103.581
X138.303Y-108.407
X139.116Y-119.837
X153.029Y-126.289
X153.639Y-124.358
X154.076Y-99.873
X154.13Y-60.147
X154.181Y-58.211
X154.305Y-115.265
X154.762Y-100.635
X154.79Y-71.323
X154.915Y-126.746
X155.4Y-70.612
X155.473Y-102.921
X155.727Y-126.187
X156.01Y-69.85
X156.083Y-102.159
X156.286Y-124.714
X156.721Y-70.663
X156.743Y-101.397
X156.947Y-124.206
X157.381Y-69.031
X157.55Y-125.273
X157.556Y-113.386
X158.013Y-103.734
X158.02Y-71.55
X158.092Y-60.294
X158.211Y-127.457
X158.217Y-115.418
X160.096Y-108.458
X160.96Y-119.837
X174.831Y-126.139
X175.441Y-124.209
X175.895Y-99.822
X175.923Y-59.995
X176.09Y-58.174
X176.098Y-115.113
X176.555Y-100.584
X176.584Y-71.171
X176.708Y-126.594
X177.193Y-70.46
X177.267Y-102.87
X177.521Y-126.035
X177.803Y-69.698
X177.876Y-102.108
X178.079Y-124.562
X178.514Y-70.51
X178.537Y-101.346
X178.74Y-124.054
X179.174Y-68.879
X179.349Y-113.233
X179.352Y-125.123
X179.813Y-71.398
X179.886Y-60.141
X180.01Y-115.265
X180.013Y-127.308
X181.991Y-108.356
X182.753Y-119.685
T2
X52.959Y-67.932
X55.499Y-67.932
X58.039Y-67.932
X60.579Y-67.932
X63.119Y-67.932
X65.659Y-67.932
T3
X77.445Y-108.915
X77.445Y-111.455
X77.445Y-113.995
X77.445Y-116.535
X77.445Y-119.075
X77.445Y-121.615
X77.445Y-124.155
X77.445Y-126.695
X85.065Y-108.915
X85.065Y-111.455
X85.065Y-113.995
X85.065Y-116.535
X85.065Y-119.075
X85.065Y-121.615
X85.065Y-124.155
X85.065Y-126.695
X87.147Y-108.915
X87.147Y-111.455
X87.147Y-113.995
X87.147Y-116.535
X87.147Y-119.075
X87.147Y-121.615
X87.147Y-124.155
X87.147Y-126.695
X94.767Y-108.915
X94.767Y-111.455
X94.767Y-113.995
X94.767Y-116.535
X94.767Y-119.075
X94.767Y-121.615
X94.767Y-124.155
X94.767Y-126.695
T4
X72.873Y-58.877
X72.873Y-69.037
X76.479Y-58.877
X76.479Y-69.037
X78.08Y-130.48
X78.892Y-94.305
X78.892Y-96.805
X78.918Y-87.833
X80.34Y-38.12
X80.34Y-40.62
X80.34Y-54.244
X80.34Y-56.744
X80.442Y-68.01
X80.442Y-70.51
X80.918Y-87.833
X88.24Y-130.48
X91.181Y-130.454
X93.681Y-130.454
X106.675Y-106.832
X109.175Y-106.832
X114.681Y-79.034
X114.681Y-81.534
X128.519Y-106.375
X131.019Y-106.375
X136.576Y-79.085
X136.576Y-81.585
X150.383Y-106.375
X152.883Y-106.375
X158.471Y-78.983
X158.471Y-81.483
X172.207Y-106.375
X174.707Y-106.375
X180.264Y-79.034
X180.264Y-81.534
T5
X74.752Y-75.434
X74.752Y-80.434
T6
X49.149Y-90.983
X49.149Y-93.523
X49.149Y-96.063
X49.149Y-98.603
X49.149Y-101.143
X49.149Y-103.683
X49.149Y-106.223
X49.149Y-108.763
X49.149Y-111.303
X49.149Y-113.843
X49.149Y-116.383
X49.149Y-118.923
X49.149Y-121.463
X49.149Y-124.003
X49.149Y-126.543
X72.009Y-90.983
X72.009Y-93.523
X72.009Y-96.063
X72.009Y-98.603
X72.009Y-101.143
X72.009Y-103.683
X72.009Y-106.223
X72.009Y-108.763
X72.009Y-111.303
X72.009Y-113.843
X72.009Y-116.383
X72.009Y-118.923
X72.009Y-121.463
X72.009Y-124.003
X72.009Y-126.543
T7
X73.426Y-45.415
X73.482Y-53.848
X75.966Y-45.415
X76.022Y-53.848
X77.572Y-134.518
X80.112Y-134.518
X82.398Y-134.518
X84.938Y-134.518
X87.198Y-134.518
X89.738Y-134.518
X92.045Y-134.518
X94.585Y-134.518
T8
X99.314Y-108.458
X99.314Y-110.998
X99.314Y-113.538
X99.314Y-116.078
X99.314Y-118.618
X99.314Y-121.158
X99.314Y-123.698
X99.314Y-126.238
X99.314Y-128.778
X99.314Y-131.318
X101.854Y-108.458
X101.854Y-110.998
X101.854Y-113.538
X101.854Y-116.078
X101.854Y-118.618
X101.854Y-121.158
X101.854Y-123.698
X101.854Y-126.238
X101.854Y-128.778
X101.854Y-131.318
X121.183Y-108.413
X121.183Y-110.953
X121.183Y-113.493
X121.183Y-116.033
X121.183Y-118.573
X121.183Y-121.113
X121.183Y-123.653
X121.183Y-126.193
X121.183Y-128.733
X121.183Y-131.273
X123.723Y-108.413
X123.723Y-110.953
X123.723Y-113.493
X123.723Y-116.033
X123.723Y-118.573
X123.723Y-121.113
X123.723Y-123.653
X123.723Y-126.193
X123.723Y-128.733
X123.723Y-131.273
X143.072Y-108.413
X143.072Y-110.953
X143.072Y-113.493
X143.072Y-116.033
X143.072Y-118.573
X143.072Y-121.113
X143.072Y-123.653
X143.072Y-126.193
X143.072Y-128.733
X143.072Y-131.273
X145.612Y-108.413
X145.612Y-110.953
X145.612Y-113.493
X145.612Y-116.033
X145.612Y-118.573
X145.612Y-121.113
X145.612Y-123.653
X145.612Y-126.193
X145.612Y-128.733
X145.612Y-131.273
X164.916Y-108.413
X164.916Y-110.953
X164.916Y-113.493
X164.916Y-116.033
X164.916Y-118.573
X164.916Y-121.113
X164.916Y-123.653
X164.916Y-126.193
X164.916Y-128.733
X164.916Y-131.273
X167.456Y-108.413
X167.456Y-110.953
X167.456Y-113.493
X167.456Y-116.033
X167.456Y-118.573
X167.456Y-121.113
X167.456Y-123.653
X167.456Y-126.193
X167.456Y-128.733
X167.456Y-131.273
T9
X99.314Y-34.036
X99.314Y-36.576
X99.314Y-39.116
X99.314Y-41.656
X99.314Y-44.196
X99.314Y-46.736
X99.314Y-49.276
X99.314Y-51.816
X99.314Y-54.356
X99.314Y-56.896
X99.314Y-59.436
X99.314Y-61.976
X99.314Y-64.516
X99.314Y-67.056
X99.314Y-69.596
X99.314Y-72.136
X99.314Y-74.676
X99.314Y-77.216
X99.314Y-79.756
X99.314Y-82.296
X99.314Y-84.836
X99.314Y-87.376
X99.314Y-89.916
X99.314Y-92.456
X99.314Y-94.996
X101.854Y-34.036
X101.854Y-36.576
X101.854Y-39.116
X101.854Y-41.656
X101.854Y-44.196
X101.854Y-46.736
X101.854Y-49.276
X101.854Y-51.816
X101.854Y-54.356
X101.854Y-56.896
X101.854Y-59.436
X101.854Y-61.976
X101.854Y-64.516
X101.854Y-67.056
X101.854Y-69.596
X101.854Y-72.136
X101.854Y-74.676
X101.854Y-77.216
X101.854Y-79.756
X101.854Y-82.296
X101.854Y-84.836
X101.854Y-87.376
X101.854Y-89.916
X101.854Y-92.456
X101.854Y-94.996
X121.183Y-33.991
X121.183Y-36.531
X121.183Y-39.071
X121.183Y-41.611
X121.183Y-44.151
X121.183Y-46.691
X121.183Y-49.231
X121.183Y-51.771
X121.183Y-54.311
X121.183Y-56.851
X121.183Y-59.391
X121.183Y-61.931
X121.183Y-64.471
X121.183Y-67.011
X121.183Y-69.551
X121.183Y-72.091
X121.183Y-74.631
X121.183Y-77.171
X121.183Y-79.711
X121.183Y-82.251
X121.183Y-84.791
X121.183Y-87.331
X121.183Y-89.871
X121.183Y-92.411
X121.183Y-94.951
X123.723Y-33.991
X123.723Y-36.531
X123.723Y-39.071
X123.723Y-41.611
X123.723Y-44.151
X123.723Y-46.691
X123.723Y-49.231
X123.723Y-51.771
X123.723Y-54.311
X123.723Y-56.851
X123.723Y-59.391
X123.723Y-61.931
X123.723Y-64.471
X123.723Y-67.011
X123.723Y-69.551
X123.723Y-72.091
X123.723Y-74.631
X123.723Y-77.171
X123.723Y-79.711
X123.723Y-82.251
X123.723Y-84.791
X123.723Y-87.331
X123.723Y-89.871
X123.723Y-92.411
X123.723Y-94.951
X143.072Y-33.991
X143.072Y-36.531
X143.072Y-39.071
X143.072Y-41.611
X143.072Y-44.151
X143.072Y-46.691
X143.072Y-49.231
X143.072Y-51.771
X143.072Y-54.311
X143.072Y-56.851
X143.072Y-59.391
X143.072Y-61.931
X143.072Y-64.471
X143.072Y-67.011
X143.072Y-69.551
X143.072Y-72.091
X143.072Y-74.631
X143.072Y-77.171
X143.072Y-79.711
X143.072Y-82.251
X143.072Y-84.791
X143.072Y-87.331
X143.072Y-89.871
X143.072Y-92.411
X143.072Y-94.951
X145.612Y-33.991
X145.612Y-36.531
X145.612Y-39.071
X145.612Y-41.611
X145.612Y-44.151
X145.612Y-46.691
X145.612Y-49.231
X145.612Y-51.771
X145.612Y-54.311
X145.612Y-56.851
X145.612Y-59.391
X145.612Y-61.931
X145.612Y-64.471
X145.612Y-67.011
X145.612Y-69.551
X145.612Y-72.091
X145.612Y-74.631
X145.612Y-77.171
X145.612Y-79.711
X145.612Y-82.251
X145.612Y-84.791
X145.612Y-87.331
X145.612Y-89.871
X145.612Y-92.411
X145.612Y-94.951
X164.916Y-33.991
X164.916Y-36.531
X164.916Y-39.071
X164.916Y-41.611
X164.916Y-44.151
X164.916Y-46.691
X164.916Y-49.231
X164.916Y-51.771
X164.916Y-54.311
X164.916Y-56.851
X164.916Y-59.391
X164.916Y-61.931
X164.916Y-64.471
X164.916Y-67.011
X164.916Y-69.551
X164.916Y-72.091
X164.916Y-74.631
X164.916Y-77.171
X164.916Y-79.711
X164.916Y-82.251
X164.916Y-84.791
X164.916Y-87.331
X164.916Y-89.871
X164.916Y-92.411
X164.916Y-94.951
X167.456Y-33.991
X167.456Y-36.531
X167.456Y-39.071
X167.456Y-41.611
X167.456Y-44.151
X167.456Y-46.691
X167.456Y-49.231
X167.456Y-51.771
X167.456Y-54.311
X167.456Y-56.851
X167.456Y-59.391
X167.456Y-61.931
X167.456Y-64.471
X167.456Y-67.011
X167.456Y-69.551
X167.456Y-72.091
X167.456Y-74.631
X167.456Y-77.171
X167.456Y-79.711
X167.456Y-82.251
X167.456Y-84.791
X167.456Y-87.331
X167.456Y-89.871
X167.456Y-92.411
X167.456Y-94.951
T10
X49.149Y-90.983
X49.149Y-93.523
X49.149Y-96.063
X49.149Y-98.603
X49.149Y-101.143
X49.149Y-103.683
X49.149Y-106.223
X49.149Y-108.763
X49.149Y-111.303
X49.149Y-113.843
X49.149Y-116.383
X49.149Y-118.923
X49.149Y-121.463
X49.149Y-124.003
X49.149Y-126.543
X74.549Y-90.983
X74.549Y-93.523
X74.549Y-96.063
X74.549Y-98.603
X74.549Y-101.143
X74.549Y-103.683
X74.549Y-106.223
X74.549Y-108.763
X74.549Y-111.303
X74.549Y-113.843
X74.549Y-116.383
X74.549Y-118.923
X74.549Y-121.463
X74.549Y-124.003
X74.549Y-126.543
T11
X65.204Y-75.303
X65.204Y-77.843
X65.204Y-80.383
T12
X52.045Y-75.235
X52.045Y-80.315
T0
M30
