%TF.GenerationSoftware,KiCad,Pcbnew,(7.0.0)*%
%TF.CreationDate,2023-12-21T14:49:08-05:00*%
%TF.ProjectId,luminator,6c756d69-6e61-4746-9f72-2e6b69636164,rev?*%
%TF.SameCoordinates,Original*%
%TF.FileFunction,Drillmap*%
%TF.FilePolarity,Positive*%
%FSLAX45Y45*%
G04 Gerber Fmt 4.5, Leading zero omitted, Abs format (unit mm)*
G04 Created by KiCad (PCBNEW (7.0.0)) date 2023-12-21 14:49:08*
%MOMM*%
%LPD*%
G01*
G04 APERTURE LIST*
%ADD10C,0.200000*%
G04 APERTURE END LIST*
D10*
X4640580Y-2804160D02*
X18498820Y-2804160D01*
X18498820Y-2804160D02*
X18498820Y-13736320D01*
X18498820Y-13736320D02*
X4640580Y-13736320D01*
X4640580Y-13736320D02*
X4640580Y-2804160D01*
X4878199Y-14039796D02*
X4878199Y-13839796D01*
X4878199Y-13839796D02*
X4925818Y-13839796D01*
X4925818Y-13839796D02*
X4954390Y-13849320D01*
X4954390Y-13849320D02*
X4973437Y-13868368D01*
X4973437Y-13868368D02*
X4982961Y-13887415D01*
X4982961Y-13887415D02*
X4992485Y-13925510D01*
X4992485Y-13925510D02*
X4992485Y-13954082D01*
X4992485Y-13954082D02*
X4982961Y-13992177D01*
X4982961Y-13992177D02*
X4973437Y-14011225D01*
X4973437Y-14011225D02*
X4954390Y-14030272D01*
X4954390Y-14030272D02*
X4925818Y-14039796D01*
X4925818Y-14039796D02*
X4878199Y-14039796D01*
X5078199Y-14039796D02*
X5078199Y-13906463D01*
X5078199Y-13944558D02*
X5087723Y-13925510D01*
X5087723Y-13925510D02*
X5097247Y-13915987D01*
X5097247Y-13915987D02*
X5116294Y-13906463D01*
X5116294Y-13906463D02*
X5135342Y-13906463D01*
X5202009Y-14039796D02*
X5202009Y-13906463D01*
X5202009Y-13839796D02*
X5192485Y-13849320D01*
X5192485Y-13849320D02*
X5202009Y-13858844D01*
X5202009Y-13858844D02*
X5211532Y-13849320D01*
X5211532Y-13849320D02*
X5202009Y-13839796D01*
X5202009Y-13839796D02*
X5202009Y-13858844D01*
X5325818Y-14039796D02*
X5306770Y-14030272D01*
X5306770Y-14030272D02*
X5297247Y-14011225D01*
X5297247Y-14011225D02*
X5297247Y-13839796D01*
X5430580Y-14039796D02*
X5411532Y-14030272D01*
X5411532Y-14030272D02*
X5402009Y-14011225D01*
X5402009Y-14011225D02*
X5402009Y-13839796D01*
X5626770Y-14039796D02*
X5626770Y-13839796D01*
X5626770Y-13839796D02*
X5693437Y-13982653D01*
X5693437Y-13982653D02*
X5760104Y-13839796D01*
X5760104Y-13839796D02*
X5760104Y-14039796D01*
X5941056Y-14039796D02*
X5941056Y-13935034D01*
X5941056Y-13935034D02*
X5931532Y-13915987D01*
X5931532Y-13915987D02*
X5912485Y-13906463D01*
X5912485Y-13906463D02*
X5874389Y-13906463D01*
X5874389Y-13906463D02*
X5855342Y-13915987D01*
X5941056Y-14030272D02*
X5922008Y-14039796D01*
X5922008Y-14039796D02*
X5874389Y-14039796D01*
X5874389Y-14039796D02*
X5855342Y-14030272D01*
X5855342Y-14030272D02*
X5845818Y-14011225D01*
X5845818Y-14011225D02*
X5845818Y-13992177D01*
X5845818Y-13992177D02*
X5855342Y-13973129D01*
X5855342Y-13973129D02*
X5874389Y-13963606D01*
X5874389Y-13963606D02*
X5922008Y-13963606D01*
X5922008Y-13963606D02*
X5941056Y-13954082D01*
X6036294Y-13906463D02*
X6036294Y-14106463D01*
X6036294Y-13915987D02*
X6055342Y-13906463D01*
X6055342Y-13906463D02*
X6093437Y-13906463D01*
X6093437Y-13906463D02*
X6112485Y-13915987D01*
X6112485Y-13915987D02*
X6122008Y-13925510D01*
X6122008Y-13925510D02*
X6131532Y-13944558D01*
X6131532Y-13944558D02*
X6131532Y-14001701D01*
X6131532Y-14001701D02*
X6122008Y-14020748D01*
X6122008Y-14020748D02*
X6112485Y-14030272D01*
X6112485Y-14030272D02*
X6093437Y-14039796D01*
X6093437Y-14039796D02*
X6055342Y-14039796D01*
X6055342Y-14039796D02*
X6036294Y-14030272D01*
X6217247Y-14020748D02*
X6226770Y-14030272D01*
X6226770Y-14030272D02*
X6217247Y-14039796D01*
X6217247Y-14039796D02*
X6207723Y-14030272D01*
X6207723Y-14030272D02*
X6217247Y-14020748D01*
X6217247Y-14020748D02*
X6217247Y-14039796D01*
X6217247Y-13915987D02*
X6226770Y-13925510D01*
X6226770Y-13925510D02*
X6217247Y-13935034D01*
X6217247Y-13935034D02*
X6207723Y-13925510D01*
X6207723Y-13925510D02*
X6217247Y-13915987D01*
X6217247Y-13915987D02*
X6217247Y-13935034D01*
M02*
