%TF.GenerationSoftware,KiCad,Pcbnew,(7.0.0)*%
%TF.CreationDate,2023-07-16T15:37:21-04:00*%
%TF.ProjectId,luminator,6c756d69-6e61-4746-9f72-2e6b69636164,rev?*%
%TF.SameCoordinates,Original*%
%TF.FileFunction,Drillmap*%
%TF.FilePolarity,Positive*%
%FSLAX45Y45*%
G04 Gerber Fmt 4.5, Leading zero omitted, Abs format (unit mm)*
G04 Created by KiCad (PCBNEW (7.0.0)) date 2023-07-16 15:37:21*
%MOMM*%
%LPD*%
G01*
G04 APERTURE LIST*
%ADD10C,0.200000*%
G04 APERTURE END LIST*
D10*
X10515600Y-5461000D02*
X12522200Y-5461000D01*
X12522200Y-5461000D02*
X12522200Y-9017000D01*
X12522200Y-9017000D02*
X10515600Y-9017000D01*
X10515600Y-9017000D02*
X10515600Y-5461000D01*
X10753219Y-9320476D02*
X10753219Y-9120476D01*
X10753219Y-9120476D02*
X10800838Y-9120476D01*
X10800838Y-9120476D02*
X10829410Y-9130000D01*
X10829410Y-9130000D02*
X10848457Y-9149048D01*
X10848457Y-9149048D02*
X10857981Y-9168095D01*
X10857981Y-9168095D02*
X10867505Y-9206190D01*
X10867505Y-9206190D02*
X10867505Y-9234762D01*
X10867505Y-9234762D02*
X10857981Y-9272857D01*
X10857981Y-9272857D02*
X10848457Y-9291905D01*
X10848457Y-9291905D02*
X10829410Y-9310952D01*
X10829410Y-9310952D02*
X10800838Y-9320476D01*
X10800838Y-9320476D02*
X10753219Y-9320476D01*
X10953219Y-9320476D02*
X10953219Y-9187143D01*
X10953219Y-9225238D02*
X10962743Y-9206190D01*
X10962743Y-9206190D02*
X10972267Y-9196667D01*
X10972267Y-9196667D02*
X10991314Y-9187143D01*
X10991314Y-9187143D02*
X11010362Y-9187143D01*
X11077029Y-9320476D02*
X11077029Y-9187143D01*
X11077029Y-9120476D02*
X11067505Y-9130000D01*
X11067505Y-9130000D02*
X11077029Y-9139524D01*
X11077029Y-9139524D02*
X11086552Y-9130000D01*
X11086552Y-9130000D02*
X11077029Y-9120476D01*
X11077029Y-9120476D02*
X11077029Y-9139524D01*
X11200838Y-9320476D02*
X11181790Y-9310952D01*
X11181790Y-9310952D02*
X11172267Y-9291905D01*
X11172267Y-9291905D02*
X11172267Y-9120476D01*
X11305600Y-9320476D02*
X11286552Y-9310952D01*
X11286552Y-9310952D02*
X11277028Y-9291905D01*
X11277028Y-9291905D02*
X11277028Y-9120476D01*
X11501790Y-9320476D02*
X11501790Y-9120476D01*
X11501790Y-9120476D02*
X11568457Y-9263333D01*
X11568457Y-9263333D02*
X11635124Y-9120476D01*
X11635124Y-9120476D02*
X11635124Y-9320476D01*
X11816076Y-9320476D02*
X11816076Y-9215714D01*
X11816076Y-9215714D02*
X11806552Y-9196667D01*
X11806552Y-9196667D02*
X11787505Y-9187143D01*
X11787505Y-9187143D02*
X11749409Y-9187143D01*
X11749409Y-9187143D02*
X11730362Y-9196667D01*
X11816076Y-9310952D02*
X11797028Y-9320476D01*
X11797028Y-9320476D02*
X11749409Y-9320476D01*
X11749409Y-9320476D02*
X11730362Y-9310952D01*
X11730362Y-9310952D02*
X11720838Y-9291905D01*
X11720838Y-9291905D02*
X11720838Y-9272857D01*
X11720838Y-9272857D02*
X11730362Y-9253810D01*
X11730362Y-9253810D02*
X11749409Y-9244286D01*
X11749409Y-9244286D02*
X11797028Y-9244286D01*
X11797028Y-9244286D02*
X11816076Y-9234762D01*
X11911314Y-9187143D02*
X11911314Y-9387143D01*
X11911314Y-9196667D02*
X11930362Y-9187143D01*
X11930362Y-9187143D02*
X11968457Y-9187143D01*
X11968457Y-9187143D02*
X11987505Y-9196667D01*
X11987505Y-9196667D02*
X11997028Y-9206190D01*
X11997028Y-9206190D02*
X12006552Y-9225238D01*
X12006552Y-9225238D02*
X12006552Y-9282381D01*
X12006552Y-9282381D02*
X11997028Y-9301429D01*
X11997028Y-9301429D02*
X11987505Y-9310952D01*
X11987505Y-9310952D02*
X11968457Y-9320476D01*
X11968457Y-9320476D02*
X11930362Y-9320476D01*
X11930362Y-9320476D02*
X11911314Y-9310952D01*
X12092267Y-9301429D02*
X12101790Y-9310952D01*
X12101790Y-9310952D02*
X12092267Y-9320476D01*
X12092267Y-9320476D02*
X12082743Y-9310952D01*
X12082743Y-9310952D02*
X12092267Y-9301429D01*
X12092267Y-9301429D02*
X12092267Y-9320476D01*
X12092267Y-9196667D02*
X12101790Y-9206190D01*
X12101790Y-9206190D02*
X12092267Y-9215714D01*
X12092267Y-9215714D02*
X12082743Y-9206190D01*
X12082743Y-9206190D02*
X12092267Y-9196667D01*
X12092267Y-9196667D02*
X12092267Y-9215714D01*
M02*
