G04 #@! TF.GenerationSoftware,KiCad,Pcbnew,(7.0.0)*
G04 #@! TF.CreationDate,2023-12-21T14:48:03-05:00*
G04 #@! TF.ProjectId,luminator,6c756d69-6e61-4746-9f72-2e6b69636164,rev?*
G04 #@! TF.SameCoordinates,Original*
G04 #@! TF.FileFunction,Soldermask,Top*
G04 #@! TF.FilePolarity,Negative*
%FSLAX46Y46*%
G04 Gerber Fmt 4.6, Leading zero omitted, Abs format (unit mm)*
G04 Created by KiCad (PCBNEW (7.0.0)) date 2023-12-21 14:48:03*
%MOMM*%
%LPD*%
G01*
G04 APERTURE LIST*
G04 Aperture macros list*
%AMRoundRect*
0 Rectangle with rounded corners*
0 $1 Rounding radius*
0 $2 $3 $4 $5 $6 $7 $8 $9 X,Y pos of 4 corners*
0 Add a 4 corners polygon primitive as box body*
4,1,4,$2,$3,$4,$5,$6,$7,$8,$9,$2,$3,0*
0 Add four circle primitives for the rounded corners*
1,1,$1+$1,$2,$3*
1,1,$1+$1,$4,$5*
1,1,$1+$1,$6,$7*
1,1,$1+$1,$8,$9*
0 Add four rect primitives between the rounded corners*
20,1,$1+$1,$2,$3,$4,$5,0*
20,1,$1+$1,$4,$5,$6,$7,0*
20,1,$1+$1,$6,$7,$8,$9,0*
20,1,$1+$1,$8,$9,$2,$3,0*%
G04 Aperture macros list end*
%ADD10C,1.600000*%
%ADD11O,1.600000X1.600000*%
%ADD12R,1.800000X1.800000*%
%ADD13C,1.800000*%
%ADD14R,1.930000X1.930000*%
%ADD15C,1.930000*%
%ADD16R,1.600000X1.600000*%
%ADD17C,1.498600*%
%ADD18C,1.524000*%
%ADD19R,1.295400X1.295400*%
%ADD20C,1.295400*%
%ADD21R,0.355600X1.473200*%
%ADD22R,6.000001X3.200001*%
%ADD23R,1.665000X1.665000*%
%ADD24C,1.665000*%
%ADD25R,2.000000X2.000000*%
%ADD26C,2.000000*%
%ADD27RoundRect,0.102000X-0.975000X0.975000X-0.975000X-0.975000X0.975000X-0.975000X0.975000X0.975000X0*%
%ADD28C,2.154000*%
%ADD29C,1.371600*%
G04 APERTURE END LIST*
D10*
X88239600Y-130479800D03*
D11*
X78079599Y-130479799D03*
D12*
X80111599Y-134518399D03*
D13*
X77571600Y-134518400D03*
D12*
X84937599Y-134518399D03*
D13*
X82397600Y-134518400D03*
D12*
X89738199Y-134518399D03*
D13*
X87198200Y-134518400D03*
D12*
X94584599Y-134518399D03*
D13*
X92044600Y-134518400D03*
D10*
X93680600Y-130454400D03*
X91180600Y-130454400D03*
X78892400Y-96804800D03*
X78892400Y-94304800D03*
D14*
X72008999Y-126542799D03*
D15*
X72009000Y-124002800D03*
X72009000Y-121462800D03*
X72009000Y-118922800D03*
X72009000Y-116382800D03*
X72009000Y-113842800D03*
X72009000Y-111302800D03*
X72009000Y-108762800D03*
X72009000Y-106222800D03*
X72009000Y-103682800D03*
X72009000Y-101142800D03*
X72009000Y-98602800D03*
X72009000Y-96062800D03*
X72009000Y-93522800D03*
X72009000Y-90982800D03*
D14*
X49148999Y-126542799D03*
D15*
X49149000Y-124002800D03*
X49149000Y-121462800D03*
X49149000Y-118922800D03*
X49149000Y-116382800D03*
X49149000Y-113842800D03*
X49149000Y-111302800D03*
X49149000Y-108762800D03*
X49149000Y-106222800D03*
X49149000Y-103682800D03*
X49149000Y-101142800D03*
X49149000Y-98602800D03*
X49149000Y-96062800D03*
X49149000Y-93522800D03*
X49149000Y-90982800D03*
D10*
X76479400Y-69037200D03*
D11*
X76479399Y-58877199D03*
D16*
X78917799Y-87833199D03*
D10*
X80917800Y-87833200D03*
D17*
X101854000Y-131318000D03*
X99314000Y-131318000D03*
X101854000Y-128778000D03*
X99314000Y-128778000D03*
X101854000Y-126238000D03*
X99314000Y-126238000D03*
X101854000Y-123698000D03*
X99314000Y-123698000D03*
X101854000Y-121158000D03*
X99314000Y-121158000D03*
X101854000Y-118618000D03*
X99314000Y-118618000D03*
X101854000Y-116078000D03*
X99314000Y-116078000D03*
X101854000Y-113538000D03*
X99314000Y-113538000D03*
X101854000Y-110998000D03*
X99314000Y-110998000D03*
X101854000Y-108458000D03*
X99314000Y-108458000D03*
D18*
X167456401Y-94950999D03*
X164916401Y-94950999D03*
X167456401Y-92410999D03*
X164916401Y-92410999D03*
X167456401Y-89870999D03*
X164916401Y-89870999D03*
X167456401Y-87330999D03*
X164916401Y-87330999D03*
X167456401Y-84790999D03*
X164916401Y-84790999D03*
X167456401Y-82250999D03*
X164916401Y-82250999D03*
X167456401Y-79710999D03*
X164916401Y-79710999D03*
X167456401Y-77170999D03*
X164916401Y-77170999D03*
X167456401Y-74630999D03*
X164916401Y-74630999D03*
X167456401Y-72090999D03*
X164916401Y-72090999D03*
X167456401Y-69550999D03*
X164916401Y-69550999D03*
X167456401Y-67010999D03*
X164916401Y-67010999D03*
X167456401Y-64470999D03*
X164916401Y-64470999D03*
X167456401Y-61930999D03*
X164916401Y-61930999D03*
X167456401Y-59390999D03*
X164916401Y-59390999D03*
X167456401Y-56850999D03*
X164916401Y-56850999D03*
X167456401Y-54310999D03*
X164916401Y-54310999D03*
X167456401Y-51770999D03*
X164916401Y-51770999D03*
X167456401Y-49230999D03*
X164916401Y-49230999D03*
X167456401Y-46690999D03*
X164916401Y-46690999D03*
X167456401Y-44150999D03*
X164916401Y-44150999D03*
X167456401Y-41610999D03*
X164916401Y-41610999D03*
X167456401Y-39070999D03*
X164916401Y-39070999D03*
X167456401Y-36530999D03*
X164916401Y-36530999D03*
X167456401Y-33990999D03*
X164916401Y-33990999D03*
D19*
X77444599Y-108915199D03*
D20*
X77444600Y-111455200D03*
X77444600Y-113995200D03*
X77444600Y-116535200D03*
X77444600Y-119075200D03*
X77444600Y-121615200D03*
X77444600Y-124155200D03*
X77444600Y-126695200D03*
X85064600Y-126695200D03*
X85064600Y-124155200D03*
X85064600Y-121615200D03*
X85064600Y-119075200D03*
X85064600Y-116535200D03*
X85064600Y-113995200D03*
X85064600Y-111455200D03*
X85064600Y-108915200D03*
D12*
X73426399Y-45415199D03*
D13*
X75966400Y-45415200D03*
D10*
X180263800Y-81534000D03*
X180263800Y-79034000D03*
D21*
X107153999Y-67436999D03*
X107804000Y-67436999D03*
X108453999Y-67436999D03*
X109104000Y-67436999D03*
X109753998Y-67436999D03*
D22*
X111378999Y-64515999D03*
D21*
X110404000Y-67436999D03*
X111053998Y-67436999D03*
X111703997Y-67436999D03*
X112353998Y-67436999D03*
X113003997Y-67436999D03*
X113653998Y-67436999D03*
X114303997Y-67436999D03*
X114953998Y-67436999D03*
X115603997Y-67436999D03*
X115603999Y-61594999D03*
X114953998Y-61594999D03*
X114303999Y-61594999D03*
X113653998Y-61594999D03*
X113004000Y-61594999D03*
X112353998Y-61594999D03*
X111704000Y-61594999D03*
X111053998Y-61594999D03*
X110404000Y-61594999D03*
X109753998Y-61594999D03*
X109104000Y-61594999D03*
X108453999Y-61594999D03*
X107804000Y-61594999D03*
X107153999Y-61594999D03*
X129043000Y-67436999D03*
X129693001Y-67436999D03*
X130343000Y-67436999D03*
X130993001Y-67436999D03*
X131642999Y-67436999D03*
X132293001Y-67436999D03*
X132942999Y-67436999D03*
X133592998Y-67436999D03*
D22*
X133268000Y-64515999D03*
D21*
X134242999Y-67436999D03*
X134892998Y-67436999D03*
X135542999Y-67436999D03*
X136192998Y-67436999D03*
X136842999Y-67436999D03*
X137492998Y-67436999D03*
X137493000Y-61594999D03*
X136842999Y-61594999D03*
X136193000Y-61594999D03*
X135542999Y-61594999D03*
X134893001Y-61594999D03*
X134242999Y-61594999D03*
X133593001Y-61594999D03*
X132942999Y-61594999D03*
X132293001Y-61594999D03*
X131642999Y-61594999D03*
X130993001Y-61594999D03*
X130343000Y-61594999D03*
X129693001Y-61594999D03*
X129043000Y-61594999D03*
D10*
X109174600Y-106832400D03*
X106674600Y-106832400D03*
D21*
X85443400Y-75437999D03*
X86093401Y-75437999D03*
D22*
X89668400Y-72516999D03*
D21*
X86743400Y-75437999D03*
X87393401Y-75437999D03*
X88043399Y-75437999D03*
X88693401Y-75437999D03*
X89343399Y-75437999D03*
X89993398Y-75437999D03*
X90643399Y-75437999D03*
X91293398Y-75437999D03*
X91943399Y-75437999D03*
X92593398Y-75437999D03*
X93243399Y-75437999D03*
X93893398Y-75437999D03*
X93893400Y-69595999D03*
X93243399Y-69595999D03*
X92593400Y-69595999D03*
X91943399Y-69595999D03*
X91293401Y-69595999D03*
X90643399Y-69595999D03*
X89993401Y-69595999D03*
X89343399Y-69595999D03*
X88693401Y-69595999D03*
X88043399Y-69595999D03*
X87393401Y-69595999D03*
X86743400Y-69595999D03*
X86093401Y-69595999D03*
X85443400Y-69595999D03*
D17*
X145612401Y-131272999D03*
X143072401Y-131272999D03*
X145612401Y-128732999D03*
X143072401Y-128732999D03*
X145612401Y-126192999D03*
X143072401Y-126192999D03*
X145612401Y-123652999D03*
X143072401Y-123652999D03*
X145612401Y-121112999D03*
X143072401Y-121112999D03*
X145612401Y-118572999D03*
X143072401Y-118572999D03*
X145612401Y-116032999D03*
X143072401Y-116032999D03*
X145612401Y-113492999D03*
X143072401Y-113492999D03*
X145612401Y-110952999D03*
X143072401Y-110952999D03*
X145612401Y-108412999D03*
X143072401Y-108412999D03*
D21*
X85440999Y-92481399D03*
D22*
X89665999Y-89560399D03*
D21*
X86091000Y-92481399D03*
X86740999Y-92481399D03*
X87391000Y-92481399D03*
X88040998Y-92481399D03*
X88691000Y-92481399D03*
X89340998Y-92481399D03*
X89990997Y-92481399D03*
X90640998Y-92481399D03*
X91290997Y-92481399D03*
X91940998Y-92481399D03*
X92590997Y-92481399D03*
X93240998Y-92481399D03*
X93890997Y-92481399D03*
X93890999Y-86639399D03*
X93240998Y-86639399D03*
X92590999Y-86639399D03*
X91940998Y-86639399D03*
X91291000Y-86639399D03*
X90640998Y-86639399D03*
X89991000Y-86639399D03*
X89340998Y-86639399D03*
X88691000Y-86639399D03*
X88040998Y-86639399D03*
X87391000Y-86639399D03*
X86740999Y-86639399D03*
X86091000Y-86639399D03*
X85440999Y-86639399D03*
X85443398Y-42517497D03*
X86093399Y-42517497D03*
X86743398Y-42517497D03*
X87393399Y-42517497D03*
D22*
X89668398Y-39596497D03*
D21*
X88043397Y-42517497D03*
X88693399Y-42517497D03*
X89343397Y-42517497D03*
X89993396Y-42517497D03*
X90643397Y-42517497D03*
X91293396Y-42517497D03*
X91943397Y-42517497D03*
X92593396Y-42517497D03*
X93243397Y-42517497D03*
X93893396Y-42517497D03*
X93893398Y-36675497D03*
X93243397Y-36675497D03*
X92593398Y-36675497D03*
X91943397Y-36675497D03*
X91293399Y-36675497D03*
X90643397Y-36675497D03*
X89993399Y-36675497D03*
X89343397Y-36675497D03*
X88693399Y-36675497D03*
X88043397Y-36675497D03*
X87393399Y-36675497D03*
X86743398Y-36675497D03*
X86093399Y-36675497D03*
X85443398Y-36675497D03*
X172856899Y-122618497D03*
X173506900Y-122618497D03*
X174156899Y-122618497D03*
X174806900Y-122618497D03*
X175456898Y-122618497D03*
X176106900Y-122618497D03*
X176756898Y-122618497D03*
X177406897Y-122618497D03*
X178056898Y-122618497D03*
X178706897Y-122618497D03*
X179356898Y-122618497D03*
D22*
X177081899Y-119697497D03*
D21*
X180006897Y-122618497D03*
X180656898Y-122618497D03*
X181306897Y-122618497D03*
X181306899Y-116776497D03*
X180656898Y-116776497D03*
X180006899Y-116776497D03*
X179356898Y-116776497D03*
X178706900Y-116776497D03*
X178056898Y-116776497D03*
X177406900Y-116776497D03*
X176756898Y-116776497D03*
X176106900Y-116776497D03*
X175456898Y-116776497D03*
X174806900Y-116776497D03*
X174156899Y-116776497D03*
X173506900Y-116776497D03*
X172856899Y-116776497D03*
D10*
X174706600Y-106375200D03*
X172206600Y-106375200D03*
X80340200Y-56743600D03*
X80340200Y-54243600D03*
D17*
X167456401Y-131272999D03*
X164916401Y-131272999D03*
X167456401Y-128732999D03*
X164916401Y-128732999D03*
X167456401Y-126192999D03*
X164916401Y-126192999D03*
X167456401Y-123652999D03*
X164916401Y-123652999D03*
X167456401Y-121112999D03*
X164916401Y-121112999D03*
X167456401Y-118572999D03*
X164916401Y-118572999D03*
X167456401Y-116032999D03*
X164916401Y-116032999D03*
X167456401Y-113492999D03*
X164916401Y-113492999D03*
X167456401Y-110952999D03*
X164916401Y-110952999D03*
X167456401Y-108412999D03*
X164916401Y-108412999D03*
D10*
X152882600Y-106375200D03*
X150382600Y-106375200D03*
D23*
X65203799Y-75302749D03*
D24*
X65203800Y-77842750D03*
X65203800Y-80382750D03*
D21*
X150887000Y-67436999D03*
X151537001Y-67436999D03*
X152187000Y-67436999D03*
X152837001Y-67436999D03*
X153486999Y-67436999D03*
X154137001Y-67436999D03*
X154786999Y-67436999D03*
X155436998Y-67436999D03*
X156086999Y-67436999D03*
X156736998Y-67436999D03*
D22*
X155112000Y-64515999D03*
D21*
X157386999Y-67436999D03*
X158036998Y-67436999D03*
X158686999Y-67436999D03*
X159336998Y-67436999D03*
X159337000Y-61594999D03*
X158686999Y-61594999D03*
X158037000Y-61594999D03*
X157386999Y-61594999D03*
X156737001Y-61594999D03*
X156086999Y-61594999D03*
X155437001Y-61594999D03*
X154786999Y-61594999D03*
X154137001Y-61594999D03*
X153486999Y-61594999D03*
X152837001Y-61594999D03*
X152187000Y-61594999D03*
X151537001Y-61594999D03*
X150887000Y-61594999D03*
X129211001Y-122767998D03*
X129861002Y-122767998D03*
X130511001Y-122767998D03*
X131161002Y-122767998D03*
X131811000Y-122767998D03*
X132461002Y-122767998D03*
X133111000Y-122767998D03*
D22*
X133436001Y-119846998D03*
D21*
X133760999Y-122767998D03*
X134411000Y-122767998D03*
X135060999Y-122767998D03*
X135711000Y-122767998D03*
X136360999Y-122767998D03*
X137011000Y-122767998D03*
X137660999Y-122767998D03*
X137661001Y-116925998D03*
X137011000Y-116925998D03*
X136361001Y-116925998D03*
X135711000Y-116925998D03*
X135061002Y-116925998D03*
X134411000Y-116925998D03*
X133761002Y-116925998D03*
X133111000Y-116925998D03*
X132461002Y-116925998D03*
X131811000Y-116925998D03*
X131161002Y-116925998D03*
X130511001Y-116925998D03*
X129861002Y-116925998D03*
X129211001Y-116925998D03*
D10*
X158470600Y-81483200D03*
X158470600Y-78983200D03*
D21*
X85443400Y-58356499D03*
X86093401Y-58356499D03*
X86743400Y-58356499D03*
D22*
X89668400Y-55435499D03*
D21*
X87393401Y-58356499D03*
X88043399Y-58356499D03*
X88693401Y-58356499D03*
X89343399Y-58356499D03*
X89993398Y-58356499D03*
X90643399Y-58356499D03*
X91293398Y-58356499D03*
X91943399Y-58356499D03*
X92593398Y-58356499D03*
X93243399Y-58356499D03*
X93893398Y-58356499D03*
X93893400Y-52514499D03*
X93243399Y-52514499D03*
X92593400Y-52514499D03*
X91943399Y-52514499D03*
X91293401Y-52514499D03*
X90643399Y-52514499D03*
X89993401Y-52514499D03*
X89343399Y-52514499D03*
X88693401Y-52514499D03*
X88043399Y-52514499D03*
X87393401Y-52514499D03*
X86743400Y-52514499D03*
X86093401Y-52514499D03*
X85443400Y-52514499D03*
X151055001Y-122767998D03*
X151705002Y-122767998D03*
X152355001Y-122767998D03*
X153005002Y-122767998D03*
X153655000Y-122767998D03*
X154305002Y-122767998D03*
X154955000Y-122767998D03*
X155604999Y-122767998D03*
X156255000Y-122767998D03*
D22*
X155280001Y-119846998D03*
D21*
X156904999Y-122767998D03*
X157555000Y-122767998D03*
X158204999Y-122767998D03*
X158855000Y-122767998D03*
X159504999Y-122767998D03*
X159505001Y-116925998D03*
X158855000Y-116925998D03*
X158205001Y-116925998D03*
X157555000Y-116925998D03*
X156905002Y-116925998D03*
X156255000Y-116925998D03*
X155605002Y-116925998D03*
X154955000Y-116925998D03*
X154305002Y-116925998D03*
X153655000Y-116925998D03*
X153005002Y-116925998D03*
X152355001Y-116925998D03*
X151705002Y-116925998D03*
X151055001Y-116925998D03*
D18*
X65659000Y-67932300D03*
X52959000Y-67932300D03*
X60579000Y-67932300D03*
X58039000Y-67932300D03*
X63119000Y-67932300D03*
X55499000Y-67932300D03*
D17*
X123723400Y-131272999D03*
X121183400Y-131272999D03*
X123723400Y-128732999D03*
X121183400Y-128732999D03*
X123723400Y-126192999D03*
X121183400Y-126192999D03*
X123723400Y-123652999D03*
X121183400Y-123652999D03*
X123723400Y-121112999D03*
X121183400Y-121112999D03*
X123723400Y-118572999D03*
X121183400Y-118572999D03*
X123723400Y-116032999D03*
X121183400Y-116032999D03*
X123723400Y-113492999D03*
X121183400Y-113492999D03*
X123723400Y-110952999D03*
X121183400Y-110952999D03*
X123723400Y-108412999D03*
X121183400Y-108412999D03*
D18*
X101854000Y-94996000D03*
X99314000Y-94996000D03*
X101854000Y-92456000D03*
X99314000Y-92456000D03*
X101854000Y-89916000D03*
X99314000Y-89916000D03*
X101854000Y-87376000D03*
X99314000Y-87376000D03*
X101854000Y-84836000D03*
X99314000Y-84836000D03*
X101854000Y-82296000D03*
X99314000Y-82296000D03*
X101854000Y-79756000D03*
X99314000Y-79756000D03*
X101854000Y-77216000D03*
X99314000Y-77216000D03*
X101854000Y-74676000D03*
X99314000Y-74676000D03*
X101854000Y-72136000D03*
X99314000Y-72136000D03*
X101854000Y-69596000D03*
X99314000Y-69596000D03*
X101854000Y-67056000D03*
X99314000Y-67056000D03*
X101854000Y-64516000D03*
X99314000Y-64516000D03*
X101854000Y-61976000D03*
X99314000Y-61976000D03*
X101854000Y-59436000D03*
X99314000Y-59436000D03*
X101854000Y-56896000D03*
X99314000Y-56896000D03*
X101854000Y-54356000D03*
X99314000Y-54356000D03*
X101854000Y-51816000D03*
X99314000Y-51816000D03*
X101854000Y-49276000D03*
X99314000Y-49276000D03*
X101854000Y-46736000D03*
X99314000Y-46736000D03*
X101854000Y-44196000D03*
X99314000Y-44196000D03*
X101854000Y-41656000D03*
X99314000Y-41656000D03*
X101854000Y-39116000D03*
X99314000Y-39116000D03*
X101854000Y-36576000D03*
X99314000Y-36576000D03*
X101854000Y-34036000D03*
X99314000Y-34036000D03*
D10*
X136575800Y-81584800D03*
X136575800Y-79084800D03*
D25*
X74548999Y-126542799D03*
D26*
X74549000Y-124002800D03*
X74549000Y-121462800D03*
X74549000Y-118922800D03*
X74549000Y-116382800D03*
X74549000Y-113842800D03*
X74549000Y-111302800D03*
X74549000Y-108762800D03*
X74549000Y-106222800D03*
X74549000Y-103682800D03*
X74549000Y-101142800D03*
X74549000Y-98602800D03*
X74549000Y-96062800D03*
X74549000Y-93522800D03*
X74549000Y-90982800D03*
X49149000Y-90982800D03*
X49149000Y-93522800D03*
X49149000Y-96062800D03*
X49149000Y-98602800D03*
X49149000Y-101142800D03*
X49149000Y-103682800D03*
X49149000Y-106222800D03*
X49149000Y-108762800D03*
X49149000Y-111302800D03*
X49149000Y-113842800D03*
X49149000Y-116382800D03*
X49149000Y-118922800D03*
X49149000Y-121462800D03*
X49149000Y-124002800D03*
X49149000Y-126542800D03*
D19*
X87147399Y-108915199D03*
D20*
X87147400Y-111455200D03*
X87147400Y-113995200D03*
X87147400Y-116535200D03*
X87147400Y-119075200D03*
X87147400Y-121615200D03*
X87147400Y-124155200D03*
X87147400Y-126695200D03*
X94767400Y-126695200D03*
X94767400Y-124155200D03*
X94767400Y-121615200D03*
X94767400Y-119075200D03*
X94767400Y-116535200D03*
X94767400Y-113995200D03*
X94767400Y-111455200D03*
X94767400Y-108915200D03*
D21*
X107322000Y-122767998D03*
X107972001Y-122767998D03*
X108622000Y-122767998D03*
X109272001Y-122767998D03*
X109921999Y-122767998D03*
X110572001Y-122767998D03*
D22*
X111547000Y-119846998D03*
D21*
X111221999Y-122767998D03*
X111871998Y-122767998D03*
X112521999Y-122767998D03*
X113171998Y-122767998D03*
X113821999Y-122767998D03*
X114471998Y-122767998D03*
X115121999Y-122767998D03*
X115771998Y-122767998D03*
X115772000Y-116925998D03*
X115121999Y-116925998D03*
X114472000Y-116925998D03*
X113821999Y-116925998D03*
X113172001Y-116925998D03*
X112521999Y-116925998D03*
X111872001Y-116925998D03*
X111221999Y-116925998D03*
X110572001Y-116925998D03*
X109921999Y-116925998D03*
X109272001Y-116925998D03*
X108622000Y-116925998D03*
X107972001Y-116925998D03*
X107322000Y-116925998D03*
D12*
X73482199Y-53847999D03*
D13*
X76022200Y-53848000D03*
D21*
X172688898Y-67287498D03*
X173338899Y-67287498D03*
X173988898Y-67287498D03*
X174638899Y-67287498D03*
X175288897Y-67287498D03*
X175938899Y-67287498D03*
X176588897Y-67287498D03*
X177238896Y-67287498D03*
X177888897Y-67287498D03*
X178538896Y-67287498D03*
X179188897Y-67287498D03*
X179838896Y-67287498D03*
D22*
X176913898Y-64366498D03*
D21*
X180488897Y-67287498D03*
X181138896Y-67287498D03*
X181138898Y-61445498D03*
X180488897Y-61445498D03*
X179838898Y-61445498D03*
X179188897Y-61445498D03*
X178538899Y-61445498D03*
X177888897Y-61445498D03*
X177238899Y-61445498D03*
X176588897Y-61445498D03*
X175938899Y-61445498D03*
X175288897Y-61445498D03*
X174638899Y-61445498D03*
X173988898Y-61445498D03*
X173338899Y-61445498D03*
X172688898Y-61445498D03*
D27*
X52044600Y-75234800D03*
D28*
X52044600Y-80314800D03*
D18*
X123723400Y-94950999D03*
X121183400Y-94950999D03*
X123723400Y-92410999D03*
X121183400Y-92410999D03*
X123723400Y-89870999D03*
X121183400Y-89870999D03*
X123723400Y-87330999D03*
X121183400Y-87330999D03*
X123723400Y-84790999D03*
X121183400Y-84790999D03*
X123723400Y-82250999D03*
X121183400Y-82250999D03*
X123723400Y-79710999D03*
X121183400Y-79710999D03*
X123723400Y-77170999D03*
X121183400Y-77170999D03*
X123723400Y-74630999D03*
X121183400Y-74630999D03*
X123723400Y-72090999D03*
X121183400Y-72090999D03*
X123723400Y-69550999D03*
X121183400Y-69550999D03*
X123723400Y-67010999D03*
X121183400Y-67010999D03*
X123723400Y-64470999D03*
X121183400Y-64470999D03*
X123723400Y-61930999D03*
X121183400Y-61930999D03*
X123723400Y-59390999D03*
X121183400Y-59390999D03*
X123723400Y-56850999D03*
X121183400Y-56850999D03*
X123723400Y-54310999D03*
X121183400Y-54310999D03*
X123723400Y-51770999D03*
X121183400Y-51770999D03*
X123723400Y-49230999D03*
X121183400Y-49230999D03*
X123723400Y-46690999D03*
X121183400Y-46690999D03*
X123723400Y-44150999D03*
X121183400Y-44150999D03*
X123723400Y-41610999D03*
X121183400Y-41610999D03*
X123723400Y-39070999D03*
X121183400Y-39070999D03*
X123723400Y-36530999D03*
X121183400Y-36530999D03*
X123723400Y-33990999D03*
X121183400Y-33990999D03*
D10*
X80441800Y-70510400D03*
X80441800Y-68010400D03*
X80340200Y-40620000D03*
X80340200Y-38120000D03*
D29*
X74752200Y-75433550D03*
X74752200Y-80433550D03*
D18*
X145612401Y-94950999D03*
X143072401Y-94950999D03*
X145612401Y-92410999D03*
X143072401Y-92410999D03*
X145612401Y-89870999D03*
X143072401Y-89870999D03*
X145612401Y-87330999D03*
X143072401Y-87330999D03*
X145612401Y-84790999D03*
X143072401Y-84790999D03*
X145612401Y-82250999D03*
X143072401Y-82250999D03*
X145612401Y-79710999D03*
X143072401Y-79710999D03*
X145612401Y-77170999D03*
X143072401Y-77170999D03*
X145612401Y-74630999D03*
X143072401Y-74630999D03*
X145612401Y-72090999D03*
X143072401Y-72090999D03*
X145612401Y-69550999D03*
X143072401Y-69550999D03*
X145612401Y-67010999D03*
X143072401Y-67010999D03*
X145612401Y-64470999D03*
X143072401Y-64470999D03*
X145612401Y-61930999D03*
X143072401Y-61930999D03*
X145612401Y-59390999D03*
X143072401Y-59390999D03*
X145612401Y-56850999D03*
X143072401Y-56850999D03*
X145612401Y-54310999D03*
X143072401Y-54310999D03*
X145612401Y-51770999D03*
X143072401Y-51770999D03*
X145612401Y-49230999D03*
X143072401Y-49230999D03*
X145612401Y-46690999D03*
X143072401Y-46690999D03*
X145612401Y-44150999D03*
X143072401Y-44150999D03*
X145612401Y-41610999D03*
X143072401Y-41610999D03*
X145612401Y-39070999D03*
X143072401Y-39070999D03*
X145612401Y-36530999D03*
X143072401Y-36530999D03*
X145612401Y-33990999D03*
X143072401Y-33990999D03*
D10*
X131018600Y-106375200D03*
X128518600Y-106375200D03*
X114681000Y-81534000D03*
X114681000Y-79034000D03*
X72872600Y-69037200D03*
D11*
X72872599Y-58877199D03*
M02*
