G04 #@! TF.GenerationSoftware,KiCad,Pcbnew,(7.0.0)*
G04 #@! TF.CreationDate,2023-12-21T14:48:03-05:00*
G04 #@! TF.ProjectId,luminator,6c756d69-6e61-4746-9f72-2e6b69636164,rev?*
G04 #@! TF.SameCoordinates,Original*
G04 #@! TF.FileFunction,Copper,L3,Inr*
G04 #@! TF.FilePolarity,Positive*
%FSLAX46Y46*%
G04 Gerber Fmt 4.6, Leading zero omitted, Abs format (unit mm)*
G04 Created by KiCad (PCBNEW (7.0.0)) date 2023-12-21 14:48:03*
%MOMM*%
%LPD*%
G01*
G04 APERTURE LIST*
G04 #@! TA.AperFunction,ComponentPad*
%ADD10C,1.600000*%
G04 #@! TD*
G04 #@! TA.AperFunction,ComponentPad*
%ADD11O,1.600000X1.600000*%
G04 #@! TD*
G04 #@! TA.AperFunction,ComponentPad*
%ADD12R,1.800000X1.800000*%
G04 #@! TD*
G04 #@! TA.AperFunction,ComponentPad*
%ADD13C,1.800000*%
G04 #@! TD*
G04 #@! TA.AperFunction,ComponentPad*
%ADD14R,1.930000X1.930000*%
G04 #@! TD*
G04 #@! TA.AperFunction,ComponentPad*
%ADD15C,1.930000*%
G04 #@! TD*
G04 #@! TA.AperFunction,ComponentPad*
%ADD16R,1.600000X1.600000*%
G04 #@! TD*
G04 #@! TA.AperFunction,ComponentPad*
%ADD17C,1.498600*%
G04 #@! TD*
G04 #@! TA.AperFunction,ComponentPad*
%ADD18C,1.524000*%
G04 #@! TD*
G04 #@! TA.AperFunction,ComponentPad*
%ADD19R,1.295400X1.295400*%
G04 #@! TD*
G04 #@! TA.AperFunction,ComponentPad*
%ADD20C,1.295400*%
G04 #@! TD*
G04 #@! TA.AperFunction,ComponentPad*
%ADD21R,1.665000X1.665000*%
G04 #@! TD*
G04 #@! TA.AperFunction,ComponentPad*
%ADD22C,1.665000*%
G04 #@! TD*
G04 #@! TA.AperFunction,ComponentPad*
%ADD23R,2.000000X2.000000*%
G04 #@! TD*
G04 #@! TA.AperFunction,ComponentPad*
%ADD24C,2.000000*%
G04 #@! TD*
G04 #@! TA.AperFunction,ComponentPad*
%ADD25R,1.950000X1.950000*%
G04 #@! TD*
G04 #@! TA.AperFunction,ComponentPad*
%ADD26C,1.950000*%
G04 #@! TD*
G04 #@! TA.AperFunction,ComponentPad*
%ADD27C,1.371600*%
G04 #@! TD*
G04 #@! TA.AperFunction,ViaPad*
%ADD28C,0.700000*%
G04 #@! TD*
G04 #@! TA.AperFunction,Conductor*
%ADD29C,0.400000*%
G04 #@! TD*
G04 #@! TA.AperFunction,Conductor*
%ADD30C,0.200000*%
G04 #@! TD*
G04 #@! TA.AperFunction,Conductor*
%ADD31C,0.800000*%
G04 #@! TD*
G04 APERTURE END LIST*
D10*
X88239600Y-130479800D03*
D11*
X78079599Y-130479799D03*
D12*
X80111599Y-134518399D03*
D13*
X77571600Y-134518400D03*
D12*
X84937599Y-134518399D03*
D13*
X82397600Y-134518400D03*
D12*
X89738199Y-134518399D03*
D13*
X87198200Y-134518400D03*
D12*
X94584599Y-134518399D03*
D13*
X92044600Y-134518400D03*
D10*
X93680600Y-130454400D03*
X91180600Y-130454400D03*
X78892400Y-96804800D03*
X78892400Y-94304800D03*
D14*
X72008999Y-126542799D03*
D15*
X72009000Y-124002800D03*
X72009000Y-121462800D03*
X72009000Y-118922800D03*
X72009000Y-116382800D03*
X72009000Y-113842800D03*
X72009000Y-111302800D03*
X72009000Y-108762800D03*
X72009000Y-106222800D03*
X72009000Y-103682800D03*
X72009000Y-101142800D03*
X72009000Y-98602800D03*
X72009000Y-96062800D03*
X72009000Y-93522800D03*
X72009000Y-90982800D03*
D14*
X49148999Y-126542799D03*
D15*
X49149000Y-124002800D03*
X49149000Y-121462800D03*
X49149000Y-118922800D03*
X49149000Y-116382800D03*
X49149000Y-113842800D03*
X49149000Y-111302800D03*
X49149000Y-108762800D03*
X49149000Y-106222800D03*
X49149000Y-103682800D03*
X49149000Y-101142800D03*
X49149000Y-98602800D03*
X49149000Y-96062800D03*
X49149000Y-93522800D03*
X49149000Y-90982800D03*
D10*
X76479400Y-69037200D03*
D11*
X76479399Y-58877199D03*
D16*
X78917799Y-87833199D03*
D10*
X80917800Y-87833200D03*
D17*
X101854000Y-131318000D03*
X99314000Y-131318000D03*
X101854000Y-128778000D03*
X99314000Y-128778000D03*
X101854000Y-126238000D03*
X99314000Y-126238000D03*
X101854000Y-123698000D03*
X99314000Y-123698000D03*
X101854000Y-121158000D03*
X99314000Y-121158000D03*
X101854000Y-118618000D03*
X99314000Y-118618000D03*
X101854000Y-116078000D03*
X99314000Y-116078000D03*
X101854000Y-113538000D03*
X99314000Y-113538000D03*
X101854000Y-110998000D03*
X99314000Y-110998000D03*
X101854000Y-108458000D03*
X99314000Y-108458000D03*
D18*
X167456401Y-94950999D03*
X164916401Y-94950999D03*
X167456401Y-92410999D03*
X164916401Y-92410999D03*
X167456401Y-89870999D03*
X164916401Y-89870999D03*
X167456401Y-87330999D03*
X164916401Y-87330999D03*
X167456401Y-84790999D03*
X164916401Y-84790999D03*
X167456401Y-82250999D03*
X164916401Y-82250999D03*
X167456401Y-79710999D03*
X164916401Y-79710999D03*
X167456401Y-77170999D03*
X164916401Y-77170999D03*
X167456401Y-74630999D03*
X164916401Y-74630999D03*
X167456401Y-72090999D03*
X164916401Y-72090999D03*
X167456401Y-69550999D03*
X164916401Y-69550999D03*
X167456401Y-67010999D03*
X164916401Y-67010999D03*
X167456401Y-64470999D03*
X164916401Y-64470999D03*
X167456401Y-61930999D03*
X164916401Y-61930999D03*
X167456401Y-59390999D03*
X164916401Y-59390999D03*
X167456401Y-56850999D03*
X164916401Y-56850999D03*
X167456401Y-54310999D03*
X164916401Y-54310999D03*
X167456401Y-51770999D03*
X164916401Y-51770999D03*
X167456401Y-49230999D03*
X164916401Y-49230999D03*
X167456401Y-46690999D03*
X164916401Y-46690999D03*
X167456401Y-44150999D03*
X164916401Y-44150999D03*
X167456401Y-41610999D03*
X164916401Y-41610999D03*
X167456401Y-39070999D03*
X164916401Y-39070999D03*
X167456401Y-36530999D03*
X164916401Y-36530999D03*
X167456401Y-33990999D03*
X164916401Y-33990999D03*
D19*
X77444599Y-108915199D03*
D20*
X77444600Y-111455200D03*
X77444600Y-113995200D03*
X77444600Y-116535200D03*
X77444600Y-119075200D03*
X77444600Y-121615200D03*
X77444600Y-124155200D03*
X77444600Y-126695200D03*
X85064600Y-126695200D03*
X85064600Y-124155200D03*
X85064600Y-121615200D03*
X85064600Y-119075200D03*
X85064600Y-116535200D03*
X85064600Y-113995200D03*
X85064600Y-111455200D03*
X85064600Y-108915200D03*
D12*
X73426399Y-45415199D03*
D13*
X75966400Y-45415200D03*
D10*
X180263800Y-81534000D03*
X180263800Y-79034000D03*
X109174600Y-106832400D03*
X106674600Y-106832400D03*
D17*
X145612401Y-131272999D03*
X143072401Y-131272999D03*
X145612401Y-128732999D03*
X143072401Y-128732999D03*
X145612401Y-126192999D03*
X143072401Y-126192999D03*
X145612401Y-123652999D03*
X143072401Y-123652999D03*
X145612401Y-121112999D03*
X143072401Y-121112999D03*
X145612401Y-118572999D03*
X143072401Y-118572999D03*
X145612401Y-116032999D03*
X143072401Y-116032999D03*
X145612401Y-113492999D03*
X143072401Y-113492999D03*
X145612401Y-110952999D03*
X143072401Y-110952999D03*
X145612401Y-108412999D03*
X143072401Y-108412999D03*
D10*
X174706600Y-106375200D03*
X172206600Y-106375200D03*
X80340200Y-56743600D03*
X80340200Y-54243600D03*
D17*
X167456401Y-131272999D03*
X164916401Y-131272999D03*
X167456401Y-128732999D03*
X164916401Y-128732999D03*
X167456401Y-126192999D03*
X164916401Y-126192999D03*
X167456401Y-123652999D03*
X164916401Y-123652999D03*
X167456401Y-121112999D03*
X164916401Y-121112999D03*
X167456401Y-118572999D03*
X164916401Y-118572999D03*
X167456401Y-116032999D03*
X164916401Y-116032999D03*
X167456401Y-113492999D03*
X164916401Y-113492999D03*
X167456401Y-110952999D03*
X164916401Y-110952999D03*
X167456401Y-108412999D03*
X164916401Y-108412999D03*
D10*
X152882600Y-106375200D03*
X150382600Y-106375200D03*
D21*
X65203799Y-75302749D03*
D22*
X65203800Y-77842750D03*
X65203800Y-80382750D03*
D10*
X158470600Y-81483200D03*
X158470600Y-78983200D03*
D18*
X65659000Y-67932300D03*
X52959000Y-67932300D03*
X60579000Y-67932300D03*
X58039000Y-67932300D03*
X63119000Y-67932300D03*
X55499000Y-67932300D03*
D17*
X123723400Y-131272999D03*
X121183400Y-131272999D03*
X123723400Y-128732999D03*
X121183400Y-128732999D03*
X123723400Y-126192999D03*
X121183400Y-126192999D03*
X123723400Y-123652999D03*
X121183400Y-123652999D03*
X123723400Y-121112999D03*
X121183400Y-121112999D03*
X123723400Y-118572999D03*
X121183400Y-118572999D03*
X123723400Y-116032999D03*
X121183400Y-116032999D03*
X123723400Y-113492999D03*
X121183400Y-113492999D03*
X123723400Y-110952999D03*
X121183400Y-110952999D03*
X123723400Y-108412999D03*
X121183400Y-108412999D03*
D18*
X101854000Y-94996000D03*
X99314000Y-94996000D03*
X101854000Y-92456000D03*
X99314000Y-92456000D03*
X101854000Y-89916000D03*
X99314000Y-89916000D03*
X101854000Y-87376000D03*
X99314000Y-87376000D03*
X101854000Y-84836000D03*
X99314000Y-84836000D03*
X101854000Y-82296000D03*
X99314000Y-82296000D03*
X101854000Y-79756000D03*
X99314000Y-79756000D03*
X101854000Y-77216000D03*
X99314000Y-77216000D03*
X101854000Y-74676000D03*
X99314000Y-74676000D03*
X101854000Y-72136000D03*
X99314000Y-72136000D03*
X101854000Y-69596000D03*
X99314000Y-69596000D03*
X101854000Y-67056000D03*
X99314000Y-67056000D03*
X101854000Y-64516000D03*
X99314000Y-64516000D03*
X101854000Y-61976000D03*
X99314000Y-61976000D03*
X101854000Y-59436000D03*
X99314000Y-59436000D03*
X101854000Y-56896000D03*
X99314000Y-56896000D03*
X101854000Y-54356000D03*
X99314000Y-54356000D03*
X101854000Y-51816000D03*
X99314000Y-51816000D03*
X101854000Y-49276000D03*
X99314000Y-49276000D03*
X101854000Y-46736000D03*
X99314000Y-46736000D03*
X101854000Y-44196000D03*
X99314000Y-44196000D03*
X101854000Y-41656000D03*
X99314000Y-41656000D03*
X101854000Y-39116000D03*
X99314000Y-39116000D03*
X101854000Y-36576000D03*
X99314000Y-36576000D03*
X101854000Y-34036000D03*
X99314000Y-34036000D03*
D10*
X136575800Y-81584800D03*
X136575800Y-79084800D03*
D23*
X74548999Y-126542799D03*
D24*
X74549000Y-124002800D03*
X74549000Y-121462800D03*
X74549000Y-118922800D03*
X74549000Y-116382800D03*
X74549000Y-113842800D03*
X74549000Y-111302800D03*
X74549000Y-108762800D03*
X74549000Y-106222800D03*
X74549000Y-103682800D03*
X74549000Y-101142800D03*
X74549000Y-98602800D03*
X74549000Y-96062800D03*
X74549000Y-93522800D03*
X74549000Y-90982800D03*
X49149000Y-90982800D03*
X49149000Y-93522800D03*
X49149000Y-96062800D03*
X49149000Y-98602800D03*
X49149000Y-101142800D03*
X49149000Y-103682800D03*
X49149000Y-106222800D03*
X49149000Y-108762800D03*
X49149000Y-111302800D03*
X49149000Y-113842800D03*
X49149000Y-116382800D03*
X49149000Y-118922800D03*
X49149000Y-121462800D03*
X49149000Y-124002800D03*
X49149000Y-126542800D03*
D19*
X87147399Y-108915199D03*
D20*
X87147400Y-111455200D03*
X87147400Y-113995200D03*
X87147400Y-116535200D03*
X87147400Y-119075200D03*
X87147400Y-121615200D03*
X87147400Y-124155200D03*
X87147400Y-126695200D03*
X94767400Y-126695200D03*
X94767400Y-124155200D03*
X94767400Y-121615200D03*
X94767400Y-119075200D03*
X94767400Y-116535200D03*
X94767400Y-113995200D03*
X94767400Y-111455200D03*
X94767400Y-108915200D03*
D12*
X73482199Y-53847999D03*
D13*
X76022200Y-53848000D03*
D25*
X52044599Y-75234799D03*
D26*
X52044600Y-80314800D03*
D18*
X123723400Y-94950999D03*
X121183400Y-94950999D03*
X123723400Y-92410999D03*
X121183400Y-92410999D03*
X123723400Y-89870999D03*
X121183400Y-89870999D03*
X123723400Y-87330999D03*
X121183400Y-87330999D03*
X123723400Y-84790999D03*
X121183400Y-84790999D03*
X123723400Y-82250999D03*
X121183400Y-82250999D03*
X123723400Y-79710999D03*
X121183400Y-79710999D03*
X123723400Y-77170999D03*
X121183400Y-77170999D03*
X123723400Y-74630999D03*
X121183400Y-74630999D03*
X123723400Y-72090999D03*
X121183400Y-72090999D03*
X123723400Y-69550999D03*
X121183400Y-69550999D03*
X123723400Y-67010999D03*
X121183400Y-67010999D03*
X123723400Y-64470999D03*
X121183400Y-64470999D03*
X123723400Y-61930999D03*
X121183400Y-61930999D03*
X123723400Y-59390999D03*
X121183400Y-59390999D03*
X123723400Y-56850999D03*
X121183400Y-56850999D03*
X123723400Y-54310999D03*
X121183400Y-54310999D03*
X123723400Y-51770999D03*
X121183400Y-51770999D03*
X123723400Y-49230999D03*
X121183400Y-49230999D03*
X123723400Y-46690999D03*
X121183400Y-46690999D03*
X123723400Y-44150999D03*
X121183400Y-44150999D03*
X123723400Y-41610999D03*
X121183400Y-41610999D03*
X123723400Y-39070999D03*
X121183400Y-39070999D03*
X123723400Y-36530999D03*
X121183400Y-36530999D03*
X123723400Y-33990999D03*
X121183400Y-33990999D03*
D10*
X80441800Y-70510400D03*
X80441800Y-68010400D03*
X80340200Y-40620000D03*
X80340200Y-38120000D03*
D27*
X74752200Y-75433550D03*
X74752200Y-80433550D03*
D18*
X145612401Y-94950999D03*
X143072401Y-94950999D03*
X145612401Y-92410999D03*
X143072401Y-92410999D03*
X145612401Y-89870999D03*
X143072401Y-89870999D03*
X145612401Y-87330999D03*
X143072401Y-87330999D03*
X145612401Y-84790999D03*
X143072401Y-84790999D03*
X145612401Y-82250999D03*
X143072401Y-82250999D03*
X145612401Y-79710999D03*
X143072401Y-79710999D03*
X145612401Y-77170999D03*
X143072401Y-77170999D03*
X145612401Y-74630999D03*
X143072401Y-74630999D03*
X145612401Y-72090999D03*
X143072401Y-72090999D03*
X145612401Y-69550999D03*
X143072401Y-69550999D03*
X145612401Y-67010999D03*
X143072401Y-67010999D03*
X145612401Y-64470999D03*
X143072401Y-64470999D03*
X145612401Y-61930999D03*
X143072401Y-61930999D03*
X145612401Y-59390999D03*
X143072401Y-59390999D03*
X145612401Y-56850999D03*
X143072401Y-56850999D03*
X145612401Y-54310999D03*
X143072401Y-54310999D03*
X145612401Y-51770999D03*
X143072401Y-51770999D03*
X145612401Y-49230999D03*
X143072401Y-49230999D03*
X145612401Y-46690999D03*
X143072401Y-46690999D03*
X145612401Y-44150999D03*
X143072401Y-44150999D03*
X145612401Y-41610999D03*
X143072401Y-41610999D03*
X145612401Y-39070999D03*
X143072401Y-39070999D03*
X145612401Y-36530999D03*
X143072401Y-36530999D03*
X145612401Y-33990999D03*
X143072401Y-33990999D03*
D10*
X131018600Y-106375200D03*
X128518600Y-106375200D03*
X114681000Y-81534000D03*
X114681000Y-79034000D03*
X72872600Y-69037200D03*
D11*
X72872599Y-58877199D03*
D28*
X158210801Y-127457200D03*
X154180899Y-58211001D03*
X139115800Y-119837200D03*
X134188200Y-69850000D03*
X113207800Y-124206000D03*
X88671400Y-50901600D03*
X87528400Y-78613000D03*
X176707800Y-126593600D03*
X154914600Y-126746000D03*
X132283200Y-99816201D03*
X154076400Y-99872800D03*
X134442200Y-124714000D03*
X112395000Y-102108000D03*
X179885699Y-60141401D03*
X177520600Y-126034800D03*
X114477800Y-115417600D03*
X176583699Y-71170800D03*
X154130099Y-60147200D03*
X87401400Y-61341000D03*
X91973400Y-49428400D03*
X86131400Y-67437000D03*
X154762200Y-100634800D03*
X154790499Y-71323200D03*
X90652600Y-60553600D03*
X176098200Y-115112800D03*
X158013400Y-103733600D03*
X88671400Y-35153600D03*
X85979000Y-48768000D03*
X134950200Y-101346000D03*
X86258400Y-77597000D03*
X110413800Y-60147200D03*
X112547400Y-124714000D03*
X136271000Y-60293801D03*
X135712200Y-113385600D03*
X136779000Y-103581200D03*
X83642200Y-39573200D03*
X133680200Y-102864201D03*
X89992200Y-45923200D03*
X177876200Y-102108000D03*
X156286200Y-124714000D03*
X157556200Y-113385600D03*
X113004600Y-70561200D03*
X87147400Y-44831000D03*
X110388400Y-99822000D03*
X92329000Y-61976000D03*
X134899400Y-70662800D03*
X112293400Y-69850000D03*
X178536600Y-101346000D03*
X156009699Y-69850000D03*
X154305000Y-115265200D03*
X83439000Y-102971600D03*
X178739800Y-124053600D03*
X155727400Y-126187200D03*
X111175800Y-126746000D03*
X177193299Y-70459600D03*
X89992200Y-102870000D03*
X156083000Y-102158800D03*
X175923299Y-59994800D03*
X113665000Y-69037200D03*
X135102600Y-124206000D03*
X86131400Y-84201000D03*
X97409000Y-104038400D03*
X157381299Y-69031401D03*
X111785400Y-102870000D03*
X86868000Y-65963800D03*
X91719400Y-33782000D03*
X135706401Y-125272800D03*
X160959800Y-119837200D03*
X89331800Y-46583600D03*
X131185201Y-126288800D03*
X83642200Y-72542400D03*
X91262200Y-44399200D03*
X179349400Y-113233200D03*
X135559800Y-69031401D03*
X133578600Y-70612000D03*
X88671400Y-85090000D03*
X178514099Y-70510400D03*
X114681000Y-104038400D03*
X90652600Y-78282800D03*
X132969000Y-100578201D03*
X109905800Y-124358400D03*
X179813497Y-71397599D03*
X177802899Y-69697600D03*
X158092499Y-60293801D03*
X91363800Y-94081600D03*
X91313000Y-77571600D03*
X157550401Y-125272800D03*
X90652600Y-102108000D03*
X133070600Y-126746000D03*
X109296200Y-126288800D03*
X134289800Y-102102201D03*
X87020400Y-84074000D03*
X91313000Y-101346000D03*
X138303000Y-108407200D03*
X153638801Y-124358400D03*
X111683800Y-70561200D03*
X156946600Y-124206000D03*
X132308600Y-60147200D03*
X116459000Y-108458000D03*
X89331800Y-95758000D03*
X136372600Y-115417600D03*
X155400099Y-70612000D03*
X110464600Y-58216800D03*
X89331800Y-61976000D03*
X110566200Y-115265200D03*
X176089849Y-58174351D03*
X85623400Y-33655000D03*
X114477800Y-127457200D03*
X111988600Y-126187200D03*
X91313000Y-59944000D03*
X156720899Y-70662800D03*
X153029201Y-126288800D03*
X86385400Y-96647000D03*
X88671400Y-67919600D03*
X181991000Y-108356400D03*
X182753000Y-119684800D03*
X158020297Y-71549999D03*
X175895000Y-99822000D03*
X175440699Y-124208899D03*
X91973400Y-78079600D03*
X90601800Y-45110400D03*
X158216600Y-115417600D03*
X113817400Y-125272800D03*
X132359400Y-58211001D03*
X155473400Y-102920800D03*
X160096200Y-108458000D03*
X177266600Y-102870000D03*
X174831099Y-126139299D03*
X111074200Y-100584000D03*
X89992200Y-78943200D03*
X95427800Y-60096400D03*
X111074200Y-71221600D03*
X136198798Y-71549999D03*
X113055400Y-101346000D03*
X86512400Y-62103000D03*
X114303998Y-71555798D03*
X87147400Y-46228000D03*
X85877400Y-60960000D03*
X89992200Y-95250000D03*
X91922600Y-83261200D03*
X85572600Y-103886000D03*
X85420200Y-50444400D03*
X89331800Y-79603600D03*
X132969000Y-71323200D03*
X117221000Y-119837200D03*
X88671400Y-99822000D03*
X87020400Y-33782000D03*
X132461000Y-115265200D03*
X133883400Y-126187200D03*
X89992200Y-61264800D03*
X86766400Y-95123000D03*
X86766400Y-93980000D03*
X136366801Y-127457200D03*
X178079400Y-124561600D03*
X114376200Y-60299600D03*
X92278200Y-66344800D03*
X90652600Y-94538800D03*
X180009800Y-115265200D03*
X113817400Y-113385600D03*
X180012699Y-127307699D03*
X86766400Y-79502000D03*
X86131400Y-44577000D03*
X83642200Y-89560400D03*
X176555400Y-100584000D03*
X179352299Y-125123299D03*
X89331800Y-100584000D03*
X156743400Y-101396800D03*
X83642200Y-55473600D03*
X179174499Y-68879001D03*
X131794801Y-124358400D03*
D29*
X100584000Y-35306000D02*
X101854000Y-34036000D01*
X98450400Y-35306000D02*
X100584000Y-35306000D01*
X96926400Y-36830000D02*
X98450400Y-35306000D01*
X96418400Y-42545000D02*
X96926400Y-42037000D01*
X96926400Y-42037000D02*
X96926400Y-36830000D01*
X93497400Y-48082200D02*
X96418400Y-45161200D01*
X96418400Y-45161200D02*
X96418400Y-42545000D01*
X86995000Y-48082200D02*
X93497400Y-48082200D01*
X86131400Y-44577000D02*
X86131400Y-47218600D01*
X86131400Y-47218600D02*
X86995000Y-48082200D01*
X100609400Y-37820600D02*
X101854000Y-36576000D01*
X97942400Y-42164000D02*
X97942400Y-38481000D01*
X98577400Y-37846000D02*
X100609400Y-37846000D01*
X97180400Y-42926000D02*
X97942400Y-42164000D01*
X97180400Y-45847000D02*
X97180400Y-42926000D01*
X97942400Y-38481000D02*
X98577400Y-37846000D01*
X94259400Y-48768000D02*
X97180400Y-45847000D01*
X85979000Y-48768000D02*
X94259400Y-48768000D01*
X100609400Y-37846000D02*
X100609400Y-37820600D01*
X98501200Y-93726000D02*
X100584000Y-93726000D01*
X100584000Y-93726000D02*
X101854000Y-92456000D01*
X95250000Y-96977200D02*
X98501200Y-93726000D01*
X86715600Y-96977200D02*
X95250000Y-96977200D01*
X86385400Y-96647000D02*
X86715600Y-96977200D01*
X80111600Y-133299200D02*
X82931000Y-130479800D01*
X82931000Y-130479800D02*
X88239600Y-130479800D01*
X80111600Y-134518400D02*
X80111600Y-133299200D01*
X84937600Y-133781800D02*
X88239600Y-130479800D01*
X84937600Y-134518400D02*
X84937600Y-133781800D01*
X89738200Y-131978400D02*
X89573100Y-131813300D01*
X89738200Y-134518400D02*
X89738200Y-131978400D01*
X89573100Y-131813300D02*
X88239600Y-130479800D01*
X89839800Y-132080000D02*
X89573100Y-131813300D01*
X92252800Y-132080000D02*
X89839800Y-132080000D01*
X94584600Y-134411800D02*
X92252800Y-132080000D01*
X94584600Y-134518400D02*
X94584600Y-134411800D01*
X78079600Y-130479800D02*
X78079600Y-127330200D01*
X78079600Y-127330200D02*
X77444600Y-126695200D01*
X78689200Y-125450600D02*
X77444600Y-126695200D01*
X85902800Y-125450600D02*
X78689200Y-125450600D01*
X87147400Y-126695200D02*
X85902800Y-125450600D01*
D30*
X71094600Y-99872800D02*
X70231000Y-99009200D01*
X74549000Y-101142800D02*
X73279000Y-99872800D01*
X73279000Y-99872800D02*
X71094600Y-99872800D01*
X70231000Y-99009200D02*
X70231000Y-96062800D01*
D29*
X81028200Y-93398000D02*
X81028200Y-95247800D01*
X80304300Y-92674100D02*
X81028200Y-93398000D01*
X79059700Y-92674100D02*
X80304300Y-92674100D01*
X81028200Y-95247800D02*
X85602400Y-99822000D01*
X74549000Y-90982800D02*
X77368400Y-90982800D01*
X77368400Y-90982800D02*
X79059700Y-92674100D01*
X85602400Y-99822000D02*
X88671400Y-99822000D01*
D30*
X79578200Y-100533200D02*
X79578200Y-100584000D01*
D29*
X163392401Y-86151001D02*
X162630401Y-86913001D01*
X98069400Y-65760600D02*
X99314000Y-64516000D01*
X92329000Y-61976000D02*
X98069400Y-56235600D01*
X87909400Y-80264000D02*
X93878400Y-80264000D01*
X140786401Y-38653001D02*
X124251001Y-38653001D01*
D31*
X145612401Y-108412999D02*
X152933400Y-108412999D01*
D29*
X70510400Y-93522800D02*
X74549000Y-93522800D01*
X102362000Y-38653001D02*
X101854000Y-39161001D01*
X127787400Y-119126000D02*
X124739400Y-116078000D01*
X75946000Y-115265200D02*
X74523600Y-113842800D01*
X112395000Y-102108000D02*
X134289800Y-102108000D01*
X102362000Y-36068000D02*
X101854000Y-36576000D01*
X134950200Y-101346000D02*
X134797800Y-101346000D01*
X144387402Y-42971001D02*
X141548401Y-42971001D01*
D30*
X80086200Y-102870000D02*
X75463400Y-107492800D01*
D29*
X152882600Y-106375200D02*
X152882600Y-108362199D01*
X109397800Y-127457200D02*
X105638600Y-123698000D01*
X118897400Y-48813001D02*
X102362000Y-48813001D01*
X100482400Y-42291000D02*
X100482400Y-40487600D01*
X162630401Y-48813001D02*
X146095001Y-48813001D01*
X122199400Y-104800400D02*
X95377000Y-104800400D01*
X149123400Y-103733600D02*
X148463000Y-104394000D01*
X153644600Y-124307600D02*
X149631400Y-120294400D01*
X146095001Y-33573001D02*
X145587001Y-34081001D01*
X162630401Y-33573001D02*
X146095001Y-33573001D01*
X145612401Y-92456000D02*
X144387402Y-91231001D01*
X103251000Y-67665600D02*
X103251000Y-60833000D01*
X124251001Y-91993001D02*
X123743001Y-92501001D01*
X104165400Y-121158000D02*
X101854000Y-121158000D01*
X90703400Y-102870000D02*
X92583000Y-102870000D01*
X132283200Y-99816201D02*
X131907999Y-99816201D01*
X113055400Y-101346000D02*
X134797800Y-101346000D01*
X82046400Y-101346000D02*
X82025400Y-101367000D01*
X124251001Y-38653001D02*
X123743001Y-39161001D01*
X167456401Y-87376000D02*
X166231402Y-86151001D01*
X177266600Y-102870000D02*
X176961800Y-102870000D01*
X135559800Y-69031401D02*
X125349000Y-58820601D01*
X90703400Y-102870000D02*
X89992200Y-102870000D01*
X153898600Y-99872800D02*
X153847800Y-99822000D01*
X98298000Y-33020000D02*
X99314000Y-34036000D01*
D30*
X73279000Y-104952800D02*
X69138800Y-104952800D01*
D29*
X93446600Y-110134400D02*
X94767400Y-111455200D01*
X163392401Y-37891001D02*
X162630401Y-38653001D01*
X99720400Y-48006000D02*
X100609400Y-47117000D01*
X157440095Y-72130201D02*
X151437699Y-72130201D01*
X166231402Y-42971001D02*
X163392401Y-42971001D01*
X98577400Y-86106000D02*
X100584000Y-86106000D01*
X114376200Y-60299600D02*
X115290600Y-61214000D01*
X144387402Y-35306000D02*
X141548401Y-35306000D01*
D31*
X99314000Y-108458000D02*
X101854000Y-108458000D01*
D29*
X149631400Y-119126000D02*
X146583400Y-116078000D01*
X156235400Y-102158800D02*
X156286200Y-102108000D01*
X162630401Y-94533001D02*
X146095001Y-94533001D01*
X98323400Y-58166000D02*
X99847400Y-58166000D01*
X136169400Y-72739801D02*
X124358400Y-72739801D01*
X163392401Y-81071001D02*
X160897402Y-83566000D01*
X85877400Y-63627000D02*
X86385400Y-64135000D01*
X156286200Y-102108000D02*
X177673000Y-102108000D01*
X136271000Y-60293801D02*
X137185400Y-61208201D01*
D31*
X121138399Y-108458000D02*
X121183400Y-108412999D01*
D29*
X173230899Y-71977801D02*
X168760499Y-67507401D01*
D30*
X69138800Y-104952800D02*
X62788800Y-98602800D01*
D29*
X156946600Y-101346000D02*
X178536600Y-101346000D01*
X166231402Y-91231001D02*
X163392401Y-91231001D01*
X149377400Y-123698000D02*
X145592800Y-123698000D01*
X122498401Y-35306000D02*
X119659400Y-35306000D01*
X132715000Y-100584000D02*
X154609800Y-100584000D01*
X147170499Y-58820601D02*
X147170499Y-55950401D01*
D30*
X72009000Y-98602800D02*
X73279000Y-97332800D01*
D29*
X119659400Y-81071001D02*
X117164401Y-83566000D01*
X132969000Y-100578201D02*
X132720799Y-100578201D01*
X85623400Y-33655000D02*
X86258400Y-33020000D01*
X85318600Y-70916800D02*
X82412200Y-68010400D01*
X87401400Y-61341000D02*
X87401400Y-62103000D01*
X113665000Y-69037200D02*
X103454200Y-58826400D01*
X119659400Y-35306000D02*
X118897400Y-36068000D01*
X109174600Y-108387200D02*
X109245400Y-108458000D01*
X119659400Y-42971001D02*
X118897400Y-43733001D01*
X96240600Y-107289600D02*
X96240600Y-111963200D01*
X98577400Y-48006000D02*
X99720400Y-48006000D01*
X141548401Y-81071001D02*
X139053402Y-83566000D01*
X140786401Y-36068000D02*
X124251001Y-36068000D01*
X60579000Y-83591400D02*
X70510400Y-93522800D01*
X148463000Y-104394000D02*
X123520200Y-104394000D01*
X78435200Y-117805200D02*
X75946000Y-117805200D01*
X119659400Y-32811001D02*
X118897400Y-33573001D01*
X156083000Y-102158800D02*
X156235400Y-102158800D01*
X133680200Y-102864201D02*
X133725201Y-102864201D01*
X182753000Y-119684800D02*
X182753000Y-108305600D01*
D31*
X101854000Y-108458000D02*
X109245400Y-108458000D01*
D29*
X155575000Y-102870000D02*
X176961800Y-102870000D01*
X145612401Y-94996000D02*
X144387402Y-93771001D01*
X141548401Y-91231001D02*
X140786401Y-91993001D01*
X87020400Y-82296000D02*
X87528400Y-81788000D01*
X179813497Y-71397599D02*
X179233295Y-71977801D01*
X145612401Y-39116000D02*
X144387402Y-37891001D01*
X74549000Y-90982800D02*
X72009000Y-90982800D01*
D31*
X143072401Y-108412999D02*
X145612401Y-108412999D01*
D29*
X144387402Y-91231001D02*
X141548401Y-91231001D01*
X118897400Y-36068000D02*
X102362000Y-36068000D01*
X154762200Y-100634800D02*
X154711400Y-100584000D01*
D31*
X181432200Y-108407200D02*
X181940200Y-108407200D01*
D29*
X174828200Y-126136400D02*
X169697400Y-121005600D01*
X155473400Y-102920800D02*
X155524200Y-102870000D01*
X100609400Y-47117000D02*
X100609400Y-45440600D01*
X124251001Y-94533001D02*
X123743001Y-95041001D01*
X95377000Y-104800400D02*
X93446600Y-106730800D01*
X124251001Y-86913001D02*
X123743001Y-87421001D01*
X180800099Y-61055801D02*
X180800099Y-71571401D01*
X141548401Y-93771001D02*
X140786401Y-94533001D01*
X167456401Y-94996000D02*
X166231402Y-93771001D01*
X114681000Y-104038400D02*
X97409000Y-104038400D01*
X144387402Y-37891001D02*
X141548401Y-37891001D01*
X137185400Y-71723801D02*
X136169400Y-72739801D01*
X86512400Y-62357000D02*
X87401400Y-63246000D01*
X166231402Y-93771001D02*
X163392401Y-93771001D01*
X75996800Y-120396000D02*
X74574400Y-118973600D01*
X118897400Y-38653001D02*
X102362000Y-38653001D01*
X122498401Y-86151001D02*
X119659400Y-86151001D01*
X70231000Y-96062800D02*
X72009000Y-96062800D01*
X158020297Y-71549999D02*
X157440095Y-72130201D01*
X171424600Y-120142000D02*
X171424600Y-118973600D01*
X113817400Y-125272800D02*
X113665000Y-125425200D01*
X113723796Y-72136000D02*
X107721400Y-72136000D01*
X124251001Y-36068000D02*
X123743001Y-36576000D01*
X109905800Y-124358400D02*
X109905800Y-124307600D01*
X126060200Y-121158000D02*
X123748800Y-121158000D01*
X167456401Y-36530999D02*
X166231402Y-35306000D01*
X105892600Y-120294400D02*
X105892600Y-119126000D01*
X162630401Y-91993001D02*
X146095001Y-91993001D01*
X90703400Y-62611000D02*
X97053400Y-56261000D01*
X125907800Y-118618000D02*
X123748800Y-118618000D01*
D31*
X131089400Y-108412999D02*
X143072401Y-108412999D01*
D29*
X103454200Y-55956200D02*
X101854000Y-54356000D01*
X136372600Y-127457200D02*
X131292600Y-127457200D01*
X153035000Y-126288800D02*
X147904200Y-121158000D01*
X87020400Y-84074000D02*
X87020400Y-82296000D01*
X166231402Y-35306000D02*
X163392401Y-35306000D01*
X141548401Y-37891001D02*
X140786401Y-38653001D01*
X78486000Y-120396000D02*
X75996800Y-120396000D01*
X119659400Y-37891001D02*
X118897400Y-38653001D01*
X100609400Y-57404000D02*
X100609400Y-50520600D01*
X124251001Y-43733001D02*
X123743001Y-44241001D01*
X85039200Y-121615200D02*
X82245200Y-121615200D01*
X111074200Y-100584000D02*
X132715000Y-100584000D01*
D30*
X74549000Y-106222800D02*
X73279000Y-104952800D01*
D29*
X98069400Y-43307000D02*
X98450400Y-42926000D01*
X96240600Y-111963200D02*
X95529400Y-112674400D01*
X159006899Y-71723801D02*
X157990899Y-72739801D01*
X156794200Y-101346000D02*
X156946600Y-101346000D01*
X86258400Y-77597000D02*
X86004400Y-77851000D01*
X84596600Y-54243600D02*
X80340200Y-54243600D01*
X131495800Y-125425200D02*
X126923800Y-120853200D01*
X170561000Y-119481600D02*
X169545000Y-118465600D01*
X85064600Y-113995200D02*
X82270600Y-113995200D01*
X114477800Y-127457200D02*
X109397800Y-127457200D01*
X82412200Y-68010400D02*
X80441800Y-68010400D01*
X131018600Y-106375200D02*
X131018600Y-108342199D01*
X105029000Y-120853200D02*
X105029000Y-119634000D01*
D30*
X70993000Y-107492800D02*
X64643000Y-101142800D01*
D29*
X124251001Y-48813001D02*
X123743001Y-49321001D01*
X146812000Y-83566000D02*
X145587001Y-82341001D01*
X140786401Y-43733001D02*
X124251001Y-43733001D01*
D30*
X73279000Y-97332800D02*
X76377800Y-97332800D01*
D29*
X109905800Y-124307600D02*
X105892600Y-120294400D01*
X179784099Y-72587401D02*
X167973099Y-72587401D01*
X123723400Y-34036000D02*
X122498401Y-32811001D01*
X126923800Y-120853200D02*
X126923800Y-119634000D01*
X163392401Y-91231001D02*
X162630401Y-91993001D01*
X82245200Y-116535200D02*
X78435200Y-112725200D01*
X100609400Y-50520600D02*
X101854000Y-49276000D01*
X115290600Y-61214000D02*
X115290600Y-71729600D01*
X85877400Y-60960000D02*
X85877400Y-63627000D01*
X158092499Y-60293801D02*
X159006899Y-61208201D01*
X139115800Y-119837200D02*
X139115800Y-108458000D01*
X74549000Y-103682800D02*
X77647800Y-100584000D01*
X109601000Y-125425200D02*
X105029000Y-120853200D01*
X87909400Y-62611000D02*
X90703400Y-62611000D01*
X145612401Y-34036000D02*
X144387402Y-32811001D01*
X119659400Y-91231001D02*
X118897400Y-91993001D01*
X80848200Y-102108000D02*
X90652600Y-102108000D01*
X153136600Y-127457200D02*
X149377400Y-123698000D01*
X102362000Y-86913001D02*
X101854000Y-87421001D01*
D31*
X117221000Y-108458000D02*
X121138399Y-108458000D01*
D29*
X123723400Y-82296000D02*
X122498401Y-81071001D01*
D31*
X174828200Y-108407200D02*
X181432200Y-108407200D01*
D29*
X125349000Y-55950401D02*
X123748800Y-54350201D01*
X123418600Y-103581200D02*
X122199400Y-104800400D01*
X131907999Y-99816201D02*
X131902200Y-99822000D01*
X100584000Y-81026000D02*
X101854000Y-82296000D01*
X122453400Y-105460800D02*
X98069400Y-105460800D01*
X90652600Y-102108000D02*
X112395000Y-102108000D01*
X96672400Y-68453000D02*
X98069400Y-67056000D01*
X89992200Y-45923200D02*
X85369400Y-41300400D01*
X77647800Y-100584000D02*
X79578200Y-100584000D01*
X115290600Y-71729600D02*
X114274600Y-72745600D01*
X118897400Y-86913001D02*
X102362000Y-86913001D01*
X87401400Y-62103000D02*
X87909400Y-62611000D01*
X114303998Y-71555798D02*
X113723796Y-72136000D01*
X118897400Y-33573001D02*
X102362000Y-33573001D01*
X162630401Y-36068000D02*
X146095001Y-36068000D01*
X75971400Y-110185200D02*
X74549000Y-108762800D01*
X163392401Y-48051001D02*
X162630401Y-48813001D01*
X87401400Y-63246000D02*
X93243400Y-63246000D01*
X119659400Y-86151001D02*
X118897400Y-86913001D01*
X170561000Y-120700800D02*
X170561000Y-119481600D01*
X85369400Y-38862000D02*
X84627400Y-38120000D01*
X122498401Y-48051001D02*
X119659400Y-48051001D01*
X167456401Y-92456000D02*
X166231402Y-91231001D01*
X148767800Y-120853200D02*
X148767800Y-119634000D01*
X89331800Y-100584000D02*
X111074200Y-100584000D01*
X110388400Y-99822000D02*
X131902200Y-99822000D01*
X133731000Y-102870000D02*
X155575000Y-102870000D01*
X86893400Y-81026000D02*
X100584000Y-81026000D01*
X93649800Y-112674400D02*
X92430600Y-111455200D01*
X124739400Y-116078000D02*
X123748800Y-116078000D01*
X162630401Y-86913001D02*
X146095001Y-86913001D01*
X160959800Y-119837200D02*
X160959800Y-108458000D01*
X98069400Y-48514000D02*
X98577400Y-48006000D01*
X99847400Y-58166000D02*
X100609400Y-57404000D01*
X167456401Y-49276000D02*
X166231402Y-48051001D01*
X82270600Y-113995200D02*
X78460600Y-110185200D01*
X85039200Y-116535200D02*
X82245200Y-116535200D01*
X123723400Y-36530999D02*
X122498401Y-35306000D01*
X103078999Y-83566000D02*
X101854000Y-82341001D01*
X175437800Y-124155200D02*
X171424600Y-120142000D01*
X131018600Y-108342199D02*
X131089400Y-108412999D01*
X177876200Y-102108000D02*
X177673000Y-102108000D01*
X126923800Y-119634000D02*
X125907800Y-118618000D01*
D31*
X181940200Y-108407200D02*
X181991000Y-108356400D01*
D29*
X166231402Y-81071001D02*
X163392401Y-81071001D01*
X123723400Y-39116000D02*
X122498401Y-37891001D01*
X131902200Y-99822000D02*
X153847800Y-99822000D01*
D30*
X62788800Y-98602800D02*
X49149000Y-98602800D01*
D29*
X168760499Y-67507401D02*
X168760499Y-60674801D01*
X119659400Y-93771001D02*
X118897400Y-94533001D01*
X141548401Y-48051001D02*
X140786401Y-48813001D01*
X144387402Y-86151001D02*
X141548401Y-86151001D01*
X157403800Y-125425200D02*
X153339800Y-125425200D01*
X86004400Y-77851000D02*
X86004400Y-80137000D01*
X147751800Y-118618000D02*
X145592800Y-118618000D01*
X146095001Y-86913001D02*
X145587001Y-87421001D01*
X111785400Y-102870000D02*
X133731000Y-102870000D01*
D31*
X167456401Y-108412999D02*
X167462200Y-108407200D01*
D29*
X105892600Y-119126000D02*
X102844600Y-116078000D01*
X98450400Y-42926000D02*
X99847400Y-42926000D01*
X179233295Y-71977801D02*
X173230899Y-71977801D01*
X118897400Y-43733001D02*
X102362000Y-43733001D01*
X180009800Y-127304800D02*
X174929800Y-127304800D01*
X79578200Y-100584000D02*
X89331800Y-100584000D01*
X95529400Y-112674400D02*
X93649800Y-112674400D01*
X141548401Y-35306000D02*
X140786401Y-36068000D01*
X140786401Y-33573001D02*
X124251001Y-33573001D01*
X125145800Y-60827201D02*
X123748800Y-59430201D01*
X151437699Y-72130201D02*
X146967299Y-67659801D01*
X171424600Y-118973600D02*
X168376600Y-115925600D01*
X153847800Y-99822000D02*
X175945800Y-99822000D01*
X92430600Y-111455200D02*
X87147400Y-111455200D01*
X141548401Y-32811001D02*
X140786401Y-33573001D01*
X96672400Y-77470000D02*
X96672400Y-68453000D01*
X88671400Y-99822000D02*
X110388400Y-99822000D01*
X113055400Y-101346000D02*
X91313000Y-101346000D01*
X122498401Y-91231001D02*
X119659400Y-91231001D01*
X97053400Y-47244000D02*
X98069400Y-46228000D01*
X122498401Y-42971001D02*
X119659400Y-42971001D01*
X78460600Y-110185200D02*
X75971400Y-110185200D01*
X85090000Y-124206000D02*
X82296000Y-124206000D01*
D31*
X123723400Y-108412999D02*
X131089400Y-108412999D01*
D29*
X153339800Y-125425200D02*
X148767800Y-120853200D01*
X89992200Y-61264800D02*
X84963000Y-56235600D01*
X168760499Y-60674801D02*
X167363499Y-59277801D01*
X158216600Y-127457200D02*
X153136600Y-127457200D01*
X162630401Y-43733001D02*
X146095001Y-43733001D01*
X103251000Y-60833000D02*
X101854000Y-59436000D01*
X86512400Y-62103000D02*
X86512400Y-62357000D01*
X84963000Y-56235600D02*
X84963000Y-54610000D01*
X85318600Y-74269600D02*
X85318600Y-70916800D01*
X131292600Y-127457200D02*
X127533400Y-123698000D01*
X134797800Y-101346000D02*
X156946600Y-101346000D01*
X105638600Y-123698000D02*
X101854000Y-123698000D01*
X78435200Y-115265200D02*
X75946000Y-115265200D01*
X156743400Y-101396800D02*
X156794200Y-101346000D01*
X79455600Y-101367000D02*
X74599800Y-106222800D01*
X80086200Y-102870000D02*
X80848200Y-102108000D01*
X146967299Y-60827201D02*
X145570299Y-59430201D01*
X166231402Y-86151001D02*
X163392401Y-86151001D01*
X154076400Y-99872800D02*
X153898600Y-99872800D01*
X107721400Y-72136000D02*
X103251000Y-67665600D01*
D30*
X76377800Y-97332800D02*
X79578200Y-100533200D01*
D29*
X78435200Y-112725200D02*
X75946000Y-112725200D01*
X140786401Y-48813001D02*
X124251001Y-48813001D01*
X109174600Y-106832400D02*
X109174600Y-108387200D01*
X124968000Y-83566000D02*
X123743001Y-82341001D01*
X123723400Y-49276000D02*
X122498401Y-48051001D01*
X117221000Y-119837200D02*
X117221000Y-108458000D01*
X98069400Y-56235600D02*
X98069400Y-48514000D01*
X86004400Y-80137000D02*
X86893400Y-81026000D01*
X123723400Y-92456000D02*
X122498401Y-91231001D01*
X93446600Y-106730800D02*
X93446600Y-110134400D01*
X86385400Y-64135000D02*
X94615000Y-64135000D01*
D30*
X75463400Y-107492800D02*
X70993000Y-107492800D01*
D31*
X109245400Y-108458000D02*
X116459000Y-108458000D01*
D29*
X168963699Y-55798001D02*
X167363499Y-54197801D01*
D31*
X167462200Y-108407200D02*
X174828200Y-108407200D01*
D29*
X132720799Y-100578201D02*
X132715000Y-100584000D01*
X157990899Y-72739801D02*
X146179899Y-72739801D01*
X134289800Y-102102201D02*
X134289800Y-102108000D01*
X163392401Y-93771001D02*
X162630401Y-94533001D01*
X167456401Y-34036000D02*
X166231402Y-32811001D01*
X168963699Y-58668201D02*
X168963699Y-55798001D01*
X86258400Y-33020000D02*
X98298000Y-33020000D01*
X174706600Y-108285600D02*
X174828200Y-108407200D01*
X123723400Y-44196000D02*
X122498401Y-42971001D01*
X87528400Y-78613000D02*
X87528400Y-79883000D01*
X166231402Y-37891001D02*
X163392401Y-37891001D01*
X127787400Y-120294400D02*
X127787400Y-119126000D01*
X175895000Y-99822000D02*
X175945800Y-99822000D01*
X100482400Y-40487600D02*
X101854000Y-39116000D01*
D31*
X121183400Y-108412999D02*
X123723400Y-108412999D01*
D29*
X179174499Y-68879001D02*
X168963699Y-58668201D01*
X166231402Y-32811001D02*
X163392401Y-32811001D01*
X122498401Y-37891001D02*
X119659400Y-37891001D01*
X146095001Y-43733001D02*
X145587001Y-44241001D01*
X89992200Y-102870000D02*
X83540600Y-102870000D01*
X168376600Y-115925600D02*
X167386000Y-115925600D01*
X131800600Y-124307600D02*
X127787400Y-120294400D01*
X152882600Y-108362199D02*
X152933400Y-108412999D01*
X104013000Y-118618000D02*
X101854000Y-118618000D01*
X102844600Y-116078000D02*
X101854000Y-116078000D01*
X179885699Y-60141401D02*
X180800099Y-61055801D01*
X147170499Y-55950401D02*
X145570299Y-54350201D01*
X102362000Y-91993001D02*
X101854000Y-92501001D01*
X118897400Y-91993001D02*
X102362000Y-91993001D01*
X102362000Y-94533001D02*
X101854000Y-95041001D01*
D31*
X181432200Y-108407200D02*
X182651400Y-108407200D01*
D29*
X169697400Y-121005600D02*
X167386000Y-121005600D01*
X100584000Y-86106000D02*
X101854000Y-87376000D01*
X123723400Y-87376000D02*
X122498401Y-86151001D01*
X154609800Y-100584000D02*
X176352200Y-100584000D01*
X175133000Y-125272800D02*
X170561000Y-120700800D01*
X134289800Y-102108000D02*
X156286200Y-102108000D01*
X127533400Y-123698000D02*
X123748800Y-123698000D01*
X144387402Y-81071001D02*
X141548401Y-81071001D01*
X100609400Y-45440600D02*
X101854000Y-44196000D01*
X145612401Y-44196000D02*
X144387402Y-42971001D01*
X114274600Y-72745600D02*
X102463600Y-72745600D01*
X109296200Y-126288800D02*
X104165400Y-121158000D01*
X74599800Y-106222800D02*
X74549000Y-106222800D01*
X97053400Y-56261000D02*
X97053400Y-47244000D01*
X118897400Y-94533001D02*
X102362000Y-94533001D01*
X171170600Y-123545600D02*
X167386000Y-123545600D01*
X149631400Y-120294400D02*
X149631400Y-119126000D01*
X158013400Y-103733600D02*
X149123400Y-103733600D01*
X179197000Y-125272800D02*
X175133000Y-125272800D01*
X98069400Y-46228000D02*
X98069400Y-43307000D01*
X133725201Y-102864201D02*
X133731000Y-102870000D01*
X85369400Y-41300400D02*
X85369400Y-38862000D01*
X92583000Y-102870000D02*
X111785400Y-102870000D01*
X124358400Y-72739801D02*
X123748800Y-72130201D01*
X146179899Y-72739801D02*
X145570299Y-72130201D01*
X102362000Y-48813001D02*
X101854000Y-49321001D01*
X160897402Y-83566000D02*
X146812000Y-83566000D01*
X148767800Y-119634000D02*
X147751800Y-118618000D01*
X93243400Y-63246000D02*
X98323400Y-58166000D01*
X131191000Y-126288800D02*
X126060200Y-121158000D01*
X69469000Y-96062800D02*
X70231000Y-96062800D01*
X163392401Y-42971001D02*
X162630401Y-43733001D01*
D31*
X164916401Y-108412999D02*
X167456401Y-108412999D01*
D29*
X82025400Y-101367000D02*
X79455600Y-101367000D01*
X146583400Y-116078000D02*
X145592800Y-116078000D01*
X87528400Y-79883000D02*
X87909400Y-80264000D01*
X85039200Y-119075200D02*
X82245200Y-119075200D01*
X167456401Y-44196000D02*
X166231402Y-42971001D01*
X58039000Y-84632800D02*
X58039000Y-67932300D01*
X122498401Y-32811001D02*
X119659400Y-32811001D01*
X146095001Y-94533001D02*
X145587001Y-95041001D01*
X136779000Y-103581200D02*
X123418600Y-103581200D01*
X125349000Y-58820601D02*
X125349000Y-55950401D01*
X135559800Y-125425200D02*
X131495800Y-125425200D01*
X103454200Y-58826400D02*
X103454200Y-55956200D01*
X89992200Y-78943200D02*
X85318600Y-74269600D01*
X139053402Y-83566000D02*
X124968000Y-83566000D01*
X84627400Y-38120000D02*
X80340200Y-38120000D01*
X87528400Y-81788000D02*
X94259400Y-81788000D01*
X124251001Y-33573001D02*
X123743001Y-34081001D01*
X123520200Y-104394000D02*
X122453400Y-105460800D01*
D31*
X152933400Y-108412999D02*
X164916401Y-108412999D01*
D29*
X93878400Y-80264000D02*
X96672400Y-77470000D01*
X75946000Y-112725200D02*
X74523600Y-111302800D01*
X169545000Y-118465600D02*
X167386000Y-118465600D01*
X129616200Y-72130201D02*
X125145800Y-67659801D01*
X145612401Y-49276000D02*
X144387402Y-48051001D01*
D31*
X116459000Y-108458000D02*
X117221000Y-108458000D01*
D29*
X167973099Y-72587401D02*
X167363499Y-71977801D01*
X97409000Y-104038400D02*
X97459800Y-104038400D01*
X122498401Y-93771001D02*
X119659400Y-93771001D01*
X146095001Y-48813001D02*
X145587001Y-49321001D01*
X119659400Y-48051001D02*
X118897400Y-48813001D01*
X146967299Y-67659801D02*
X146967299Y-60827201D01*
X117164401Y-83566000D02*
X103078999Y-83566000D01*
X135618596Y-72130201D02*
X129616200Y-72130201D01*
X146095001Y-36068000D02*
X145587001Y-36576000D01*
X91313000Y-101346000D02*
X82046400Y-101346000D01*
X94259400Y-81788000D02*
X98577400Y-86106000D01*
X122498401Y-81071001D02*
X119659400Y-81071001D01*
X123723400Y-94996000D02*
X122498401Y-93771001D01*
X105029000Y-119634000D02*
X104013000Y-118618000D01*
X163392401Y-35306000D02*
X162630401Y-36068000D01*
X102362000Y-33573001D02*
X101854000Y-34081001D01*
X174929800Y-127304800D02*
X171170600Y-123545600D01*
X146095001Y-38653001D02*
X145587001Y-39161001D01*
X102463600Y-72745600D02*
X101854000Y-72136000D01*
X144387402Y-48051001D02*
X141548401Y-48051001D01*
X145612401Y-87376000D02*
X144387402Y-86151001D01*
X146095001Y-91993001D02*
X145587001Y-92501001D01*
X102362000Y-43733001D02*
X101854000Y-44241001D01*
X136198798Y-71549999D02*
X135618596Y-72130201D01*
X157381299Y-69031401D02*
X147170499Y-58820601D01*
D30*
X64643000Y-101142800D02*
X49149000Y-101142800D01*
D29*
X141548401Y-86151001D02*
X140786401Y-86913001D01*
X166231402Y-48051001D02*
X163392401Y-48051001D01*
X137185400Y-61208201D02*
X137185400Y-71723801D01*
X58039000Y-84632800D02*
X69469000Y-96062800D01*
X144387402Y-93771001D02*
X141548401Y-93771001D01*
X140786401Y-86913001D02*
X124251001Y-86913001D01*
X145612401Y-82296000D02*
X144387402Y-81071001D01*
X176555400Y-100584000D02*
X176352200Y-100584000D01*
X154711400Y-100584000D02*
X154609800Y-100584000D01*
X82245200Y-121615200D02*
X78435200Y-117805200D01*
X180800099Y-71571401D02*
X179784099Y-72587401D01*
X162630401Y-38653001D02*
X146095001Y-38653001D01*
X167456401Y-39116000D02*
X166231402Y-37891001D01*
X98069400Y-67056000D02*
X98069400Y-65760600D01*
X82296000Y-124206000D02*
X78486000Y-120396000D01*
X60579000Y-67932300D02*
X60579000Y-83591400D01*
X140786401Y-94533001D02*
X124251001Y-94533001D01*
X99847400Y-42926000D02*
X100482400Y-42291000D01*
X98069400Y-105460800D02*
X96240600Y-107289600D01*
X174706600Y-106375200D02*
X174706600Y-108285600D01*
X163392401Y-32811001D02*
X162630401Y-33573001D01*
X167456401Y-82296000D02*
X166231402Y-81071001D01*
X83540600Y-102870000D02*
X83439000Y-102971600D01*
X82245200Y-119075200D02*
X78435200Y-115265200D01*
X125145800Y-67659801D02*
X125145800Y-60827201D01*
X84963000Y-54610000D02*
X84596600Y-54243600D01*
X94615000Y-64135000D02*
X99314000Y-59436000D01*
X145612401Y-36530999D02*
X144387402Y-35306000D01*
X113665000Y-125425200D02*
X109601000Y-125425200D01*
X140786401Y-91993001D02*
X124251001Y-91993001D01*
X141548401Y-42971001D02*
X140786401Y-43733001D01*
X147904200Y-121158000D02*
X145592800Y-121158000D01*
X159006899Y-61208201D02*
X159006899Y-71723801D01*
X144387402Y-32811001D02*
X141548401Y-32811001D01*
X155524200Y-102870000D02*
X155575000Y-102870000D01*
X75946000Y-117805200D02*
X74523600Y-116382800D01*
M02*
