G04 #@! TF.GenerationSoftware,KiCad,Pcbnew,(7.0.0)*
G04 #@! TF.CreationDate,2023-12-21T14:48:03-05:00*
G04 #@! TF.ProjectId,luminator,6c756d69-6e61-4746-9f72-2e6b69636164,rev?*
G04 #@! TF.SameCoordinates,Original*
G04 #@! TF.FileFunction,Paste,Top*
G04 #@! TF.FilePolarity,Positive*
%FSLAX46Y46*%
G04 Gerber Fmt 4.6, Leading zero omitted, Abs format (unit mm)*
G04 Created by KiCad (PCBNEW (7.0.0)) date 2023-12-21 14:48:03*
%MOMM*%
%LPD*%
G01*
G04 APERTURE LIST*
%ADD10R,0.355600X1.473200*%
G04 APERTURE END LIST*
G36*
X109779000Y-66016001D02*
G01*
X108478999Y-66016001D01*
X108478999Y-64616000D01*
X109779000Y-64616000D01*
X109779000Y-66016001D01*
G37*
G36*
X112779000Y-66016001D02*
G01*
X111479000Y-66016001D01*
X111479000Y-64616000D01*
X112779000Y-64616000D01*
X112779000Y-66016001D01*
G37*
G36*
X114279001Y-66016001D02*
G01*
X112979000Y-66016001D01*
X112979000Y-64616000D01*
X114279001Y-64616000D01*
X114279001Y-66016001D01*
G37*
G36*
X109779000Y-64416000D02*
G01*
X108478999Y-64416000D01*
X108478999Y-63015999D01*
X109779000Y-63015999D01*
X109779000Y-64416000D01*
G37*
G36*
X111279000Y-64416000D02*
G01*
X109979000Y-64416000D01*
X109979000Y-63015999D01*
X111279000Y-63015999D01*
X111279000Y-64416000D01*
G37*
G36*
X112779000Y-64416000D02*
G01*
X111479000Y-64416000D01*
X111479000Y-63015999D01*
X112779000Y-63015999D01*
X112779000Y-64416000D01*
G37*
G36*
X114279001Y-64416000D02*
G01*
X112979000Y-64416000D01*
X112979000Y-63015999D01*
X114279001Y-63015999D01*
X114279001Y-64416000D01*
G37*
G36*
X131668001Y-66016001D02*
G01*
X130368000Y-66016001D01*
X130368000Y-64616000D01*
X131668001Y-64616000D01*
X131668001Y-66016001D01*
G37*
G36*
X134668001Y-66016001D02*
G01*
X133368001Y-66016001D01*
X133368001Y-64616000D01*
X134668001Y-64616000D01*
X134668001Y-66016001D01*
G37*
G36*
X136168002Y-66016001D02*
G01*
X134868001Y-66016001D01*
X134868001Y-64616000D01*
X136168002Y-64616000D01*
X136168002Y-66016001D01*
G37*
G36*
X131668001Y-64416000D02*
G01*
X130368000Y-64416000D01*
X130368000Y-63015999D01*
X131668001Y-63015999D01*
X131668001Y-64416000D01*
G37*
G36*
X133168001Y-64416000D02*
G01*
X131868001Y-64416000D01*
X131868001Y-63015999D01*
X133168001Y-63015999D01*
X133168001Y-64416000D01*
G37*
G36*
X134668001Y-64416000D02*
G01*
X133368001Y-64416000D01*
X133368001Y-63015999D01*
X134668001Y-63015999D01*
X134668001Y-64416000D01*
G37*
G36*
X136168002Y-64416000D02*
G01*
X134868001Y-64416000D01*
X134868001Y-63015999D01*
X136168002Y-63015999D01*
X136168002Y-64416000D01*
G37*
G36*
X88068401Y-74017001D02*
G01*
X86768400Y-74017001D01*
X86768400Y-72617000D01*
X88068401Y-72617000D01*
X88068401Y-74017001D01*
G37*
G36*
X91068401Y-74017001D02*
G01*
X89768401Y-74017001D01*
X89768401Y-72617000D01*
X91068401Y-72617000D01*
X91068401Y-74017001D01*
G37*
G36*
X92568402Y-74017001D02*
G01*
X91268401Y-74017001D01*
X91268401Y-72617000D01*
X92568402Y-72617000D01*
X92568402Y-74017001D01*
G37*
G36*
X88068401Y-72417000D02*
G01*
X86768400Y-72417000D01*
X86768400Y-71016999D01*
X88068401Y-71016999D01*
X88068401Y-72417000D01*
G37*
G36*
X89568401Y-72417000D02*
G01*
X88268401Y-72417000D01*
X88268401Y-71016999D01*
X89568401Y-71016999D01*
X89568401Y-72417000D01*
G37*
G36*
X91068401Y-72417000D02*
G01*
X89768401Y-72417000D01*
X89768401Y-71016999D01*
X91068401Y-71016999D01*
X91068401Y-72417000D01*
G37*
G36*
X92568402Y-72417000D02*
G01*
X91268401Y-72417000D01*
X91268401Y-71016999D01*
X92568402Y-71016999D01*
X92568402Y-72417000D01*
G37*
G36*
X88066000Y-91060401D02*
G01*
X86765999Y-91060401D01*
X86765999Y-89660400D01*
X88066000Y-89660400D01*
X88066000Y-91060401D01*
G37*
G36*
X91066000Y-91060401D02*
G01*
X89766000Y-91060401D01*
X89766000Y-89660400D01*
X91066000Y-89660400D01*
X91066000Y-91060401D01*
G37*
G36*
X92566001Y-91060401D02*
G01*
X91266000Y-91060401D01*
X91266000Y-89660400D01*
X92566001Y-89660400D01*
X92566001Y-91060401D01*
G37*
G36*
X88066000Y-89460400D02*
G01*
X86765999Y-89460400D01*
X86765999Y-88060399D01*
X88066000Y-88060399D01*
X88066000Y-89460400D01*
G37*
G36*
X89566000Y-89460400D02*
G01*
X88266000Y-89460400D01*
X88266000Y-88060399D01*
X89566000Y-88060399D01*
X89566000Y-89460400D01*
G37*
G36*
X91066000Y-89460400D02*
G01*
X89766000Y-89460400D01*
X89766000Y-88060399D01*
X91066000Y-88060399D01*
X91066000Y-89460400D01*
G37*
G36*
X92566001Y-89460400D02*
G01*
X91266000Y-89460400D01*
X91266000Y-88060399D01*
X92566001Y-88060399D01*
X92566001Y-89460400D01*
G37*
G36*
X88068399Y-41096499D02*
G01*
X86768398Y-41096499D01*
X86768398Y-39696498D01*
X88068399Y-39696498D01*
X88068399Y-41096499D01*
G37*
G36*
X91068399Y-41096499D02*
G01*
X89768399Y-41096499D01*
X89768399Y-39696498D01*
X91068399Y-39696498D01*
X91068399Y-41096499D01*
G37*
G36*
X92568400Y-41096499D02*
G01*
X91268399Y-41096499D01*
X91268399Y-39696498D01*
X92568400Y-39696498D01*
X92568400Y-41096499D01*
G37*
G36*
X88068399Y-39496498D02*
G01*
X86768398Y-39496498D01*
X86768398Y-38096497D01*
X88068399Y-38096497D01*
X88068399Y-39496498D01*
G37*
G36*
X89568399Y-39496498D02*
G01*
X88268399Y-39496498D01*
X88268399Y-38096497D01*
X89568399Y-38096497D01*
X89568399Y-39496498D01*
G37*
G36*
X91068399Y-39496498D02*
G01*
X89768399Y-39496498D01*
X89768399Y-38096497D01*
X91068399Y-38096497D01*
X91068399Y-39496498D01*
G37*
G36*
X92568400Y-39496498D02*
G01*
X91268399Y-39496498D01*
X91268399Y-38096497D01*
X92568400Y-38096497D01*
X92568400Y-39496498D01*
G37*
G36*
X175481900Y-121197499D02*
G01*
X174181899Y-121197499D01*
X174181899Y-119797498D01*
X175481900Y-119797498D01*
X175481900Y-121197499D01*
G37*
G36*
X178481900Y-121197499D02*
G01*
X177181900Y-121197499D01*
X177181900Y-119797498D01*
X178481900Y-119797498D01*
X178481900Y-121197499D01*
G37*
G36*
X179981901Y-121197499D02*
G01*
X178681900Y-121197499D01*
X178681900Y-119797498D01*
X179981901Y-119797498D01*
X179981901Y-121197499D01*
G37*
G36*
X175481900Y-119597498D02*
G01*
X174181899Y-119597498D01*
X174181899Y-118197497D01*
X175481900Y-118197497D01*
X175481900Y-119597498D01*
G37*
G36*
X176981900Y-119597498D02*
G01*
X175681900Y-119597498D01*
X175681900Y-118197497D01*
X176981900Y-118197497D01*
X176981900Y-119597498D01*
G37*
G36*
X178481900Y-119597498D02*
G01*
X177181900Y-119597498D01*
X177181900Y-118197497D01*
X178481900Y-118197497D01*
X178481900Y-119597498D01*
G37*
G36*
X179981901Y-119597498D02*
G01*
X178681900Y-119597498D01*
X178681900Y-118197497D01*
X179981901Y-118197497D01*
X179981901Y-119597498D01*
G37*
G36*
X153512001Y-66016001D02*
G01*
X152212000Y-66016001D01*
X152212000Y-64616000D01*
X153512001Y-64616000D01*
X153512001Y-66016001D01*
G37*
G36*
X156512001Y-66016001D02*
G01*
X155212001Y-66016001D01*
X155212001Y-64616000D01*
X156512001Y-64616000D01*
X156512001Y-66016001D01*
G37*
G36*
X158012002Y-66016001D02*
G01*
X156712001Y-66016001D01*
X156712001Y-64616000D01*
X158012002Y-64616000D01*
X158012002Y-66016001D01*
G37*
G36*
X153512001Y-64416000D02*
G01*
X152212000Y-64416000D01*
X152212000Y-63015999D01*
X153512001Y-63015999D01*
X153512001Y-64416000D01*
G37*
G36*
X155012001Y-64416000D02*
G01*
X153712001Y-64416000D01*
X153712001Y-63015999D01*
X155012001Y-63015999D01*
X155012001Y-64416000D01*
G37*
G36*
X156512001Y-64416000D02*
G01*
X155212001Y-64416000D01*
X155212001Y-63015999D01*
X156512001Y-63015999D01*
X156512001Y-64416000D01*
G37*
G36*
X158012002Y-64416000D02*
G01*
X156712001Y-64416000D01*
X156712001Y-63015999D01*
X158012002Y-63015999D01*
X158012002Y-64416000D01*
G37*
G36*
X131836002Y-121347000D02*
G01*
X130536001Y-121347000D01*
X130536001Y-119946999D01*
X131836002Y-119946999D01*
X131836002Y-121347000D01*
G37*
G36*
X134836002Y-121347000D02*
G01*
X133536002Y-121347000D01*
X133536002Y-119946999D01*
X134836002Y-119946999D01*
X134836002Y-121347000D01*
G37*
G36*
X136336003Y-121347000D02*
G01*
X135036002Y-121347000D01*
X135036002Y-119946999D01*
X136336003Y-119946999D01*
X136336003Y-121347000D01*
G37*
G36*
X131836002Y-119746999D02*
G01*
X130536001Y-119746999D01*
X130536001Y-118346998D01*
X131836002Y-118346998D01*
X131836002Y-119746999D01*
G37*
G36*
X133336002Y-119746999D02*
G01*
X132036002Y-119746999D01*
X132036002Y-118346998D01*
X133336002Y-118346998D01*
X133336002Y-119746999D01*
G37*
G36*
X134836002Y-119746999D02*
G01*
X133536002Y-119746999D01*
X133536002Y-118346998D01*
X134836002Y-118346998D01*
X134836002Y-119746999D01*
G37*
G36*
X136336003Y-119746999D02*
G01*
X135036002Y-119746999D01*
X135036002Y-118346998D01*
X136336003Y-118346998D01*
X136336003Y-119746999D01*
G37*
G36*
X88068401Y-56935501D02*
G01*
X86768400Y-56935501D01*
X86768400Y-55535500D01*
X88068401Y-55535500D01*
X88068401Y-56935501D01*
G37*
G36*
X91068401Y-56935501D02*
G01*
X89768401Y-56935501D01*
X89768401Y-55535500D01*
X91068401Y-55535500D01*
X91068401Y-56935501D01*
G37*
G36*
X92568402Y-56935501D02*
G01*
X91268401Y-56935501D01*
X91268401Y-55535500D01*
X92568402Y-55535500D01*
X92568402Y-56935501D01*
G37*
G36*
X88068401Y-55335500D02*
G01*
X86768400Y-55335500D01*
X86768400Y-53935499D01*
X88068401Y-53935499D01*
X88068401Y-55335500D01*
G37*
G36*
X89568401Y-55335500D02*
G01*
X88268401Y-55335500D01*
X88268401Y-53935499D01*
X89568401Y-53935499D01*
X89568401Y-55335500D01*
G37*
G36*
X91068401Y-55335500D02*
G01*
X89768401Y-55335500D01*
X89768401Y-53935499D01*
X91068401Y-53935499D01*
X91068401Y-55335500D01*
G37*
G36*
X92568402Y-55335500D02*
G01*
X91268401Y-55335500D01*
X91268401Y-53935499D01*
X92568402Y-53935499D01*
X92568402Y-55335500D01*
G37*
G36*
X153680002Y-121347000D02*
G01*
X152380001Y-121347000D01*
X152380001Y-119946999D01*
X153680002Y-119946999D01*
X153680002Y-121347000D01*
G37*
G36*
X156680002Y-121347000D02*
G01*
X155380002Y-121347000D01*
X155380002Y-119946999D01*
X156680002Y-119946999D01*
X156680002Y-121347000D01*
G37*
G36*
X158180003Y-121347000D02*
G01*
X156880002Y-121347000D01*
X156880002Y-119946999D01*
X158180003Y-119946999D01*
X158180003Y-121347000D01*
G37*
G36*
X153680002Y-119746999D02*
G01*
X152380001Y-119746999D01*
X152380001Y-118346998D01*
X153680002Y-118346998D01*
X153680002Y-119746999D01*
G37*
G36*
X155180002Y-119746999D02*
G01*
X153880002Y-119746999D01*
X153880002Y-118346998D01*
X155180002Y-118346998D01*
X155180002Y-119746999D01*
G37*
G36*
X156680002Y-119746999D02*
G01*
X155380002Y-119746999D01*
X155380002Y-118346998D01*
X156680002Y-118346998D01*
X156680002Y-119746999D01*
G37*
G36*
X158180003Y-119746999D02*
G01*
X156880002Y-119746999D01*
X156880002Y-118346998D01*
X158180003Y-118346998D01*
X158180003Y-119746999D01*
G37*
G36*
X109947001Y-121347000D02*
G01*
X108647000Y-121347000D01*
X108647000Y-119946999D01*
X109947001Y-119946999D01*
X109947001Y-121347000D01*
G37*
G36*
X112947001Y-121347000D02*
G01*
X111647001Y-121347000D01*
X111647001Y-119946999D01*
X112947001Y-119946999D01*
X112947001Y-121347000D01*
G37*
G36*
X114447002Y-121347000D02*
G01*
X113147001Y-121347000D01*
X113147001Y-119946999D01*
X114447002Y-119946999D01*
X114447002Y-121347000D01*
G37*
G36*
X109947001Y-119746999D02*
G01*
X108647000Y-119746999D01*
X108647000Y-118346998D01*
X109947001Y-118346998D01*
X109947001Y-119746999D01*
G37*
G36*
X111447001Y-119746999D02*
G01*
X110147001Y-119746999D01*
X110147001Y-118346998D01*
X111447001Y-118346998D01*
X111447001Y-119746999D01*
G37*
G36*
X112947001Y-119746999D02*
G01*
X111647001Y-119746999D01*
X111647001Y-118346998D01*
X112947001Y-118346998D01*
X112947001Y-119746999D01*
G37*
G36*
X114447002Y-119746999D02*
G01*
X113147001Y-119746999D01*
X113147001Y-118346998D01*
X114447002Y-118346998D01*
X114447002Y-119746999D01*
G37*
G36*
X175313899Y-65866500D02*
G01*
X174013898Y-65866500D01*
X174013898Y-64466499D01*
X175313899Y-64466499D01*
X175313899Y-65866500D01*
G37*
G36*
X178313899Y-65866500D02*
G01*
X177013899Y-65866500D01*
X177013899Y-64466499D01*
X178313899Y-64466499D01*
X178313899Y-65866500D01*
G37*
G36*
X179813900Y-65866500D02*
G01*
X178513899Y-65866500D01*
X178513899Y-64466499D01*
X179813900Y-64466499D01*
X179813900Y-65866500D01*
G37*
G36*
X175313899Y-64266499D02*
G01*
X174013898Y-64266499D01*
X174013898Y-62866498D01*
X175313899Y-62866498D01*
X175313899Y-64266499D01*
G37*
G36*
X176813899Y-64266499D02*
G01*
X175513899Y-64266499D01*
X175513899Y-62866498D01*
X176813899Y-62866498D01*
X176813899Y-64266499D01*
G37*
G36*
X178313899Y-64266499D02*
G01*
X177013899Y-64266499D01*
X177013899Y-62866498D01*
X178313899Y-62866498D01*
X178313899Y-64266499D01*
G37*
G36*
X179813900Y-64266499D02*
G01*
X178513899Y-64266499D01*
X178513899Y-62866498D01*
X179813900Y-62866498D01*
X179813900Y-64266499D01*
G37*
D10*
X107153999Y-67436999D03*
X107804000Y-67436999D03*
X108453999Y-67436999D03*
X109104000Y-67436999D03*
X109753998Y-67436999D03*
X110404000Y-67436999D03*
X111053998Y-67436999D03*
X111703997Y-67436999D03*
X112353998Y-67436999D03*
X113003997Y-67436999D03*
X113653998Y-67436999D03*
X114303997Y-67436999D03*
X114953998Y-67436999D03*
X115603997Y-67436999D03*
X115603999Y-61594999D03*
X114953998Y-61594999D03*
X114303999Y-61594999D03*
X113653998Y-61594999D03*
X113004000Y-61594999D03*
X112353998Y-61594999D03*
X111704000Y-61594999D03*
X111053998Y-61594999D03*
X110404000Y-61594999D03*
X109753998Y-61594999D03*
X109104000Y-61594999D03*
X108453999Y-61594999D03*
X107804000Y-61594999D03*
X107153999Y-61594999D03*
X129043000Y-67436999D03*
X129693001Y-67436999D03*
X130343000Y-67436999D03*
X130993001Y-67436999D03*
X131642999Y-67436999D03*
X132293001Y-67436999D03*
X132942999Y-67436999D03*
X133592998Y-67436999D03*
X134242999Y-67436999D03*
X134892998Y-67436999D03*
X135542999Y-67436999D03*
X136192998Y-67436999D03*
X136842999Y-67436999D03*
X137492998Y-67436999D03*
X137493000Y-61594999D03*
X136842999Y-61594999D03*
X136193000Y-61594999D03*
X135542999Y-61594999D03*
X134893001Y-61594999D03*
X134242999Y-61594999D03*
X133593001Y-61594999D03*
X132942999Y-61594999D03*
X132293001Y-61594999D03*
X131642999Y-61594999D03*
X130993001Y-61594999D03*
X130343000Y-61594999D03*
X129693001Y-61594999D03*
X129043000Y-61594999D03*
X85443400Y-75437999D03*
X86093401Y-75437999D03*
X86743400Y-75437999D03*
X87393401Y-75437999D03*
X88043399Y-75437999D03*
X88693401Y-75437999D03*
X89343399Y-75437999D03*
X89993398Y-75437999D03*
X90643399Y-75437999D03*
X91293398Y-75437999D03*
X91943399Y-75437999D03*
X92593398Y-75437999D03*
X93243399Y-75437999D03*
X93893398Y-75437999D03*
X93893400Y-69595999D03*
X93243399Y-69595999D03*
X92593400Y-69595999D03*
X91943399Y-69595999D03*
X91293401Y-69595999D03*
X90643399Y-69595999D03*
X89993401Y-69595999D03*
X89343399Y-69595999D03*
X88693401Y-69595999D03*
X88043399Y-69595999D03*
X87393401Y-69595999D03*
X86743400Y-69595999D03*
X86093401Y-69595999D03*
X85443400Y-69595999D03*
X85440999Y-92481399D03*
X86091000Y-92481399D03*
X86740999Y-92481399D03*
X87391000Y-92481399D03*
X88040998Y-92481399D03*
X88691000Y-92481399D03*
X89340998Y-92481399D03*
X89990997Y-92481399D03*
X90640998Y-92481399D03*
X91290997Y-92481399D03*
X91940998Y-92481399D03*
X92590997Y-92481399D03*
X93240998Y-92481399D03*
X93890997Y-92481399D03*
X93890999Y-86639399D03*
X93240998Y-86639399D03*
X92590999Y-86639399D03*
X91940998Y-86639399D03*
X91291000Y-86639399D03*
X90640998Y-86639399D03*
X89991000Y-86639399D03*
X89340998Y-86639399D03*
X88691000Y-86639399D03*
X88040998Y-86639399D03*
X87391000Y-86639399D03*
X86740999Y-86639399D03*
X86091000Y-86639399D03*
X85440999Y-86639399D03*
X85443398Y-42517497D03*
X86093399Y-42517497D03*
X86743398Y-42517497D03*
X87393399Y-42517497D03*
X88043397Y-42517497D03*
X88693399Y-42517497D03*
X89343397Y-42517497D03*
X89993396Y-42517497D03*
X90643397Y-42517497D03*
X91293396Y-42517497D03*
X91943397Y-42517497D03*
X92593396Y-42517497D03*
X93243397Y-42517497D03*
X93893396Y-42517497D03*
X93893398Y-36675497D03*
X93243397Y-36675497D03*
X92593398Y-36675497D03*
X91943397Y-36675497D03*
X91293399Y-36675497D03*
X90643397Y-36675497D03*
X89993399Y-36675497D03*
X89343397Y-36675497D03*
X88693399Y-36675497D03*
X88043397Y-36675497D03*
X87393399Y-36675497D03*
X86743398Y-36675497D03*
X86093399Y-36675497D03*
X85443398Y-36675497D03*
X172856899Y-122618497D03*
X173506900Y-122618497D03*
X174156899Y-122618497D03*
X174806900Y-122618497D03*
X175456898Y-122618497D03*
X176106900Y-122618497D03*
X176756898Y-122618497D03*
X177406897Y-122618497D03*
X178056898Y-122618497D03*
X178706897Y-122618497D03*
X179356898Y-122618497D03*
X180006897Y-122618497D03*
X180656898Y-122618497D03*
X181306897Y-122618497D03*
X181306899Y-116776497D03*
X180656898Y-116776497D03*
X180006899Y-116776497D03*
X179356898Y-116776497D03*
X178706900Y-116776497D03*
X178056898Y-116776497D03*
X177406900Y-116776497D03*
X176756898Y-116776497D03*
X176106900Y-116776497D03*
X175456898Y-116776497D03*
X174806900Y-116776497D03*
X174156899Y-116776497D03*
X173506900Y-116776497D03*
X172856899Y-116776497D03*
X150887000Y-67436999D03*
X151537001Y-67436999D03*
X152187000Y-67436999D03*
X152837001Y-67436999D03*
X153486999Y-67436999D03*
X154137001Y-67436999D03*
X154786999Y-67436999D03*
X155436998Y-67436999D03*
X156086999Y-67436999D03*
X156736998Y-67436999D03*
X157386999Y-67436999D03*
X158036998Y-67436999D03*
X158686999Y-67436999D03*
X159336998Y-67436999D03*
X159337000Y-61594999D03*
X158686999Y-61594999D03*
X158037000Y-61594999D03*
X157386999Y-61594999D03*
X156737001Y-61594999D03*
X156086999Y-61594999D03*
X155437001Y-61594999D03*
X154786999Y-61594999D03*
X154137001Y-61594999D03*
X153486999Y-61594999D03*
X152837001Y-61594999D03*
X152187000Y-61594999D03*
X151537001Y-61594999D03*
X150887000Y-61594999D03*
X129211001Y-122767998D03*
X129861002Y-122767998D03*
X130511001Y-122767998D03*
X131161002Y-122767998D03*
X131811000Y-122767998D03*
X132461002Y-122767998D03*
X133111000Y-122767998D03*
X133760999Y-122767998D03*
X134411000Y-122767998D03*
X135060999Y-122767998D03*
X135711000Y-122767998D03*
X136360999Y-122767998D03*
X137011000Y-122767998D03*
X137660999Y-122767998D03*
X137661001Y-116925998D03*
X137011000Y-116925998D03*
X136361001Y-116925998D03*
X135711000Y-116925998D03*
X135061002Y-116925998D03*
X134411000Y-116925998D03*
X133761002Y-116925998D03*
X133111000Y-116925998D03*
X132461002Y-116925998D03*
X131811000Y-116925998D03*
X131161002Y-116925998D03*
X130511001Y-116925998D03*
X129861002Y-116925998D03*
X129211001Y-116925998D03*
X85443400Y-58356499D03*
X86093401Y-58356499D03*
X86743400Y-58356499D03*
X87393401Y-58356499D03*
X88043399Y-58356499D03*
X88693401Y-58356499D03*
X89343399Y-58356499D03*
X89993398Y-58356499D03*
X90643399Y-58356499D03*
X91293398Y-58356499D03*
X91943399Y-58356499D03*
X92593398Y-58356499D03*
X93243399Y-58356499D03*
X93893398Y-58356499D03*
X93893400Y-52514499D03*
X93243399Y-52514499D03*
X92593400Y-52514499D03*
X91943399Y-52514499D03*
X91293401Y-52514499D03*
X90643399Y-52514499D03*
X89993401Y-52514499D03*
X89343399Y-52514499D03*
X88693401Y-52514499D03*
X88043399Y-52514499D03*
X87393401Y-52514499D03*
X86743400Y-52514499D03*
X86093401Y-52514499D03*
X85443400Y-52514499D03*
X151055001Y-122767998D03*
X151705002Y-122767998D03*
X152355001Y-122767998D03*
X153005002Y-122767998D03*
X153655000Y-122767998D03*
X154305002Y-122767998D03*
X154955000Y-122767998D03*
X155604999Y-122767998D03*
X156255000Y-122767998D03*
X156904999Y-122767998D03*
X157555000Y-122767998D03*
X158204999Y-122767998D03*
X158855000Y-122767998D03*
X159504999Y-122767998D03*
X159505001Y-116925998D03*
X158855000Y-116925998D03*
X158205001Y-116925998D03*
X157555000Y-116925998D03*
X156905002Y-116925998D03*
X156255000Y-116925998D03*
X155605002Y-116925998D03*
X154955000Y-116925998D03*
X154305002Y-116925998D03*
X153655000Y-116925998D03*
X153005002Y-116925998D03*
X152355001Y-116925998D03*
X151705002Y-116925998D03*
X151055001Y-116925998D03*
X107322000Y-122767998D03*
X107972001Y-122767998D03*
X108622000Y-122767998D03*
X109272001Y-122767998D03*
X109921999Y-122767998D03*
X110572001Y-122767998D03*
X111221999Y-122767998D03*
X111871998Y-122767998D03*
X112521999Y-122767998D03*
X113171998Y-122767998D03*
X113821999Y-122767998D03*
X114471998Y-122767998D03*
X115121999Y-122767998D03*
X115771998Y-122767998D03*
X115772000Y-116925998D03*
X115121999Y-116925998D03*
X114472000Y-116925998D03*
X113821999Y-116925998D03*
X113172001Y-116925998D03*
X112521999Y-116925998D03*
X111872001Y-116925998D03*
X111221999Y-116925998D03*
X110572001Y-116925998D03*
X109921999Y-116925998D03*
X109272001Y-116925998D03*
X108622000Y-116925998D03*
X107972001Y-116925998D03*
X107322000Y-116925998D03*
X172688898Y-67287498D03*
X173338899Y-67287498D03*
X173988898Y-67287498D03*
X174638899Y-67287498D03*
X175288897Y-67287498D03*
X175938899Y-67287498D03*
X176588897Y-67287498D03*
X177238896Y-67287498D03*
X177888897Y-67287498D03*
X178538896Y-67287498D03*
X179188897Y-67287498D03*
X179838896Y-67287498D03*
X180488897Y-67287498D03*
X181138896Y-67287498D03*
X181138898Y-61445498D03*
X180488897Y-61445498D03*
X179838898Y-61445498D03*
X179188897Y-61445498D03*
X178538899Y-61445498D03*
X177888897Y-61445498D03*
X177238899Y-61445498D03*
X176588897Y-61445498D03*
X175938899Y-61445498D03*
X175288897Y-61445498D03*
X174638899Y-61445498D03*
X173988898Y-61445498D03*
X173338899Y-61445498D03*
X172688898Y-61445498D03*
M02*
