G04 #@! TF.GenerationSoftware,KiCad,Pcbnew,(7.0.0)*
G04 #@! TF.CreationDate,2023-12-21T14:48:03-05:00*
G04 #@! TF.ProjectId,luminator,6c756d69-6e61-4746-9f72-2e6b69636164,rev?*
G04 #@! TF.SameCoordinates,Original*
G04 #@! TF.FileFunction,Legend,Top*
G04 #@! TF.FilePolarity,Positive*
%FSLAX46Y46*%
G04 Gerber Fmt 4.6, Leading zero omitted, Abs format (unit mm)*
G04 Created by KiCad (PCBNEW (7.0.0)) date 2023-12-21 14:48:03*
%MOMM*%
%LPD*%
G01*
G04 APERTURE LIST*
G04 Aperture macros list*
%AMRoundRect*
0 Rectangle with rounded corners*
0 $1 Rounding radius*
0 $2 $3 $4 $5 $6 $7 $8 $9 X,Y pos of 4 corners*
0 Add a 4 corners polygon primitive as box body*
4,1,4,$2,$3,$4,$5,$6,$7,$8,$9,$2,$3,0*
0 Add four circle primitives for the rounded corners*
1,1,$1+$1,$2,$3*
1,1,$1+$1,$4,$5*
1,1,$1+$1,$6,$7*
1,1,$1+$1,$8,$9*
0 Add four rect primitives between the rounded corners*
20,1,$1+$1,$2,$3,$4,$5,0*
20,1,$1+$1,$4,$5,$6,$7,0*
20,1,$1+$1,$6,$7,$8,$9,0*
20,1,$1+$1,$8,$9,$2,$3,0*%
G04 Aperture macros list end*
%ADD10C,0.100000*%
%ADD11C,0.150000*%
%ADD12C,0.200000*%
%ADD13C,0.300000*%
%ADD14C,0.120000*%
%ADD15C,0.127000*%
%ADD16C,0.152400*%
%ADD17C,3.200000*%
%ADD18C,3.000000*%
%ADD19C,1.600000*%
%ADD20O,1.600000X1.600000*%
%ADD21R,1.800000X1.800000*%
%ADD22C,1.800000*%
%ADD23R,1.930000X1.930000*%
%ADD24C,1.930000*%
%ADD25R,1.600000X1.600000*%
%ADD26C,1.498600*%
%ADD27C,1.524000*%
%ADD28R,1.295400X1.295400*%
%ADD29C,1.295400*%
%ADD30R,0.355600X1.473200*%
%ADD31R,6.000001X3.200001*%
%ADD32R,1.665000X1.665000*%
%ADD33C,1.665000*%
%ADD34R,2.000000X2.000000*%
%ADD35C,2.000000*%
%ADD36RoundRect,0.102000X-0.975000X0.975000X-0.975000X-0.975000X0.975000X-0.975000X0.975000X0.975000X0*%
%ADD37C,2.154000*%
%ADD38C,1.371600*%
G04 APERTURE END LIST*
D10*
X78662161Y-109165171D02*
X78638352Y-109188980D01*
X78638352Y-109188980D02*
X78566923Y-109212790D01*
X78566923Y-109212790D02*
X78519304Y-109212790D01*
X78519304Y-109212790D02*
X78447876Y-109188980D01*
X78447876Y-109188980D02*
X78400257Y-109141361D01*
X78400257Y-109141361D02*
X78376447Y-109093742D01*
X78376447Y-109093742D02*
X78352638Y-108998504D01*
X78352638Y-108998504D02*
X78352638Y-108927076D01*
X78352638Y-108927076D02*
X78376447Y-108831838D01*
X78376447Y-108831838D02*
X78400257Y-108784219D01*
X78400257Y-108784219D02*
X78447876Y-108736600D01*
X78447876Y-108736600D02*
X78519304Y-108712790D01*
X78519304Y-108712790D02*
X78566923Y-108712790D01*
X78566923Y-108712790D02*
X78638352Y-108736600D01*
X78638352Y-108736600D02*
X78662161Y-108760409D01*
X78852638Y-109188980D02*
X78924066Y-109212790D01*
X78924066Y-109212790D02*
X79043114Y-109212790D01*
X79043114Y-109212790D02*
X79090733Y-109188980D01*
X79090733Y-109188980D02*
X79114542Y-109165171D01*
X79114542Y-109165171D02*
X79138352Y-109117552D01*
X79138352Y-109117552D02*
X79138352Y-109069933D01*
X79138352Y-109069933D02*
X79114542Y-109022314D01*
X79114542Y-109022314D02*
X79090733Y-108998504D01*
X79090733Y-108998504D02*
X79043114Y-108974695D01*
X79043114Y-108974695D02*
X78947876Y-108950885D01*
X78947876Y-108950885D02*
X78900257Y-108927076D01*
X78900257Y-108927076D02*
X78876447Y-108903266D01*
X78876447Y-108903266D02*
X78852638Y-108855647D01*
X78852638Y-108855647D02*
X78852638Y-108808028D01*
X78852638Y-108808028D02*
X78876447Y-108760409D01*
X78876447Y-108760409D02*
X78900257Y-108736600D01*
X78900257Y-108736600D02*
X78947876Y-108712790D01*
X78947876Y-108712790D02*
X79066923Y-108712790D01*
X79066923Y-108712790D02*
X79138352Y-108736600D01*
X79233590Y-109260409D02*
X79614542Y-109260409D01*
X79947875Y-109188980D02*
X79900256Y-109212790D01*
X79900256Y-109212790D02*
X79805018Y-109212790D01*
X79805018Y-109212790D02*
X79757399Y-109188980D01*
X79757399Y-109188980D02*
X79733589Y-109165171D01*
X79733589Y-109165171D02*
X79709780Y-109117552D01*
X79709780Y-109117552D02*
X79709780Y-108974695D01*
X79709780Y-108974695D02*
X79733589Y-108927076D01*
X79733589Y-108927076D02*
X79757399Y-108903266D01*
X79757399Y-108903266D02*
X79805018Y-108879457D01*
X79805018Y-108879457D02*
X79900256Y-108879457D01*
X79900256Y-108879457D02*
X79947875Y-108903266D01*
X80138351Y-108760409D02*
X80162160Y-108736600D01*
X80162160Y-108736600D02*
X80209779Y-108712790D01*
X80209779Y-108712790D02*
X80328827Y-108712790D01*
X80328827Y-108712790D02*
X80376446Y-108736600D01*
X80376446Y-108736600D02*
X80400255Y-108760409D01*
X80400255Y-108760409D02*
X80424065Y-108808028D01*
X80424065Y-108808028D02*
X80424065Y-108855647D01*
X80424065Y-108855647D02*
X80400255Y-108927076D01*
X80400255Y-108927076D02*
X80114541Y-109212790D01*
X80114541Y-109212790D02*
X80424065Y-109212790D01*
X78560561Y-124354371D02*
X78536752Y-124378180D01*
X78536752Y-124378180D02*
X78465323Y-124401990D01*
X78465323Y-124401990D02*
X78417704Y-124401990D01*
X78417704Y-124401990D02*
X78346276Y-124378180D01*
X78346276Y-124378180D02*
X78298657Y-124330561D01*
X78298657Y-124330561D02*
X78274847Y-124282942D01*
X78274847Y-124282942D02*
X78251038Y-124187704D01*
X78251038Y-124187704D02*
X78251038Y-124116276D01*
X78251038Y-124116276D02*
X78274847Y-124021038D01*
X78274847Y-124021038D02*
X78298657Y-123973419D01*
X78298657Y-123973419D02*
X78346276Y-123925800D01*
X78346276Y-123925800D02*
X78417704Y-123901990D01*
X78417704Y-123901990D02*
X78465323Y-123901990D01*
X78465323Y-123901990D02*
X78536752Y-123925800D01*
X78536752Y-123925800D02*
X78560561Y-123949609D01*
X78751038Y-124378180D02*
X78822466Y-124401990D01*
X78822466Y-124401990D02*
X78941514Y-124401990D01*
X78941514Y-124401990D02*
X78989133Y-124378180D01*
X78989133Y-124378180D02*
X79012942Y-124354371D01*
X79012942Y-124354371D02*
X79036752Y-124306752D01*
X79036752Y-124306752D02*
X79036752Y-124259133D01*
X79036752Y-124259133D02*
X79012942Y-124211514D01*
X79012942Y-124211514D02*
X78989133Y-124187704D01*
X78989133Y-124187704D02*
X78941514Y-124163895D01*
X78941514Y-124163895D02*
X78846276Y-124140085D01*
X78846276Y-124140085D02*
X78798657Y-124116276D01*
X78798657Y-124116276D02*
X78774847Y-124092466D01*
X78774847Y-124092466D02*
X78751038Y-124044847D01*
X78751038Y-124044847D02*
X78751038Y-123997228D01*
X78751038Y-123997228D02*
X78774847Y-123949609D01*
X78774847Y-123949609D02*
X78798657Y-123925800D01*
X78798657Y-123925800D02*
X78846276Y-123901990D01*
X78846276Y-123901990D02*
X78965323Y-123901990D01*
X78965323Y-123901990D02*
X79036752Y-123925800D01*
X79131990Y-124449609D02*
X79512942Y-124449609D01*
X79631989Y-124401990D02*
X79631989Y-124068657D01*
X79631989Y-124163895D02*
X79655799Y-124116276D01*
X79655799Y-124116276D02*
X79679608Y-124092466D01*
X79679608Y-124092466D02*
X79727227Y-124068657D01*
X79727227Y-124068657D02*
X79774846Y-124068657D01*
X79917704Y-123949609D02*
X79941513Y-123925800D01*
X79941513Y-123925800D02*
X79989132Y-123901990D01*
X79989132Y-123901990D02*
X80108180Y-123901990D01*
X80108180Y-123901990D02*
X80155799Y-123925800D01*
X80155799Y-123925800D02*
X80179608Y-123949609D01*
X80179608Y-123949609D02*
X80203418Y-123997228D01*
X80203418Y-123997228D02*
X80203418Y-124044847D01*
X80203418Y-124044847D02*
X80179608Y-124116276D01*
X80179608Y-124116276D02*
X79893894Y-124401990D01*
X79893894Y-124401990D02*
X80203418Y-124401990D01*
X80417703Y-124354371D02*
X80441513Y-124378180D01*
X80441513Y-124378180D02*
X80417703Y-124401990D01*
X80417703Y-124401990D02*
X80393894Y-124378180D01*
X80393894Y-124378180D02*
X80417703Y-124354371D01*
X80417703Y-124354371D02*
X80417703Y-124401990D01*
X80631989Y-123949609D02*
X80655798Y-123925800D01*
X80655798Y-123925800D02*
X80703417Y-123901990D01*
X80703417Y-123901990D02*
X80822465Y-123901990D01*
X80822465Y-123901990D02*
X80870084Y-123925800D01*
X80870084Y-123925800D02*
X80893893Y-123949609D01*
X80893893Y-123949609D02*
X80917703Y-123997228D01*
X80917703Y-123997228D02*
X80917703Y-124044847D01*
X80917703Y-124044847D02*
X80893893Y-124116276D01*
X80893893Y-124116276D02*
X80608179Y-124401990D01*
X80608179Y-124401990D02*
X80917703Y-124401990D01*
D11*
X123743001Y-130685380D02*
X123743001Y-130923476D01*
X123504906Y-130828238D02*
X123743001Y-130923476D01*
X123743001Y-130923476D02*
X123981096Y-130828238D01*
X123600144Y-131113952D02*
X123743001Y-130923476D01*
X123743001Y-130923476D02*
X123885858Y-131113952D01*
X145587001Y-130685380D02*
X145587001Y-130923476D01*
X145348906Y-130828238D02*
X145587001Y-130923476D01*
X145587001Y-130923476D02*
X145825096Y-130828238D01*
X145444144Y-131113952D02*
X145587001Y-130923476D01*
X145587001Y-130923476D02*
X145729858Y-131113952D01*
X101854000Y-130685380D02*
X101854000Y-130923476D01*
X101615905Y-130828238D02*
X101854000Y-130923476D01*
X101854000Y-130923476D02*
X102092095Y-130828238D01*
X101711143Y-131113952D02*
X101854000Y-130923476D01*
X101854000Y-130923476D02*
X101996857Y-131113952D01*
D12*
X48004419Y-70148438D02*
X47004419Y-70481771D01*
X47004419Y-70481771D02*
X48004419Y-70815104D01*
X47004419Y-71148438D02*
X48004419Y-71148438D01*
X47004419Y-71624628D02*
X48004419Y-71624628D01*
X48004419Y-71624628D02*
X47004419Y-72196056D01*
X47004419Y-72196056D02*
X48004419Y-72196056D01*
D10*
X46997209Y-76631752D02*
X46997209Y-76346038D01*
X46997209Y-76488895D02*
X47497209Y-76488895D01*
X47497209Y-76488895D02*
X47425780Y-76441276D01*
X47425780Y-76441276D02*
X47378161Y-76393657D01*
X47378161Y-76393657D02*
X47354352Y-76346038D01*
X47449590Y-76822228D02*
X47473400Y-76846037D01*
X47473400Y-76846037D02*
X47497209Y-76893656D01*
X47497209Y-76893656D02*
X47497209Y-77012704D01*
X47497209Y-77012704D02*
X47473400Y-77060323D01*
X47473400Y-77060323D02*
X47449590Y-77084132D01*
X47449590Y-77084132D02*
X47401971Y-77107942D01*
X47401971Y-77107942D02*
X47354352Y-77107942D01*
X47354352Y-77107942D02*
X47282923Y-77084132D01*
X47282923Y-77084132D02*
X46997209Y-76798418D01*
X46997209Y-76798418D02*
X46997209Y-77107942D01*
X47187685Y-77322227D02*
X47187685Y-77703180D01*
X47449590Y-77917466D02*
X47473400Y-77941275D01*
X47473400Y-77941275D02*
X47497209Y-77988894D01*
X47497209Y-77988894D02*
X47497209Y-78107942D01*
X47497209Y-78107942D02*
X47473400Y-78155561D01*
X47473400Y-78155561D02*
X47449590Y-78179370D01*
X47449590Y-78179370D02*
X47401971Y-78203180D01*
X47401971Y-78203180D02*
X47354352Y-78203180D01*
X47354352Y-78203180D02*
X47282923Y-78179370D01*
X47282923Y-78179370D02*
X46997209Y-77893656D01*
X46997209Y-77893656D02*
X46997209Y-78203180D01*
X47330542Y-78631751D02*
X46997209Y-78631751D01*
X47521019Y-78512703D02*
X47163876Y-78393656D01*
X47163876Y-78393656D02*
X47163876Y-78703179D01*
X47330542Y-78846036D02*
X46997209Y-78965084D01*
X46997209Y-78965084D02*
X47330542Y-79084131D01*
D11*
X145587001Y-130685380D02*
X145587001Y-130923476D01*
X145348906Y-130828238D02*
X145587001Y-130923476D01*
X145587001Y-130923476D02*
X145825096Y-130828238D01*
X145444144Y-131113952D02*
X145587001Y-130923476D01*
X145587001Y-130923476D02*
X145729858Y-131113952D01*
D10*
X91565361Y-111654371D02*
X91541552Y-111678180D01*
X91541552Y-111678180D02*
X91470123Y-111701990D01*
X91470123Y-111701990D02*
X91422504Y-111701990D01*
X91422504Y-111701990D02*
X91351076Y-111678180D01*
X91351076Y-111678180D02*
X91303457Y-111630561D01*
X91303457Y-111630561D02*
X91279647Y-111582942D01*
X91279647Y-111582942D02*
X91255838Y-111487704D01*
X91255838Y-111487704D02*
X91255838Y-111416276D01*
X91255838Y-111416276D02*
X91279647Y-111321038D01*
X91279647Y-111321038D02*
X91303457Y-111273419D01*
X91303457Y-111273419D02*
X91351076Y-111225800D01*
X91351076Y-111225800D02*
X91422504Y-111201990D01*
X91422504Y-111201990D02*
X91470123Y-111201990D01*
X91470123Y-111201990D02*
X91541552Y-111225800D01*
X91541552Y-111225800D02*
X91565361Y-111249609D01*
X91755838Y-111678180D02*
X91827266Y-111701990D01*
X91827266Y-111701990D02*
X91946314Y-111701990D01*
X91946314Y-111701990D02*
X91993933Y-111678180D01*
X91993933Y-111678180D02*
X92017742Y-111654371D01*
X92017742Y-111654371D02*
X92041552Y-111606752D01*
X92041552Y-111606752D02*
X92041552Y-111559133D01*
X92041552Y-111559133D02*
X92017742Y-111511514D01*
X92017742Y-111511514D02*
X91993933Y-111487704D01*
X91993933Y-111487704D02*
X91946314Y-111463895D01*
X91946314Y-111463895D02*
X91851076Y-111440085D01*
X91851076Y-111440085D02*
X91803457Y-111416276D01*
X91803457Y-111416276D02*
X91779647Y-111392466D01*
X91779647Y-111392466D02*
X91755838Y-111344847D01*
X91755838Y-111344847D02*
X91755838Y-111297228D01*
X91755838Y-111297228D02*
X91779647Y-111249609D01*
X91779647Y-111249609D02*
X91803457Y-111225800D01*
X91803457Y-111225800D02*
X91851076Y-111201990D01*
X91851076Y-111201990D02*
X91970123Y-111201990D01*
X91970123Y-111201990D02*
X92041552Y-111225800D01*
X92136790Y-111749609D02*
X92517742Y-111749609D01*
X92636789Y-111701990D02*
X92636789Y-111368657D01*
X92636789Y-111463895D02*
X92660599Y-111416276D01*
X92660599Y-111416276D02*
X92684408Y-111392466D01*
X92684408Y-111392466D02*
X92732027Y-111368657D01*
X92732027Y-111368657D02*
X92779646Y-111368657D01*
X92898694Y-111201990D02*
X93208218Y-111201990D01*
X93208218Y-111201990D02*
X93041551Y-111392466D01*
X93041551Y-111392466D02*
X93112980Y-111392466D01*
X93112980Y-111392466D02*
X93160599Y-111416276D01*
X93160599Y-111416276D02*
X93184408Y-111440085D01*
X93184408Y-111440085D02*
X93208218Y-111487704D01*
X93208218Y-111487704D02*
X93208218Y-111606752D01*
X93208218Y-111606752D02*
X93184408Y-111654371D01*
X93184408Y-111654371D02*
X93160599Y-111678180D01*
X93160599Y-111678180D02*
X93112980Y-111701990D01*
X93112980Y-111701990D02*
X92970123Y-111701990D01*
X92970123Y-111701990D02*
X92922504Y-111678180D01*
X92922504Y-111678180D02*
X92898694Y-111654371D01*
X93422503Y-111654371D02*
X93446313Y-111678180D01*
X93446313Y-111678180D02*
X93422503Y-111701990D01*
X93422503Y-111701990D02*
X93398694Y-111678180D01*
X93398694Y-111678180D02*
X93422503Y-111654371D01*
X93422503Y-111654371D02*
X93422503Y-111701990D01*
X93922503Y-111701990D02*
X93636789Y-111701990D01*
X93779646Y-111701990D02*
X93779646Y-111201990D01*
X93779646Y-111201990D02*
X93732027Y-111273419D01*
X93732027Y-111273419D02*
X93684408Y-111321038D01*
X93684408Y-111321038D02*
X93636789Y-111344847D01*
X86993361Y-100021171D02*
X86969552Y-100044980D01*
X86969552Y-100044980D02*
X86898123Y-100068790D01*
X86898123Y-100068790D02*
X86850504Y-100068790D01*
X86850504Y-100068790D02*
X86779076Y-100044980D01*
X86779076Y-100044980D02*
X86731457Y-99997361D01*
X86731457Y-99997361D02*
X86707647Y-99949742D01*
X86707647Y-99949742D02*
X86683838Y-99854504D01*
X86683838Y-99854504D02*
X86683838Y-99783076D01*
X86683838Y-99783076D02*
X86707647Y-99687838D01*
X86707647Y-99687838D02*
X86731457Y-99640219D01*
X86731457Y-99640219D02*
X86779076Y-99592600D01*
X86779076Y-99592600D02*
X86850504Y-99568790D01*
X86850504Y-99568790D02*
X86898123Y-99568790D01*
X86898123Y-99568790D02*
X86969552Y-99592600D01*
X86969552Y-99592600D02*
X86993361Y-99616409D01*
X87445742Y-100068790D02*
X87207647Y-100068790D01*
X87207647Y-100068790D02*
X87207647Y-99568790D01*
X87612409Y-100068790D02*
X87612409Y-99568790D01*
X87898123Y-100068790D02*
X87683838Y-99783076D01*
X87898123Y-99568790D02*
X87612409Y-99854504D01*
X88161761Y-111654371D02*
X88137952Y-111678180D01*
X88137952Y-111678180D02*
X88066523Y-111701990D01*
X88066523Y-111701990D02*
X88018904Y-111701990D01*
X88018904Y-111701990D02*
X87947476Y-111678180D01*
X87947476Y-111678180D02*
X87899857Y-111630561D01*
X87899857Y-111630561D02*
X87876047Y-111582942D01*
X87876047Y-111582942D02*
X87852238Y-111487704D01*
X87852238Y-111487704D02*
X87852238Y-111416276D01*
X87852238Y-111416276D02*
X87876047Y-111321038D01*
X87876047Y-111321038D02*
X87899857Y-111273419D01*
X87899857Y-111273419D02*
X87947476Y-111225800D01*
X87947476Y-111225800D02*
X88018904Y-111201990D01*
X88018904Y-111201990D02*
X88066523Y-111201990D01*
X88066523Y-111201990D02*
X88137952Y-111225800D01*
X88137952Y-111225800D02*
X88161761Y-111249609D01*
X88352238Y-111678180D02*
X88423666Y-111701990D01*
X88423666Y-111701990D02*
X88542714Y-111701990D01*
X88542714Y-111701990D02*
X88590333Y-111678180D01*
X88590333Y-111678180D02*
X88614142Y-111654371D01*
X88614142Y-111654371D02*
X88637952Y-111606752D01*
X88637952Y-111606752D02*
X88637952Y-111559133D01*
X88637952Y-111559133D02*
X88614142Y-111511514D01*
X88614142Y-111511514D02*
X88590333Y-111487704D01*
X88590333Y-111487704D02*
X88542714Y-111463895D01*
X88542714Y-111463895D02*
X88447476Y-111440085D01*
X88447476Y-111440085D02*
X88399857Y-111416276D01*
X88399857Y-111416276D02*
X88376047Y-111392466D01*
X88376047Y-111392466D02*
X88352238Y-111344847D01*
X88352238Y-111344847D02*
X88352238Y-111297228D01*
X88352238Y-111297228D02*
X88376047Y-111249609D01*
X88376047Y-111249609D02*
X88399857Y-111225800D01*
X88399857Y-111225800D02*
X88447476Y-111201990D01*
X88447476Y-111201990D02*
X88566523Y-111201990D01*
X88566523Y-111201990D02*
X88637952Y-111225800D01*
X88733190Y-111749609D02*
X89114142Y-111749609D01*
X89233189Y-111701990D02*
X89233189Y-111368657D01*
X89233189Y-111463895D02*
X89256999Y-111416276D01*
X89256999Y-111416276D02*
X89280808Y-111392466D01*
X89280808Y-111392466D02*
X89328427Y-111368657D01*
X89328427Y-111368657D02*
X89376046Y-111368657D01*
X89756999Y-111368657D02*
X89756999Y-111701990D01*
X89637951Y-111178180D02*
X89518904Y-111535323D01*
X89518904Y-111535323D02*
X89828427Y-111535323D01*
X90018903Y-111654371D02*
X90042713Y-111678180D01*
X90042713Y-111678180D02*
X90018903Y-111701990D01*
X90018903Y-111701990D02*
X89995094Y-111678180D01*
X89995094Y-111678180D02*
X90018903Y-111654371D01*
X90018903Y-111654371D02*
X90018903Y-111701990D01*
X90518903Y-111701990D02*
X90233189Y-111701990D01*
X90376046Y-111701990D02*
X90376046Y-111201990D01*
X90376046Y-111201990D02*
X90328427Y-111273419D01*
X90328427Y-111273419D02*
X90280808Y-111321038D01*
X90280808Y-111321038D02*
X90233189Y-111344847D01*
X82522961Y-111705171D02*
X82499152Y-111728980D01*
X82499152Y-111728980D02*
X82427723Y-111752790D01*
X82427723Y-111752790D02*
X82380104Y-111752790D01*
X82380104Y-111752790D02*
X82308676Y-111728980D01*
X82308676Y-111728980D02*
X82261057Y-111681361D01*
X82261057Y-111681361D02*
X82237247Y-111633742D01*
X82237247Y-111633742D02*
X82213438Y-111538504D01*
X82213438Y-111538504D02*
X82213438Y-111467076D01*
X82213438Y-111467076D02*
X82237247Y-111371838D01*
X82237247Y-111371838D02*
X82261057Y-111324219D01*
X82261057Y-111324219D02*
X82308676Y-111276600D01*
X82308676Y-111276600D02*
X82380104Y-111252790D01*
X82380104Y-111252790D02*
X82427723Y-111252790D01*
X82427723Y-111252790D02*
X82499152Y-111276600D01*
X82499152Y-111276600D02*
X82522961Y-111300409D01*
X82713438Y-111728980D02*
X82784866Y-111752790D01*
X82784866Y-111752790D02*
X82903914Y-111752790D01*
X82903914Y-111752790D02*
X82951533Y-111728980D01*
X82951533Y-111728980D02*
X82975342Y-111705171D01*
X82975342Y-111705171D02*
X82999152Y-111657552D01*
X82999152Y-111657552D02*
X82999152Y-111609933D01*
X82999152Y-111609933D02*
X82975342Y-111562314D01*
X82975342Y-111562314D02*
X82951533Y-111538504D01*
X82951533Y-111538504D02*
X82903914Y-111514695D01*
X82903914Y-111514695D02*
X82808676Y-111490885D01*
X82808676Y-111490885D02*
X82761057Y-111467076D01*
X82761057Y-111467076D02*
X82737247Y-111443266D01*
X82737247Y-111443266D02*
X82713438Y-111395647D01*
X82713438Y-111395647D02*
X82713438Y-111348028D01*
X82713438Y-111348028D02*
X82737247Y-111300409D01*
X82737247Y-111300409D02*
X82761057Y-111276600D01*
X82761057Y-111276600D02*
X82808676Y-111252790D01*
X82808676Y-111252790D02*
X82927723Y-111252790D01*
X82927723Y-111252790D02*
X82999152Y-111276600D01*
X83094390Y-111800409D02*
X83475342Y-111800409D01*
X83808675Y-111728980D02*
X83761056Y-111752790D01*
X83761056Y-111752790D02*
X83665818Y-111752790D01*
X83665818Y-111752790D02*
X83618199Y-111728980D01*
X83618199Y-111728980D02*
X83594389Y-111705171D01*
X83594389Y-111705171D02*
X83570580Y-111657552D01*
X83570580Y-111657552D02*
X83570580Y-111514695D01*
X83570580Y-111514695D02*
X83594389Y-111467076D01*
X83594389Y-111467076D02*
X83618199Y-111443266D01*
X83618199Y-111443266D02*
X83665818Y-111419457D01*
X83665818Y-111419457D02*
X83761056Y-111419457D01*
X83761056Y-111419457D02*
X83808675Y-111443266D01*
X84284865Y-111752790D02*
X83999151Y-111752790D01*
X84142008Y-111752790D02*
X84142008Y-111252790D01*
X84142008Y-111252790D02*
X84094389Y-111324219D01*
X84094389Y-111324219D02*
X84046770Y-111371838D01*
X84046770Y-111371838D02*
X83999151Y-111395647D01*
X78712961Y-111654371D02*
X78689152Y-111678180D01*
X78689152Y-111678180D02*
X78617723Y-111701990D01*
X78617723Y-111701990D02*
X78570104Y-111701990D01*
X78570104Y-111701990D02*
X78498676Y-111678180D01*
X78498676Y-111678180D02*
X78451057Y-111630561D01*
X78451057Y-111630561D02*
X78427247Y-111582942D01*
X78427247Y-111582942D02*
X78403438Y-111487704D01*
X78403438Y-111487704D02*
X78403438Y-111416276D01*
X78403438Y-111416276D02*
X78427247Y-111321038D01*
X78427247Y-111321038D02*
X78451057Y-111273419D01*
X78451057Y-111273419D02*
X78498676Y-111225800D01*
X78498676Y-111225800D02*
X78570104Y-111201990D01*
X78570104Y-111201990D02*
X78617723Y-111201990D01*
X78617723Y-111201990D02*
X78689152Y-111225800D01*
X78689152Y-111225800D02*
X78712961Y-111249609D01*
X78903438Y-111678180D02*
X78974866Y-111701990D01*
X78974866Y-111701990D02*
X79093914Y-111701990D01*
X79093914Y-111701990D02*
X79141533Y-111678180D01*
X79141533Y-111678180D02*
X79165342Y-111654371D01*
X79165342Y-111654371D02*
X79189152Y-111606752D01*
X79189152Y-111606752D02*
X79189152Y-111559133D01*
X79189152Y-111559133D02*
X79165342Y-111511514D01*
X79165342Y-111511514D02*
X79141533Y-111487704D01*
X79141533Y-111487704D02*
X79093914Y-111463895D01*
X79093914Y-111463895D02*
X78998676Y-111440085D01*
X78998676Y-111440085D02*
X78951057Y-111416276D01*
X78951057Y-111416276D02*
X78927247Y-111392466D01*
X78927247Y-111392466D02*
X78903438Y-111344847D01*
X78903438Y-111344847D02*
X78903438Y-111297228D01*
X78903438Y-111297228D02*
X78927247Y-111249609D01*
X78927247Y-111249609D02*
X78951057Y-111225800D01*
X78951057Y-111225800D02*
X78998676Y-111201990D01*
X78998676Y-111201990D02*
X79117723Y-111201990D01*
X79117723Y-111201990D02*
X79189152Y-111225800D01*
X79284390Y-111749609D02*
X79665342Y-111749609D01*
X79998675Y-111678180D02*
X79951056Y-111701990D01*
X79951056Y-111701990D02*
X79855818Y-111701990D01*
X79855818Y-111701990D02*
X79808199Y-111678180D01*
X79808199Y-111678180D02*
X79784389Y-111654371D01*
X79784389Y-111654371D02*
X79760580Y-111606752D01*
X79760580Y-111606752D02*
X79760580Y-111463895D01*
X79760580Y-111463895D02*
X79784389Y-111416276D01*
X79784389Y-111416276D02*
X79808199Y-111392466D01*
X79808199Y-111392466D02*
X79855818Y-111368657D01*
X79855818Y-111368657D02*
X79951056Y-111368657D01*
X79951056Y-111368657D02*
X79998675Y-111392466D01*
X80165341Y-111201990D02*
X80474865Y-111201990D01*
X80474865Y-111201990D02*
X80308198Y-111392466D01*
X80308198Y-111392466D02*
X80379627Y-111392466D01*
X80379627Y-111392466D02*
X80427246Y-111416276D01*
X80427246Y-111416276D02*
X80451055Y-111440085D01*
X80451055Y-111440085D02*
X80474865Y-111487704D01*
X80474865Y-111487704D02*
X80474865Y-111606752D01*
X80474865Y-111606752D02*
X80451055Y-111654371D01*
X80451055Y-111654371D02*
X80427246Y-111678180D01*
X80427246Y-111678180D02*
X80379627Y-111701990D01*
X80379627Y-111701990D02*
X80236770Y-111701990D01*
X80236770Y-111701990D02*
X80189151Y-111678180D01*
X80189151Y-111678180D02*
X80165341Y-111654371D01*
D12*
X47880600Y-83388104D02*
X47928219Y-83292866D01*
X47928219Y-83292866D02*
X47928219Y-83150009D01*
X47928219Y-83150009D02*
X47880600Y-83007152D01*
X47880600Y-83007152D02*
X47785361Y-82911914D01*
X47785361Y-82911914D02*
X47690123Y-82864295D01*
X47690123Y-82864295D02*
X47499647Y-82816676D01*
X47499647Y-82816676D02*
X47356790Y-82816676D01*
X47356790Y-82816676D02*
X47166314Y-82864295D01*
X47166314Y-82864295D02*
X47071076Y-82911914D01*
X47071076Y-82911914D02*
X46975838Y-83007152D01*
X46975838Y-83007152D02*
X46928219Y-83150009D01*
X46928219Y-83150009D02*
X46928219Y-83245247D01*
X46928219Y-83245247D02*
X46975838Y-83388104D01*
X46975838Y-83388104D02*
X47023457Y-83435723D01*
X47023457Y-83435723D02*
X47356790Y-83435723D01*
X47356790Y-83435723D02*
X47356790Y-83245247D01*
X46928219Y-83864295D02*
X47928219Y-83864295D01*
X47928219Y-83864295D02*
X46928219Y-84435723D01*
X46928219Y-84435723D02*
X47928219Y-84435723D01*
X46928219Y-84911914D02*
X47928219Y-84911914D01*
X47928219Y-84911914D02*
X47928219Y-85150009D01*
X47928219Y-85150009D02*
X47880600Y-85292866D01*
X47880600Y-85292866D02*
X47785361Y-85388104D01*
X47785361Y-85388104D02*
X47690123Y-85435723D01*
X47690123Y-85435723D02*
X47499647Y-85483342D01*
X47499647Y-85483342D02*
X47356790Y-85483342D01*
X47356790Y-85483342D02*
X47166314Y-85435723D01*
X47166314Y-85435723D02*
X47071076Y-85388104D01*
X47071076Y-85388104D02*
X46975838Y-85292866D01*
X46975838Y-85292866D02*
X46928219Y-85150009D01*
X46928219Y-85150009D02*
X46928219Y-84911914D01*
D10*
X88314161Y-109165171D02*
X88290352Y-109188980D01*
X88290352Y-109188980D02*
X88218923Y-109212790D01*
X88218923Y-109212790D02*
X88171304Y-109212790D01*
X88171304Y-109212790D02*
X88099876Y-109188980D01*
X88099876Y-109188980D02*
X88052257Y-109141361D01*
X88052257Y-109141361D02*
X88028447Y-109093742D01*
X88028447Y-109093742D02*
X88004638Y-108998504D01*
X88004638Y-108998504D02*
X88004638Y-108927076D01*
X88004638Y-108927076D02*
X88028447Y-108831838D01*
X88028447Y-108831838D02*
X88052257Y-108784219D01*
X88052257Y-108784219D02*
X88099876Y-108736600D01*
X88099876Y-108736600D02*
X88171304Y-108712790D01*
X88171304Y-108712790D02*
X88218923Y-108712790D01*
X88218923Y-108712790D02*
X88290352Y-108736600D01*
X88290352Y-108736600D02*
X88314161Y-108760409D01*
X88504638Y-109188980D02*
X88576066Y-109212790D01*
X88576066Y-109212790D02*
X88695114Y-109212790D01*
X88695114Y-109212790D02*
X88742733Y-109188980D01*
X88742733Y-109188980D02*
X88766542Y-109165171D01*
X88766542Y-109165171D02*
X88790352Y-109117552D01*
X88790352Y-109117552D02*
X88790352Y-109069933D01*
X88790352Y-109069933D02*
X88766542Y-109022314D01*
X88766542Y-109022314D02*
X88742733Y-108998504D01*
X88742733Y-108998504D02*
X88695114Y-108974695D01*
X88695114Y-108974695D02*
X88599876Y-108950885D01*
X88599876Y-108950885D02*
X88552257Y-108927076D01*
X88552257Y-108927076D02*
X88528447Y-108903266D01*
X88528447Y-108903266D02*
X88504638Y-108855647D01*
X88504638Y-108855647D02*
X88504638Y-108808028D01*
X88504638Y-108808028D02*
X88528447Y-108760409D01*
X88528447Y-108760409D02*
X88552257Y-108736600D01*
X88552257Y-108736600D02*
X88599876Y-108712790D01*
X88599876Y-108712790D02*
X88718923Y-108712790D01*
X88718923Y-108712790D02*
X88790352Y-108736600D01*
X88885590Y-109260409D02*
X89266542Y-109260409D01*
X89385589Y-109212790D02*
X89385589Y-108879457D01*
X89385589Y-108974695D02*
X89409399Y-108927076D01*
X89409399Y-108927076D02*
X89433208Y-108903266D01*
X89433208Y-108903266D02*
X89480827Y-108879457D01*
X89480827Y-108879457D02*
X89528446Y-108879457D01*
X89647494Y-108712790D02*
X89957018Y-108712790D01*
X89957018Y-108712790D02*
X89790351Y-108903266D01*
X89790351Y-108903266D02*
X89861780Y-108903266D01*
X89861780Y-108903266D02*
X89909399Y-108927076D01*
X89909399Y-108927076D02*
X89933208Y-108950885D01*
X89933208Y-108950885D02*
X89957018Y-108998504D01*
X89957018Y-108998504D02*
X89957018Y-109117552D01*
X89957018Y-109117552D02*
X89933208Y-109165171D01*
X89933208Y-109165171D02*
X89909399Y-109188980D01*
X89909399Y-109188980D02*
X89861780Y-109212790D01*
X89861780Y-109212790D02*
X89718923Y-109212790D01*
X89718923Y-109212790D02*
X89671304Y-109188980D01*
X89671304Y-109188980D02*
X89647494Y-109165171D01*
X90171303Y-109165171D02*
X90195113Y-109188980D01*
X90195113Y-109188980D02*
X90171303Y-109212790D01*
X90171303Y-109212790D02*
X90147494Y-109188980D01*
X90147494Y-109188980D02*
X90171303Y-109165171D01*
X90171303Y-109165171D02*
X90171303Y-109212790D01*
X90385589Y-108760409D02*
X90409398Y-108736600D01*
X90409398Y-108736600D02*
X90457017Y-108712790D01*
X90457017Y-108712790D02*
X90576065Y-108712790D01*
X90576065Y-108712790D02*
X90623684Y-108736600D01*
X90623684Y-108736600D02*
X90647493Y-108760409D01*
X90647493Y-108760409D02*
X90671303Y-108808028D01*
X90671303Y-108808028D02*
X90671303Y-108855647D01*
X90671303Y-108855647D02*
X90647493Y-108927076D01*
X90647493Y-108927076D02*
X90361779Y-109212790D01*
X90361779Y-109212790D02*
X90671303Y-109212790D01*
D13*
X182131428Y-30484628D02*
X182131428Y-29770342D01*
X182131428Y-29770342D02*
X183631428Y-29770342D01*
X183131428Y-31627486D02*
X182131428Y-31627486D01*
X183131428Y-30984628D02*
X182345714Y-30984628D01*
X182345714Y-30984628D02*
X182202857Y-31056057D01*
X182202857Y-31056057D02*
X182131428Y-31198914D01*
X182131428Y-31198914D02*
X182131428Y-31413200D01*
X182131428Y-31413200D02*
X182202857Y-31556057D01*
X182202857Y-31556057D02*
X182274285Y-31627486D01*
X182131428Y-32341771D02*
X183131428Y-32341771D01*
X182988571Y-32341771D02*
X183060000Y-32413200D01*
X183060000Y-32413200D02*
X183131428Y-32556057D01*
X183131428Y-32556057D02*
X183131428Y-32770343D01*
X183131428Y-32770343D02*
X183060000Y-32913200D01*
X183060000Y-32913200D02*
X182917142Y-32984629D01*
X182917142Y-32984629D02*
X182131428Y-32984629D01*
X182917142Y-32984629D02*
X183060000Y-33056057D01*
X183060000Y-33056057D02*
X183131428Y-33198914D01*
X183131428Y-33198914D02*
X183131428Y-33413200D01*
X183131428Y-33413200D02*
X183060000Y-33556057D01*
X183060000Y-33556057D02*
X182917142Y-33627486D01*
X182917142Y-33627486D02*
X182131428Y-33627486D01*
X182131428Y-34341771D02*
X183131428Y-34341771D01*
X183631428Y-34341771D02*
X183560000Y-34270343D01*
X183560000Y-34270343D02*
X183488571Y-34341771D01*
X183488571Y-34341771D02*
X183560000Y-34413200D01*
X183560000Y-34413200D02*
X183631428Y-34341771D01*
X183631428Y-34341771D02*
X183488571Y-34341771D01*
X183131428Y-35056057D02*
X182131428Y-35056057D01*
X182988571Y-35056057D02*
X183060000Y-35127486D01*
X183060000Y-35127486D02*
X183131428Y-35270343D01*
X183131428Y-35270343D02*
X183131428Y-35484629D01*
X183131428Y-35484629D02*
X183060000Y-35627486D01*
X183060000Y-35627486D02*
X182917142Y-35698915D01*
X182917142Y-35698915D02*
X182131428Y-35698915D01*
X182131428Y-37056058D02*
X182917142Y-37056058D01*
X182917142Y-37056058D02*
X183060000Y-36984629D01*
X183060000Y-36984629D02*
X183131428Y-36841772D01*
X183131428Y-36841772D02*
X183131428Y-36556058D01*
X183131428Y-36556058D02*
X183060000Y-36413200D01*
X182202857Y-37056058D02*
X182131428Y-36913200D01*
X182131428Y-36913200D02*
X182131428Y-36556058D01*
X182131428Y-36556058D02*
X182202857Y-36413200D01*
X182202857Y-36413200D02*
X182345714Y-36341772D01*
X182345714Y-36341772D02*
X182488571Y-36341772D01*
X182488571Y-36341772D02*
X182631428Y-36413200D01*
X182631428Y-36413200D02*
X182702857Y-36556058D01*
X182702857Y-36556058D02*
X182702857Y-36913200D01*
X182702857Y-36913200D02*
X182774285Y-37056058D01*
X183131428Y-37556058D02*
X183131428Y-38127486D01*
X183631428Y-37770343D02*
X182345714Y-37770343D01*
X182345714Y-37770343D02*
X182202857Y-37841772D01*
X182202857Y-37841772D02*
X182131428Y-37984629D01*
X182131428Y-37984629D02*
X182131428Y-38127486D01*
X182131428Y-38841772D02*
X182202857Y-38698915D01*
X182202857Y-38698915D02*
X182274285Y-38627486D01*
X182274285Y-38627486D02*
X182417142Y-38556058D01*
X182417142Y-38556058D02*
X182845714Y-38556058D01*
X182845714Y-38556058D02*
X182988571Y-38627486D01*
X182988571Y-38627486D02*
X183060000Y-38698915D01*
X183060000Y-38698915D02*
X183131428Y-38841772D01*
X183131428Y-38841772D02*
X183131428Y-39056058D01*
X183131428Y-39056058D02*
X183060000Y-39198915D01*
X183060000Y-39198915D02*
X182988571Y-39270344D01*
X182988571Y-39270344D02*
X182845714Y-39341772D01*
X182845714Y-39341772D02*
X182417142Y-39341772D01*
X182417142Y-39341772D02*
X182274285Y-39270344D01*
X182274285Y-39270344D02*
X182202857Y-39198915D01*
X182202857Y-39198915D02*
X182131428Y-39056058D01*
X182131428Y-39056058D02*
X182131428Y-38841772D01*
X182131428Y-39984629D02*
X183131428Y-39984629D01*
X182845714Y-39984629D02*
X182988571Y-40056058D01*
X182988571Y-40056058D02*
X183060000Y-40127487D01*
X183060000Y-40127487D02*
X183131428Y-40270344D01*
X183131428Y-40270344D02*
X183131428Y-40413201D01*
X182917142Y-42313200D02*
X182917142Y-41813200D01*
X182131428Y-41813200D02*
X183631428Y-41813200D01*
X183631428Y-41813200D02*
X183631428Y-42527486D01*
X182131428Y-43313200D02*
X182202857Y-43170343D01*
X182202857Y-43170343D02*
X182345714Y-43098914D01*
X182345714Y-43098914D02*
X183631428Y-43098914D01*
X182131428Y-43884628D02*
X183131428Y-43884628D01*
X183631428Y-43884628D02*
X183560000Y-43813200D01*
X183560000Y-43813200D02*
X183488571Y-43884628D01*
X183488571Y-43884628D02*
X183560000Y-43956057D01*
X183560000Y-43956057D02*
X183631428Y-43884628D01*
X183631428Y-43884628D02*
X183488571Y-43884628D01*
X183131428Y-44598914D02*
X181631428Y-44598914D01*
X183060000Y-44598914D02*
X183131428Y-44741772D01*
X183131428Y-44741772D02*
X183131428Y-45027486D01*
X183131428Y-45027486D02*
X183060000Y-45170343D01*
X183060000Y-45170343D02*
X182988571Y-45241772D01*
X182988571Y-45241772D02*
X182845714Y-45313200D01*
X182845714Y-45313200D02*
X182417142Y-45313200D01*
X182417142Y-45313200D02*
X182274285Y-45241772D01*
X182274285Y-45241772D02*
X182202857Y-45170343D01*
X182202857Y-45170343D02*
X182131428Y-45027486D01*
X182131428Y-45027486D02*
X182131428Y-44741772D01*
X182131428Y-44741772D02*
X182202857Y-44598914D01*
X182131428Y-46598915D02*
X183631428Y-46598915D01*
X182202857Y-46598915D02*
X182131428Y-46456057D01*
X182131428Y-46456057D02*
X182131428Y-46170343D01*
X182131428Y-46170343D02*
X182202857Y-46027486D01*
X182202857Y-46027486D02*
X182274285Y-45956057D01*
X182274285Y-45956057D02*
X182417142Y-45884629D01*
X182417142Y-45884629D02*
X182845714Y-45884629D01*
X182845714Y-45884629D02*
X182988571Y-45956057D01*
X182988571Y-45956057D02*
X183060000Y-46027486D01*
X183060000Y-46027486D02*
X183131428Y-46170343D01*
X183131428Y-46170343D02*
X183131428Y-46456057D01*
X183131428Y-46456057D02*
X183060000Y-46598915D01*
X182131428Y-47527486D02*
X182202857Y-47384629D01*
X182202857Y-47384629D02*
X182274285Y-47313200D01*
X182274285Y-47313200D02*
X182417142Y-47241772D01*
X182417142Y-47241772D02*
X182845714Y-47241772D01*
X182845714Y-47241772D02*
X182988571Y-47313200D01*
X182988571Y-47313200D02*
X183060000Y-47384629D01*
X183060000Y-47384629D02*
X183131428Y-47527486D01*
X183131428Y-47527486D02*
X183131428Y-47741772D01*
X183131428Y-47741772D02*
X183060000Y-47884629D01*
X183060000Y-47884629D02*
X182988571Y-47956058D01*
X182988571Y-47956058D02*
X182845714Y-48027486D01*
X182845714Y-48027486D02*
X182417142Y-48027486D01*
X182417142Y-48027486D02*
X182274285Y-47956058D01*
X182274285Y-47956058D02*
X182202857Y-47884629D01*
X182202857Y-47884629D02*
X182131428Y-47741772D01*
X182131428Y-47741772D02*
X182131428Y-47527486D01*
X183131428Y-48456058D02*
X183131428Y-49027486D01*
X183631428Y-48670343D02*
X182345714Y-48670343D01*
X182345714Y-48670343D02*
X182202857Y-48741772D01*
X182202857Y-48741772D02*
X182131428Y-48884629D01*
X182131428Y-48884629D02*
X182131428Y-49027486D01*
X179844285Y-30627485D02*
X179772857Y-30556057D01*
X179772857Y-30556057D02*
X179701428Y-30341771D01*
X179701428Y-30341771D02*
X179701428Y-30198914D01*
X179701428Y-30198914D02*
X179772857Y-29984628D01*
X179772857Y-29984628D02*
X179915714Y-29841771D01*
X179915714Y-29841771D02*
X180058571Y-29770342D01*
X180058571Y-29770342D02*
X180344285Y-29698914D01*
X180344285Y-29698914D02*
X180558571Y-29698914D01*
X180558571Y-29698914D02*
X180844285Y-29770342D01*
X180844285Y-29770342D02*
X180987142Y-29841771D01*
X180987142Y-29841771D02*
X181130000Y-29984628D01*
X181130000Y-29984628D02*
X181201428Y-30198914D01*
X181201428Y-30198914D02*
X181201428Y-30341771D01*
X181201428Y-30341771D02*
X181130000Y-30556057D01*
X181130000Y-30556057D02*
X181058571Y-30627485D01*
X179701428Y-31484628D02*
X179772857Y-31341771D01*
X179772857Y-31341771D02*
X179844285Y-31270342D01*
X179844285Y-31270342D02*
X179987142Y-31198914D01*
X179987142Y-31198914D02*
X180415714Y-31198914D01*
X180415714Y-31198914D02*
X180558571Y-31270342D01*
X180558571Y-31270342D02*
X180630000Y-31341771D01*
X180630000Y-31341771D02*
X180701428Y-31484628D01*
X180701428Y-31484628D02*
X180701428Y-31698914D01*
X180701428Y-31698914D02*
X180630000Y-31841771D01*
X180630000Y-31841771D02*
X180558571Y-31913200D01*
X180558571Y-31913200D02*
X180415714Y-31984628D01*
X180415714Y-31984628D02*
X179987142Y-31984628D01*
X179987142Y-31984628D02*
X179844285Y-31913200D01*
X179844285Y-31913200D02*
X179772857Y-31841771D01*
X179772857Y-31841771D02*
X179701428Y-31698914D01*
X179701428Y-31698914D02*
X179701428Y-31484628D01*
X180701428Y-32627485D02*
X179701428Y-32627485D01*
X180558571Y-32627485D02*
X180630000Y-32698914D01*
X180630000Y-32698914D02*
X180701428Y-32841771D01*
X180701428Y-32841771D02*
X180701428Y-33056057D01*
X180701428Y-33056057D02*
X180630000Y-33198914D01*
X180630000Y-33198914D02*
X180487142Y-33270343D01*
X180487142Y-33270343D02*
X179701428Y-33270343D01*
X180701428Y-33770343D02*
X180701428Y-34341771D01*
X181201428Y-33984628D02*
X179915714Y-33984628D01*
X179915714Y-33984628D02*
X179772857Y-34056057D01*
X179772857Y-34056057D02*
X179701428Y-34198914D01*
X179701428Y-34198914D02*
X179701428Y-34341771D01*
X179701428Y-34841771D02*
X180701428Y-34841771D01*
X180415714Y-34841771D02*
X180558571Y-34913200D01*
X180558571Y-34913200D02*
X180630000Y-34984629D01*
X180630000Y-34984629D02*
X180701428Y-35127486D01*
X180701428Y-35127486D02*
X180701428Y-35270343D01*
X179701428Y-35984628D02*
X179772857Y-35841771D01*
X179772857Y-35841771D02*
X179844285Y-35770342D01*
X179844285Y-35770342D02*
X179987142Y-35698914D01*
X179987142Y-35698914D02*
X180415714Y-35698914D01*
X180415714Y-35698914D02*
X180558571Y-35770342D01*
X180558571Y-35770342D02*
X180630000Y-35841771D01*
X180630000Y-35841771D02*
X180701428Y-35984628D01*
X180701428Y-35984628D02*
X180701428Y-36198914D01*
X180701428Y-36198914D02*
X180630000Y-36341771D01*
X180630000Y-36341771D02*
X180558571Y-36413200D01*
X180558571Y-36413200D02*
X180415714Y-36484628D01*
X180415714Y-36484628D02*
X179987142Y-36484628D01*
X179987142Y-36484628D02*
X179844285Y-36413200D01*
X179844285Y-36413200D02*
X179772857Y-36341771D01*
X179772857Y-36341771D02*
X179701428Y-36198914D01*
X179701428Y-36198914D02*
X179701428Y-35984628D01*
X179701428Y-37341771D02*
X179772857Y-37198914D01*
X179772857Y-37198914D02*
X179915714Y-37127485D01*
X179915714Y-37127485D02*
X181201428Y-37127485D01*
X179701428Y-38127485D02*
X179772857Y-37984628D01*
X179772857Y-37984628D02*
X179915714Y-37913199D01*
X179915714Y-37913199D02*
X181201428Y-37913199D01*
X179772857Y-39270342D02*
X179701428Y-39127485D01*
X179701428Y-39127485D02*
X179701428Y-38841771D01*
X179701428Y-38841771D02*
X179772857Y-38698913D01*
X179772857Y-38698913D02*
X179915714Y-38627485D01*
X179915714Y-38627485D02*
X180487142Y-38627485D01*
X180487142Y-38627485D02*
X180630000Y-38698913D01*
X180630000Y-38698913D02*
X180701428Y-38841771D01*
X180701428Y-38841771D02*
X180701428Y-39127485D01*
X180701428Y-39127485D02*
X180630000Y-39270342D01*
X180630000Y-39270342D02*
X180487142Y-39341771D01*
X180487142Y-39341771D02*
X180344285Y-39341771D01*
X180344285Y-39341771D02*
X180201428Y-38627485D01*
X179701428Y-39984627D02*
X180701428Y-39984627D01*
X180415714Y-39984627D02*
X180558571Y-40056056D01*
X180558571Y-40056056D02*
X180630000Y-40127485D01*
X180630000Y-40127485D02*
X180701428Y-40270342D01*
X180701428Y-40270342D02*
X180701428Y-40413199D01*
X179701428Y-42598913D02*
X179701428Y-41741770D01*
X179701428Y-42170341D02*
X181201428Y-42170341D01*
X181201428Y-42170341D02*
X180987142Y-42027484D01*
X180987142Y-42027484D02*
X180844285Y-41884627D01*
X180844285Y-41884627D02*
X180772857Y-41741770D01*
X181201428Y-43884627D02*
X181201428Y-43598912D01*
X181201428Y-43598912D02*
X181130000Y-43456055D01*
X181130000Y-43456055D02*
X181058571Y-43384627D01*
X181058571Y-43384627D02*
X180844285Y-43241769D01*
X180844285Y-43241769D02*
X180558571Y-43170341D01*
X180558571Y-43170341D02*
X179987142Y-43170341D01*
X179987142Y-43170341D02*
X179844285Y-43241769D01*
X179844285Y-43241769D02*
X179772857Y-43313198D01*
X179772857Y-43313198D02*
X179701428Y-43456055D01*
X179701428Y-43456055D02*
X179701428Y-43741769D01*
X179701428Y-43741769D02*
X179772857Y-43884627D01*
X179772857Y-43884627D02*
X179844285Y-43956055D01*
X179844285Y-43956055D02*
X179987142Y-44027484D01*
X179987142Y-44027484D02*
X180344285Y-44027484D01*
X180344285Y-44027484D02*
X180487142Y-43956055D01*
X180487142Y-43956055D02*
X180558571Y-43884627D01*
X180558571Y-43884627D02*
X180630000Y-43741769D01*
X180630000Y-43741769D02*
X180630000Y-43456055D01*
X180630000Y-43456055D02*
X180558571Y-43313198D01*
X180558571Y-43313198D02*
X180487142Y-43241769D01*
X180487142Y-43241769D02*
X180344285Y-43170341D01*
X179701428Y-44527483D02*
X180701428Y-45313198D01*
X180701428Y-44527483D02*
X179701428Y-45313198D01*
X179701428Y-46670341D02*
X179701428Y-45813198D01*
X179701428Y-46241769D02*
X181201428Y-46241769D01*
X181201428Y-46241769D02*
X180987142Y-46098912D01*
X180987142Y-46098912D02*
X180844285Y-45956055D01*
X180844285Y-45956055D02*
X180772857Y-45813198D01*
X179701428Y-48098912D02*
X179701428Y-47241769D01*
X179701428Y-47670340D02*
X181201428Y-47670340D01*
X181201428Y-47670340D02*
X180987142Y-47527483D01*
X180987142Y-47527483D02*
X180844285Y-47384626D01*
X180844285Y-47384626D02*
X180772857Y-47241769D01*
X181058571Y-48670340D02*
X181130000Y-48741768D01*
X181130000Y-48741768D02*
X181201428Y-48884626D01*
X181201428Y-48884626D02*
X181201428Y-49241768D01*
X181201428Y-49241768D02*
X181130000Y-49384626D01*
X181130000Y-49384626D02*
X181058571Y-49456054D01*
X181058571Y-49456054D02*
X180915714Y-49527483D01*
X180915714Y-49527483D02*
X180772857Y-49527483D01*
X180772857Y-49527483D02*
X180558571Y-49456054D01*
X180558571Y-49456054D02*
X179701428Y-48598911D01*
X179701428Y-48598911D02*
X179701428Y-49527483D01*
X174841428Y-29770342D02*
X176341428Y-29770342D01*
X176341428Y-29770342D02*
X176341428Y-30127485D01*
X176341428Y-30127485D02*
X176270000Y-30341771D01*
X176270000Y-30341771D02*
X176127142Y-30484628D01*
X176127142Y-30484628D02*
X175984285Y-30556057D01*
X175984285Y-30556057D02*
X175698571Y-30627485D01*
X175698571Y-30627485D02*
X175484285Y-30627485D01*
X175484285Y-30627485D02*
X175198571Y-30556057D01*
X175198571Y-30556057D02*
X175055714Y-30484628D01*
X175055714Y-30484628D02*
X174912857Y-30341771D01*
X174912857Y-30341771D02*
X174841428Y-30127485D01*
X174841428Y-30127485D02*
X174841428Y-29770342D01*
X174912857Y-31841771D02*
X174841428Y-31698914D01*
X174841428Y-31698914D02*
X174841428Y-31413200D01*
X174841428Y-31413200D02*
X174912857Y-31270342D01*
X174912857Y-31270342D02*
X175055714Y-31198914D01*
X175055714Y-31198914D02*
X175627142Y-31198914D01*
X175627142Y-31198914D02*
X175770000Y-31270342D01*
X175770000Y-31270342D02*
X175841428Y-31413200D01*
X175841428Y-31413200D02*
X175841428Y-31698914D01*
X175841428Y-31698914D02*
X175770000Y-31841771D01*
X175770000Y-31841771D02*
X175627142Y-31913200D01*
X175627142Y-31913200D02*
X175484285Y-31913200D01*
X175484285Y-31913200D02*
X175341428Y-31198914D01*
X174912857Y-32484628D02*
X174841428Y-32627485D01*
X174841428Y-32627485D02*
X174841428Y-32913199D01*
X174841428Y-32913199D02*
X174912857Y-33056056D01*
X174912857Y-33056056D02*
X175055714Y-33127485D01*
X175055714Y-33127485D02*
X175127142Y-33127485D01*
X175127142Y-33127485D02*
X175270000Y-33056056D01*
X175270000Y-33056056D02*
X175341428Y-32913199D01*
X175341428Y-32913199D02*
X175341428Y-32698914D01*
X175341428Y-32698914D02*
X175412857Y-32556056D01*
X175412857Y-32556056D02*
X175555714Y-32484628D01*
X175555714Y-32484628D02*
X175627142Y-32484628D01*
X175627142Y-32484628D02*
X175770000Y-32556056D01*
X175770000Y-32556056D02*
X175841428Y-32698914D01*
X175841428Y-32698914D02*
X175841428Y-32913199D01*
X175841428Y-32913199D02*
X175770000Y-33056056D01*
X174841428Y-33770342D02*
X175841428Y-33770342D01*
X176341428Y-33770342D02*
X176270000Y-33698914D01*
X176270000Y-33698914D02*
X176198571Y-33770342D01*
X176198571Y-33770342D02*
X176270000Y-33841771D01*
X176270000Y-33841771D02*
X176341428Y-33770342D01*
X176341428Y-33770342D02*
X176198571Y-33770342D01*
X175841428Y-35127486D02*
X174627142Y-35127486D01*
X174627142Y-35127486D02*
X174484285Y-35056057D01*
X174484285Y-35056057D02*
X174412857Y-34984628D01*
X174412857Y-34984628D02*
X174341428Y-34841771D01*
X174341428Y-34841771D02*
X174341428Y-34627486D01*
X174341428Y-34627486D02*
X174412857Y-34484628D01*
X174912857Y-35127486D02*
X174841428Y-34984628D01*
X174841428Y-34984628D02*
X174841428Y-34698914D01*
X174841428Y-34698914D02*
X174912857Y-34556057D01*
X174912857Y-34556057D02*
X174984285Y-34484628D01*
X174984285Y-34484628D02*
X175127142Y-34413200D01*
X175127142Y-34413200D02*
X175555714Y-34413200D01*
X175555714Y-34413200D02*
X175698571Y-34484628D01*
X175698571Y-34484628D02*
X175770000Y-34556057D01*
X175770000Y-34556057D02*
X175841428Y-34698914D01*
X175841428Y-34698914D02*
X175841428Y-34984628D01*
X175841428Y-34984628D02*
X175770000Y-35127486D01*
X175841428Y-35841771D02*
X174841428Y-35841771D01*
X175698571Y-35841771D02*
X175770000Y-35913200D01*
X175770000Y-35913200D02*
X175841428Y-36056057D01*
X175841428Y-36056057D02*
X175841428Y-36270343D01*
X175841428Y-36270343D02*
X175770000Y-36413200D01*
X175770000Y-36413200D02*
X175627142Y-36484629D01*
X175627142Y-36484629D02*
X174841428Y-36484629D01*
X174912857Y-37770343D02*
X174841428Y-37627486D01*
X174841428Y-37627486D02*
X174841428Y-37341772D01*
X174841428Y-37341772D02*
X174912857Y-37198914D01*
X174912857Y-37198914D02*
X175055714Y-37127486D01*
X175055714Y-37127486D02*
X175627142Y-37127486D01*
X175627142Y-37127486D02*
X175770000Y-37198914D01*
X175770000Y-37198914D02*
X175841428Y-37341772D01*
X175841428Y-37341772D02*
X175841428Y-37627486D01*
X175841428Y-37627486D02*
X175770000Y-37770343D01*
X175770000Y-37770343D02*
X175627142Y-37841772D01*
X175627142Y-37841772D02*
X175484285Y-37841772D01*
X175484285Y-37841772D02*
X175341428Y-37127486D01*
X174841428Y-39127486D02*
X176341428Y-39127486D01*
X174912857Y-39127486D02*
X174841428Y-38984628D01*
X174841428Y-38984628D02*
X174841428Y-38698914D01*
X174841428Y-38698914D02*
X174912857Y-38556057D01*
X174912857Y-38556057D02*
X174984285Y-38484628D01*
X174984285Y-38484628D02*
X175127142Y-38413200D01*
X175127142Y-38413200D02*
X175555714Y-38413200D01*
X175555714Y-38413200D02*
X175698571Y-38484628D01*
X175698571Y-38484628D02*
X175770000Y-38556057D01*
X175770000Y-38556057D02*
X175841428Y-38698914D01*
X175841428Y-38698914D02*
X175841428Y-38984628D01*
X175841428Y-38984628D02*
X175770000Y-39127486D01*
X174841428Y-40741771D02*
X175841428Y-40741771D01*
X176341428Y-40741771D02*
X176270000Y-40670343D01*
X176270000Y-40670343D02*
X176198571Y-40741771D01*
X176198571Y-40741771D02*
X176270000Y-40813200D01*
X176270000Y-40813200D02*
X176341428Y-40741771D01*
X176341428Y-40741771D02*
X176198571Y-40741771D01*
X175841428Y-41456057D02*
X174841428Y-41456057D01*
X175698571Y-41456057D02*
X175770000Y-41527486D01*
X175770000Y-41527486D02*
X175841428Y-41670343D01*
X175841428Y-41670343D02*
X175841428Y-41884629D01*
X175841428Y-41884629D02*
X175770000Y-42027486D01*
X175770000Y-42027486D02*
X175627142Y-42098915D01*
X175627142Y-42098915D02*
X174841428Y-42098915D01*
X176198571Y-43641772D02*
X176270000Y-43713200D01*
X176270000Y-43713200D02*
X176341428Y-43856058D01*
X176341428Y-43856058D02*
X176341428Y-44213200D01*
X176341428Y-44213200D02*
X176270000Y-44356058D01*
X176270000Y-44356058D02*
X176198571Y-44427486D01*
X176198571Y-44427486D02*
X176055714Y-44498915D01*
X176055714Y-44498915D02*
X175912857Y-44498915D01*
X175912857Y-44498915D02*
X175698571Y-44427486D01*
X175698571Y-44427486D02*
X174841428Y-43570343D01*
X174841428Y-43570343D02*
X174841428Y-44498915D01*
X176341428Y-45427486D02*
X176341428Y-45570343D01*
X176341428Y-45570343D02*
X176270000Y-45713200D01*
X176270000Y-45713200D02*
X176198571Y-45784629D01*
X176198571Y-45784629D02*
X176055714Y-45856057D01*
X176055714Y-45856057D02*
X175770000Y-45927486D01*
X175770000Y-45927486D02*
X175412857Y-45927486D01*
X175412857Y-45927486D02*
X175127142Y-45856057D01*
X175127142Y-45856057D02*
X174984285Y-45784629D01*
X174984285Y-45784629D02*
X174912857Y-45713200D01*
X174912857Y-45713200D02*
X174841428Y-45570343D01*
X174841428Y-45570343D02*
X174841428Y-45427486D01*
X174841428Y-45427486D02*
X174912857Y-45284629D01*
X174912857Y-45284629D02*
X174984285Y-45213200D01*
X174984285Y-45213200D02*
X175127142Y-45141771D01*
X175127142Y-45141771D02*
X175412857Y-45070343D01*
X175412857Y-45070343D02*
X175770000Y-45070343D01*
X175770000Y-45070343D02*
X176055714Y-45141771D01*
X176055714Y-45141771D02*
X176198571Y-45213200D01*
X176198571Y-45213200D02*
X176270000Y-45284629D01*
X176270000Y-45284629D02*
X176341428Y-45427486D01*
X176198571Y-46498914D02*
X176270000Y-46570342D01*
X176270000Y-46570342D02*
X176341428Y-46713200D01*
X176341428Y-46713200D02*
X176341428Y-47070342D01*
X176341428Y-47070342D02*
X176270000Y-47213200D01*
X176270000Y-47213200D02*
X176198571Y-47284628D01*
X176198571Y-47284628D02*
X176055714Y-47356057D01*
X176055714Y-47356057D02*
X175912857Y-47356057D01*
X175912857Y-47356057D02*
X175698571Y-47284628D01*
X175698571Y-47284628D02*
X174841428Y-46427485D01*
X174841428Y-46427485D02*
X174841428Y-47356057D01*
X176341428Y-47856056D02*
X176341428Y-48784628D01*
X176341428Y-48784628D02*
X175770000Y-48284628D01*
X175770000Y-48284628D02*
X175770000Y-48498913D01*
X175770000Y-48498913D02*
X175698571Y-48641771D01*
X175698571Y-48641771D02*
X175627142Y-48713199D01*
X175627142Y-48713199D02*
X175484285Y-48784628D01*
X175484285Y-48784628D02*
X175127142Y-48784628D01*
X175127142Y-48784628D02*
X174984285Y-48713199D01*
X174984285Y-48713199D02*
X174912857Y-48641771D01*
X174912857Y-48641771D02*
X174841428Y-48498913D01*
X174841428Y-48498913D02*
X174841428Y-48070342D01*
X174841428Y-48070342D02*
X174912857Y-47927485D01*
X174912857Y-47927485D02*
X174984285Y-47856056D01*
X172411428Y-29770342D02*
X173911428Y-29770342D01*
X173340000Y-29770342D02*
X173411428Y-29913200D01*
X173411428Y-29913200D02*
X173411428Y-30198914D01*
X173411428Y-30198914D02*
X173340000Y-30341771D01*
X173340000Y-30341771D02*
X173268571Y-30413200D01*
X173268571Y-30413200D02*
X173125714Y-30484628D01*
X173125714Y-30484628D02*
X172697142Y-30484628D01*
X172697142Y-30484628D02*
X172554285Y-30413200D01*
X172554285Y-30413200D02*
X172482857Y-30341771D01*
X172482857Y-30341771D02*
X172411428Y-30198914D01*
X172411428Y-30198914D02*
X172411428Y-29913200D01*
X172411428Y-29913200D02*
X172482857Y-29770342D01*
X173411428Y-30984628D02*
X172411428Y-31341771D01*
X173411428Y-31698914D02*
X172411428Y-31341771D01*
X172411428Y-31341771D02*
X172054285Y-31198914D01*
X172054285Y-31198914D02*
X171982857Y-31127485D01*
X171982857Y-31127485D02*
X171911428Y-30984628D01*
X173911428Y-32956057D02*
X173911428Y-33813200D01*
X172411428Y-33384628D02*
X173911428Y-33384628D01*
X173411428Y-34170342D02*
X172411428Y-34527485D01*
X173411428Y-34884628D02*
X172411428Y-34527485D01*
X172411428Y-34527485D02*
X172054285Y-34384628D01*
X172054285Y-34384628D02*
X171982857Y-34313199D01*
X171982857Y-34313199D02*
X171911428Y-34170342D01*
X172411428Y-35670342D02*
X172482857Y-35527485D01*
X172482857Y-35527485D02*
X172625714Y-35456056D01*
X172625714Y-35456056D02*
X173911428Y-35456056D01*
X172482857Y-36813199D02*
X172411428Y-36670342D01*
X172411428Y-36670342D02*
X172411428Y-36384628D01*
X172411428Y-36384628D02*
X172482857Y-36241770D01*
X172482857Y-36241770D02*
X172625714Y-36170342D01*
X172625714Y-36170342D02*
X173197142Y-36170342D01*
X173197142Y-36170342D02*
X173340000Y-36241770D01*
X173340000Y-36241770D02*
X173411428Y-36384628D01*
X173411428Y-36384628D02*
X173411428Y-36670342D01*
X173411428Y-36670342D02*
X173340000Y-36813199D01*
X173340000Y-36813199D02*
X173197142Y-36884628D01*
X173197142Y-36884628D02*
X173054285Y-36884628D01*
X173054285Y-36884628D02*
X172911428Y-36170342D01*
X172411428Y-37527484D02*
X173411428Y-37527484D01*
X173125714Y-37527484D02*
X173268571Y-37598913D01*
X173268571Y-37598913D02*
X173340000Y-37670342D01*
X173340000Y-37670342D02*
X173411428Y-37813199D01*
X173411428Y-37813199D02*
X173411428Y-37956056D01*
X173197142Y-39856055D02*
X173125714Y-40070341D01*
X173125714Y-40070341D02*
X173054285Y-40141770D01*
X173054285Y-40141770D02*
X172911428Y-40213198D01*
X172911428Y-40213198D02*
X172697142Y-40213198D01*
X172697142Y-40213198D02*
X172554285Y-40141770D01*
X172554285Y-40141770D02*
X172482857Y-40070341D01*
X172482857Y-40070341D02*
X172411428Y-39927484D01*
X172411428Y-39927484D02*
X172411428Y-39356055D01*
X172411428Y-39356055D02*
X173911428Y-39356055D01*
X173911428Y-39356055D02*
X173911428Y-39856055D01*
X173911428Y-39856055D02*
X173840000Y-39998913D01*
X173840000Y-39998913D02*
X173768571Y-40070341D01*
X173768571Y-40070341D02*
X173625714Y-40141770D01*
X173625714Y-40141770D02*
X173482857Y-40141770D01*
X173482857Y-40141770D02*
X173340000Y-40070341D01*
X173340000Y-40070341D02*
X173268571Y-39998913D01*
X173268571Y-39998913D02*
X173197142Y-39856055D01*
X173197142Y-39856055D02*
X173197142Y-39356055D01*
X172411428Y-41070341D02*
X172482857Y-40927484D01*
X172482857Y-40927484D02*
X172554285Y-40856055D01*
X172554285Y-40856055D02*
X172697142Y-40784627D01*
X172697142Y-40784627D02*
X173125714Y-40784627D01*
X173125714Y-40784627D02*
X173268571Y-40856055D01*
X173268571Y-40856055D02*
X173340000Y-40927484D01*
X173340000Y-40927484D02*
X173411428Y-41070341D01*
X173411428Y-41070341D02*
X173411428Y-41284627D01*
X173411428Y-41284627D02*
X173340000Y-41427484D01*
X173340000Y-41427484D02*
X173268571Y-41498913D01*
X173268571Y-41498913D02*
X173125714Y-41570341D01*
X173125714Y-41570341D02*
X172697142Y-41570341D01*
X172697142Y-41570341D02*
X172554285Y-41498913D01*
X172554285Y-41498913D02*
X172482857Y-41427484D01*
X172482857Y-41427484D02*
X172411428Y-41284627D01*
X172411428Y-41284627D02*
X172411428Y-41070341D01*
X173411428Y-42070341D02*
X172411428Y-42356056D01*
X172411428Y-42356056D02*
X173125714Y-42641770D01*
X173125714Y-42641770D02*
X172411428Y-42927484D01*
X172411428Y-42927484D02*
X173411428Y-43213198D01*
X172482857Y-44356056D02*
X172411428Y-44213199D01*
X172411428Y-44213199D02*
X172411428Y-43927485D01*
X172411428Y-43927485D02*
X172482857Y-43784627D01*
X172482857Y-43784627D02*
X172625714Y-43713199D01*
X172625714Y-43713199D02*
X173197142Y-43713199D01*
X173197142Y-43713199D02*
X173340000Y-43784627D01*
X173340000Y-43784627D02*
X173411428Y-43927485D01*
X173411428Y-43927485D02*
X173411428Y-44213199D01*
X173411428Y-44213199D02*
X173340000Y-44356056D01*
X173340000Y-44356056D02*
X173197142Y-44427485D01*
X173197142Y-44427485D02*
X173054285Y-44427485D01*
X173054285Y-44427485D02*
X172911428Y-43713199D01*
X172411428Y-45070341D02*
X173411428Y-45070341D01*
X173125714Y-45070341D02*
X173268571Y-45141770D01*
X173268571Y-45141770D02*
X173340000Y-45213199D01*
X173340000Y-45213199D02*
X173411428Y-45356056D01*
X173411428Y-45356056D02*
X173411428Y-45498913D01*
X172482857Y-45927484D02*
X172411428Y-46070341D01*
X172411428Y-46070341D02*
X172411428Y-46356055D01*
X172411428Y-46356055D02*
X172482857Y-46498912D01*
X172482857Y-46498912D02*
X172625714Y-46570341D01*
X172625714Y-46570341D02*
X172697142Y-46570341D01*
X172697142Y-46570341D02*
X172840000Y-46498912D01*
X172840000Y-46498912D02*
X172911428Y-46356055D01*
X172911428Y-46356055D02*
X172911428Y-46141770D01*
X172911428Y-46141770D02*
X172982857Y-45998912D01*
X172982857Y-45998912D02*
X173125714Y-45927484D01*
X173125714Y-45927484D02*
X173197142Y-45927484D01*
X173197142Y-45927484D02*
X173340000Y-45998912D01*
X173340000Y-45998912D02*
X173411428Y-46141770D01*
X173411428Y-46141770D02*
X173411428Y-46356055D01*
X173411428Y-46356055D02*
X173340000Y-46498912D01*
D10*
X88212561Y-114295971D02*
X88188752Y-114319780D01*
X88188752Y-114319780D02*
X88117323Y-114343590D01*
X88117323Y-114343590D02*
X88069704Y-114343590D01*
X88069704Y-114343590D02*
X87998276Y-114319780D01*
X87998276Y-114319780D02*
X87950657Y-114272161D01*
X87950657Y-114272161D02*
X87926847Y-114224542D01*
X87926847Y-114224542D02*
X87903038Y-114129304D01*
X87903038Y-114129304D02*
X87903038Y-114057876D01*
X87903038Y-114057876D02*
X87926847Y-113962638D01*
X87926847Y-113962638D02*
X87950657Y-113915019D01*
X87950657Y-113915019D02*
X87998276Y-113867400D01*
X87998276Y-113867400D02*
X88069704Y-113843590D01*
X88069704Y-113843590D02*
X88117323Y-113843590D01*
X88117323Y-113843590D02*
X88188752Y-113867400D01*
X88188752Y-113867400D02*
X88212561Y-113891209D01*
X88403038Y-114319780D02*
X88474466Y-114343590D01*
X88474466Y-114343590D02*
X88593514Y-114343590D01*
X88593514Y-114343590D02*
X88641133Y-114319780D01*
X88641133Y-114319780D02*
X88664942Y-114295971D01*
X88664942Y-114295971D02*
X88688752Y-114248352D01*
X88688752Y-114248352D02*
X88688752Y-114200733D01*
X88688752Y-114200733D02*
X88664942Y-114153114D01*
X88664942Y-114153114D02*
X88641133Y-114129304D01*
X88641133Y-114129304D02*
X88593514Y-114105495D01*
X88593514Y-114105495D02*
X88498276Y-114081685D01*
X88498276Y-114081685D02*
X88450657Y-114057876D01*
X88450657Y-114057876D02*
X88426847Y-114034066D01*
X88426847Y-114034066D02*
X88403038Y-113986447D01*
X88403038Y-113986447D02*
X88403038Y-113938828D01*
X88403038Y-113938828D02*
X88426847Y-113891209D01*
X88426847Y-113891209D02*
X88450657Y-113867400D01*
X88450657Y-113867400D02*
X88498276Y-113843590D01*
X88498276Y-113843590D02*
X88617323Y-113843590D01*
X88617323Y-113843590D02*
X88688752Y-113867400D01*
X88783990Y-114391209D02*
X89164942Y-114391209D01*
X89283989Y-114343590D02*
X89283989Y-114010257D01*
X89283989Y-114105495D02*
X89307799Y-114057876D01*
X89307799Y-114057876D02*
X89331608Y-114034066D01*
X89331608Y-114034066D02*
X89379227Y-114010257D01*
X89379227Y-114010257D02*
X89426846Y-114010257D01*
X89807799Y-114010257D02*
X89807799Y-114343590D01*
X89688751Y-113819780D02*
X89569704Y-114176923D01*
X89569704Y-114176923D02*
X89879227Y-114176923D01*
X90069703Y-114295971D02*
X90093513Y-114319780D01*
X90093513Y-114319780D02*
X90069703Y-114343590D01*
X90069703Y-114343590D02*
X90045894Y-114319780D01*
X90045894Y-114319780D02*
X90069703Y-114295971D01*
X90069703Y-114295971D02*
X90069703Y-114343590D01*
X90283989Y-113891209D02*
X90307798Y-113867400D01*
X90307798Y-113867400D02*
X90355417Y-113843590D01*
X90355417Y-113843590D02*
X90474465Y-113843590D01*
X90474465Y-113843590D02*
X90522084Y-113867400D01*
X90522084Y-113867400D02*
X90545893Y-113891209D01*
X90545893Y-113891209D02*
X90569703Y-113938828D01*
X90569703Y-113938828D02*
X90569703Y-113986447D01*
X90569703Y-113986447D02*
X90545893Y-114057876D01*
X90545893Y-114057876D02*
X90260179Y-114343590D01*
X90260179Y-114343590D02*
X90569703Y-114343590D01*
D11*
X123743001Y-94363380D02*
X123743001Y-94601476D01*
X123504906Y-94506238D02*
X123743001Y-94601476D01*
X123743001Y-94601476D02*
X123981096Y-94506238D01*
X123600144Y-94791952D02*
X123743001Y-94601476D01*
X123743001Y-94601476D02*
X123885858Y-94791952D01*
D10*
X86707647Y-102354790D02*
X86707647Y-101854790D01*
X86707647Y-101854790D02*
X86826695Y-101854790D01*
X86826695Y-101854790D02*
X86898123Y-101878600D01*
X86898123Y-101878600D02*
X86945742Y-101926219D01*
X86945742Y-101926219D02*
X86969552Y-101973838D01*
X86969552Y-101973838D02*
X86993361Y-102069076D01*
X86993361Y-102069076D02*
X86993361Y-102140504D01*
X86993361Y-102140504D02*
X86969552Y-102235742D01*
X86969552Y-102235742D02*
X86945742Y-102283361D01*
X86945742Y-102283361D02*
X86898123Y-102330980D01*
X86898123Y-102330980D02*
X86826695Y-102354790D01*
X86826695Y-102354790D02*
X86707647Y-102354790D01*
X87302885Y-101854790D02*
X87398123Y-101854790D01*
X87398123Y-101854790D02*
X87445742Y-101878600D01*
X87445742Y-101878600D02*
X87493361Y-101926219D01*
X87493361Y-101926219D02*
X87517171Y-102021457D01*
X87517171Y-102021457D02*
X87517171Y-102188123D01*
X87517171Y-102188123D02*
X87493361Y-102283361D01*
X87493361Y-102283361D02*
X87445742Y-102330980D01*
X87445742Y-102330980D02*
X87398123Y-102354790D01*
X87398123Y-102354790D02*
X87302885Y-102354790D01*
X87302885Y-102354790D02*
X87255266Y-102330980D01*
X87255266Y-102330980D02*
X87207647Y-102283361D01*
X87207647Y-102283361D02*
X87183838Y-102188123D01*
X87183838Y-102188123D02*
X87183838Y-102021457D01*
X87183838Y-102021457D02*
X87207647Y-101926219D01*
X87207647Y-101926219D02*
X87255266Y-101878600D01*
X87255266Y-101878600D02*
X87302885Y-101854790D01*
D11*
X167388899Y-94213879D02*
X167388899Y-94451975D01*
X167150804Y-94356737D02*
X167388899Y-94451975D01*
X167388899Y-94451975D02*
X167626994Y-94356737D01*
X167246042Y-94642451D02*
X167388899Y-94451975D01*
X167388899Y-94451975D02*
X167531756Y-94642451D01*
X101854000Y-94363380D02*
X101854000Y-94601476D01*
X101615905Y-94506238D02*
X101854000Y-94601476D01*
X101854000Y-94601476D02*
X102092095Y-94506238D01*
X101711143Y-94791952D02*
X101854000Y-94601476D01*
X101854000Y-94601476D02*
X101996857Y-94791952D01*
D10*
X86737819Y-102565990D02*
X86904485Y-103065990D01*
X86904485Y-103065990D02*
X87071152Y-102565990D01*
X87523532Y-103018371D02*
X87499723Y-103042180D01*
X87499723Y-103042180D02*
X87428294Y-103065990D01*
X87428294Y-103065990D02*
X87380675Y-103065990D01*
X87380675Y-103065990D02*
X87309247Y-103042180D01*
X87309247Y-103042180D02*
X87261628Y-102994561D01*
X87261628Y-102994561D02*
X87237818Y-102946942D01*
X87237818Y-102946942D02*
X87214009Y-102851704D01*
X87214009Y-102851704D02*
X87214009Y-102780276D01*
X87214009Y-102780276D02*
X87237818Y-102685038D01*
X87237818Y-102685038D02*
X87261628Y-102637419D01*
X87261628Y-102637419D02*
X87309247Y-102589800D01*
X87309247Y-102589800D02*
X87380675Y-102565990D01*
X87380675Y-102565990D02*
X87428294Y-102565990D01*
X87428294Y-102565990D02*
X87499723Y-102589800D01*
X87499723Y-102589800D02*
X87523532Y-102613609D01*
X88023532Y-103018371D02*
X87999723Y-103042180D01*
X87999723Y-103042180D02*
X87928294Y-103065990D01*
X87928294Y-103065990D02*
X87880675Y-103065990D01*
X87880675Y-103065990D02*
X87809247Y-103042180D01*
X87809247Y-103042180D02*
X87761628Y-102994561D01*
X87761628Y-102994561D02*
X87737818Y-102946942D01*
X87737818Y-102946942D02*
X87714009Y-102851704D01*
X87714009Y-102851704D02*
X87714009Y-102780276D01*
X87714009Y-102780276D02*
X87737818Y-102685038D01*
X87737818Y-102685038D02*
X87761628Y-102637419D01*
X87761628Y-102637419D02*
X87809247Y-102589800D01*
X87809247Y-102589800D02*
X87880675Y-102565990D01*
X87880675Y-102565990D02*
X87928294Y-102565990D01*
X87928294Y-102565990D02*
X87999723Y-102589800D01*
X87999723Y-102589800D02*
X88023532Y-102613609D01*
X88775913Y-102565990D02*
X88537818Y-102565990D01*
X88537818Y-102565990D02*
X88514009Y-102804085D01*
X88514009Y-102804085D02*
X88537818Y-102780276D01*
X88537818Y-102780276D02*
X88585437Y-102756466D01*
X88585437Y-102756466D02*
X88704485Y-102756466D01*
X88704485Y-102756466D02*
X88752104Y-102780276D01*
X88752104Y-102780276D02*
X88775913Y-102804085D01*
X88775913Y-102804085D02*
X88799723Y-102851704D01*
X88799723Y-102851704D02*
X88799723Y-102970752D01*
X88799723Y-102970752D02*
X88775913Y-103018371D01*
X88775913Y-103018371D02*
X88752104Y-103042180D01*
X88752104Y-103042180D02*
X88704485Y-103065990D01*
X88704485Y-103065990D02*
X88585437Y-103065990D01*
X88585437Y-103065990D02*
X88537818Y-103042180D01*
X88537818Y-103042180D02*
X88514009Y-103018371D01*
X88966389Y-102732657D02*
X89085437Y-103065990D01*
X89085437Y-103065990D02*
X89204484Y-102732657D01*
X78611361Y-116785171D02*
X78587552Y-116808980D01*
X78587552Y-116808980D02*
X78516123Y-116832790D01*
X78516123Y-116832790D02*
X78468504Y-116832790D01*
X78468504Y-116832790D02*
X78397076Y-116808980D01*
X78397076Y-116808980D02*
X78349457Y-116761361D01*
X78349457Y-116761361D02*
X78325647Y-116713742D01*
X78325647Y-116713742D02*
X78301838Y-116618504D01*
X78301838Y-116618504D02*
X78301838Y-116547076D01*
X78301838Y-116547076D02*
X78325647Y-116451838D01*
X78325647Y-116451838D02*
X78349457Y-116404219D01*
X78349457Y-116404219D02*
X78397076Y-116356600D01*
X78397076Y-116356600D02*
X78468504Y-116332790D01*
X78468504Y-116332790D02*
X78516123Y-116332790D01*
X78516123Y-116332790D02*
X78587552Y-116356600D01*
X78587552Y-116356600D02*
X78611361Y-116380409D01*
X78801838Y-116808980D02*
X78873266Y-116832790D01*
X78873266Y-116832790D02*
X78992314Y-116832790D01*
X78992314Y-116832790D02*
X79039933Y-116808980D01*
X79039933Y-116808980D02*
X79063742Y-116785171D01*
X79063742Y-116785171D02*
X79087552Y-116737552D01*
X79087552Y-116737552D02*
X79087552Y-116689933D01*
X79087552Y-116689933D02*
X79063742Y-116642314D01*
X79063742Y-116642314D02*
X79039933Y-116618504D01*
X79039933Y-116618504D02*
X78992314Y-116594695D01*
X78992314Y-116594695D02*
X78897076Y-116570885D01*
X78897076Y-116570885D02*
X78849457Y-116547076D01*
X78849457Y-116547076D02*
X78825647Y-116523266D01*
X78825647Y-116523266D02*
X78801838Y-116475647D01*
X78801838Y-116475647D02*
X78801838Y-116428028D01*
X78801838Y-116428028D02*
X78825647Y-116380409D01*
X78825647Y-116380409D02*
X78849457Y-116356600D01*
X78849457Y-116356600D02*
X78897076Y-116332790D01*
X78897076Y-116332790D02*
X79016123Y-116332790D01*
X79016123Y-116332790D02*
X79087552Y-116356600D01*
X79182790Y-116880409D02*
X79563742Y-116880409D01*
X79682789Y-116832790D02*
X79682789Y-116499457D01*
X79682789Y-116594695D02*
X79706599Y-116547076D01*
X79706599Y-116547076D02*
X79730408Y-116523266D01*
X79730408Y-116523266D02*
X79778027Y-116499457D01*
X79778027Y-116499457D02*
X79825646Y-116499457D01*
X80254218Y-116832790D02*
X79968504Y-116832790D01*
X80111361Y-116832790D02*
X80111361Y-116332790D01*
X80111361Y-116332790D02*
X80063742Y-116404219D01*
X80063742Y-116404219D02*
X80016123Y-116451838D01*
X80016123Y-116451838D02*
X79968504Y-116475647D01*
X80468503Y-116785171D02*
X80492313Y-116808980D01*
X80492313Y-116808980D02*
X80468503Y-116832790D01*
X80468503Y-116832790D02*
X80444694Y-116808980D01*
X80444694Y-116808980D02*
X80468503Y-116785171D01*
X80468503Y-116785171D02*
X80468503Y-116832790D01*
X80968503Y-116832790D02*
X80682789Y-116832790D01*
X80825646Y-116832790D02*
X80825646Y-116332790D01*
X80825646Y-116332790D02*
X80778027Y-116404219D01*
X80778027Y-116404219D02*
X80730408Y-116451838D01*
X80730408Y-116451838D02*
X80682789Y-116475647D01*
D11*
X167388899Y-130535879D02*
X167388899Y-130773975D01*
X167150804Y-130678737D02*
X167388899Y-130773975D01*
X167388899Y-130773975D02*
X167626994Y-130678737D01*
X167246042Y-130964451D02*
X167388899Y-130773975D01*
X167388899Y-130773975D02*
X167531756Y-130964451D01*
D10*
X171525409Y-29562419D02*
X171525409Y-29848133D01*
X171025409Y-29705276D02*
X171525409Y-29705276D01*
X171358742Y-29967180D02*
X171025409Y-30086228D01*
X171358742Y-30205275D02*
X171025409Y-30086228D01*
X171025409Y-30086228D02*
X170906361Y-30038609D01*
X170906361Y-30038609D02*
X170882552Y-30014799D01*
X170882552Y-30014799D02*
X170858742Y-29967180D01*
X171025409Y-30467180D02*
X171049219Y-30419561D01*
X171049219Y-30419561D02*
X171096838Y-30395751D01*
X171096838Y-30395751D02*
X171525409Y-30395751D01*
X171049219Y-30848132D02*
X171025409Y-30800513D01*
X171025409Y-30800513D02*
X171025409Y-30705275D01*
X171025409Y-30705275D02*
X171049219Y-30657656D01*
X171049219Y-30657656D02*
X171096838Y-30633847D01*
X171096838Y-30633847D02*
X171287314Y-30633847D01*
X171287314Y-30633847D02*
X171334933Y-30657656D01*
X171334933Y-30657656D02*
X171358742Y-30705275D01*
X171358742Y-30705275D02*
X171358742Y-30800513D01*
X171358742Y-30800513D02*
X171334933Y-30848132D01*
X171334933Y-30848132D02*
X171287314Y-30871942D01*
X171287314Y-30871942D02*
X171239695Y-30871942D01*
X171239695Y-30871942D02*
X171192076Y-30633847D01*
X171025409Y-31086227D02*
X171358742Y-31086227D01*
X171263504Y-31086227D02*
X171311123Y-31110037D01*
X171311123Y-31110037D02*
X171334933Y-31133846D01*
X171334933Y-31133846D02*
X171358742Y-31181465D01*
X171358742Y-31181465D02*
X171358742Y-31229084D01*
X171049219Y-31586227D02*
X171025409Y-31538608D01*
X171025409Y-31538608D02*
X171025409Y-31443370D01*
X171025409Y-31443370D02*
X171049219Y-31395751D01*
X171049219Y-31395751D02*
X171096838Y-31371942D01*
X171096838Y-31371942D02*
X171287314Y-31371942D01*
X171287314Y-31371942D02*
X171334933Y-31395751D01*
X171334933Y-31395751D02*
X171358742Y-31443370D01*
X171358742Y-31443370D02*
X171358742Y-31538608D01*
X171358742Y-31538608D02*
X171334933Y-31586227D01*
X171334933Y-31586227D02*
X171287314Y-31610037D01*
X171287314Y-31610037D02*
X171239695Y-31610037D01*
X171239695Y-31610037D02*
X171192076Y-31371942D01*
X171025409Y-31824322D02*
X171525409Y-31824322D01*
X171334933Y-31824322D02*
X171358742Y-31871941D01*
X171358742Y-31871941D02*
X171358742Y-31967179D01*
X171358742Y-31967179D02*
X171334933Y-32014798D01*
X171334933Y-32014798D02*
X171311123Y-32038608D01*
X171311123Y-32038608D02*
X171263504Y-32062417D01*
X171263504Y-32062417D02*
X171120647Y-32062417D01*
X171120647Y-32062417D02*
X171073028Y-32038608D01*
X171073028Y-32038608D02*
X171049219Y-32014798D01*
X171049219Y-32014798D02*
X171025409Y-31967179D01*
X171025409Y-31967179D02*
X171025409Y-31871941D01*
X171025409Y-31871941D02*
X171049219Y-31824322D01*
X171025409Y-32348132D02*
X171049219Y-32300513D01*
X171049219Y-32300513D02*
X171073028Y-32276703D01*
X171073028Y-32276703D02*
X171120647Y-32252894D01*
X171120647Y-32252894D02*
X171263504Y-32252894D01*
X171263504Y-32252894D02*
X171311123Y-32276703D01*
X171311123Y-32276703D02*
X171334933Y-32300513D01*
X171334933Y-32300513D02*
X171358742Y-32348132D01*
X171358742Y-32348132D02*
X171358742Y-32419560D01*
X171358742Y-32419560D02*
X171334933Y-32467179D01*
X171334933Y-32467179D02*
X171311123Y-32490989D01*
X171311123Y-32490989D02*
X171263504Y-32514798D01*
X171263504Y-32514798D02*
X171120647Y-32514798D01*
X171120647Y-32514798D02*
X171073028Y-32490989D01*
X171073028Y-32490989D02*
X171049219Y-32467179D01*
X171049219Y-32467179D02*
X171025409Y-32419560D01*
X171025409Y-32419560D02*
X171025409Y-32348132D01*
X171358742Y-32681465D02*
X171025409Y-32776703D01*
X171025409Y-32776703D02*
X171263504Y-32871941D01*
X171263504Y-32871941D02*
X171025409Y-32967179D01*
X171025409Y-32967179D02*
X171358742Y-33062417D01*
X171049219Y-33443370D02*
X171025409Y-33395751D01*
X171025409Y-33395751D02*
X171025409Y-33300513D01*
X171025409Y-33300513D02*
X171049219Y-33252894D01*
X171049219Y-33252894D02*
X171096838Y-33229085D01*
X171096838Y-33229085D02*
X171287314Y-33229085D01*
X171287314Y-33229085D02*
X171334933Y-33252894D01*
X171334933Y-33252894D02*
X171358742Y-33300513D01*
X171358742Y-33300513D02*
X171358742Y-33395751D01*
X171358742Y-33395751D02*
X171334933Y-33443370D01*
X171334933Y-33443370D02*
X171287314Y-33467180D01*
X171287314Y-33467180D02*
X171239695Y-33467180D01*
X171239695Y-33467180D02*
X171192076Y-33229085D01*
X171025409Y-33681465D02*
X171358742Y-33681465D01*
X171263504Y-33681465D02*
X171311123Y-33705275D01*
X171311123Y-33705275D02*
X171334933Y-33729084D01*
X171334933Y-33729084D02*
X171358742Y-33776703D01*
X171358742Y-33776703D02*
X171358742Y-33824322D01*
X171049219Y-33967180D02*
X171025409Y-34014799D01*
X171025409Y-34014799D02*
X171025409Y-34110037D01*
X171025409Y-34110037D02*
X171049219Y-34157656D01*
X171049219Y-34157656D02*
X171096838Y-34181465D01*
X171096838Y-34181465D02*
X171120647Y-34181465D01*
X171120647Y-34181465D02*
X171168266Y-34157656D01*
X171168266Y-34157656D02*
X171192076Y-34110037D01*
X171192076Y-34110037D02*
X171192076Y-34038608D01*
X171192076Y-34038608D02*
X171215885Y-33990989D01*
X171215885Y-33990989D02*
X171263504Y-33967180D01*
X171263504Y-33967180D02*
X171287314Y-33967180D01*
X171287314Y-33967180D02*
X171334933Y-33990989D01*
X171334933Y-33990989D02*
X171358742Y-34038608D01*
X171358742Y-34038608D02*
X171358742Y-34110037D01*
X171358742Y-34110037D02*
X171334933Y-34157656D01*
X171073028Y-34395751D02*
X171049219Y-34419561D01*
X171049219Y-34419561D02*
X171025409Y-34395751D01*
X171025409Y-34395751D02*
X171049219Y-34371942D01*
X171049219Y-34371942D02*
X171073028Y-34395751D01*
X171073028Y-34395751D02*
X171025409Y-34395751D01*
X171049219Y-34848132D02*
X171025409Y-34800513D01*
X171025409Y-34800513D02*
X171025409Y-34705275D01*
X171025409Y-34705275D02*
X171049219Y-34657656D01*
X171049219Y-34657656D02*
X171073028Y-34633846D01*
X171073028Y-34633846D02*
X171120647Y-34610037D01*
X171120647Y-34610037D02*
X171263504Y-34610037D01*
X171263504Y-34610037D02*
X171311123Y-34633846D01*
X171311123Y-34633846D02*
X171334933Y-34657656D01*
X171334933Y-34657656D02*
X171358742Y-34705275D01*
X171358742Y-34705275D02*
X171358742Y-34800513D01*
X171358742Y-34800513D02*
X171334933Y-34848132D01*
X171025409Y-35133846D02*
X171049219Y-35086227D01*
X171049219Y-35086227D02*
X171073028Y-35062417D01*
X171073028Y-35062417D02*
X171120647Y-35038608D01*
X171120647Y-35038608D02*
X171263504Y-35038608D01*
X171263504Y-35038608D02*
X171311123Y-35062417D01*
X171311123Y-35062417D02*
X171334933Y-35086227D01*
X171334933Y-35086227D02*
X171358742Y-35133846D01*
X171358742Y-35133846D02*
X171358742Y-35205274D01*
X171358742Y-35205274D02*
X171334933Y-35252893D01*
X171334933Y-35252893D02*
X171311123Y-35276703D01*
X171311123Y-35276703D02*
X171263504Y-35300512D01*
X171263504Y-35300512D02*
X171120647Y-35300512D01*
X171120647Y-35300512D02*
X171073028Y-35276703D01*
X171073028Y-35276703D02*
X171049219Y-35252893D01*
X171049219Y-35252893D02*
X171025409Y-35205274D01*
X171025409Y-35205274D02*
X171025409Y-35133846D01*
X171025409Y-35514798D02*
X171358742Y-35514798D01*
X171311123Y-35514798D02*
X171334933Y-35538608D01*
X171334933Y-35538608D02*
X171358742Y-35586227D01*
X171358742Y-35586227D02*
X171358742Y-35657655D01*
X171358742Y-35657655D02*
X171334933Y-35705274D01*
X171334933Y-35705274D02*
X171287314Y-35729084D01*
X171287314Y-35729084D02*
X171025409Y-35729084D01*
X171287314Y-35729084D02*
X171334933Y-35752893D01*
X171334933Y-35752893D02*
X171358742Y-35800512D01*
X171358742Y-35800512D02*
X171358742Y-35871941D01*
X171358742Y-35871941D02*
X171334933Y-35919560D01*
X171334933Y-35919560D02*
X171287314Y-35943370D01*
X171287314Y-35943370D02*
X171025409Y-35943370D01*
X78560561Y-121763571D02*
X78536752Y-121787380D01*
X78536752Y-121787380D02*
X78465323Y-121811190D01*
X78465323Y-121811190D02*
X78417704Y-121811190D01*
X78417704Y-121811190D02*
X78346276Y-121787380D01*
X78346276Y-121787380D02*
X78298657Y-121739761D01*
X78298657Y-121739761D02*
X78274847Y-121692142D01*
X78274847Y-121692142D02*
X78251038Y-121596904D01*
X78251038Y-121596904D02*
X78251038Y-121525476D01*
X78251038Y-121525476D02*
X78274847Y-121430238D01*
X78274847Y-121430238D02*
X78298657Y-121382619D01*
X78298657Y-121382619D02*
X78346276Y-121335000D01*
X78346276Y-121335000D02*
X78417704Y-121311190D01*
X78417704Y-121311190D02*
X78465323Y-121311190D01*
X78465323Y-121311190D02*
X78536752Y-121335000D01*
X78536752Y-121335000D02*
X78560561Y-121358809D01*
X78751038Y-121787380D02*
X78822466Y-121811190D01*
X78822466Y-121811190D02*
X78941514Y-121811190D01*
X78941514Y-121811190D02*
X78989133Y-121787380D01*
X78989133Y-121787380D02*
X79012942Y-121763571D01*
X79012942Y-121763571D02*
X79036752Y-121715952D01*
X79036752Y-121715952D02*
X79036752Y-121668333D01*
X79036752Y-121668333D02*
X79012942Y-121620714D01*
X79012942Y-121620714D02*
X78989133Y-121596904D01*
X78989133Y-121596904D02*
X78941514Y-121573095D01*
X78941514Y-121573095D02*
X78846276Y-121549285D01*
X78846276Y-121549285D02*
X78798657Y-121525476D01*
X78798657Y-121525476D02*
X78774847Y-121501666D01*
X78774847Y-121501666D02*
X78751038Y-121454047D01*
X78751038Y-121454047D02*
X78751038Y-121406428D01*
X78751038Y-121406428D02*
X78774847Y-121358809D01*
X78774847Y-121358809D02*
X78798657Y-121335000D01*
X78798657Y-121335000D02*
X78846276Y-121311190D01*
X78846276Y-121311190D02*
X78965323Y-121311190D01*
X78965323Y-121311190D02*
X79036752Y-121335000D01*
X79131990Y-121858809D02*
X79512942Y-121858809D01*
X79631989Y-121811190D02*
X79631989Y-121477857D01*
X79631989Y-121573095D02*
X79655799Y-121525476D01*
X79655799Y-121525476D02*
X79679608Y-121501666D01*
X79679608Y-121501666D02*
X79727227Y-121477857D01*
X79727227Y-121477857D02*
X79774846Y-121477857D01*
X79917704Y-121358809D02*
X79941513Y-121335000D01*
X79941513Y-121335000D02*
X79989132Y-121311190D01*
X79989132Y-121311190D02*
X80108180Y-121311190D01*
X80108180Y-121311190D02*
X80155799Y-121335000D01*
X80155799Y-121335000D02*
X80179608Y-121358809D01*
X80179608Y-121358809D02*
X80203418Y-121406428D01*
X80203418Y-121406428D02*
X80203418Y-121454047D01*
X80203418Y-121454047D02*
X80179608Y-121525476D01*
X80179608Y-121525476D02*
X79893894Y-121811190D01*
X79893894Y-121811190D02*
X80203418Y-121811190D01*
X80417703Y-121763571D02*
X80441513Y-121787380D01*
X80441513Y-121787380D02*
X80417703Y-121811190D01*
X80417703Y-121811190D02*
X80393894Y-121787380D01*
X80393894Y-121787380D02*
X80417703Y-121763571D01*
X80417703Y-121763571D02*
X80417703Y-121811190D01*
X80917703Y-121811190D02*
X80631989Y-121811190D01*
X80774846Y-121811190D02*
X80774846Y-121311190D01*
X80774846Y-121311190D02*
X80727227Y-121382619D01*
X80727227Y-121382619D02*
X80679608Y-121430238D01*
X80679608Y-121430238D02*
X80631989Y-121454047D01*
D13*
X74248828Y-41150371D02*
X73534542Y-41150371D01*
X73534542Y-41150371D02*
X73463114Y-41864657D01*
X73463114Y-41864657D02*
X73534542Y-41793228D01*
X73534542Y-41793228D02*
X73677400Y-41721800D01*
X73677400Y-41721800D02*
X74034542Y-41721800D01*
X74034542Y-41721800D02*
X74177400Y-41793228D01*
X74177400Y-41793228D02*
X74248828Y-41864657D01*
X74248828Y-41864657D02*
X74320257Y-42007514D01*
X74320257Y-42007514D02*
X74320257Y-42364657D01*
X74320257Y-42364657D02*
X74248828Y-42507514D01*
X74248828Y-42507514D02*
X74177400Y-42578942D01*
X74177400Y-42578942D02*
X74034542Y-42650371D01*
X74034542Y-42650371D02*
X73677400Y-42650371D01*
X73677400Y-42650371D02*
X73534542Y-42578942D01*
X73534542Y-42578942D02*
X73463114Y-42507514D01*
X74748828Y-41150371D02*
X75248828Y-42650371D01*
X75248828Y-42650371D02*
X75748828Y-41150371D01*
D11*
X145587001Y-94363380D02*
X145587001Y-94601476D01*
X145348906Y-94506238D02*
X145587001Y-94601476D01*
X145587001Y-94601476D02*
X145825096Y-94506238D01*
X145444144Y-94791952D02*
X145587001Y-94601476D01*
X145587001Y-94601476D02*
X145729858Y-94791952D01*
X123743001Y-130685380D02*
X123743001Y-130923476D01*
X123504906Y-130828238D02*
X123743001Y-130923476D01*
X123743001Y-130923476D02*
X123981096Y-130828238D01*
X123600144Y-131113952D02*
X123743001Y-130923476D01*
X123743001Y-130923476D02*
X123885858Y-131113952D01*
D12*
X73315380Y-64516095D02*
X73315380Y-65087523D01*
X73315380Y-64801809D02*
X72315380Y-64801809D01*
X72315380Y-64801809D02*
X72458238Y-64897047D01*
X72458238Y-64897047D02*
X72553476Y-64992285D01*
X72553476Y-64992285D02*
X72601095Y-65087523D01*
X72315380Y-63897047D02*
X72315380Y-63801809D01*
X72315380Y-63801809D02*
X72363000Y-63706571D01*
X72363000Y-63706571D02*
X72410619Y-63658952D01*
X72410619Y-63658952D02*
X72505857Y-63611333D01*
X72505857Y-63611333D02*
X72696333Y-63563714D01*
X72696333Y-63563714D02*
X72934428Y-63563714D01*
X72934428Y-63563714D02*
X73124904Y-63611333D01*
X73124904Y-63611333D02*
X73220142Y-63658952D01*
X73220142Y-63658952D02*
X73267761Y-63706571D01*
X73267761Y-63706571D02*
X73315380Y-63801809D01*
X73315380Y-63801809D02*
X73315380Y-63897047D01*
X73315380Y-63897047D02*
X73267761Y-63992285D01*
X73267761Y-63992285D02*
X73220142Y-64039904D01*
X73220142Y-64039904D02*
X73124904Y-64087523D01*
X73124904Y-64087523D02*
X72934428Y-64135142D01*
X72934428Y-64135142D02*
X72696333Y-64135142D01*
X72696333Y-64135142D02*
X72505857Y-64087523D01*
X72505857Y-64087523D02*
X72410619Y-64039904D01*
X72410619Y-64039904D02*
X72363000Y-63992285D01*
X72363000Y-63992285D02*
X72315380Y-63897047D01*
X73315380Y-63135142D02*
X72315380Y-63135142D01*
X72934428Y-63039904D02*
X73315380Y-62754190D01*
X72648714Y-62754190D02*
X73029666Y-63135142D01*
D10*
X86707647Y-100830790D02*
X86707647Y-100330790D01*
X86707647Y-100330790D02*
X86826695Y-100330790D01*
X86826695Y-100330790D02*
X86898123Y-100354600D01*
X86898123Y-100354600D02*
X86945742Y-100402219D01*
X86945742Y-100402219D02*
X86969552Y-100449838D01*
X86969552Y-100449838D02*
X86993361Y-100545076D01*
X86993361Y-100545076D02*
X86993361Y-100616504D01*
X86993361Y-100616504D02*
X86969552Y-100711742D01*
X86969552Y-100711742D02*
X86945742Y-100759361D01*
X86945742Y-100759361D02*
X86898123Y-100806980D01*
X86898123Y-100806980D02*
X86826695Y-100830790D01*
X86826695Y-100830790D02*
X86707647Y-100830790D01*
X87207647Y-100830790D02*
X87207647Y-100330790D01*
D13*
X72186657Y-51032371D02*
X71329514Y-51032371D01*
X71758085Y-51032371D02*
X71758085Y-49532371D01*
X71758085Y-49532371D02*
X71615228Y-49746657D01*
X71615228Y-49746657D02*
X71472371Y-49889514D01*
X71472371Y-49889514D02*
X71329514Y-49960942D01*
X72758085Y-49675228D02*
X72829513Y-49603800D01*
X72829513Y-49603800D02*
X72972371Y-49532371D01*
X72972371Y-49532371D02*
X73329513Y-49532371D01*
X73329513Y-49532371D02*
X73472371Y-49603800D01*
X73472371Y-49603800D02*
X73543799Y-49675228D01*
X73543799Y-49675228D02*
X73615228Y-49818085D01*
X73615228Y-49818085D02*
X73615228Y-49960942D01*
X73615228Y-49960942D02*
X73543799Y-50175228D01*
X73543799Y-50175228D02*
X72686656Y-51032371D01*
X72686656Y-51032371D02*
X73615228Y-51032371D01*
X74258084Y-50460942D02*
X75400942Y-50460942D01*
X76043799Y-49675228D02*
X76115227Y-49603800D01*
X76115227Y-49603800D02*
X76258085Y-49532371D01*
X76258085Y-49532371D02*
X76615227Y-49532371D01*
X76615227Y-49532371D02*
X76758085Y-49603800D01*
X76758085Y-49603800D02*
X76829513Y-49675228D01*
X76829513Y-49675228D02*
X76900942Y-49818085D01*
X76900942Y-49818085D02*
X76900942Y-49960942D01*
X76900942Y-49960942D02*
X76829513Y-50175228D01*
X76829513Y-50175228D02*
X75972370Y-51032371D01*
X75972370Y-51032371D02*
X76900942Y-51032371D01*
X78186656Y-50032371D02*
X78186656Y-51032371D01*
X77829513Y-49460942D02*
X77472370Y-50532371D01*
X77472370Y-50532371D02*
X78400941Y-50532371D01*
X78758084Y-49532371D02*
X79258084Y-51032371D01*
X79258084Y-51032371D02*
X79758084Y-49532371D01*
D12*
X76820580Y-64465295D02*
X76820580Y-65036723D01*
X76820580Y-64751009D02*
X75820580Y-64751009D01*
X75820580Y-64751009D02*
X75963438Y-64846247D01*
X75963438Y-64846247D02*
X76058676Y-64941485D01*
X76058676Y-64941485D02*
X76106295Y-65036723D01*
X75820580Y-63846247D02*
X75820580Y-63751009D01*
X75820580Y-63751009D02*
X75868200Y-63655771D01*
X75868200Y-63655771D02*
X75915819Y-63608152D01*
X75915819Y-63608152D02*
X76011057Y-63560533D01*
X76011057Y-63560533D02*
X76201533Y-63512914D01*
X76201533Y-63512914D02*
X76439628Y-63512914D01*
X76439628Y-63512914D02*
X76630104Y-63560533D01*
X76630104Y-63560533D02*
X76725342Y-63608152D01*
X76725342Y-63608152D02*
X76772961Y-63655771D01*
X76772961Y-63655771D02*
X76820580Y-63751009D01*
X76820580Y-63751009D02*
X76820580Y-63846247D01*
X76820580Y-63846247D02*
X76772961Y-63941485D01*
X76772961Y-63941485D02*
X76725342Y-63989104D01*
X76725342Y-63989104D02*
X76630104Y-64036723D01*
X76630104Y-64036723D02*
X76439628Y-64084342D01*
X76439628Y-64084342D02*
X76201533Y-64084342D01*
X76201533Y-64084342D02*
X76011057Y-64036723D01*
X76011057Y-64036723D02*
X75915819Y-63989104D01*
X75915819Y-63989104D02*
X75868200Y-63941485D01*
X75868200Y-63941485D02*
X75820580Y-63846247D01*
X76820580Y-63084342D02*
X75820580Y-63084342D01*
X76439628Y-62989104D02*
X76820580Y-62703390D01*
X76153914Y-62703390D02*
X76534866Y-63084342D01*
D10*
X183812590Y-66428952D02*
X183312590Y-66428952D01*
X183312590Y-66428952D02*
X183669733Y-66262285D01*
X183669733Y-66262285D02*
X183312590Y-66095619D01*
X183312590Y-66095619D02*
X183812590Y-66095619D01*
X183812590Y-65857523D02*
X183312590Y-65857523D01*
X183312590Y-65857523D02*
X183312590Y-65667047D01*
X183312590Y-65667047D02*
X183336400Y-65619428D01*
X183336400Y-65619428D02*
X183360209Y-65595618D01*
X183360209Y-65595618D02*
X183407828Y-65571809D01*
X183407828Y-65571809D02*
X183479257Y-65571809D01*
X183479257Y-65571809D02*
X183526876Y-65595618D01*
X183526876Y-65595618D02*
X183550685Y-65619428D01*
X183550685Y-65619428D02*
X183574495Y-65667047D01*
X183574495Y-65667047D02*
X183574495Y-65857523D01*
X183860209Y-65024190D02*
X183836400Y-65071809D01*
X183836400Y-65071809D02*
X183788780Y-65119428D01*
X183788780Y-65119428D02*
X183717352Y-65190856D01*
X183717352Y-65190856D02*
X183693542Y-65238475D01*
X183693542Y-65238475D02*
X183693542Y-65286094D01*
X183812590Y-65262285D02*
X183788780Y-65309904D01*
X183788780Y-65309904D02*
X183741161Y-65357523D01*
X183741161Y-65357523D02*
X183645923Y-65381332D01*
X183645923Y-65381332D02*
X183479257Y-65381332D01*
X183479257Y-65381332D02*
X183384019Y-65357523D01*
X183384019Y-65357523D02*
X183336400Y-65309904D01*
X183336400Y-65309904D02*
X183312590Y-65262285D01*
X183312590Y-65262285D02*
X183312590Y-65167047D01*
X183312590Y-65167047D02*
X183336400Y-65119428D01*
X183336400Y-65119428D02*
X183384019Y-65071809D01*
X183384019Y-65071809D02*
X183479257Y-65047999D01*
X183479257Y-65047999D02*
X183645923Y-65047999D01*
X183645923Y-65047999D02*
X183741161Y-65071809D01*
X183741161Y-65071809D02*
X183788780Y-65119428D01*
X183788780Y-65119428D02*
X183812590Y-65167047D01*
X183812590Y-65167047D02*
X183812590Y-65262285D01*
X183312590Y-64619427D02*
X183312590Y-64714665D01*
X183312590Y-64714665D02*
X183336400Y-64762284D01*
X183336400Y-64762284D02*
X183360209Y-64786094D01*
X183360209Y-64786094D02*
X183431638Y-64833713D01*
X183431638Y-64833713D02*
X183526876Y-64857522D01*
X183526876Y-64857522D02*
X183717352Y-64857522D01*
X183717352Y-64857522D02*
X183764971Y-64833713D01*
X183764971Y-64833713D02*
X183788780Y-64809903D01*
X183788780Y-64809903D02*
X183812590Y-64762284D01*
X183812590Y-64762284D02*
X183812590Y-64667046D01*
X183812590Y-64667046D02*
X183788780Y-64619427D01*
X183788780Y-64619427D02*
X183764971Y-64595618D01*
X183764971Y-64595618D02*
X183717352Y-64571808D01*
X183717352Y-64571808D02*
X183598304Y-64571808D01*
X183598304Y-64571808D02*
X183550685Y-64595618D01*
X183550685Y-64595618D02*
X183526876Y-64619427D01*
X183526876Y-64619427D02*
X183503066Y-64667046D01*
X183503066Y-64667046D02*
X183503066Y-64762284D01*
X183503066Y-64762284D02*
X183526876Y-64809903D01*
X183526876Y-64809903D02*
X183550685Y-64833713D01*
X183550685Y-64833713D02*
X183598304Y-64857522D01*
X183312590Y-64143237D02*
X183312590Y-64238475D01*
X183312590Y-64238475D02*
X183336400Y-64286094D01*
X183336400Y-64286094D02*
X183360209Y-64309904D01*
X183360209Y-64309904D02*
X183431638Y-64357523D01*
X183431638Y-64357523D02*
X183526876Y-64381332D01*
X183526876Y-64381332D02*
X183717352Y-64381332D01*
X183717352Y-64381332D02*
X183764971Y-64357523D01*
X183764971Y-64357523D02*
X183788780Y-64333713D01*
X183788780Y-64333713D02*
X183812590Y-64286094D01*
X183812590Y-64286094D02*
X183812590Y-64190856D01*
X183812590Y-64190856D02*
X183788780Y-64143237D01*
X183788780Y-64143237D02*
X183764971Y-64119428D01*
X183764971Y-64119428D02*
X183717352Y-64095618D01*
X183717352Y-64095618D02*
X183598304Y-64095618D01*
X183598304Y-64095618D02*
X183550685Y-64119428D01*
X183550685Y-64119428D02*
X183526876Y-64143237D01*
X183526876Y-64143237D02*
X183503066Y-64190856D01*
X183503066Y-64190856D02*
X183503066Y-64286094D01*
X183503066Y-64286094D02*
X183526876Y-64333713D01*
X183526876Y-64333713D02*
X183550685Y-64357523D01*
X183550685Y-64357523D02*
X183598304Y-64381332D01*
X183360209Y-63905142D02*
X183336400Y-63881333D01*
X183336400Y-63881333D02*
X183312590Y-63833714D01*
X183312590Y-63833714D02*
X183312590Y-63714666D01*
X183312590Y-63714666D02*
X183336400Y-63667047D01*
X183336400Y-63667047D02*
X183360209Y-63643238D01*
X183360209Y-63643238D02*
X183407828Y-63619428D01*
X183407828Y-63619428D02*
X183455447Y-63619428D01*
X183455447Y-63619428D02*
X183526876Y-63643238D01*
X183526876Y-63643238D02*
X183812590Y-63928952D01*
X183812590Y-63928952D02*
X183812590Y-63619428D01*
X183526876Y-63333714D02*
X183503066Y-63381333D01*
X183503066Y-63381333D02*
X183479257Y-63405143D01*
X183479257Y-63405143D02*
X183431638Y-63428952D01*
X183431638Y-63428952D02*
X183407828Y-63428952D01*
X183407828Y-63428952D02*
X183360209Y-63405143D01*
X183360209Y-63405143D02*
X183336400Y-63381333D01*
X183336400Y-63381333D02*
X183312590Y-63333714D01*
X183312590Y-63333714D02*
X183312590Y-63238476D01*
X183312590Y-63238476D02*
X183336400Y-63190857D01*
X183336400Y-63190857D02*
X183360209Y-63167048D01*
X183360209Y-63167048D02*
X183407828Y-63143238D01*
X183407828Y-63143238D02*
X183431638Y-63143238D01*
X183431638Y-63143238D02*
X183479257Y-63167048D01*
X183479257Y-63167048D02*
X183503066Y-63190857D01*
X183503066Y-63190857D02*
X183526876Y-63238476D01*
X183526876Y-63238476D02*
X183526876Y-63333714D01*
X183526876Y-63333714D02*
X183550685Y-63381333D01*
X183550685Y-63381333D02*
X183574495Y-63405143D01*
X183574495Y-63405143D02*
X183622114Y-63428952D01*
X183622114Y-63428952D02*
X183717352Y-63428952D01*
X183717352Y-63428952D02*
X183764971Y-63405143D01*
X183764971Y-63405143D02*
X183788780Y-63381333D01*
X183788780Y-63381333D02*
X183812590Y-63333714D01*
X183812590Y-63333714D02*
X183812590Y-63238476D01*
X183812590Y-63238476D02*
X183788780Y-63190857D01*
X183788780Y-63190857D02*
X183764971Y-63167048D01*
X183764971Y-63167048D02*
X183717352Y-63143238D01*
X183717352Y-63143238D02*
X183622114Y-63143238D01*
X183622114Y-63143238D02*
X183574495Y-63167048D01*
X183574495Y-63167048D02*
X183550685Y-63190857D01*
X183550685Y-63190857D02*
X183526876Y-63238476D01*
X183336400Y-62667048D02*
X183312590Y-62714667D01*
X183312590Y-62714667D02*
X183312590Y-62786096D01*
X183312590Y-62786096D02*
X183336400Y-62857524D01*
X183336400Y-62857524D02*
X183384019Y-62905143D01*
X183384019Y-62905143D02*
X183431638Y-62928953D01*
X183431638Y-62928953D02*
X183526876Y-62952762D01*
X183526876Y-62952762D02*
X183598304Y-62952762D01*
X183598304Y-62952762D02*
X183693542Y-62928953D01*
X183693542Y-62928953D02*
X183741161Y-62905143D01*
X183741161Y-62905143D02*
X183788780Y-62857524D01*
X183788780Y-62857524D02*
X183812590Y-62786096D01*
X183812590Y-62786096D02*
X183812590Y-62738477D01*
X183812590Y-62738477D02*
X183788780Y-62667048D01*
X183788780Y-62667048D02*
X183764971Y-62643239D01*
X183764971Y-62643239D02*
X183598304Y-62643239D01*
X183598304Y-62643239D02*
X183598304Y-62738477D01*
X183550685Y-62262286D02*
X183550685Y-62428953D01*
X183812590Y-62428953D02*
X183312590Y-62428953D01*
X183312590Y-62428953D02*
X183312590Y-62190858D01*
X78560561Y-119223571D02*
X78536752Y-119247380D01*
X78536752Y-119247380D02*
X78465323Y-119271190D01*
X78465323Y-119271190D02*
X78417704Y-119271190D01*
X78417704Y-119271190D02*
X78346276Y-119247380D01*
X78346276Y-119247380D02*
X78298657Y-119199761D01*
X78298657Y-119199761D02*
X78274847Y-119152142D01*
X78274847Y-119152142D02*
X78251038Y-119056904D01*
X78251038Y-119056904D02*
X78251038Y-118985476D01*
X78251038Y-118985476D02*
X78274847Y-118890238D01*
X78274847Y-118890238D02*
X78298657Y-118842619D01*
X78298657Y-118842619D02*
X78346276Y-118795000D01*
X78346276Y-118795000D02*
X78417704Y-118771190D01*
X78417704Y-118771190D02*
X78465323Y-118771190D01*
X78465323Y-118771190D02*
X78536752Y-118795000D01*
X78536752Y-118795000D02*
X78560561Y-118818809D01*
X78751038Y-119247380D02*
X78822466Y-119271190D01*
X78822466Y-119271190D02*
X78941514Y-119271190D01*
X78941514Y-119271190D02*
X78989133Y-119247380D01*
X78989133Y-119247380D02*
X79012942Y-119223571D01*
X79012942Y-119223571D02*
X79036752Y-119175952D01*
X79036752Y-119175952D02*
X79036752Y-119128333D01*
X79036752Y-119128333D02*
X79012942Y-119080714D01*
X79012942Y-119080714D02*
X78989133Y-119056904D01*
X78989133Y-119056904D02*
X78941514Y-119033095D01*
X78941514Y-119033095D02*
X78846276Y-119009285D01*
X78846276Y-119009285D02*
X78798657Y-118985476D01*
X78798657Y-118985476D02*
X78774847Y-118961666D01*
X78774847Y-118961666D02*
X78751038Y-118914047D01*
X78751038Y-118914047D02*
X78751038Y-118866428D01*
X78751038Y-118866428D02*
X78774847Y-118818809D01*
X78774847Y-118818809D02*
X78798657Y-118795000D01*
X78798657Y-118795000D02*
X78846276Y-118771190D01*
X78846276Y-118771190D02*
X78965323Y-118771190D01*
X78965323Y-118771190D02*
X79036752Y-118795000D01*
X79131990Y-119318809D02*
X79512942Y-119318809D01*
X79631989Y-119271190D02*
X79631989Y-118937857D01*
X79631989Y-119033095D02*
X79655799Y-118985476D01*
X79655799Y-118985476D02*
X79679608Y-118961666D01*
X79679608Y-118961666D02*
X79727227Y-118937857D01*
X79727227Y-118937857D02*
X79774846Y-118937857D01*
X80203418Y-119271190D02*
X79917704Y-119271190D01*
X80060561Y-119271190D02*
X80060561Y-118771190D01*
X80060561Y-118771190D02*
X80012942Y-118842619D01*
X80012942Y-118842619D02*
X79965323Y-118890238D01*
X79965323Y-118890238D02*
X79917704Y-118914047D01*
X80417703Y-119223571D02*
X80441513Y-119247380D01*
X80441513Y-119247380D02*
X80417703Y-119271190D01*
X80417703Y-119271190D02*
X80393894Y-119247380D01*
X80393894Y-119247380D02*
X80417703Y-119223571D01*
X80417703Y-119223571D02*
X80417703Y-119271190D01*
X80631989Y-118818809D02*
X80655798Y-118795000D01*
X80655798Y-118795000D02*
X80703417Y-118771190D01*
X80703417Y-118771190D02*
X80822465Y-118771190D01*
X80822465Y-118771190D02*
X80870084Y-118795000D01*
X80870084Y-118795000D02*
X80893893Y-118818809D01*
X80893893Y-118818809D02*
X80917703Y-118866428D01*
X80917703Y-118866428D02*
X80917703Y-118914047D01*
X80917703Y-118914047D02*
X80893893Y-118985476D01*
X80893893Y-118985476D02*
X80608179Y-119271190D01*
X80608179Y-119271190D02*
X80917703Y-119271190D01*
D11*
X167388899Y-130535879D02*
X167388899Y-130773975D01*
X167150804Y-130678737D02*
X167388899Y-130773975D01*
X167388899Y-130773975D02*
X167626994Y-130678737D01*
X167246042Y-130964451D02*
X167388899Y-130773975D01*
X167388899Y-130773975D02*
X167531756Y-130964451D01*
D10*
X78662161Y-114245171D02*
X78638352Y-114268980D01*
X78638352Y-114268980D02*
X78566923Y-114292790D01*
X78566923Y-114292790D02*
X78519304Y-114292790D01*
X78519304Y-114292790D02*
X78447876Y-114268980D01*
X78447876Y-114268980D02*
X78400257Y-114221361D01*
X78400257Y-114221361D02*
X78376447Y-114173742D01*
X78376447Y-114173742D02*
X78352638Y-114078504D01*
X78352638Y-114078504D02*
X78352638Y-114007076D01*
X78352638Y-114007076D02*
X78376447Y-113911838D01*
X78376447Y-113911838D02*
X78400257Y-113864219D01*
X78400257Y-113864219D02*
X78447876Y-113816600D01*
X78447876Y-113816600D02*
X78519304Y-113792790D01*
X78519304Y-113792790D02*
X78566923Y-113792790D01*
X78566923Y-113792790D02*
X78638352Y-113816600D01*
X78638352Y-113816600D02*
X78662161Y-113840409D01*
X78852638Y-114268980D02*
X78924066Y-114292790D01*
X78924066Y-114292790D02*
X79043114Y-114292790D01*
X79043114Y-114292790D02*
X79090733Y-114268980D01*
X79090733Y-114268980D02*
X79114542Y-114245171D01*
X79114542Y-114245171D02*
X79138352Y-114197552D01*
X79138352Y-114197552D02*
X79138352Y-114149933D01*
X79138352Y-114149933D02*
X79114542Y-114102314D01*
X79114542Y-114102314D02*
X79090733Y-114078504D01*
X79090733Y-114078504D02*
X79043114Y-114054695D01*
X79043114Y-114054695D02*
X78947876Y-114030885D01*
X78947876Y-114030885D02*
X78900257Y-114007076D01*
X78900257Y-114007076D02*
X78876447Y-113983266D01*
X78876447Y-113983266D02*
X78852638Y-113935647D01*
X78852638Y-113935647D02*
X78852638Y-113888028D01*
X78852638Y-113888028D02*
X78876447Y-113840409D01*
X78876447Y-113840409D02*
X78900257Y-113816600D01*
X78900257Y-113816600D02*
X78947876Y-113792790D01*
X78947876Y-113792790D02*
X79066923Y-113792790D01*
X79066923Y-113792790D02*
X79138352Y-113816600D01*
X79233590Y-114340409D02*
X79614542Y-114340409D01*
X79947875Y-114268980D02*
X79900256Y-114292790D01*
X79900256Y-114292790D02*
X79805018Y-114292790D01*
X79805018Y-114292790D02*
X79757399Y-114268980D01*
X79757399Y-114268980D02*
X79733589Y-114245171D01*
X79733589Y-114245171D02*
X79709780Y-114197552D01*
X79709780Y-114197552D02*
X79709780Y-114054695D01*
X79709780Y-114054695D02*
X79733589Y-114007076D01*
X79733589Y-114007076D02*
X79757399Y-113983266D01*
X79757399Y-113983266D02*
X79805018Y-113959457D01*
X79805018Y-113959457D02*
X79900256Y-113959457D01*
X79900256Y-113959457D02*
X79947875Y-113983266D01*
X80376446Y-113959457D02*
X80376446Y-114292790D01*
X80257398Y-113768980D02*
X80138351Y-114126123D01*
X80138351Y-114126123D02*
X80447874Y-114126123D01*
X86707647Y-101330885D02*
X86874314Y-101330885D01*
X86945742Y-101592790D02*
X86707647Y-101592790D01*
X86707647Y-101592790D02*
X86707647Y-101092790D01*
X86707647Y-101092790D02*
X86945742Y-101092790D01*
X87160028Y-101592790D02*
X87160028Y-101092790D01*
X87160028Y-101092790D02*
X87445742Y-101592790D01*
X87445742Y-101592790D02*
X87445742Y-101092790D01*
D11*
X101221380Y-131317999D02*
X101459476Y-131317999D01*
X101364238Y-131556094D02*
X101459476Y-131317999D01*
X101459476Y-131317999D02*
X101364238Y-131079904D01*
X101649952Y-131460856D02*
X101459476Y-131317999D01*
X101459476Y-131317999D02*
X101649952Y-131175142D01*
X70575619Y-31594395D02*
X71575619Y-31594395D01*
X71575619Y-31594395D02*
X71575619Y-31832490D01*
X71575619Y-31832490D02*
X71528000Y-31975347D01*
X71528000Y-31975347D02*
X71432761Y-32070585D01*
X71432761Y-32070585D02*
X71337523Y-32118204D01*
X71337523Y-32118204D02*
X71147047Y-32165823D01*
X71147047Y-32165823D02*
X71004190Y-32165823D01*
X71004190Y-32165823D02*
X70813714Y-32118204D01*
X70813714Y-32118204D02*
X70718476Y-32070585D01*
X70718476Y-32070585D02*
X70623238Y-31975347D01*
X70623238Y-31975347D02*
X70575619Y-31832490D01*
X70575619Y-31832490D02*
X70575619Y-31594395D01*
X70623238Y-32546776D02*
X70575619Y-32689633D01*
X70575619Y-32689633D02*
X70575619Y-32927728D01*
X70575619Y-32927728D02*
X70623238Y-33022966D01*
X70623238Y-33022966D02*
X70670857Y-33070585D01*
X70670857Y-33070585D02*
X70766095Y-33118204D01*
X70766095Y-33118204D02*
X70861333Y-33118204D01*
X70861333Y-33118204D02*
X70956571Y-33070585D01*
X70956571Y-33070585D02*
X71004190Y-33022966D01*
X71004190Y-33022966D02*
X71051809Y-32927728D01*
X71051809Y-32927728D02*
X71099428Y-32737252D01*
X71099428Y-32737252D02*
X71147047Y-32642014D01*
X71147047Y-32642014D02*
X71194666Y-32594395D01*
X71194666Y-32594395D02*
X71289904Y-32546776D01*
X71289904Y-32546776D02*
X71385142Y-32546776D01*
X71385142Y-32546776D02*
X71480380Y-32594395D01*
X71480380Y-32594395D02*
X71528000Y-32642014D01*
X71528000Y-32642014D02*
X71575619Y-32737252D01*
X71575619Y-32737252D02*
X71575619Y-32975347D01*
X71575619Y-32975347D02*
X71528000Y-33118204D01*
X71575619Y-33451538D02*
X71575619Y-34070585D01*
X71575619Y-34070585D02*
X71194666Y-33737252D01*
X71194666Y-33737252D02*
X71194666Y-33880109D01*
X71194666Y-33880109D02*
X71147047Y-33975347D01*
X71147047Y-33975347D02*
X71099428Y-34022966D01*
X71099428Y-34022966D02*
X71004190Y-34070585D01*
X71004190Y-34070585D02*
X70766095Y-34070585D01*
X70766095Y-34070585D02*
X70670857Y-34022966D01*
X70670857Y-34022966D02*
X70623238Y-33975347D01*
X70623238Y-33975347D02*
X70575619Y-33880109D01*
X70575619Y-33880109D02*
X70575619Y-33594395D01*
X70575619Y-33594395D02*
X70623238Y-33499157D01*
X70623238Y-33499157D02*
X70670857Y-33451538D01*
X71480380Y-34451538D02*
X71528000Y-34499157D01*
X71528000Y-34499157D02*
X71575619Y-34594395D01*
X71575619Y-34594395D02*
X71575619Y-34832490D01*
X71575619Y-34832490D02*
X71528000Y-34927728D01*
X71528000Y-34927728D02*
X71480380Y-34975347D01*
X71480380Y-34975347D02*
X71385142Y-35022966D01*
X71385142Y-35022966D02*
X71289904Y-35022966D01*
X71289904Y-35022966D02*
X71147047Y-34975347D01*
X71147047Y-34975347D02*
X70575619Y-34403919D01*
X70575619Y-34403919D02*
X70575619Y-35022966D01*
X71575619Y-35356300D02*
X71575619Y-35975347D01*
X71575619Y-35975347D02*
X71194666Y-35642014D01*
X71194666Y-35642014D02*
X71194666Y-35784871D01*
X71194666Y-35784871D02*
X71147047Y-35880109D01*
X71147047Y-35880109D02*
X71099428Y-35927728D01*
X71099428Y-35927728D02*
X71004190Y-35975347D01*
X71004190Y-35975347D02*
X70766095Y-35975347D01*
X70766095Y-35975347D02*
X70670857Y-35927728D01*
X70670857Y-35927728D02*
X70623238Y-35880109D01*
X70623238Y-35880109D02*
X70575619Y-35784871D01*
X70575619Y-35784871D02*
X70575619Y-35499157D01*
X70575619Y-35499157D02*
X70623238Y-35403919D01*
X70623238Y-35403919D02*
X70670857Y-35356300D01*
X70575619Y-36927728D02*
X70575619Y-36356300D01*
X70575619Y-36642014D02*
X71575619Y-36642014D01*
X71575619Y-36642014D02*
X71432761Y-36546776D01*
X71432761Y-36546776D02*
X71337523Y-36451538D01*
X71337523Y-36451538D02*
X71289904Y-36356300D01*
X70575619Y-38527728D02*
X71051809Y-38194395D01*
X70575619Y-37956300D02*
X71575619Y-37956300D01*
X71575619Y-37956300D02*
X71575619Y-38337252D01*
X71575619Y-38337252D02*
X71528000Y-38432490D01*
X71528000Y-38432490D02*
X71480380Y-38480109D01*
X71480380Y-38480109D02*
X71385142Y-38527728D01*
X71385142Y-38527728D02*
X71242285Y-38527728D01*
X71242285Y-38527728D02*
X71147047Y-38480109D01*
X71147047Y-38480109D02*
X71099428Y-38432490D01*
X71099428Y-38432490D02*
X71051809Y-38337252D01*
X71051809Y-38337252D02*
X71051809Y-37956300D01*
X71575619Y-38813443D02*
X71575619Y-39384871D01*
X70575619Y-39099157D02*
X71575619Y-39099157D01*
X70670857Y-40289633D02*
X70623238Y-40242014D01*
X70623238Y-40242014D02*
X70575619Y-40099157D01*
X70575619Y-40099157D02*
X70575619Y-40003919D01*
X70575619Y-40003919D02*
X70623238Y-39861062D01*
X70623238Y-39861062D02*
X70718476Y-39765824D01*
X70718476Y-39765824D02*
X70813714Y-39718205D01*
X70813714Y-39718205D02*
X71004190Y-39670586D01*
X71004190Y-39670586D02*
X71147047Y-39670586D01*
X71147047Y-39670586D02*
X71337523Y-39718205D01*
X71337523Y-39718205D02*
X71432761Y-39765824D01*
X71432761Y-39765824D02*
X71528000Y-39861062D01*
X71528000Y-39861062D02*
X71575619Y-40003919D01*
X71575619Y-40003919D02*
X71575619Y-40099157D01*
X71575619Y-40099157D02*
X71528000Y-40242014D01*
X71528000Y-40242014D02*
X71480380Y-40289633D01*
D14*
X87199600Y-130479800D02*
X86429600Y-130479800D01*
X86429600Y-131849800D02*
X86429600Y-129109800D01*
X86429600Y-129109800D02*
X79889600Y-129109800D01*
X79889600Y-131849800D02*
X86429600Y-131849800D01*
X79889600Y-129109800D02*
X79889600Y-131849800D01*
X79119600Y-130479800D02*
X79889600Y-130479800D01*
X80401600Y-135754400D02*
X80401600Y-135598400D01*
X80401600Y-133438400D02*
X80401600Y-133282400D01*
X77169266Y-135597008D02*
G75*
G03*
X80401599Y-135753915I1672334J1078608D01*
G01*
X77800471Y-135598236D02*
G75*
G03*
X79882560Y-135598399I1041129J1079836D01*
G01*
X79882560Y-133438401D02*
G75*
G03*
X77800471Y-133438564I-1040960J-1079999D01*
G01*
X80401599Y-133282885D02*
G75*
G03*
X77169266Y-133439792I-1559999J-1235515D01*
G01*
X85227600Y-135754400D02*
X85227600Y-135598400D01*
X85227600Y-133438400D02*
X85227600Y-133282400D01*
X81995266Y-135597008D02*
G75*
G03*
X85227599Y-135753915I1672334J1078608D01*
G01*
X82626471Y-135598236D02*
G75*
G03*
X84708560Y-135598399I1041129J1079836D01*
G01*
X84708560Y-133438401D02*
G75*
G03*
X82626471Y-133438564I-1040960J-1079999D01*
G01*
X85227599Y-133282885D02*
G75*
G03*
X81995266Y-133439792I-1559999J-1235515D01*
G01*
X90028200Y-135754400D02*
X90028200Y-135598400D01*
X90028200Y-133438400D02*
X90028200Y-133282400D01*
X86795866Y-135597008D02*
G75*
G03*
X90028199Y-135753915I1672334J1078608D01*
G01*
X87427071Y-135598236D02*
G75*
G03*
X89509160Y-135598399I1041129J1079836D01*
G01*
X89509160Y-133438401D02*
G75*
G03*
X87427071Y-133438564I-1040960J-1079999D01*
G01*
X90028199Y-133282885D02*
G75*
G03*
X86795866Y-133439792I-1559999J-1235515D01*
G01*
X94874600Y-135754400D02*
X94874600Y-135598400D01*
X94874600Y-133438400D02*
X94874600Y-133282400D01*
X91642266Y-135597008D02*
G75*
G03*
X94874599Y-135753915I1672334J1078608D01*
G01*
X92273471Y-135598236D02*
G75*
G03*
X94355560Y-135598399I1041129J1079836D01*
G01*
X94355560Y-133438401D02*
G75*
G03*
X92273471Y-133438564I-1040960J-1079999D01*
G01*
X94874599Y-133282885D02*
G75*
G03*
X91642266Y-133439792I-1559999J-1235515D01*
G01*
X94550600Y-131824400D02*
X94550600Y-131119400D01*
X94550600Y-131824400D02*
X90310600Y-131824400D01*
X94550600Y-129789400D02*
X94550600Y-129084400D01*
X94550600Y-129084400D02*
X90310600Y-129084400D01*
X90310600Y-131824400D02*
X90310600Y-131119400D01*
X90310600Y-129789400D02*
X90310600Y-129084400D01*
X77522400Y-97674800D02*
X78227400Y-97674800D01*
X77522400Y-97674800D02*
X77522400Y-93434800D01*
X79557400Y-97674800D02*
X80262400Y-97674800D01*
X80262400Y-97674800D02*
X80262400Y-93434800D01*
X77522400Y-93434800D02*
X78227400Y-93434800D01*
X79557400Y-93434800D02*
X80262400Y-93434800D01*
D15*
X73279000Y-87172800D02*
X73279000Y-130352800D01*
X70739000Y-132892800D02*
X50419000Y-132892800D01*
X50419000Y-84632800D02*
X70739000Y-84632800D01*
X47879000Y-130352800D02*
X47879000Y-87172800D01*
X70739000Y-132892800D02*
G75*
G03*
X73279000Y-130352800I-1J2540001D01*
G01*
X73279000Y-87172800D02*
G75*
G03*
X70739000Y-84632800I-2540001J-1D01*
G01*
X47879000Y-130352800D02*
G75*
G03*
X50419000Y-132892800I2540000J0D01*
G01*
X50419000Y-84632800D02*
G75*
G03*
X47879000Y-87172800I0J-2540000D01*
G01*
D12*
X74489000Y-126542800D02*
G75*
G03*
X74489000Y-126542800I-100000J0D01*
G01*
X46869000Y-126542800D02*
G75*
G03*
X46869000Y-126542800I-100000J0D01*
G01*
D14*
X76479400Y-67997200D02*
X76479400Y-67227200D01*
X75109400Y-67227200D02*
X77849400Y-67227200D01*
X77849400Y-67227200D02*
X77849400Y-60687200D01*
X75109400Y-60687200D02*
X75109400Y-67227200D01*
X77849400Y-60687200D02*
X75109400Y-60687200D01*
X76479400Y-59917200D02*
X76479400Y-60687200D01*
X77113025Y-86358200D02*
X77613025Y-86358200D01*
X77363025Y-86108200D02*
X77363025Y-86608200D01*
X79917800Y-85253200D02*
X79917800Y-86793200D01*
X79917800Y-88873200D02*
X79917800Y-90413200D01*
X79957800Y-85253200D02*
X79957800Y-86793200D01*
X79957800Y-88873200D02*
X79957800Y-90413200D01*
X79997800Y-85254200D02*
X79997800Y-86793200D01*
X79997800Y-88873200D02*
X79997800Y-90412200D01*
X80037800Y-85255200D02*
X80037800Y-86793200D01*
X80037800Y-88873200D02*
X80037800Y-90411200D01*
X80077800Y-85257200D02*
X80077800Y-86793200D01*
X80077800Y-88873200D02*
X80077800Y-90409200D01*
X80117800Y-85260200D02*
X80117800Y-86793200D01*
X80117800Y-88873200D02*
X80117800Y-90406200D01*
X80157800Y-85264200D02*
X80157800Y-86793200D01*
X80157800Y-88873200D02*
X80157800Y-90402200D01*
X80197800Y-85268200D02*
X80197800Y-86793200D01*
X80197800Y-88873200D02*
X80197800Y-90398200D01*
X80237800Y-85272200D02*
X80237800Y-86793200D01*
X80237800Y-88873200D02*
X80237800Y-90394200D01*
X80277800Y-85277200D02*
X80277800Y-86793200D01*
X80277800Y-88873200D02*
X80277800Y-90389200D01*
X80317800Y-85283200D02*
X80317800Y-86793200D01*
X80317800Y-88873200D02*
X80317800Y-90383200D01*
X80357800Y-85290200D02*
X80357800Y-86793200D01*
X80357800Y-88873200D02*
X80357800Y-90376200D01*
X80397800Y-85297200D02*
X80397800Y-86793200D01*
X80397800Y-88873200D02*
X80397800Y-90369200D01*
X80437800Y-85305200D02*
X80437800Y-86793200D01*
X80437800Y-88873200D02*
X80437800Y-90361200D01*
X80477800Y-85313200D02*
X80477800Y-86793200D01*
X80477800Y-88873200D02*
X80477800Y-90353200D01*
X80517800Y-85322200D02*
X80517800Y-86793200D01*
X80517800Y-88873200D02*
X80517800Y-90344200D01*
X80557800Y-85332200D02*
X80557800Y-86793200D01*
X80557800Y-88873200D02*
X80557800Y-90334200D01*
X80597800Y-85342200D02*
X80597800Y-86793200D01*
X80597800Y-88873200D02*
X80597800Y-90324200D01*
X80638800Y-85353200D02*
X80638800Y-86793200D01*
X80638800Y-88873200D02*
X80638800Y-90313200D01*
X80678800Y-85365200D02*
X80678800Y-86793200D01*
X80678800Y-88873200D02*
X80678800Y-90301200D01*
X80718800Y-85378200D02*
X80718800Y-86793200D01*
X80718800Y-88873200D02*
X80718800Y-90288200D01*
X80758800Y-85391200D02*
X80758800Y-86793200D01*
X80758800Y-88873200D02*
X80758800Y-90275200D01*
X80798800Y-85405200D02*
X80798800Y-86793200D01*
X80798800Y-88873200D02*
X80798800Y-90261200D01*
X80838800Y-85419200D02*
X80838800Y-86793200D01*
X80838800Y-88873200D02*
X80838800Y-90247200D01*
X80878800Y-85435200D02*
X80878800Y-86793200D01*
X80878800Y-88873200D02*
X80878800Y-90231200D01*
X80918800Y-85451200D02*
X80918800Y-86793200D01*
X80918800Y-88873200D02*
X80918800Y-90215200D01*
X80958800Y-85468200D02*
X80958800Y-86793200D01*
X80958800Y-88873200D02*
X80958800Y-90198200D01*
X80998800Y-85485200D02*
X80998800Y-86793200D01*
X80998800Y-88873200D02*
X80998800Y-90181200D01*
X81038800Y-85504200D02*
X81038800Y-86793200D01*
X81038800Y-88873200D02*
X81038800Y-90162200D01*
X81078800Y-85523200D02*
X81078800Y-86793200D01*
X81078800Y-88873200D02*
X81078800Y-90143200D01*
X81118800Y-85543200D02*
X81118800Y-86793200D01*
X81118800Y-88873200D02*
X81118800Y-90123200D01*
X81158800Y-85565200D02*
X81158800Y-86793200D01*
X81158800Y-88873200D02*
X81158800Y-90101200D01*
X81198800Y-85586200D02*
X81198800Y-86793200D01*
X81198800Y-88873200D02*
X81198800Y-90080200D01*
X81238800Y-85609200D02*
X81238800Y-86793200D01*
X81238800Y-88873200D02*
X81238800Y-90057200D01*
X81278800Y-85633200D02*
X81278800Y-86793200D01*
X81278800Y-88873200D02*
X81278800Y-90033200D01*
X81318800Y-85658200D02*
X81318800Y-86793200D01*
X81318800Y-88873200D02*
X81318800Y-90008200D01*
X81358800Y-85684200D02*
X81358800Y-86793200D01*
X81358800Y-88873200D02*
X81358800Y-89982200D01*
X81398800Y-85711200D02*
X81398800Y-86793200D01*
X81398800Y-88873200D02*
X81398800Y-89955200D01*
X81438800Y-85738200D02*
X81438800Y-86793200D01*
X81438800Y-88873200D02*
X81438800Y-89928200D01*
X81478800Y-85768200D02*
X81478800Y-86793200D01*
X81478800Y-88873200D02*
X81478800Y-89898200D01*
X81518800Y-85798200D02*
X81518800Y-86793200D01*
X81518800Y-88873200D02*
X81518800Y-89868200D01*
X81558800Y-85829200D02*
X81558800Y-86793200D01*
X81558800Y-88873200D02*
X81558800Y-89837200D01*
X81598800Y-85862200D02*
X81598800Y-86793200D01*
X81598800Y-88873200D02*
X81598800Y-89804200D01*
X81638800Y-85896200D02*
X81638800Y-86793200D01*
X81638800Y-88873200D02*
X81638800Y-89770200D01*
X81678800Y-85932200D02*
X81678800Y-86793200D01*
X81678800Y-88873200D02*
X81678800Y-89734200D01*
X81718800Y-85969200D02*
X81718800Y-86793200D01*
X81718800Y-88873200D02*
X81718800Y-89697200D01*
X81758800Y-86007200D02*
X81758800Y-86793200D01*
X81758800Y-88873200D02*
X81758800Y-89659200D01*
X81798800Y-86048200D02*
X81798800Y-86793200D01*
X81798800Y-88873200D02*
X81798800Y-89618200D01*
X81838800Y-86090200D02*
X81838800Y-86793200D01*
X81838800Y-88873200D02*
X81838800Y-89576200D01*
X81878800Y-86134200D02*
X81878800Y-86793200D01*
X81878800Y-88873200D02*
X81878800Y-89532200D01*
X81918800Y-86180200D02*
X81918800Y-86793200D01*
X81918800Y-88873200D02*
X81918800Y-89486200D01*
X81958800Y-86228200D02*
X81958800Y-89438200D01*
X81998800Y-86279200D02*
X81998800Y-89387200D01*
X82038800Y-86333200D02*
X82038800Y-89333200D01*
X82078800Y-86390200D02*
X82078800Y-89276200D01*
X82118800Y-86450200D02*
X82118800Y-89216200D01*
X82158800Y-86514200D02*
X82158800Y-89152200D01*
X82198800Y-86582200D02*
X82198800Y-89084200D01*
X82238800Y-86655200D02*
X82238800Y-89011200D01*
X82278800Y-86735200D02*
X82278800Y-88931200D01*
X82318800Y-86822200D02*
X82318800Y-88844200D01*
X82358800Y-86918200D02*
X82358800Y-88748200D01*
X82398800Y-87028200D02*
X82398800Y-88638200D01*
X82438800Y-87156200D02*
X82438800Y-88510200D01*
X82478800Y-87315200D02*
X82478800Y-88351200D01*
X82518800Y-87549200D02*
X82518800Y-88117200D01*
X82537800Y-87833200D02*
G75*
G03*
X82537800Y-87833200I-2620000J0D01*
G01*
X95910400Y-136461500D02*
X105257600Y-136461500D01*
X105257600Y-136461500D02*
X105257600Y-103314500D01*
X95910400Y-103314500D02*
X95910400Y-136461500D01*
X105257600Y-103314500D02*
X95910400Y-103314500D01*
X103759000Y-121793000D02*
X105029000Y-121793000D01*
X105029000Y-121793000D02*
X105029000Y-117983000D01*
X105029000Y-117983000D02*
X103759000Y-117983000D01*
X103759000Y-117983000D02*
X103759000Y-121793000D01*
X161741401Y-100030999D02*
X170631401Y-100030999D01*
X170631401Y-100030999D02*
X170631401Y-28910999D01*
X161741401Y-28910999D02*
X161741401Y-100030999D01*
X170631401Y-28910999D02*
X161741401Y-28910999D01*
X169361401Y-66375999D02*
X170631401Y-66375999D01*
X170631401Y-66375999D02*
X170631401Y-62565999D01*
X170631401Y-62565999D02*
X169361401Y-62565999D01*
X169361401Y-62565999D02*
X169361401Y-66375999D01*
X77825600Y-109895640D02*
X77825600Y-110551817D01*
X77825600Y-112358583D02*
X77825600Y-113091817D01*
X77825600Y-114898583D02*
X77825600Y-115631817D01*
X77825600Y-117438583D02*
X77825600Y-118171817D01*
X77825600Y-119978583D02*
X77825600Y-120711817D01*
X77825600Y-122518583D02*
X77825600Y-123251817D01*
X77825600Y-125058583D02*
X77825600Y-125791817D01*
X77825600Y-127598583D02*
X77825600Y-127774700D01*
X77825600Y-127774700D02*
X84683600Y-127774700D01*
X84683600Y-107835700D02*
X77825600Y-107835700D01*
X84683600Y-108011817D02*
X84683600Y-107835700D01*
X84683600Y-110551817D02*
X84683600Y-109818583D01*
X84683600Y-113091817D02*
X84683600Y-112358583D01*
X84683600Y-115631817D02*
X84683600Y-114898583D01*
X84683600Y-118171817D02*
X84683600Y-117438583D01*
X84683600Y-120711817D02*
X84683600Y-119978583D01*
X84683600Y-123251817D02*
X84683600Y-122518583D01*
X84683600Y-125791817D02*
X84683600Y-125058583D01*
X84683600Y-127774700D02*
X84683600Y-127598583D01*
X73136400Y-44179200D02*
X73136400Y-44335200D01*
X73136400Y-46495200D02*
X73136400Y-46651200D01*
X76368734Y-44336592D02*
G75*
G03*
X73136401Y-44179685I-1672334J-1078608D01*
G01*
X75737529Y-44335364D02*
G75*
G03*
X73655440Y-44335201I-1041129J-1079836D01*
G01*
X73655440Y-46495199D02*
G75*
G03*
X75737529Y-46495036I1040960J1079999D01*
G01*
X73136401Y-46650715D02*
G75*
G03*
X76368734Y-46493808I1559999J1235515D01*
G01*
X178893800Y-82404000D02*
X179598800Y-82404000D01*
X178893800Y-82404000D02*
X178893800Y-78164000D01*
X180928800Y-82404000D02*
X181633800Y-82404000D01*
X181633800Y-82404000D02*
X181633800Y-78164000D01*
X178893800Y-78164000D02*
X179598800Y-78164000D01*
X180928800Y-78164000D02*
X181633800Y-78164000D01*
D16*
X106349800Y-66890900D02*
X106643460Y-66890900D01*
X116114538Y-66890900D02*
X116408200Y-66890900D01*
X116408200Y-66890900D02*
X116408200Y-62141100D01*
X106349800Y-62141100D02*
X106349800Y-66890900D01*
X106643460Y-62141100D02*
X106349800Y-62141100D01*
X116408200Y-62141100D02*
X116114540Y-62141100D01*
G36*
X113194498Y-68681600D02*
G01*
X112813498Y-68681600D01*
X112813498Y-68427600D01*
X113194498Y-68427600D01*
X113194498Y-68681600D01*
G37*
G36*
X112544499Y-60604400D02*
G01*
X112163499Y-60604400D01*
X112163499Y-60350400D01*
X112544499Y-60350400D01*
X112544499Y-60604400D01*
G37*
X128238801Y-66890900D02*
X128532461Y-66890900D01*
X138003539Y-66890900D02*
X138297201Y-66890900D01*
X138297201Y-66890900D02*
X138297201Y-62141100D01*
X128238801Y-62141100D02*
X128238801Y-66890900D01*
X128532461Y-62141100D02*
X128238801Y-62141100D01*
X138297201Y-62141100D02*
X138003541Y-62141100D01*
G36*
X135083499Y-68681600D02*
G01*
X134702499Y-68681600D01*
X134702499Y-68427600D01*
X135083499Y-68427600D01*
X135083499Y-68681600D01*
G37*
G36*
X134433500Y-60604400D02*
G01*
X134052500Y-60604400D01*
X134052500Y-60350400D01*
X134433500Y-60350400D01*
X134433500Y-60604400D01*
G37*
D14*
X110044600Y-108202400D02*
X110044600Y-107497400D01*
X110044600Y-108202400D02*
X105804600Y-108202400D01*
X110044600Y-106167400D02*
X110044600Y-105462400D01*
X110044600Y-105462400D02*
X105804600Y-105462400D01*
X105804600Y-108202400D02*
X105804600Y-107497400D01*
X105804600Y-106167400D02*
X105804600Y-105462400D01*
D16*
X84639201Y-74891900D02*
X84932861Y-74891900D01*
X94403939Y-74891900D02*
X94697601Y-74891900D01*
X94697601Y-74891900D02*
X94697601Y-70142100D01*
X84639201Y-70142100D02*
X84639201Y-74891900D01*
X84932861Y-70142100D02*
X84639201Y-70142100D01*
X94697601Y-70142100D02*
X94403941Y-70142100D01*
G36*
X91483899Y-76682600D02*
G01*
X91102899Y-76682600D01*
X91102899Y-76428600D01*
X91483899Y-76428600D01*
X91483899Y-76682600D01*
G37*
G36*
X90833900Y-68605400D02*
G01*
X90452900Y-68605400D01*
X90452900Y-68351400D01*
X90833900Y-68351400D01*
X90833900Y-68605400D01*
G37*
D14*
X139668801Y-136416499D02*
X149016001Y-136416499D01*
X149016001Y-136416499D02*
X149016001Y-103269499D01*
X139668801Y-103269499D02*
X139668801Y-136416499D01*
X149016001Y-103269499D02*
X139668801Y-103269499D01*
X147517401Y-121747999D02*
X148787401Y-121747999D01*
X148787401Y-121747999D02*
X148787401Y-117937999D01*
X148787401Y-117937999D02*
X147517401Y-117937999D01*
X147517401Y-117937999D02*
X147517401Y-121747999D01*
D16*
X84636800Y-91935300D02*
X84930460Y-91935300D01*
X94401538Y-91935300D02*
X94695200Y-91935300D01*
X94695200Y-91935300D02*
X94695200Y-87185500D01*
X84636800Y-87185500D02*
X84636800Y-91935300D01*
X84930460Y-87185500D02*
X84636800Y-87185500D01*
X94695200Y-87185500D02*
X94401540Y-87185500D01*
G36*
X91481498Y-93726000D02*
G01*
X91100498Y-93726000D01*
X91100498Y-93472000D01*
X91481498Y-93472000D01*
X91481498Y-93726000D01*
G37*
G36*
X90831499Y-85648800D02*
G01*
X90450499Y-85648800D01*
X90450499Y-85394800D01*
X90831499Y-85394800D01*
X90831499Y-85648800D01*
G37*
X84639199Y-41971398D02*
X84932859Y-41971398D01*
X94403937Y-41971398D02*
X94697599Y-41971398D01*
X94697599Y-41971398D02*
X94697599Y-37221598D01*
X84639199Y-37221598D02*
X84639199Y-41971398D01*
X84932859Y-37221598D02*
X84639199Y-37221598D01*
X94697599Y-37221598D02*
X94403939Y-37221598D01*
G36*
X91483897Y-43762098D02*
G01*
X91102897Y-43762098D01*
X91102897Y-43508098D01*
X91483897Y-43508098D01*
X91483897Y-43762098D01*
G37*
G36*
X90833898Y-35684898D02*
G01*
X90452898Y-35684898D01*
X90452898Y-35430898D01*
X90833898Y-35430898D01*
X90833898Y-35684898D01*
G37*
X172052700Y-122072398D02*
X172346360Y-122072398D01*
X181817438Y-122072398D02*
X182111100Y-122072398D01*
X182111100Y-122072398D02*
X182111100Y-117322598D01*
X172052700Y-117322598D02*
X172052700Y-122072398D01*
X172346360Y-117322598D02*
X172052700Y-117322598D01*
X182111100Y-117322598D02*
X181817440Y-117322598D01*
G36*
X178897398Y-123863098D02*
G01*
X178516398Y-123863098D01*
X178516398Y-123609098D01*
X178897398Y-123609098D01*
X178897398Y-123863098D01*
G37*
G36*
X178247399Y-115785898D02*
G01*
X177866399Y-115785898D01*
X177866399Y-115531898D01*
X178247399Y-115531898D01*
X178247399Y-115785898D01*
G37*
D14*
X175576600Y-107745200D02*
X175576600Y-107040200D01*
X175576600Y-107745200D02*
X171336600Y-107745200D01*
X175576600Y-105710200D02*
X175576600Y-105005200D01*
X175576600Y-105005200D02*
X171336600Y-105005200D01*
X171336600Y-107745200D02*
X171336600Y-107040200D01*
X171336600Y-105710200D02*
X171336600Y-105005200D01*
X78970200Y-57613600D02*
X79675200Y-57613600D01*
X78970200Y-57613600D02*
X78970200Y-53373600D01*
X81005200Y-57613600D02*
X81710200Y-57613600D01*
X81710200Y-57613600D02*
X81710200Y-53373600D01*
X78970200Y-53373600D02*
X79675200Y-53373600D01*
X81005200Y-53373600D02*
X81710200Y-53373600D01*
X161512801Y-136416499D02*
X170860001Y-136416499D01*
X170860001Y-136416499D02*
X170860001Y-103269499D01*
X161512801Y-103269499D02*
X161512801Y-136416499D01*
X170860001Y-103269499D02*
X161512801Y-103269499D01*
X169361401Y-121747999D02*
X170631401Y-121747999D01*
X170631401Y-121747999D02*
X170631401Y-117937999D01*
X170631401Y-117937999D02*
X169361401Y-117937999D01*
X169361401Y-117937999D02*
X169361401Y-121747999D01*
X153752600Y-107745200D02*
X153752600Y-107040200D01*
X153752600Y-107745200D02*
X149512600Y-107745200D01*
X153752600Y-105710200D02*
X153752600Y-105005200D01*
X153752600Y-105005200D02*
X149512600Y-105005200D01*
X149512600Y-107745200D02*
X149512600Y-107040200D01*
X149512600Y-105710200D02*
X149512600Y-105005200D01*
D10*
X65203800Y-71502750D02*
X65203800Y-71502750D01*
X65203800Y-71602750D02*
X65203800Y-71602750D01*
D12*
X66403800Y-72092750D02*
X66403800Y-83592750D01*
X57903800Y-72092750D02*
X66403800Y-72092750D01*
X66403800Y-83592750D02*
X57903800Y-83592750D01*
X57903800Y-83592750D02*
X57903800Y-72092750D01*
D10*
X65203800Y-71602750D02*
G75*
G03*
X65203800Y-71502750I0J50000D01*
G01*
X65203800Y-71502750D02*
G75*
G03*
X65203800Y-71602750I0J-50000D01*
G01*
D16*
X150082801Y-66890900D02*
X150376461Y-66890900D01*
X159847539Y-66890900D02*
X160141201Y-66890900D01*
X160141201Y-66890900D02*
X160141201Y-62141100D01*
X150082801Y-62141100D02*
X150082801Y-66890900D01*
X150376461Y-62141100D02*
X150082801Y-62141100D01*
X160141201Y-62141100D02*
X159847541Y-62141100D01*
G36*
X156927499Y-68681600D02*
G01*
X156546499Y-68681600D01*
X156546499Y-68427600D01*
X156927499Y-68427600D01*
X156927499Y-68681600D01*
G37*
G36*
X156277500Y-60604400D02*
G01*
X155896500Y-60604400D01*
X155896500Y-60350400D01*
X156277500Y-60350400D01*
X156277500Y-60604400D01*
G37*
X128406802Y-122221899D02*
X128700462Y-122221899D01*
X138171540Y-122221899D02*
X138465202Y-122221899D01*
X138465202Y-122221899D02*
X138465202Y-117472099D01*
X128406802Y-117472099D02*
X128406802Y-122221899D01*
X128700462Y-117472099D02*
X128406802Y-117472099D01*
X138465202Y-117472099D02*
X138171542Y-117472099D01*
G36*
X135251500Y-124012599D02*
G01*
X134870500Y-124012599D01*
X134870500Y-123758599D01*
X135251500Y-123758599D01*
X135251500Y-124012599D01*
G37*
G36*
X134601501Y-115935399D02*
G01*
X134220501Y-115935399D01*
X134220501Y-115681399D01*
X134601501Y-115681399D01*
X134601501Y-115935399D01*
G37*
D14*
X157100600Y-82353200D02*
X157805600Y-82353200D01*
X157100600Y-82353200D02*
X157100600Y-78113200D01*
X159135600Y-82353200D02*
X159840600Y-82353200D01*
X159840600Y-82353200D02*
X159840600Y-78113200D01*
X157100600Y-78113200D02*
X157805600Y-78113200D01*
X159135600Y-78113200D02*
X159840600Y-78113200D01*
D16*
X84639201Y-57810400D02*
X84932861Y-57810400D01*
X94403939Y-57810400D02*
X94697601Y-57810400D01*
X94697601Y-57810400D02*
X94697601Y-53060600D01*
X84639201Y-53060600D02*
X84639201Y-57810400D01*
X84932861Y-53060600D02*
X84639201Y-53060600D01*
X94697601Y-53060600D02*
X94403941Y-53060600D01*
G36*
X91483899Y-59601100D02*
G01*
X91102899Y-59601100D01*
X91102899Y-59347100D01*
X91483899Y-59347100D01*
X91483899Y-59601100D01*
G37*
G36*
X90833900Y-51523900D02*
G01*
X90452900Y-51523900D01*
X90452900Y-51269900D01*
X90833900Y-51269900D01*
X90833900Y-51523900D01*
G37*
X150250802Y-122221899D02*
X150544462Y-122221899D01*
X160015540Y-122221899D02*
X160309202Y-122221899D01*
X160309202Y-122221899D02*
X160309202Y-117472099D01*
X150250802Y-117472099D02*
X150250802Y-122221899D01*
X150544462Y-117472099D02*
X150250802Y-117472099D01*
X160309202Y-117472099D02*
X160015542Y-117472099D01*
G36*
X157095500Y-124012599D02*
G01*
X156714500Y-124012599D01*
X156714500Y-123758599D01*
X157095500Y-123758599D01*
X157095500Y-124012599D01*
G37*
G36*
X156445501Y-115935399D02*
G01*
X156064501Y-115935399D01*
X156064501Y-115681399D01*
X156445501Y-115681399D01*
X156445501Y-115935399D01*
G37*
D14*
X54229000Y-66662300D02*
X54229000Y-69202300D01*
D10*
X48260000Y-31356300D02*
X70358000Y-31356300D01*
X70358000Y-31356300D02*
X70358000Y-69456300D01*
X70358000Y-69456300D02*
X48260000Y-69456300D01*
X48260000Y-69456300D02*
X48260000Y-31356300D01*
D14*
X51689000Y-66662300D02*
X66929000Y-66662300D01*
X66929000Y-66662300D02*
X66929000Y-69202300D01*
X66929000Y-69202300D02*
X51689000Y-69202300D01*
X51689000Y-69202300D02*
X51689000Y-66662300D01*
X117779800Y-136416499D02*
X127127000Y-136416499D01*
X127127000Y-136416499D02*
X127127000Y-103269499D01*
X117779800Y-103269499D02*
X117779800Y-136416499D01*
X127127000Y-103269499D02*
X117779800Y-103269499D01*
X125628400Y-121747999D02*
X126898400Y-121747999D01*
X126898400Y-121747999D02*
X126898400Y-117937999D01*
X126898400Y-117937999D02*
X125628400Y-117937999D01*
X125628400Y-117937999D02*
X125628400Y-121747999D01*
X96139000Y-100076000D02*
X105029000Y-100076000D01*
X105029000Y-100076000D02*
X105029000Y-28956000D01*
X96139000Y-28956000D02*
X96139000Y-100076000D01*
X105029000Y-28956000D02*
X96139000Y-28956000D01*
X103759000Y-66421000D02*
X105029000Y-66421000D01*
X105029000Y-66421000D02*
X105029000Y-62611000D01*
X105029000Y-62611000D02*
X103759000Y-62611000D01*
X103759000Y-62611000D02*
X103759000Y-66421000D01*
X135205800Y-82454800D02*
X135910800Y-82454800D01*
X135205800Y-82454800D02*
X135205800Y-78214800D01*
X137240800Y-82454800D02*
X137945800Y-82454800D01*
X137945800Y-82454800D02*
X137945800Y-78214800D01*
X135205800Y-78214800D02*
X135910800Y-78214800D01*
X137240800Y-78214800D02*
X137945800Y-78214800D01*
D15*
X47619000Y-85552800D02*
X76129000Y-85552800D01*
X47619000Y-136502800D02*
X47619000Y-85552800D01*
X47619000Y-136502800D02*
X47619000Y-85552800D01*
X53069000Y-85552800D02*
X47619000Y-85552800D01*
X58349000Y-136502800D02*
X47619000Y-136502800D01*
X65060000Y-136502800D02*
X58349000Y-136502800D01*
X70759000Y-85552800D02*
X53069000Y-85552800D01*
X76129000Y-85552800D02*
X70759000Y-85552800D01*
X76129000Y-85552800D02*
X76129000Y-136502800D01*
X76129000Y-85552800D02*
X76129000Y-136502800D01*
X76129000Y-136502800D02*
X47619000Y-136502800D01*
X76129000Y-136502800D02*
X65060000Y-136502800D01*
D12*
X76799000Y-126542800D02*
G75*
G03*
X76799000Y-126542800I-100000J0D01*
G01*
D14*
X87528400Y-109895640D02*
X87528400Y-110551817D01*
X87528400Y-112358583D02*
X87528400Y-113091817D01*
X87528400Y-114898583D02*
X87528400Y-115631817D01*
X87528400Y-117438583D02*
X87528400Y-118171817D01*
X87528400Y-119978583D02*
X87528400Y-120711817D01*
X87528400Y-122518583D02*
X87528400Y-123251817D01*
X87528400Y-125058583D02*
X87528400Y-125791817D01*
X87528400Y-127598583D02*
X87528400Y-127774700D01*
X87528400Y-127774700D02*
X94386400Y-127774700D01*
X94386400Y-107835700D02*
X87528400Y-107835700D01*
X94386400Y-108011817D02*
X94386400Y-107835700D01*
X94386400Y-110551817D02*
X94386400Y-109818583D01*
X94386400Y-113091817D02*
X94386400Y-112358583D01*
X94386400Y-115631817D02*
X94386400Y-114898583D01*
X94386400Y-118171817D02*
X94386400Y-117438583D01*
X94386400Y-120711817D02*
X94386400Y-119978583D01*
X94386400Y-123251817D02*
X94386400Y-122518583D01*
X94386400Y-125791817D02*
X94386400Y-125058583D01*
X94386400Y-127774700D02*
X94386400Y-127598583D01*
D16*
X106517801Y-122221899D02*
X106811461Y-122221899D01*
X116282539Y-122221899D02*
X116576201Y-122221899D01*
X116576201Y-122221899D02*
X116576201Y-117472099D01*
X106517801Y-117472099D02*
X106517801Y-122221899D01*
X106811461Y-117472099D02*
X106517801Y-117472099D01*
X116576201Y-117472099D02*
X116282541Y-117472099D01*
G36*
X113362499Y-124012599D02*
G01*
X112981499Y-124012599D01*
X112981499Y-123758599D01*
X113362499Y-123758599D01*
X113362499Y-124012599D01*
G37*
G36*
X112712500Y-115935399D02*
G01*
X112331500Y-115935399D01*
X112331500Y-115681399D01*
X112712500Y-115681399D01*
X112712500Y-115935399D01*
G37*
D14*
X73192200Y-52612000D02*
X73192200Y-52768000D01*
X73192200Y-54928000D02*
X73192200Y-55084000D01*
X76424534Y-52769392D02*
G75*
G03*
X73192201Y-52612485I-1672334J-1078608D01*
G01*
X75793329Y-52768164D02*
G75*
G03*
X73711240Y-52768001I-1041129J-1079836D01*
G01*
X73711240Y-54927999D02*
G75*
G03*
X75793329Y-54927836I1040960J1079999D01*
G01*
X73192201Y-55083515D02*
G75*
G03*
X76424534Y-54926608I1559999J1235515D01*
G01*
D16*
X171884699Y-66741399D02*
X172178359Y-66741399D01*
X181649437Y-66741399D02*
X181943099Y-66741399D01*
X181943099Y-66741399D02*
X181943099Y-61991599D01*
X171884699Y-61991599D02*
X171884699Y-66741399D01*
X172178359Y-61991599D02*
X171884699Y-61991599D01*
X181943099Y-61991599D02*
X181649439Y-61991599D01*
G36*
X178729397Y-68532099D02*
G01*
X178348397Y-68532099D01*
X178348397Y-68278099D01*
X178729397Y-68278099D01*
X178729397Y-68532099D01*
G37*
G36*
X178079398Y-60454899D02*
G01*
X177698398Y-60454899D01*
X177698398Y-60200899D01*
X178079398Y-60200899D01*
X178079398Y-60454899D01*
G37*
D15*
X49281600Y-72124800D02*
X49281600Y-72694800D01*
X48567600Y-72124800D02*
X49281600Y-72124800D01*
X56144600Y-72694800D02*
X56144600Y-82854800D01*
X49281600Y-72694800D02*
X56144600Y-72694800D01*
X48567600Y-72694800D02*
X48567600Y-72124800D01*
X47994600Y-72694800D02*
X48567600Y-72694800D01*
X56144600Y-82854800D02*
X47994600Y-82854800D01*
X47994600Y-82854800D02*
X47994600Y-72694800D01*
D12*
X52144600Y-71524800D02*
G75*
G03*
X52144600Y-71524800I-100000J0D01*
G01*
D14*
X118008400Y-100030999D02*
X126898400Y-100030999D01*
X126898400Y-100030999D02*
X126898400Y-28910999D01*
X118008400Y-28910999D02*
X118008400Y-100030999D01*
X126898400Y-28910999D02*
X118008400Y-28910999D01*
X125628400Y-66375999D02*
X126898400Y-66375999D01*
X126898400Y-66375999D02*
X126898400Y-62565999D01*
X126898400Y-62565999D02*
X125628400Y-62565999D01*
X125628400Y-62565999D02*
X125628400Y-66375999D01*
X79071800Y-71380400D02*
X79776800Y-71380400D01*
X79071800Y-71380400D02*
X79071800Y-67140400D01*
X81106800Y-71380400D02*
X81811800Y-71380400D01*
X81811800Y-71380400D02*
X81811800Y-67140400D01*
X79071800Y-67140400D02*
X79776800Y-67140400D01*
X81106800Y-67140400D02*
X81811800Y-67140400D01*
X78970200Y-41490000D02*
X79675200Y-41490000D01*
X78970200Y-41490000D02*
X78970200Y-37250000D01*
X81005200Y-41490000D02*
X81710200Y-41490000D01*
X81710200Y-41490000D02*
X81710200Y-37250000D01*
X78970200Y-37250000D02*
X79675200Y-37250000D01*
X81005200Y-37250000D02*
X81710200Y-37250000D01*
D16*
X74752200Y-69907150D02*
X74752200Y-71177150D01*
X75387200Y-70542150D02*
X74117200Y-70542150D01*
X81381600Y-77933550D02*
G75*
G03*
X81381600Y-77933550I-6629400J0D01*
G01*
D14*
X139897401Y-100030999D02*
X148787401Y-100030999D01*
X148787401Y-100030999D02*
X148787401Y-28910999D01*
X139897401Y-28910999D02*
X139897401Y-100030999D01*
X148787401Y-28910999D02*
X139897401Y-28910999D01*
X147517401Y-66375999D02*
X148787401Y-66375999D01*
X148787401Y-66375999D02*
X148787401Y-62565999D01*
X148787401Y-62565999D02*
X147517401Y-62565999D01*
X147517401Y-62565999D02*
X147517401Y-66375999D01*
X131888600Y-107745200D02*
X131888600Y-107040200D01*
X131888600Y-107745200D02*
X127648600Y-107745200D01*
X131888600Y-105710200D02*
X131888600Y-105005200D01*
X131888600Y-105005200D02*
X127648600Y-105005200D01*
X127648600Y-107745200D02*
X127648600Y-107040200D01*
X127648600Y-105710200D02*
X127648600Y-105005200D01*
X113311000Y-82404000D02*
X114016000Y-82404000D01*
X113311000Y-82404000D02*
X113311000Y-78164000D01*
X115346000Y-82404000D02*
X116051000Y-82404000D01*
X116051000Y-82404000D02*
X116051000Y-78164000D01*
X113311000Y-78164000D02*
X114016000Y-78164000D01*
X115346000Y-78164000D02*
X116051000Y-78164000D01*
X72872600Y-67997200D02*
X72872600Y-67227200D01*
X71502600Y-67227200D02*
X74242600Y-67227200D01*
X74242600Y-67227200D02*
X74242600Y-60687200D01*
X71502600Y-60687200D02*
X71502600Y-67227200D01*
X74242600Y-60687200D02*
X71502600Y-60687200D01*
X72872600Y-59917200D02*
X72872600Y-60687200D01*
D17*
X70739000Y-130352800D03*
X70739000Y-87172800D03*
X50419000Y-130352800D03*
X50419000Y-87172800D03*
D18*
X49619000Y-87552800D03*
X49619000Y-134502800D03*
X74129000Y-87552800D03*
X74129000Y-134502800D03*
%LPC*%
D19*
X88239600Y-130479800D03*
D20*
X78079599Y-130479799D03*
D21*
X80111599Y-134518399D03*
D22*
X77571600Y-134518400D03*
D21*
X84937599Y-134518399D03*
D22*
X82397600Y-134518400D03*
D21*
X89738199Y-134518399D03*
D22*
X87198200Y-134518400D03*
D21*
X94584599Y-134518399D03*
D22*
X92044600Y-134518400D03*
D19*
X93680600Y-130454400D03*
X91180600Y-130454400D03*
X78892400Y-96804800D03*
X78892400Y-94304800D03*
D23*
X72008999Y-126542799D03*
D24*
X72009000Y-124002800D03*
X72009000Y-121462800D03*
X72009000Y-118922800D03*
X72009000Y-116382800D03*
X72009000Y-113842800D03*
X72009000Y-111302800D03*
X72009000Y-108762800D03*
X72009000Y-106222800D03*
X72009000Y-103682800D03*
X72009000Y-101142800D03*
X72009000Y-98602800D03*
X72009000Y-96062800D03*
X72009000Y-93522800D03*
X72009000Y-90982800D03*
D23*
X49148999Y-126542799D03*
D24*
X49149000Y-124002800D03*
X49149000Y-121462800D03*
X49149000Y-118922800D03*
X49149000Y-116382800D03*
X49149000Y-113842800D03*
X49149000Y-111302800D03*
X49149000Y-108762800D03*
X49149000Y-106222800D03*
X49149000Y-103682800D03*
X49149000Y-101142800D03*
X49149000Y-98602800D03*
X49149000Y-96062800D03*
X49149000Y-93522800D03*
X49149000Y-90982800D03*
D19*
X76479400Y-69037200D03*
D20*
X76479399Y-58877199D03*
D25*
X78917799Y-87833199D03*
D19*
X80917800Y-87833200D03*
D26*
X101854000Y-131318000D03*
X99314000Y-131318000D03*
X101854000Y-128778000D03*
X99314000Y-128778000D03*
X101854000Y-126238000D03*
X99314000Y-126238000D03*
X101854000Y-123698000D03*
X99314000Y-123698000D03*
X101854000Y-121158000D03*
X99314000Y-121158000D03*
X101854000Y-118618000D03*
X99314000Y-118618000D03*
X101854000Y-116078000D03*
X99314000Y-116078000D03*
X101854000Y-113538000D03*
X99314000Y-113538000D03*
X101854000Y-110998000D03*
X99314000Y-110998000D03*
X101854000Y-108458000D03*
X99314000Y-108458000D03*
D27*
X167456401Y-94950999D03*
X164916401Y-94950999D03*
X167456401Y-92410999D03*
X164916401Y-92410999D03*
X167456401Y-89870999D03*
X164916401Y-89870999D03*
X167456401Y-87330999D03*
X164916401Y-87330999D03*
X167456401Y-84790999D03*
X164916401Y-84790999D03*
X167456401Y-82250999D03*
X164916401Y-82250999D03*
X167456401Y-79710999D03*
X164916401Y-79710999D03*
X167456401Y-77170999D03*
X164916401Y-77170999D03*
X167456401Y-74630999D03*
X164916401Y-74630999D03*
X167456401Y-72090999D03*
X164916401Y-72090999D03*
X167456401Y-69550999D03*
X164916401Y-69550999D03*
X167456401Y-67010999D03*
X164916401Y-67010999D03*
X167456401Y-64470999D03*
X164916401Y-64470999D03*
X167456401Y-61930999D03*
X164916401Y-61930999D03*
X167456401Y-59390999D03*
X164916401Y-59390999D03*
X167456401Y-56850999D03*
X164916401Y-56850999D03*
X167456401Y-54310999D03*
X164916401Y-54310999D03*
X167456401Y-51770999D03*
X164916401Y-51770999D03*
X167456401Y-49230999D03*
X164916401Y-49230999D03*
X167456401Y-46690999D03*
X164916401Y-46690999D03*
X167456401Y-44150999D03*
X164916401Y-44150999D03*
X167456401Y-41610999D03*
X164916401Y-41610999D03*
X167456401Y-39070999D03*
X164916401Y-39070999D03*
X167456401Y-36530999D03*
X164916401Y-36530999D03*
X167456401Y-33990999D03*
X164916401Y-33990999D03*
D28*
X77444599Y-108915199D03*
D29*
X77444600Y-111455200D03*
X77444600Y-113995200D03*
X77444600Y-116535200D03*
X77444600Y-119075200D03*
X77444600Y-121615200D03*
X77444600Y-124155200D03*
X77444600Y-126695200D03*
X85064600Y-126695200D03*
X85064600Y-124155200D03*
X85064600Y-121615200D03*
X85064600Y-119075200D03*
X85064600Y-116535200D03*
X85064600Y-113995200D03*
X85064600Y-111455200D03*
X85064600Y-108915200D03*
D21*
X73426399Y-45415199D03*
D22*
X75966400Y-45415200D03*
D19*
X180263800Y-81534000D03*
X180263800Y-79034000D03*
D30*
X107153999Y-67436999D03*
X107804000Y-67436999D03*
X108453999Y-67436999D03*
X109104000Y-67436999D03*
X109753998Y-67436999D03*
D31*
X111378999Y-64515999D03*
D30*
X110404000Y-67436999D03*
X111053998Y-67436999D03*
X111703997Y-67436999D03*
X112353998Y-67436999D03*
X113003997Y-67436999D03*
X113653998Y-67436999D03*
X114303997Y-67436999D03*
X114953998Y-67436999D03*
X115603997Y-67436999D03*
X115603999Y-61594999D03*
X114953998Y-61594999D03*
X114303999Y-61594999D03*
X113653998Y-61594999D03*
X113004000Y-61594999D03*
X112353998Y-61594999D03*
X111704000Y-61594999D03*
X111053998Y-61594999D03*
X110404000Y-61594999D03*
X109753998Y-61594999D03*
X109104000Y-61594999D03*
X108453999Y-61594999D03*
X107804000Y-61594999D03*
X107153999Y-61594999D03*
X129043000Y-67436999D03*
X129693001Y-67436999D03*
X130343000Y-67436999D03*
X130993001Y-67436999D03*
X131642999Y-67436999D03*
X132293001Y-67436999D03*
X132942999Y-67436999D03*
X133592998Y-67436999D03*
D31*
X133268000Y-64515999D03*
D30*
X134242999Y-67436999D03*
X134892998Y-67436999D03*
X135542999Y-67436999D03*
X136192998Y-67436999D03*
X136842999Y-67436999D03*
X137492998Y-67436999D03*
X137493000Y-61594999D03*
X136842999Y-61594999D03*
X136193000Y-61594999D03*
X135542999Y-61594999D03*
X134893001Y-61594999D03*
X134242999Y-61594999D03*
X133593001Y-61594999D03*
X132942999Y-61594999D03*
X132293001Y-61594999D03*
X131642999Y-61594999D03*
X130993001Y-61594999D03*
X130343000Y-61594999D03*
X129693001Y-61594999D03*
X129043000Y-61594999D03*
D19*
X109174600Y-106832400D03*
X106674600Y-106832400D03*
D30*
X85443400Y-75437999D03*
X86093401Y-75437999D03*
D31*
X89668400Y-72516999D03*
D30*
X86743400Y-75437999D03*
X87393401Y-75437999D03*
X88043399Y-75437999D03*
X88693401Y-75437999D03*
X89343399Y-75437999D03*
X89993398Y-75437999D03*
X90643399Y-75437999D03*
X91293398Y-75437999D03*
X91943399Y-75437999D03*
X92593398Y-75437999D03*
X93243399Y-75437999D03*
X93893398Y-75437999D03*
X93893400Y-69595999D03*
X93243399Y-69595999D03*
X92593400Y-69595999D03*
X91943399Y-69595999D03*
X91293401Y-69595999D03*
X90643399Y-69595999D03*
X89993401Y-69595999D03*
X89343399Y-69595999D03*
X88693401Y-69595999D03*
X88043399Y-69595999D03*
X87393401Y-69595999D03*
X86743400Y-69595999D03*
X86093401Y-69595999D03*
X85443400Y-69595999D03*
D26*
X145612401Y-131272999D03*
X143072401Y-131272999D03*
X145612401Y-128732999D03*
X143072401Y-128732999D03*
X145612401Y-126192999D03*
X143072401Y-126192999D03*
X145612401Y-123652999D03*
X143072401Y-123652999D03*
X145612401Y-121112999D03*
X143072401Y-121112999D03*
X145612401Y-118572999D03*
X143072401Y-118572999D03*
X145612401Y-116032999D03*
X143072401Y-116032999D03*
X145612401Y-113492999D03*
X143072401Y-113492999D03*
X145612401Y-110952999D03*
X143072401Y-110952999D03*
X145612401Y-108412999D03*
X143072401Y-108412999D03*
D30*
X85440999Y-92481399D03*
D31*
X89665999Y-89560399D03*
D30*
X86091000Y-92481399D03*
X86740999Y-92481399D03*
X87391000Y-92481399D03*
X88040998Y-92481399D03*
X88691000Y-92481399D03*
X89340998Y-92481399D03*
X89990997Y-92481399D03*
X90640998Y-92481399D03*
X91290997Y-92481399D03*
X91940998Y-92481399D03*
X92590997Y-92481399D03*
X93240998Y-92481399D03*
X93890997Y-92481399D03*
X93890999Y-86639399D03*
X93240998Y-86639399D03*
X92590999Y-86639399D03*
X91940998Y-86639399D03*
X91291000Y-86639399D03*
X90640998Y-86639399D03*
X89991000Y-86639399D03*
X89340998Y-86639399D03*
X88691000Y-86639399D03*
X88040998Y-86639399D03*
X87391000Y-86639399D03*
X86740999Y-86639399D03*
X86091000Y-86639399D03*
X85440999Y-86639399D03*
X85443398Y-42517497D03*
X86093399Y-42517497D03*
X86743398Y-42517497D03*
X87393399Y-42517497D03*
D31*
X89668398Y-39596497D03*
D30*
X88043397Y-42517497D03*
X88693399Y-42517497D03*
X89343397Y-42517497D03*
X89993396Y-42517497D03*
X90643397Y-42517497D03*
X91293396Y-42517497D03*
X91943397Y-42517497D03*
X92593396Y-42517497D03*
X93243397Y-42517497D03*
X93893396Y-42517497D03*
X93893398Y-36675497D03*
X93243397Y-36675497D03*
X92593398Y-36675497D03*
X91943397Y-36675497D03*
X91293399Y-36675497D03*
X90643397Y-36675497D03*
X89993399Y-36675497D03*
X89343397Y-36675497D03*
X88693399Y-36675497D03*
X88043397Y-36675497D03*
X87393399Y-36675497D03*
X86743398Y-36675497D03*
X86093399Y-36675497D03*
X85443398Y-36675497D03*
X172856899Y-122618497D03*
X173506900Y-122618497D03*
X174156899Y-122618497D03*
X174806900Y-122618497D03*
X175456898Y-122618497D03*
X176106900Y-122618497D03*
X176756898Y-122618497D03*
X177406897Y-122618497D03*
X178056898Y-122618497D03*
X178706897Y-122618497D03*
X179356898Y-122618497D03*
D31*
X177081899Y-119697497D03*
D30*
X180006897Y-122618497D03*
X180656898Y-122618497D03*
X181306897Y-122618497D03*
X181306899Y-116776497D03*
X180656898Y-116776497D03*
X180006899Y-116776497D03*
X179356898Y-116776497D03*
X178706900Y-116776497D03*
X178056898Y-116776497D03*
X177406900Y-116776497D03*
X176756898Y-116776497D03*
X176106900Y-116776497D03*
X175456898Y-116776497D03*
X174806900Y-116776497D03*
X174156899Y-116776497D03*
X173506900Y-116776497D03*
X172856899Y-116776497D03*
D19*
X174706600Y-106375200D03*
X172206600Y-106375200D03*
X80340200Y-56743600D03*
X80340200Y-54243600D03*
D26*
X167456401Y-131272999D03*
X164916401Y-131272999D03*
X167456401Y-128732999D03*
X164916401Y-128732999D03*
X167456401Y-126192999D03*
X164916401Y-126192999D03*
X167456401Y-123652999D03*
X164916401Y-123652999D03*
X167456401Y-121112999D03*
X164916401Y-121112999D03*
X167456401Y-118572999D03*
X164916401Y-118572999D03*
X167456401Y-116032999D03*
X164916401Y-116032999D03*
X167456401Y-113492999D03*
X164916401Y-113492999D03*
X167456401Y-110952999D03*
X164916401Y-110952999D03*
X167456401Y-108412999D03*
X164916401Y-108412999D03*
D19*
X152882600Y-106375200D03*
X150382600Y-106375200D03*
D32*
X65203799Y-75302749D03*
D33*
X65203800Y-77842750D03*
X65203800Y-80382750D03*
D30*
X150887000Y-67436999D03*
X151537001Y-67436999D03*
X152187000Y-67436999D03*
X152837001Y-67436999D03*
X153486999Y-67436999D03*
X154137001Y-67436999D03*
X154786999Y-67436999D03*
X155436998Y-67436999D03*
X156086999Y-67436999D03*
X156736998Y-67436999D03*
D31*
X155112000Y-64515999D03*
D30*
X157386999Y-67436999D03*
X158036998Y-67436999D03*
X158686999Y-67436999D03*
X159336998Y-67436999D03*
X159337000Y-61594999D03*
X158686999Y-61594999D03*
X158037000Y-61594999D03*
X157386999Y-61594999D03*
X156737001Y-61594999D03*
X156086999Y-61594999D03*
X155437001Y-61594999D03*
X154786999Y-61594999D03*
X154137001Y-61594999D03*
X153486999Y-61594999D03*
X152837001Y-61594999D03*
X152187000Y-61594999D03*
X151537001Y-61594999D03*
X150887000Y-61594999D03*
X129211001Y-122767998D03*
X129861002Y-122767998D03*
X130511001Y-122767998D03*
X131161002Y-122767998D03*
X131811000Y-122767998D03*
X132461002Y-122767998D03*
X133111000Y-122767998D03*
D31*
X133436001Y-119846998D03*
D30*
X133760999Y-122767998D03*
X134411000Y-122767998D03*
X135060999Y-122767998D03*
X135711000Y-122767998D03*
X136360999Y-122767998D03*
X137011000Y-122767998D03*
X137660999Y-122767998D03*
X137661001Y-116925998D03*
X137011000Y-116925998D03*
X136361001Y-116925998D03*
X135711000Y-116925998D03*
X135061002Y-116925998D03*
X134411000Y-116925998D03*
X133761002Y-116925998D03*
X133111000Y-116925998D03*
X132461002Y-116925998D03*
X131811000Y-116925998D03*
X131161002Y-116925998D03*
X130511001Y-116925998D03*
X129861002Y-116925998D03*
X129211001Y-116925998D03*
D19*
X158470600Y-81483200D03*
X158470600Y-78983200D03*
D30*
X85443400Y-58356499D03*
X86093401Y-58356499D03*
X86743400Y-58356499D03*
D31*
X89668400Y-55435499D03*
D30*
X87393401Y-58356499D03*
X88043399Y-58356499D03*
X88693401Y-58356499D03*
X89343399Y-58356499D03*
X89993398Y-58356499D03*
X90643399Y-58356499D03*
X91293398Y-58356499D03*
X91943399Y-58356499D03*
X92593398Y-58356499D03*
X93243399Y-58356499D03*
X93893398Y-58356499D03*
X93893400Y-52514499D03*
X93243399Y-52514499D03*
X92593400Y-52514499D03*
X91943399Y-52514499D03*
X91293401Y-52514499D03*
X90643399Y-52514499D03*
X89993401Y-52514499D03*
X89343399Y-52514499D03*
X88693401Y-52514499D03*
X88043399Y-52514499D03*
X87393401Y-52514499D03*
X86743400Y-52514499D03*
X86093401Y-52514499D03*
X85443400Y-52514499D03*
X151055001Y-122767998D03*
X151705002Y-122767998D03*
X152355001Y-122767998D03*
X153005002Y-122767998D03*
X153655000Y-122767998D03*
X154305002Y-122767998D03*
X154955000Y-122767998D03*
X155604999Y-122767998D03*
X156255000Y-122767998D03*
D31*
X155280001Y-119846998D03*
D30*
X156904999Y-122767998D03*
X157555000Y-122767998D03*
X158204999Y-122767998D03*
X158855000Y-122767998D03*
X159504999Y-122767998D03*
X159505001Y-116925998D03*
X158855000Y-116925998D03*
X158205001Y-116925998D03*
X157555000Y-116925998D03*
X156905002Y-116925998D03*
X156255000Y-116925998D03*
X155605002Y-116925998D03*
X154955000Y-116925998D03*
X154305002Y-116925998D03*
X153655000Y-116925998D03*
X153005002Y-116925998D03*
X152355001Y-116925998D03*
X151705002Y-116925998D03*
X151055001Y-116925998D03*
D27*
X65659000Y-67932300D03*
X52959000Y-67932300D03*
X60579000Y-67932300D03*
X58039000Y-67932300D03*
X63119000Y-67932300D03*
X55499000Y-67932300D03*
D26*
X123723400Y-131272999D03*
X121183400Y-131272999D03*
X123723400Y-128732999D03*
X121183400Y-128732999D03*
X123723400Y-126192999D03*
X121183400Y-126192999D03*
X123723400Y-123652999D03*
X121183400Y-123652999D03*
X123723400Y-121112999D03*
X121183400Y-121112999D03*
X123723400Y-118572999D03*
X121183400Y-118572999D03*
X123723400Y-116032999D03*
X121183400Y-116032999D03*
X123723400Y-113492999D03*
X121183400Y-113492999D03*
X123723400Y-110952999D03*
X121183400Y-110952999D03*
X123723400Y-108412999D03*
X121183400Y-108412999D03*
D27*
X101854000Y-94996000D03*
X99314000Y-94996000D03*
X101854000Y-92456000D03*
X99314000Y-92456000D03*
X101854000Y-89916000D03*
X99314000Y-89916000D03*
X101854000Y-87376000D03*
X99314000Y-87376000D03*
X101854000Y-84836000D03*
X99314000Y-84836000D03*
X101854000Y-82296000D03*
X99314000Y-82296000D03*
X101854000Y-79756000D03*
X99314000Y-79756000D03*
X101854000Y-77216000D03*
X99314000Y-77216000D03*
X101854000Y-74676000D03*
X99314000Y-74676000D03*
X101854000Y-72136000D03*
X99314000Y-72136000D03*
X101854000Y-69596000D03*
X99314000Y-69596000D03*
X101854000Y-67056000D03*
X99314000Y-67056000D03*
X101854000Y-64516000D03*
X99314000Y-64516000D03*
X101854000Y-61976000D03*
X99314000Y-61976000D03*
X101854000Y-59436000D03*
X99314000Y-59436000D03*
X101854000Y-56896000D03*
X99314000Y-56896000D03*
X101854000Y-54356000D03*
X99314000Y-54356000D03*
X101854000Y-51816000D03*
X99314000Y-51816000D03*
X101854000Y-49276000D03*
X99314000Y-49276000D03*
X101854000Y-46736000D03*
X99314000Y-46736000D03*
X101854000Y-44196000D03*
X99314000Y-44196000D03*
X101854000Y-41656000D03*
X99314000Y-41656000D03*
X101854000Y-39116000D03*
X99314000Y-39116000D03*
X101854000Y-36576000D03*
X99314000Y-36576000D03*
X101854000Y-34036000D03*
X99314000Y-34036000D03*
D19*
X136575800Y-81584800D03*
X136575800Y-79084800D03*
D34*
X74548999Y-126542799D03*
D35*
X74549000Y-124002800D03*
X74549000Y-121462800D03*
X74549000Y-118922800D03*
X74549000Y-116382800D03*
X74549000Y-113842800D03*
X74549000Y-111302800D03*
X74549000Y-108762800D03*
X74549000Y-106222800D03*
X74549000Y-103682800D03*
X74549000Y-101142800D03*
X74549000Y-98602800D03*
X74549000Y-96062800D03*
X74549000Y-93522800D03*
X74549000Y-90982800D03*
X49149000Y-90982800D03*
X49149000Y-93522800D03*
X49149000Y-96062800D03*
X49149000Y-98602800D03*
X49149000Y-101142800D03*
X49149000Y-103682800D03*
X49149000Y-106222800D03*
X49149000Y-108762800D03*
X49149000Y-111302800D03*
X49149000Y-113842800D03*
X49149000Y-116382800D03*
X49149000Y-118922800D03*
X49149000Y-121462800D03*
X49149000Y-124002800D03*
X49149000Y-126542800D03*
D28*
X87147399Y-108915199D03*
D29*
X87147400Y-111455200D03*
X87147400Y-113995200D03*
X87147400Y-116535200D03*
X87147400Y-119075200D03*
X87147400Y-121615200D03*
X87147400Y-124155200D03*
X87147400Y-126695200D03*
X94767400Y-126695200D03*
X94767400Y-124155200D03*
X94767400Y-121615200D03*
X94767400Y-119075200D03*
X94767400Y-116535200D03*
X94767400Y-113995200D03*
X94767400Y-111455200D03*
X94767400Y-108915200D03*
D30*
X107322000Y-122767998D03*
X107972001Y-122767998D03*
X108622000Y-122767998D03*
X109272001Y-122767998D03*
X109921999Y-122767998D03*
X110572001Y-122767998D03*
D31*
X111547000Y-119846998D03*
D30*
X111221999Y-122767998D03*
X111871998Y-122767998D03*
X112521999Y-122767998D03*
X113171998Y-122767998D03*
X113821999Y-122767998D03*
X114471998Y-122767998D03*
X115121999Y-122767998D03*
X115771998Y-122767998D03*
X115772000Y-116925998D03*
X115121999Y-116925998D03*
X114472000Y-116925998D03*
X113821999Y-116925998D03*
X113172001Y-116925998D03*
X112521999Y-116925998D03*
X111872001Y-116925998D03*
X111221999Y-116925998D03*
X110572001Y-116925998D03*
X109921999Y-116925998D03*
X109272001Y-116925998D03*
X108622000Y-116925998D03*
X107972001Y-116925998D03*
X107322000Y-116925998D03*
D21*
X73482199Y-53847999D03*
D22*
X76022200Y-53848000D03*
D30*
X172688898Y-67287498D03*
X173338899Y-67287498D03*
X173988898Y-67287498D03*
X174638899Y-67287498D03*
X175288897Y-67287498D03*
X175938899Y-67287498D03*
X176588897Y-67287498D03*
X177238896Y-67287498D03*
X177888897Y-67287498D03*
X178538896Y-67287498D03*
X179188897Y-67287498D03*
X179838896Y-67287498D03*
D31*
X176913898Y-64366498D03*
D30*
X180488897Y-67287498D03*
X181138896Y-67287498D03*
X181138898Y-61445498D03*
X180488897Y-61445498D03*
X179838898Y-61445498D03*
X179188897Y-61445498D03*
X178538899Y-61445498D03*
X177888897Y-61445498D03*
X177238899Y-61445498D03*
X176588897Y-61445498D03*
X175938899Y-61445498D03*
X175288897Y-61445498D03*
X174638899Y-61445498D03*
X173988898Y-61445498D03*
X173338899Y-61445498D03*
X172688898Y-61445498D03*
D36*
X52044600Y-75234800D03*
D37*
X52044600Y-80314800D03*
D27*
X123723400Y-94950999D03*
X121183400Y-94950999D03*
X123723400Y-92410999D03*
X121183400Y-92410999D03*
X123723400Y-89870999D03*
X121183400Y-89870999D03*
X123723400Y-87330999D03*
X121183400Y-87330999D03*
X123723400Y-84790999D03*
X121183400Y-84790999D03*
X123723400Y-82250999D03*
X121183400Y-82250999D03*
X123723400Y-79710999D03*
X121183400Y-79710999D03*
X123723400Y-77170999D03*
X121183400Y-77170999D03*
X123723400Y-74630999D03*
X121183400Y-74630999D03*
X123723400Y-72090999D03*
X121183400Y-72090999D03*
X123723400Y-69550999D03*
X121183400Y-69550999D03*
X123723400Y-67010999D03*
X121183400Y-67010999D03*
X123723400Y-64470999D03*
X121183400Y-64470999D03*
X123723400Y-61930999D03*
X121183400Y-61930999D03*
X123723400Y-59390999D03*
X121183400Y-59390999D03*
X123723400Y-56850999D03*
X121183400Y-56850999D03*
X123723400Y-54310999D03*
X121183400Y-54310999D03*
X123723400Y-51770999D03*
X121183400Y-51770999D03*
X123723400Y-49230999D03*
X121183400Y-49230999D03*
X123723400Y-46690999D03*
X121183400Y-46690999D03*
X123723400Y-44150999D03*
X121183400Y-44150999D03*
X123723400Y-41610999D03*
X121183400Y-41610999D03*
X123723400Y-39070999D03*
X121183400Y-39070999D03*
X123723400Y-36530999D03*
X121183400Y-36530999D03*
X123723400Y-33990999D03*
X121183400Y-33990999D03*
D19*
X80441800Y-70510400D03*
X80441800Y-68010400D03*
X80340200Y-40620000D03*
X80340200Y-38120000D03*
D38*
X74752200Y-75433550D03*
X74752200Y-80433550D03*
D27*
X145612401Y-94950999D03*
X143072401Y-94950999D03*
X145612401Y-92410999D03*
X143072401Y-92410999D03*
X145612401Y-89870999D03*
X143072401Y-89870999D03*
X145612401Y-87330999D03*
X143072401Y-87330999D03*
X145612401Y-84790999D03*
X143072401Y-84790999D03*
X145612401Y-82250999D03*
X143072401Y-82250999D03*
X145612401Y-79710999D03*
X143072401Y-79710999D03*
X145612401Y-77170999D03*
X143072401Y-77170999D03*
X145612401Y-74630999D03*
X143072401Y-74630999D03*
X145612401Y-72090999D03*
X143072401Y-72090999D03*
X145612401Y-69550999D03*
X143072401Y-69550999D03*
X145612401Y-67010999D03*
X143072401Y-67010999D03*
X145612401Y-64470999D03*
X143072401Y-64470999D03*
X145612401Y-61930999D03*
X143072401Y-61930999D03*
X145612401Y-59390999D03*
X143072401Y-59390999D03*
X145612401Y-56850999D03*
X143072401Y-56850999D03*
X145612401Y-54310999D03*
X143072401Y-54310999D03*
X145612401Y-51770999D03*
X143072401Y-51770999D03*
X145612401Y-49230999D03*
X143072401Y-49230999D03*
X145612401Y-46690999D03*
X143072401Y-46690999D03*
X145612401Y-44150999D03*
X143072401Y-44150999D03*
X145612401Y-41610999D03*
X143072401Y-41610999D03*
X145612401Y-39070999D03*
X143072401Y-39070999D03*
X145612401Y-36530999D03*
X143072401Y-36530999D03*
X145612401Y-33990999D03*
X143072401Y-33990999D03*
D19*
X131018600Y-106375200D03*
X128518600Y-106375200D03*
X114681000Y-81534000D03*
X114681000Y-79034000D03*
X72872600Y-69037200D03*
D20*
X72872599Y-58877199D03*
M02*
