G04 #@! TF.GenerationSoftware,KiCad,Pcbnew,(7.0.0)*
G04 #@! TF.CreationDate,2023-12-21T14:48:03-05:00*
G04 #@! TF.ProjectId,luminator,6c756d69-6e61-4746-9f72-2e6b69636164,rev?*
G04 #@! TF.SameCoordinates,Original*
G04 #@! TF.FileFunction,Legend,Bot*
G04 #@! TF.FilePolarity,Positive*
%FSLAX46Y46*%
G04 Gerber Fmt 4.6, Leading zero omitted, Abs format (unit mm)*
G04 Created by KiCad (PCBNEW (7.0.0)) date 2023-12-21 14:48:03*
%MOMM*%
%LPD*%
G01*
G04 APERTURE LIST*
G04 Aperture macros list*
%AMRoundRect*
0 Rectangle with rounded corners*
0 $1 Rounding radius*
0 $2 $3 $4 $5 $6 $7 $8 $9 X,Y pos of 4 corners*
0 Add a 4 corners polygon primitive as box body*
4,1,4,$2,$3,$4,$5,$6,$7,$8,$9,$2,$3,0*
0 Add four circle primitives for the rounded corners*
1,1,$1+$1,$2,$3*
1,1,$1+$1,$4,$5*
1,1,$1+$1,$6,$7*
1,1,$1+$1,$8,$9*
0 Add four rect primitives between the rounded corners*
20,1,$1+$1,$2,$3,$4,$5,0*
20,1,$1+$1,$4,$5,$6,$7,0*
20,1,$1+$1,$6,$7,$8,$9,0*
20,1,$1+$1,$8,$9,$2,$3,0*%
G04 Aperture macros list end*
%ADD10C,1.600000*%
%ADD11O,1.600000X1.600000*%
%ADD12R,1.800000X1.800000*%
%ADD13C,1.800000*%
%ADD14R,1.930000X1.930000*%
%ADD15C,1.930000*%
%ADD16R,1.600000X1.600000*%
%ADD17C,1.498600*%
%ADD18C,1.524000*%
%ADD19R,1.295400X1.295400*%
%ADD20C,1.295400*%
%ADD21R,1.665000X1.665000*%
%ADD22C,1.665000*%
%ADD23R,2.000000X2.000000*%
%ADD24C,2.000000*%
%ADD25RoundRect,0.102000X-0.975000X0.975000X-0.975000X-0.975000X0.975000X-0.975000X0.975000X0.975000X0*%
%ADD26C,2.154000*%
%ADD27C,1.371600*%
G04 APERTURE END LIST*
%LPC*%
D10*
X88239600Y-130479800D03*
D11*
X78079599Y-130479799D03*
D12*
X80111599Y-134518399D03*
D13*
X77571600Y-134518400D03*
D12*
X84937599Y-134518399D03*
D13*
X82397600Y-134518400D03*
D12*
X89738199Y-134518399D03*
D13*
X87198200Y-134518400D03*
D12*
X94584599Y-134518399D03*
D13*
X92044600Y-134518400D03*
D10*
X93680600Y-130454400D03*
X91180600Y-130454400D03*
X78892400Y-96804800D03*
X78892400Y-94304800D03*
D14*
X72008999Y-126542799D03*
D15*
X72009000Y-124002800D03*
X72009000Y-121462800D03*
X72009000Y-118922800D03*
X72009000Y-116382800D03*
X72009000Y-113842800D03*
X72009000Y-111302800D03*
X72009000Y-108762800D03*
X72009000Y-106222800D03*
X72009000Y-103682800D03*
X72009000Y-101142800D03*
X72009000Y-98602800D03*
X72009000Y-96062800D03*
X72009000Y-93522800D03*
X72009000Y-90982800D03*
D14*
X49148999Y-126542799D03*
D15*
X49149000Y-124002800D03*
X49149000Y-121462800D03*
X49149000Y-118922800D03*
X49149000Y-116382800D03*
X49149000Y-113842800D03*
X49149000Y-111302800D03*
X49149000Y-108762800D03*
X49149000Y-106222800D03*
X49149000Y-103682800D03*
X49149000Y-101142800D03*
X49149000Y-98602800D03*
X49149000Y-96062800D03*
X49149000Y-93522800D03*
X49149000Y-90982800D03*
D10*
X76479400Y-69037200D03*
D11*
X76479399Y-58877199D03*
D16*
X78917799Y-87833199D03*
D10*
X80917800Y-87833200D03*
D17*
X101854000Y-131318000D03*
X99314000Y-131318000D03*
X101854000Y-128778000D03*
X99314000Y-128778000D03*
X101854000Y-126238000D03*
X99314000Y-126238000D03*
X101854000Y-123698000D03*
X99314000Y-123698000D03*
X101854000Y-121158000D03*
X99314000Y-121158000D03*
X101854000Y-118618000D03*
X99314000Y-118618000D03*
X101854000Y-116078000D03*
X99314000Y-116078000D03*
X101854000Y-113538000D03*
X99314000Y-113538000D03*
X101854000Y-110998000D03*
X99314000Y-110998000D03*
X101854000Y-108458000D03*
X99314000Y-108458000D03*
D18*
X167456401Y-94950999D03*
X164916401Y-94950999D03*
X167456401Y-92410999D03*
X164916401Y-92410999D03*
X167456401Y-89870999D03*
X164916401Y-89870999D03*
X167456401Y-87330999D03*
X164916401Y-87330999D03*
X167456401Y-84790999D03*
X164916401Y-84790999D03*
X167456401Y-82250999D03*
X164916401Y-82250999D03*
X167456401Y-79710999D03*
X164916401Y-79710999D03*
X167456401Y-77170999D03*
X164916401Y-77170999D03*
X167456401Y-74630999D03*
X164916401Y-74630999D03*
X167456401Y-72090999D03*
X164916401Y-72090999D03*
X167456401Y-69550999D03*
X164916401Y-69550999D03*
X167456401Y-67010999D03*
X164916401Y-67010999D03*
X167456401Y-64470999D03*
X164916401Y-64470999D03*
X167456401Y-61930999D03*
X164916401Y-61930999D03*
X167456401Y-59390999D03*
X164916401Y-59390999D03*
X167456401Y-56850999D03*
X164916401Y-56850999D03*
X167456401Y-54310999D03*
X164916401Y-54310999D03*
X167456401Y-51770999D03*
X164916401Y-51770999D03*
X167456401Y-49230999D03*
X164916401Y-49230999D03*
X167456401Y-46690999D03*
X164916401Y-46690999D03*
X167456401Y-44150999D03*
X164916401Y-44150999D03*
X167456401Y-41610999D03*
X164916401Y-41610999D03*
X167456401Y-39070999D03*
X164916401Y-39070999D03*
X167456401Y-36530999D03*
X164916401Y-36530999D03*
X167456401Y-33990999D03*
X164916401Y-33990999D03*
D19*
X77444599Y-108915199D03*
D20*
X77444600Y-111455200D03*
X77444600Y-113995200D03*
X77444600Y-116535200D03*
X77444600Y-119075200D03*
X77444600Y-121615200D03*
X77444600Y-124155200D03*
X77444600Y-126695200D03*
X85064600Y-126695200D03*
X85064600Y-124155200D03*
X85064600Y-121615200D03*
X85064600Y-119075200D03*
X85064600Y-116535200D03*
X85064600Y-113995200D03*
X85064600Y-111455200D03*
X85064600Y-108915200D03*
D12*
X73426399Y-45415199D03*
D13*
X75966400Y-45415200D03*
D10*
X180263800Y-81534000D03*
X180263800Y-79034000D03*
X109174600Y-106832400D03*
X106674600Y-106832400D03*
D17*
X145612401Y-131272999D03*
X143072401Y-131272999D03*
X145612401Y-128732999D03*
X143072401Y-128732999D03*
X145612401Y-126192999D03*
X143072401Y-126192999D03*
X145612401Y-123652999D03*
X143072401Y-123652999D03*
X145612401Y-121112999D03*
X143072401Y-121112999D03*
X145612401Y-118572999D03*
X143072401Y-118572999D03*
X145612401Y-116032999D03*
X143072401Y-116032999D03*
X145612401Y-113492999D03*
X143072401Y-113492999D03*
X145612401Y-110952999D03*
X143072401Y-110952999D03*
X145612401Y-108412999D03*
X143072401Y-108412999D03*
D10*
X174706600Y-106375200D03*
X172206600Y-106375200D03*
X80340200Y-56743600D03*
X80340200Y-54243600D03*
D17*
X167456401Y-131272999D03*
X164916401Y-131272999D03*
X167456401Y-128732999D03*
X164916401Y-128732999D03*
X167456401Y-126192999D03*
X164916401Y-126192999D03*
X167456401Y-123652999D03*
X164916401Y-123652999D03*
X167456401Y-121112999D03*
X164916401Y-121112999D03*
X167456401Y-118572999D03*
X164916401Y-118572999D03*
X167456401Y-116032999D03*
X164916401Y-116032999D03*
X167456401Y-113492999D03*
X164916401Y-113492999D03*
X167456401Y-110952999D03*
X164916401Y-110952999D03*
X167456401Y-108412999D03*
X164916401Y-108412999D03*
D10*
X152882600Y-106375200D03*
X150382600Y-106375200D03*
D21*
X65203799Y-75302749D03*
D22*
X65203800Y-77842750D03*
X65203800Y-80382750D03*
D10*
X158470600Y-81483200D03*
X158470600Y-78983200D03*
D18*
X65659000Y-67932300D03*
X52959000Y-67932300D03*
X60579000Y-67932300D03*
X58039000Y-67932300D03*
X63119000Y-67932300D03*
X55499000Y-67932300D03*
D17*
X123723400Y-131272999D03*
X121183400Y-131272999D03*
X123723400Y-128732999D03*
X121183400Y-128732999D03*
X123723400Y-126192999D03*
X121183400Y-126192999D03*
X123723400Y-123652999D03*
X121183400Y-123652999D03*
X123723400Y-121112999D03*
X121183400Y-121112999D03*
X123723400Y-118572999D03*
X121183400Y-118572999D03*
X123723400Y-116032999D03*
X121183400Y-116032999D03*
X123723400Y-113492999D03*
X121183400Y-113492999D03*
X123723400Y-110952999D03*
X121183400Y-110952999D03*
X123723400Y-108412999D03*
X121183400Y-108412999D03*
D18*
X101854000Y-94996000D03*
X99314000Y-94996000D03*
X101854000Y-92456000D03*
X99314000Y-92456000D03*
X101854000Y-89916000D03*
X99314000Y-89916000D03*
X101854000Y-87376000D03*
X99314000Y-87376000D03*
X101854000Y-84836000D03*
X99314000Y-84836000D03*
X101854000Y-82296000D03*
X99314000Y-82296000D03*
X101854000Y-79756000D03*
X99314000Y-79756000D03*
X101854000Y-77216000D03*
X99314000Y-77216000D03*
X101854000Y-74676000D03*
X99314000Y-74676000D03*
X101854000Y-72136000D03*
X99314000Y-72136000D03*
X101854000Y-69596000D03*
X99314000Y-69596000D03*
X101854000Y-67056000D03*
X99314000Y-67056000D03*
X101854000Y-64516000D03*
X99314000Y-64516000D03*
X101854000Y-61976000D03*
X99314000Y-61976000D03*
X101854000Y-59436000D03*
X99314000Y-59436000D03*
X101854000Y-56896000D03*
X99314000Y-56896000D03*
X101854000Y-54356000D03*
X99314000Y-54356000D03*
X101854000Y-51816000D03*
X99314000Y-51816000D03*
X101854000Y-49276000D03*
X99314000Y-49276000D03*
X101854000Y-46736000D03*
X99314000Y-46736000D03*
X101854000Y-44196000D03*
X99314000Y-44196000D03*
X101854000Y-41656000D03*
X99314000Y-41656000D03*
X101854000Y-39116000D03*
X99314000Y-39116000D03*
X101854000Y-36576000D03*
X99314000Y-36576000D03*
X101854000Y-34036000D03*
X99314000Y-34036000D03*
D10*
X136575800Y-81584800D03*
X136575800Y-79084800D03*
D23*
X74548999Y-126542799D03*
D24*
X74549000Y-124002800D03*
X74549000Y-121462800D03*
X74549000Y-118922800D03*
X74549000Y-116382800D03*
X74549000Y-113842800D03*
X74549000Y-111302800D03*
X74549000Y-108762800D03*
X74549000Y-106222800D03*
X74549000Y-103682800D03*
X74549000Y-101142800D03*
X74549000Y-98602800D03*
X74549000Y-96062800D03*
X74549000Y-93522800D03*
X74549000Y-90982800D03*
X49149000Y-90982800D03*
X49149000Y-93522800D03*
X49149000Y-96062800D03*
X49149000Y-98602800D03*
X49149000Y-101142800D03*
X49149000Y-103682800D03*
X49149000Y-106222800D03*
X49149000Y-108762800D03*
X49149000Y-111302800D03*
X49149000Y-113842800D03*
X49149000Y-116382800D03*
X49149000Y-118922800D03*
X49149000Y-121462800D03*
X49149000Y-124002800D03*
X49149000Y-126542800D03*
D19*
X87147399Y-108915199D03*
D20*
X87147400Y-111455200D03*
X87147400Y-113995200D03*
X87147400Y-116535200D03*
X87147400Y-119075200D03*
X87147400Y-121615200D03*
X87147400Y-124155200D03*
X87147400Y-126695200D03*
X94767400Y-126695200D03*
X94767400Y-124155200D03*
X94767400Y-121615200D03*
X94767400Y-119075200D03*
X94767400Y-116535200D03*
X94767400Y-113995200D03*
X94767400Y-111455200D03*
X94767400Y-108915200D03*
D12*
X73482199Y-53847999D03*
D13*
X76022200Y-53848000D03*
D25*
X52044600Y-75234800D03*
D26*
X52044600Y-80314800D03*
D18*
X123723400Y-94950999D03*
X121183400Y-94950999D03*
X123723400Y-92410999D03*
X121183400Y-92410999D03*
X123723400Y-89870999D03*
X121183400Y-89870999D03*
X123723400Y-87330999D03*
X121183400Y-87330999D03*
X123723400Y-84790999D03*
X121183400Y-84790999D03*
X123723400Y-82250999D03*
X121183400Y-82250999D03*
X123723400Y-79710999D03*
X121183400Y-79710999D03*
X123723400Y-77170999D03*
X121183400Y-77170999D03*
X123723400Y-74630999D03*
X121183400Y-74630999D03*
X123723400Y-72090999D03*
X121183400Y-72090999D03*
X123723400Y-69550999D03*
X121183400Y-69550999D03*
X123723400Y-67010999D03*
X121183400Y-67010999D03*
X123723400Y-64470999D03*
X121183400Y-64470999D03*
X123723400Y-61930999D03*
X121183400Y-61930999D03*
X123723400Y-59390999D03*
X121183400Y-59390999D03*
X123723400Y-56850999D03*
X121183400Y-56850999D03*
X123723400Y-54310999D03*
X121183400Y-54310999D03*
X123723400Y-51770999D03*
X121183400Y-51770999D03*
X123723400Y-49230999D03*
X121183400Y-49230999D03*
X123723400Y-46690999D03*
X121183400Y-46690999D03*
X123723400Y-44150999D03*
X121183400Y-44150999D03*
X123723400Y-41610999D03*
X121183400Y-41610999D03*
X123723400Y-39070999D03*
X121183400Y-39070999D03*
X123723400Y-36530999D03*
X121183400Y-36530999D03*
X123723400Y-33990999D03*
X121183400Y-33990999D03*
D10*
X80441800Y-70510400D03*
X80441800Y-68010400D03*
X80340200Y-40620000D03*
X80340200Y-38120000D03*
D27*
X74752200Y-75433550D03*
X74752200Y-80433550D03*
D18*
X145612401Y-94950999D03*
X143072401Y-94950999D03*
X145612401Y-92410999D03*
X143072401Y-92410999D03*
X145612401Y-89870999D03*
X143072401Y-89870999D03*
X145612401Y-87330999D03*
X143072401Y-87330999D03*
X145612401Y-84790999D03*
X143072401Y-84790999D03*
X145612401Y-82250999D03*
X143072401Y-82250999D03*
X145612401Y-79710999D03*
X143072401Y-79710999D03*
X145612401Y-77170999D03*
X143072401Y-77170999D03*
X145612401Y-74630999D03*
X143072401Y-74630999D03*
X145612401Y-72090999D03*
X143072401Y-72090999D03*
X145612401Y-69550999D03*
X143072401Y-69550999D03*
X145612401Y-67010999D03*
X143072401Y-67010999D03*
X145612401Y-64470999D03*
X143072401Y-64470999D03*
X145612401Y-61930999D03*
X143072401Y-61930999D03*
X145612401Y-59390999D03*
X143072401Y-59390999D03*
X145612401Y-56850999D03*
X143072401Y-56850999D03*
X145612401Y-54310999D03*
X143072401Y-54310999D03*
X145612401Y-51770999D03*
X143072401Y-51770999D03*
X145612401Y-49230999D03*
X143072401Y-49230999D03*
X145612401Y-46690999D03*
X143072401Y-46690999D03*
X145612401Y-44150999D03*
X143072401Y-44150999D03*
X145612401Y-41610999D03*
X143072401Y-41610999D03*
X145612401Y-39070999D03*
X143072401Y-39070999D03*
X145612401Y-36530999D03*
X143072401Y-36530999D03*
X145612401Y-33990999D03*
X143072401Y-33990999D03*
D10*
X131018600Y-106375200D03*
X128518600Y-106375200D03*
X114681000Y-81534000D03*
X114681000Y-79034000D03*
X72872600Y-69037200D03*
D11*
X72872599Y-58877199D03*
M02*
