%TF.GenerationSoftware,KiCad,Pcbnew,(7.0.0)*%
%TF.CreationDate,2023-03-13T22:40:24-04:00*%
%TF.ProjectId,luminator,6c756d69-6e61-4746-9f72-2e6b69636164,rev?*%
%TF.SameCoordinates,Original*%
%TF.FileFunction,Copper,L4,Bot*%
%TF.FilePolarity,Positive*%
%FSLAX46Y46*%
G04 Gerber Fmt 4.6, Leading zero omitted, Abs format (unit mm)*
G04 Created by KiCad (PCBNEW (7.0.0)) date 2023-03-13 22:40:24*
%MOMM*%
%LPD*%
G01*
G04 APERTURE LIST*
%TA.AperFunction,ComponentPad*%
%ADD10C,1.600000*%
%TD*%
%TA.AperFunction,ComponentPad*%
%ADD11R,1.295400X1.295400*%
%TD*%
%TA.AperFunction,ComponentPad*%
%ADD12C,1.295400*%
%TD*%
%TA.AperFunction,ComponentPad*%
%ADD13R,1.227074X1.227074*%
%TD*%
%TA.AperFunction,ComponentPad*%
%ADD14C,1.227074*%
%TD*%
%TA.AperFunction,ComponentPad*%
%ADD15R,1.600000X1.600000*%
%TD*%
%TA.AperFunction,ComponentPad*%
%ADD16C,1.200000*%
%TD*%
%TA.AperFunction,ComponentPad*%
%ADD17C,1.498600*%
%TD*%
%TA.AperFunction,ComponentPad*%
%ADD18C,1.524000*%
%TD*%
%TA.AperFunction,ComponentPad*%
%ADD19R,2.000000X2.000000*%
%TD*%
%TA.AperFunction,ComponentPad*%
%ADD20C,2.000000*%
%TD*%
%TA.AperFunction,ComponentPad*%
%ADD21R,1.508000X1.508000*%
%TD*%
%TA.AperFunction,ComponentPad*%
%ADD22C,1.508000*%
%TD*%
%TA.AperFunction,ComponentPad*%
%ADD23C,1.803400*%
%TD*%
%TA.AperFunction,ComponentPad*%
%ADD24O,1.727200X1.727200*%
%TD*%
%TA.AperFunction,ComponentPad*%
%ADD25R,1.727200X1.727200*%
%TD*%
%TA.AperFunction,ViaPad*%
%ADD26C,0.800000*%
%TD*%
%TA.AperFunction,ViaPad*%
%ADD27C,1.000000*%
%TD*%
%TA.AperFunction,ViaPad*%
%ADD28C,0.500000*%
%TD*%
%TA.AperFunction,Conductor*%
%ADD29C,0.250000*%
%TD*%
%TA.AperFunction,Conductor*%
%ADD30C,0.200000*%
%TD*%
%TA.AperFunction,Conductor*%
%ADD31C,0.400000*%
%TD*%
%TA.AperFunction,Conductor*%
%ADD32C,0.600000*%
%TD*%
G04 APERTURE END LIST*
D10*
X240538000Y-98806000D03*
X238038000Y-98806000D03*
D11*
X133921499Y-74231499D03*
D12*
X133921500Y-76771500D03*
X133921500Y-79311500D03*
X133921500Y-81851500D03*
X133921500Y-84391500D03*
X133921500Y-86931500D03*
X133921500Y-89471500D03*
X133921500Y-92011500D03*
X141541500Y-92011500D03*
X141541500Y-89471500D03*
X141541500Y-86931500D03*
X141541500Y-84391500D03*
X141541500Y-81851500D03*
X141541500Y-79311500D03*
X141541500Y-76771500D03*
X141541500Y-74231500D03*
D13*
X224682999Y-45084999D03*
D14*
X224683000Y-42545000D03*
X224683000Y-40005000D03*
X224683000Y-37465000D03*
X224683000Y-34925000D03*
X224683000Y-32385000D03*
X224683000Y-29845000D03*
X224683000Y-27305000D03*
X224683000Y-24765000D03*
X217063000Y-24765000D03*
X217063000Y-27305000D03*
X217063000Y-29845000D03*
X217063000Y-32385000D03*
X217063000Y-34925000D03*
X217063000Y-37465000D03*
X217063000Y-40005000D03*
X217063000Y-42545000D03*
X217063000Y-45085000D03*
D11*
X320428299Y-119443499D03*
D12*
X320428300Y-116903500D03*
X320428300Y-114363500D03*
X320428300Y-111823500D03*
X320428300Y-109283500D03*
X320428300Y-106743500D03*
X320428300Y-104203500D03*
X320428300Y-101663500D03*
X312808300Y-101663500D03*
X312808300Y-104203500D03*
X312808300Y-106743500D03*
X312808300Y-109283500D03*
X312808300Y-111823500D03*
X312808300Y-114363500D03*
X312808300Y-116903500D03*
X312808300Y-119443500D03*
D10*
X200533000Y-73406000D03*
X198033000Y-73406000D03*
D15*
X47941112Y-108457999D03*
D10*
X45441113Y-108458000D03*
X240538000Y-73406000D03*
X238038000Y-73406000D03*
D13*
X224682999Y-119379999D03*
D14*
X224683000Y-116840000D03*
X224683000Y-114300000D03*
X224683000Y-111760000D03*
X224683000Y-109220000D03*
X224683000Y-106680000D03*
X224683000Y-104140000D03*
X224683000Y-101600000D03*
X224683000Y-99060000D03*
X217063000Y-99060000D03*
X217063000Y-101600000D03*
X217063000Y-104140000D03*
X217063000Y-106680000D03*
X217063000Y-109220000D03*
X217063000Y-111760000D03*
X217063000Y-114300000D03*
X217063000Y-116840000D03*
X217063000Y-119380000D03*
D16*
X228747000Y-99060000D03*
X228747000Y-101600000D03*
X228747000Y-104140000D03*
X228747000Y-106680000D03*
X228747000Y-109220000D03*
X228747000Y-111760000D03*
X228747000Y-114300000D03*
X228747000Y-116840000D03*
X228747000Y-119380000D03*
D17*
X290055300Y-120650000D03*
X287515300Y-120650000D03*
X290055300Y-118110000D03*
X287515300Y-118110000D03*
X290055300Y-115570000D03*
X287515300Y-115570000D03*
X290055300Y-113030000D03*
X287515300Y-113030000D03*
X290055300Y-110490000D03*
X287515300Y-110490000D03*
X290055300Y-107950000D03*
X287515300Y-107950000D03*
X290055300Y-105410000D03*
X287515300Y-105410000D03*
X290055300Y-102870000D03*
X287515300Y-102870000D03*
X290055300Y-100330000D03*
X287515300Y-100330000D03*
X290055300Y-97790000D03*
X287515300Y-97790000D03*
D10*
X107144500Y-70612000D03*
X109644500Y-70612000D03*
D16*
X118935500Y-119380000D03*
X118935500Y-116840000D03*
X118935500Y-114300000D03*
X118935500Y-111760000D03*
X118935500Y-109220000D03*
X118935500Y-106680000D03*
X118935500Y-104140000D03*
X118935500Y-101600000D03*
X118935500Y-99060000D03*
D18*
X250050300Y-86995000D03*
X247510300Y-86995000D03*
X250050300Y-84455000D03*
X247510300Y-84455000D03*
X250050300Y-81915000D03*
X247510300Y-81915000D03*
X250050300Y-79375000D03*
X247510300Y-79375000D03*
X250050300Y-76835000D03*
X247510300Y-76835000D03*
X250050300Y-74295000D03*
X247510300Y-74295000D03*
X250050300Y-71755000D03*
X247510300Y-71755000D03*
X250050300Y-69215000D03*
X247510300Y-69215000D03*
X250050300Y-66675000D03*
X247510300Y-66675000D03*
X250050300Y-64135000D03*
X247510300Y-64135000D03*
X250050300Y-61595000D03*
X247510300Y-61595000D03*
X250050300Y-59055000D03*
X247510300Y-59055000D03*
X250050300Y-56515000D03*
X247510300Y-56515000D03*
X250050300Y-53975000D03*
X247510300Y-53975000D03*
X250050300Y-51435000D03*
X247510300Y-51435000D03*
X250050300Y-48895000D03*
X247510300Y-48895000D03*
X250050300Y-46355000D03*
X247510300Y-46355000D03*
X250050300Y-43815000D03*
X247510300Y-43815000D03*
X250050300Y-41275000D03*
X247510300Y-41275000D03*
X250050300Y-38735000D03*
X247510300Y-38735000D03*
X250050300Y-36195000D03*
X247510300Y-36195000D03*
X250050300Y-33655000D03*
X247510300Y-33655000D03*
X250050300Y-31115000D03*
X247510300Y-31115000D03*
X250050300Y-28575000D03*
X247510300Y-28575000D03*
X250050300Y-26035000D03*
X247510300Y-26035000D03*
D17*
X210058000Y-120650000D03*
X207518000Y-120650000D03*
X210058000Y-118110000D03*
X207518000Y-118110000D03*
X210058000Y-115570000D03*
X207518000Y-115570000D03*
X210058000Y-113030000D03*
X207518000Y-113030000D03*
X210058000Y-110490000D03*
X207518000Y-110490000D03*
X210058000Y-107950000D03*
X207518000Y-107950000D03*
X210058000Y-105410000D03*
X207518000Y-105410000D03*
X210058000Y-102870000D03*
X207518000Y-102870000D03*
X210058000Y-100330000D03*
X207518000Y-100330000D03*
X210058000Y-97790000D03*
X207518000Y-97790000D03*
D11*
X200425999Y-45148499D03*
D12*
X200426000Y-42608500D03*
X200426000Y-40068500D03*
X200426000Y-37528500D03*
X200426000Y-34988500D03*
X200426000Y-32448500D03*
X200426000Y-29908500D03*
X200426000Y-27368500D03*
X192806000Y-27368500D03*
X192806000Y-29908500D03*
X192806000Y-32448500D03*
X192806000Y-34988500D03*
X192806000Y-37528500D03*
X192806000Y-40068500D03*
X192806000Y-42608500D03*
X192806000Y-45148500D03*
D11*
X280423299Y-119443499D03*
D12*
X280423300Y-116903500D03*
X280423300Y-114363500D03*
X280423300Y-111823500D03*
X280423300Y-109283500D03*
X280423300Y-106743500D03*
X280423300Y-104203500D03*
X280423300Y-101663500D03*
X272803300Y-101663500D03*
X272803300Y-104203500D03*
X272803300Y-106743500D03*
X272803300Y-109283500D03*
X272803300Y-111823500D03*
X272803300Y-114363500D03*
X272803300Y-116903500D03*
X272803300Y-119443500D03*
D16*
X268739300Y-24765000D03*
X268739300Y-27305000D03*
X268739300Y-29845000D03*
X268739300Y-32385000D03*
X268739300Y-34925000D03*
X268739300Y-37465000D03*
X268739300Y-40005000D03*
X268739300Y-42545000D03*
X268739300Y-45085000D03*
D10*
X133814500Y-45974000D03*
X136314500Y-45974000D03*
D11*
X280423299Y-45148499D03*
D12*
X280423300Y-42608500D03*
X280423300Y-40068500D03*
X280423300Y-37528500D03*
X280423300Y-34988500D03*
X280423300Y-32448500D03*
X280423300Y-29908500D03*
X280423300Y-27368500D03*
X272803300Y-27368500D03*
X272803300Y-29908500D03*
X272803300Y-32448500D03*
X272803300Y-34988500D03*
X272803300Y-37528500D03*
X272803300Y-40068500D03*
X272803300Y-42608500D03*
X272803300Y-45148500D03*
D10*
X240538000Y-48514000D03*
X238038000Y-48514000D03*
D13*
X122999499Y-74294999D03*
D14*
X122999500Y-76835000D03*
X122999500Y-79375000D03*
X122999500Y-81915000D03*
X122999500Y-84455000D03*
X122999500Y-86995000D03*
X122999500Y-89535000D03*
X122999500Y-92075000D03*
X122999500Y-94615000D03*
X130619500Y-94615000D03*
X130619500Y-92075000D03*
X130619500Y-89535000D03*
X130619500Y-86995000D03*
X130619500Y-84455000D03*
X130619500Y-81915000D03*
X130619500Y-79375000D03*
X130619500Y-76835000D03*
X130619500Y-74295000D03*
D13*
X304680299Y-119379999D03*
D14*
X304680300Y-116840000D03*
X304680300Y-114300000D03*
X304680300Y-111760000D03*
X304680300Y-109220000D03*
X304680300Y-106680000D03*
X304680300Y-104140000D03*
X304680300Y-101600000D03*
X304680300Y-99060000D03*
X297060300Y-99060000D03*
X297060300Y-101600000D03*
X297060300Y-104140000D03*
X297060300Y-106680000D03*
X297060300Y-109220000D03*
X297060300Y-111760000D03*
X297060300Y-114300000D03*
X297060300Y-116840000D03*
X297060300Y-119380000D03*
D13*
X304680299Y-69849999D03*
D14*
X304680300Y-67310000D03*
X304680300Y-64770000D03*
X304680300Y-62230000D03*
X304680300Y-59690000D03*
X304680300Y-57150000D03*
X304680300Y-54610000D03*
X304680300Y-52070000D03*
X304680300Y-49530000D03*
X297060300Y-49530000D03*
X297060300Y-52070000D03*
X297060300Y-54610000D03*
X297060300Y-57150000D03*
X297060300Y-59690000D03*
X297060300Y-62230000D03*
X297060300Y-64770000D03*
X297060300Y-67310000D03*
X297060300Y-69850000D03*
D10*
X200533000Y-98806000D03*
X198033000Y-98806000D03*
D17*
X250050300Y-120650000D03*
X247510300Y-120650000D03*
X250050300Y-118110000D03*
X247510300Y-118110000D03*
X250050300Y-115570000D03*
X247510300Y-115570000D03*
X250050300Y-113030000D03*
X247510300Y-113030000D03*
X250050300Y-110490000D03*
X247510300Y-110490000D03*
X250050300Y-107950000D03*
X247510300Y-107950000D03*
X250050300Y-105410000D03*
X247510300Y-105410000D03*
X250050300Y-102870000D03*
X247510300Y-102870000D03*
X250050300Y-100330000D03*
X247510300Y-100330000D03*
X250050300Y-97790000D03*
X247510300Y-97790000D03*
D10*
X280530300Y-73406000D03*
X278030300Y-73406000D03*
D11*
X240430999Y-69913499D03*
D12*
X240431000Y-67373500D03*
X240431000Y-64833500D03*
X240431000Y-62293500D03*
X240431000Y-59753500D03*
X240431000Y-57213500D03*
X240431000Y-54673500D03*
X240431000Y-52133500D03*
X232811000Y-52133500D03*
X232811000Y-54673500D03*
X232811000Y-57213500D03*
X232811000Y-59753500D03*
X232811000Y-62293500D03*
X232811000Y-64833500D03*
X232811000Y-67373500D03*
X232811000Y-69913500D03*
D16*
X268739300Y-99060000D03*
X268739300Y-101600000D03*
X268739300Y-104140000D03*
X268739300Y-106680000D03*
X268739300Y-109220000D03*
X268739300Y-111760000D03*
X268739300Y-114300000D03*
X268739300Y-116840000D03*
X268739300Y-119380000D03*
X308744300Y-49530000D03*
X308744300Y-52070000D03*
X308744300Y-54610000D03*
X308744300Y-57150000D03*
X308744300Y-59690000D03*
X308744300Y-62230000D03*
X308744300Y-64770000D03*
X308744300Y-67310000D03*
X308744300Y-69850000D03*
D13*
X149669499Y-49529999D03*
D14*
X149669500Y-52070000D03*
X149669500Y-54610000D03*
X149669500Y-57150000D03*
X149669500Y-59690000D03*
X149669500Y-62230000D03*
X149669500Y-64770000D03*
X149669500Y-67310000D03*
X149669500Y-69850000D03*
X157289500Y-69850000D03*
X157289500Y-67310000D03*
X157289500Y-64770000D03*
X157289500Y-62230000D03*
X157289500Y-59690000D03*
X157289500Y-57150000D03*
X157289500Y-54610000D03*
X157289500Y-52070000D03*
X157289500Y-49530000D03*
D11*
X107251499Y-98996499D03*
D12*
X107251500Y-101536500D03*
X107251500Y-104076500D03*
X107251500Y-106616500D03*
X107251500Y-109156500D03*
X107251500Y-111696500D03*
X107251500Y-114236500D03*
X107251500Y-116776500D03*
X114871500Y-116776500D03*
X114871500Y-114236500D03*
X114871500Y-111696500D03*
X114871500Y-109156500D03*
X114871500Y-106616500D03*
X114871500Y-104076500D03*
X114871500Y-101536500D03*
X114871500Y-98996500D03*
D11*
X200425999Y-69913499D03*
D12*
X200426000Y-67373500D03*
X200426000Y-64833500D03*
X200426000Y-62293500D03*
X200426000Y-59753500D03*
X200426000Y-57213500D03*
X200426000Y-54673500D03*
X200426000Y-52133500D03*
X192806000Y-52133500D03*
X192806000Y-54673500D03*
X192806000Y-57213500D03*
X192806000Y-59753500D03*
X192806000Y-62293500D03*
X192806000Y-64833500D03*
X192806000Y-67373500D03*
X192806000Y-69913500D03*
D19*
X94233999Y-101112999D03*
D20*
X94234000Y-98573000D03*
X94234000Y-96033000D03*
X94234000Y-93493000D03*
X94234000Y-90953000D03*
X94234000Y-88413000D03*
X94234000Y-85873000D03*
X94234000Y-83333000D03*
X94234000Y-80793000D03*
X94234000Y-78253000D03*
X94234000Y-75713000D03*
X94234000Y-73173000D03*
X94234000Y-70633000D03*
X94234000Y-68093000D03*
X94234000Y-65553000D03*
X68834000Y-65553000D03*
X68834000Y-68093000D03*
X68834000Y-70633000D03*
X68834000Y-73173000D03*
X68834000Y-75713000D03*
X68834000Y-78253000D03*
X68834000Y-80793000D03*
X68834000Y-83333000D03*
X68834000Y-85873000D03*
X68834000Y-88413000D03*
X68834000Y-90953000D03*
X68834000Y-93493000D03*
X68834000Y-96033000D03*
X68834000Y-98573000D03*
X68834000Y-101113000D03*
D13*
X122999499Y-49529999D03*
D14*
X122999500Y-52070000D03*
X122999500Y-54610000D03*
X122999500Y-57150000D03*
X122999500Y-59690000D03*
X122999500Y-62230000D03*
X122999500Y-64770000D03*
X122999500Y-67310000D03*
X122999500Y-69850000D03*
X130619500Y-69850000D03*
X130619500Y-67310000D03*
X130619500Y-64770000D03*
X130619500Y-62230000D03*
X130619500Y-59690000D03*
X130619500Y-57150000D03*
X130619500Y-54610000D03*
X130619500Y-52070000D03*
X130619500Y-49530000D03*
D11*
X240430999Y-45148499D03*
D12*
X240431000Y-42608500D03*
X240431000Y-40068500D03*
X240431000Y-37528500D03*
X240431000Y-34988500D03*
X240431000Y-32448500D03*
X240431000Y-29908500D03*
X240431000Y-27368500D03*
X232811000Y-27368500D03*
X232811000Y-29908500D03*
X232811000Y-32448500D03*
X232811000Y-34988500D03*
X232811000Y-37528500D03*
X232811000Y-40068500D03*
X232811000Y-42608500D03*
X232811000Y-45148500D03*
D11*
X133921499Y-24701499D03*
D12*
X133921500Y-27241500D03*
X133921500Y-29781500D03*
X133921500Y-32321500D03*
X133921500Y-34861500D03*
X133921500Y-37401500D03*
X133921500Y-39941500D03*
X133921500Y-42481500D03*
X141541500Y-42481500D03*
X141541500Y-39941500D03*
X141541500Y-37401500D03*
X141541500Y-34861500D03*
X141541500Y-32321500D03*
X141541500Y-29781500D03*
X141541500Y-27241500D03*
X141541500Y-24701500D03*
D16*
X188742000Y-99060000D03*
X188742000Y-101600000D03*
X188742000Y-104140000D03*
X188742000Y-106680000D03*
X188742000Y-109220000D03*
X188742000Y-111760000D03*
X188742000Y-114300000D03*
X188742000Y-116840000D03*
X188742000Y-119380000D03*
X188742000Y-74295000D03*
X188742000Y-76835000D03*
X188742000Y-79375000D03*
X188742000Y-81915000D03*
X188742000Y-84455000D03*
X188742000Y-86995000D03*
X188742000Y-89535000D03*
X188742000Y-92075000D03*
X188742000Y-94615000D03*
X145605500Y-45085000D03*
X145605500Y-42545000D03*
X145605500Y-40005000D03*
X145605500Y-37465000D03*
X145605500Y-34925000D03*
X145605500Y-32385000D03*
X145605500Y-29845000D03*
X145605500Y-27305000D03*
X145605500Y-24765000D03*
X145605500Y-119380000D03*
X145605500Y-116840000D03*
X145605500Y-114300000D03*
X145605500Y-111760000D03*
X145605500Y-109220000D03*
X145605500Y-106680000D03*
X145605500Y-104140000D03*
X145605500Y-101600000D03*
X145605500Y-99060000D03*
D10*
X320535300Y-98806000D03*
X318035300Y-98806000D03*
D16*
X228747000Y-24765000D03*
X228747000Y-27305000D03*
X228747000Y-29845000D03*
X228747000Y-32385000D03*
X228747000Y-34925000D03*
X228747000Y-37465000D03*
X228747000Y-40005000D03*
X228747000Y-42545000D03*
X228747000Y-45085000D03*
D13*
X149669499Y-24764999D03*
D14*
X149669500Y-27305000D03*
X149669500Y-29845000D03*
X149669500Y-32385000D03*
X149669500Y-34925000D03*
X149669500Y-37465000D03*
X149669500Y-40005000D03*
X149669500Y-42545000D03*
X149669500Y-45085000D03*
X157289500Y-45085000D03*
X157289500Y-42545000D03*
X157289500Y-40005000D03*
X157289500Y-37465000D03*
X157289500Y-34925000D03*
X157289500Y-32385000D03*
X157289500Y-29845000D03*
X157289500Y-27305000D03*
X157289500Y-24765000D03*
D13*
X264675299Y-69849999D03*
D14*
X264675300Y-67310000D03*
X264675300Y-64770000D03*
X264675300Y-62230000D03*
X264675300Y-59690000D03*
X264675300Y-57150000D03*
X264675300Y-54610000D03*
X264675300Y-52070000D03*
X264675300Y-49530000D03*
X257055300Y-49530000D03*
X257055300Y-52070000D03*
X257055300Y-54610000D03*
X257055300Y-57150000D03*
X257055300Y-59690000D03*
X257055300Y-62230000D03*
X257055300Y-64770000D03*
X257055300Y-67310000D03*
X257055300Y-69850000D03*
D13*
X184677999Y-94614999D03*
D14*
X184678000Y-92075000D03*
X184678000Y-89535000D03*
X184678000Y-86995000D03*
X184678000Y-84455000D03*
X184678000Y-81915000D03*
X184678000Y-79375000D03*
X184678000Y-76835000D03*
X184678000Y-74295000D03*
X177058000Y-74295000D03*
X177058000Y-76835000D03*
X177058000Y-79375000D03*
X177058000Y-81915000D03*
X177058000Y-84455000D03*
X177058000Y-86995000D03*
X177058000Y-89535000D03*
X177058000Y-92075000D03*
X177058000Y-94615000D03*
D10*
X134068500Y-70866000D03*
X136568500Y-70866000D03*
D11*
X240430999Y-119443499D03*
D12*
X240431000Y-116903500D03*
X240431000Y-114363500D03*
X240431000Y-111823500D03*
X240431000Y-109283500D03*
X240431000Y-106743500D03*
X240431000Y-104203500D03*
X240431000Y-101663500D03*
X232811000Y-101663500D03*
X232811000Y-104203500D03*
X232811000Y-106743500D03*
X232811000Y-109283500D03*
X232811000Y-111823500D03*
X232811000Y-114363500D03*
X232811000Y-116903500D03*
X232811000Y-119443500D03*
D13*
X149669499Y-99059999D03*
D14*
X149669500Y-101600000D03*
X149669500Y-104140000D03*
X149669500Y-106680000D03*
X149669500Y-109220000D03*
X149669500Y-111760000D03*
X149669500Y-114300000D03*
X149669500Y-116840000D03*
X149669500Y-119380000D03*
X157289500Y-119380000D03*
X157289500Y-116840000D03*
X157289500Y-114300000D03*
X157289500Y-111760000D03*
X157289500Y-109220000D03*
X157289500Y-106680000D03*
X157289500Y-104140000D03*
X157289500Y-101600000D03*
X157289500Y-99060000D03*
D18*
X210058000Y-86995000D03*
X207518000Y-86995000D03*
X210058000Y-84455000D03*
X207518000Y-84455000D03*
X210058000Y-81915000D03*
X207518000Y-81915000D03*
X210058000Y-79375000D03*
X207518000Y-79375000D03*
X210058000Y-76835000D03*
X207518000Y-76835000D03*
X210058000Y-74295000D03*
X207518000Y-74295000D03*
X210058000Y-71755000D03*
X207518000Y-71755000D03*
X210058000Y-69215000D03*
X207518000Y-69215000D03*
X210058000Y-66675000D03*
X207518000Y-66675000D03*
X210058000Y-64135000D03*
X207518000Y-64135000D03*
X210058000Y-61595000D03*
X207518000Y-61595000D03*
X210058000Y-59055000D03*
X207518000Y-59055000D03*
X210058000Y-56515000D03*
X207518000Y-56515000D03*
X210058000Y-53975000D03*
X207518000Y-53975000D03*
X210058000Y-51435000D03*
X207518000Y-51435000D03*
X210058000Y-48895000D03*
X207518000Y-48895000D03*
X210058000Y-46355000D03*
X207518000Y-46355000D03*
X210058000Y-43815000D03*
X207518000Y-43815000D03*
X210058000Y-41275000D03*
X207518000Y-41275000D03*
X210058000Y-38735000D03*
X207518000Y-38735000D03*
X210058000Y-36195000D03*
X207518000Y-36195000D03*
X210058000Y-33655000D03*
X207518000Y-33655000D03*
X210058000Y-31115000D03*
X207518000Y-31115000D03*
X210058000Y-28575000D03*
X207518000Y-28575000D03*
X210058000Y-26035000D03*
X207518000Y-26035000D03*
D13*
X264675299Y-45084999D03*
D14*
X264675300Y-42545000D03*
X264675300Y-40005000D03*
X264675300Y-37465000D03*
X264675300Y-34925000D03*
X264675300Y-32385000D03*
X264675300Y-29845000D03*
X264675300Y-27305000D03*
X264675300Y-24765000D03*
X257055300Y-24765000D03*
X257055300Y-27305000D03*
X257055300Y-29845000D03*
X257055300Y-32385000D03*
X257055300Y-34925000D03*
X257055300Y-37465000D03*
X257055300Y-40005000D03*
X257055300Y-42545000D03*
X257055300Y-45085000D03*
D13*
X184677999Y-119379999D03*
D14*
X184678000Y-116840000D03*
X184678000Y-114300000D03*
X184678000Y-111760000D03*
X184678000Y-109220000D03*
X184678000Y-106680000D03*
X184678000Y-104140000D03*
X184678000Y-101600000D03*
X184678000Y-99060000D03*
X177058000Y-99060000D03*
X177058000Y-101600000D03*
X177058000Y-104140000D03*
X177058000Y-106680000D03*
X177058000Y-109220000D03*
X177058000Y-111760000D03*
X177058000Y-114300000D03*
X177058000Y-116840000D03*
X177058000Y-119380000D03*
D11*
X320428299Y-45148499D03*
D12*
X320428300Y-42608500D03*
X320428300Y-40068500D03*
X320428300Y-37528500D03*
X320428300Y-34988500D03*
X320428300Y-32448500D03*
X320428300Y-29908500D03*
X320428300Y-27368500D03*
X312808300Y-27368500D03*
X312808300Y-29908500D03*
X312808300Y-32448500D03*
X312808300Y-34988500D03*
X312808300Y-37528500D03*
X312808300Y-40068500D03*
X312808300Y-42608500D03*
X312808300Y-45148500D03*
D10*
X107144500Y-45974000D03*
X109644500Y-45974000D03*
D21*
X41401999Y-117855999D03*
D22*
X43942000Y-117856000D03*
X46482000Y-117856000D03*
D16*
X308744300Y-24765000D03*
X308744300Y-27305000D03*
X308744300Y-29845000D03*
X308744300Y-32385000D03*
X308744300Y-34925000D03*
X308744300Y-37465000D03*
X308744300Y-40005000D03*
X308744300Y-42545000D03*
X308744300Y-45085000D03*
D13*
X149669499Y-74294999D03*
D14*
X149669500Y-76835000D03*
X149669500Y-79375000D03*
X149669500Y-81915000D03*
X149669500Y-84455000D03*
X149669500Y-86995000D03*
X149669500Y-89535000D03*
X149669500Y-92075000D03*
X149669500Y-94615000D03*
X157289500Y-94615000D03*
X157289500Y-92075000D03*
X157289500Y-89535000D03*
X157289500Y-86995000D03*
X157289500Y-84455000D03*
X157289500Y-81915000D03*
X157289500Y-79375000D03*
X157289500Y-76835000D03*
X157289500Y-74295000D03*
D10*
X280530300Y-48514000D03*
X278030300Y-48514000D03*
D23*
X42164000Y-84328000D03*
X42164000Y-89408000D03*
D13*
X224682999Y-94614999D03*
D14*
X224683000Y-92075000D03*
X224683000Y-89535000D03*
X224683000Y-86995000D03*
X224683000Y-84455000D03*
X224683000Y-81915000D03*
X224683000Y-79375000D03*
X224683000Y-76835000D03*
X224683000Y-74295000D03*
X217063000Y-74295000D03*
X217063000Y-76835000D03*
X217063000Y-79375000D03*
X217063000Y-81915000D03*
X217063000Y-84455000D03*
X217063000Y-86995000D03*
X217063000Y-89535000D03*
X217063000Y-92075000D03*
X217063000Y-94615000D03*
D11*
X133921499Y-49466499D03*
D12*
X133921500Y-52006500D03*
X133921500Y-54546500D03*
X133921500Y-57086500D03*
X133921500Y-59626500D03*
X133921500Y-62166500D03*
X133921500Y-64706500D03*
X133921500Y-67246500D03*
X141541500Y-67246500D03*
X141541500Y-64706500D03*
X141541500Y-62166500D03*
X141541500Y-59626500D03*
X141541500Y-57086500D03*
X141541500Y-54546500D03*
X141541500Y-52006500D03*
X141541500Y-49466500D03*
D11*
X200425999Y-94678499D03*
D12*
X200426000Y-92138500D03*
X200426000Y-89598500D03*
X200426000Y-87058500D03*
X200426000Y-84518500D03*
X200426000Y-81978500D03*
X200426000Y-79438500D03*
X200426000Y-76898500D03*
X192806000Y-76898500D03*
X192806000Y-79438500D03*
X192806000Y-81978500D03*
X192806000Y-84518500D03*
X192806000Y-87058500D03*
X192806000Y-89598500D03*
X192806000Y-92138500D03*
X192806000Y-94678500D03*
D10*
X280530300Y-98806000D03*
X278030300Y-98806000D03*
D18*
X290055300Y-86995000D03*
X287515300Y-86995000D03*
X290055300Y-84455000D03*
X287515300Y-84455000D03*
X290055300Y-81915000D03*
X287515300Y-81915000D03*
X290055300Y-79375000D03*
X287515300Y-79375000D03*
X290055300Y-76835000D03*
X287515300Y-76835000D03*
X290055300Y-74295000D03*
X287515300Y-74295000D03*
X290055300Y-71755000D03*
X287515300Y-71755000D03*
X290055300Y-69215000D03*
X287515300Y-69215000D03*
X290055300Y-66675000D03*
X287515300Y-66675000D03*
X290055300Y-64135000D03*
X287515300Y-64135000D03*
X290055300Y-61595000D03*
X287515300Y-61595000D03*
X290055300Y-59055000D03*
X287515300Y-59055000D03*
X290055300Y-56515000D03*
X287515300Y-56515000D03*
X290055300Y-53975000D03*
X287515300Y-53975000D03*
X290055300Y-51435000D03*
X287515300Y-51435000D03*
X290055300Y-48895000D03*
X287515300Y-48895000D03*
X290055300Y-46355000D03*
X287515300Y-46355000D03*
X290055300Y-43815000D03*
X287515300Y-43815000D03*
X290055300Y-41275000D03*
X287515300Y-41275000D03*
X290055300Y-38735000D03*
X287515300Y-38735000D03*
X290055300Y-36195000D03*
X287515300Y-36195000D03*
X290055300Y-33655000D03*
X287515300Y-33655000D03*
X290055300Y-31115000D03*
X287515300Y-31115000D03*
X290055300Y-28575000D03*
X287515300Y-28575000D03*
X290055300Y-26035000D03*
X287515300Y-26035000D03*
D11*
X280423299Y-94678499D03*
D12*
X280423300Y-92138500D03*
X280423300Y-89598500D03*
X280423300Y-87058500D03*
X280423300Y-84518500D03*
X280423300Y-81978500D03*
X280423300Y-79438500D03*
X280423300Y-76898500D03*
X272803300Y-76898500D03*
X272803300Y-79438500D03*
X272803300Y-81978500D03*
X272803300Y-84518500D03*
X272803300Y-87058500D03*
X272803300Y-89598500D03*
X272803300Y-92138500D03*
X272803300Y-94678500D03*
D16*
X228747000Y-74295000D03*
X228747000Y-76835000D03*
X228747000Y-79375000D03*
X228747000Y-81915000D03*
X228747000Y-84455000D03*
X228747000Y-86995000D03*
X228747000Y-89535000D03*
X228747000Y-92075000D03*
X228747000Y-94615000D03*
D11*
X320428299Y-69913499D03*
D12*
X320428300Y-67373500D03*
X320428300Y-64833500D03*
X320428300Y-62293500D03*
X320428300Y-59753500D03*
X320428300Y-57213500D03*
X320428300Y-54673500D03*
X320428300Y-52133500D03*
X312808300Y-52133500D03*
X312808300Y-54673500D03*
X312808300Y-57213500D03*
X312808300Y-59753500D03*
X312808300Y-62293500D03*
X312808300Y-64833500D03*
X312808300Y-67373500D03*
X312808300Y-69913500D03*
D10*
X320535300Y-73406000D03*
X318035300Y-73406000D03*
X320535300Y-48514000D03*
X318035300Y-48514000D03*
D13*
X224682999Y-69849999D03*
D14*
X224683000Y-67310000D03*
X224683000Y-64770000D03*
X224683000Y-62230000D03*
X224683000Y-59690000D03*
X224683000Y-57150000D03*
X224683000Y-54610000D03*
X224683000Y-52070000D03*
X224683000Y-49530000D03*
X217063000Y-49530000D03*
X217063000Y-52070000D03*
X217063000Y-54610000D03*
X217063000Y-57150000D03*
X217063000Y-59690000D03*
X217063000Y-62230000D03*
X217063000Y-64770000D03*
X217063000Y-67310000D03*
X217063000Y-69850000D03*
D16*
X118935500Y-45085000D03*
X118935500Y-42545000D03*
X118935500Y-40005000D03*
X118935500Y-37465000D03*
X118935500Y-34925000D03*
X118935500Y-32385000D03*
X118935500Y-29845000D03*
X118935500Y-27305000D03*
X118935500Y-24765000D03*
D13*
X122999499Y-99059999D03*
D14*
X122999500Y-101600000D03*
X122999500Y-104140000D03*
X122999500Y-106680000D03*
X122999500Y-109220000D03*
X122999500Y-111760000D03*
X122999500Y-114300000D03*
X122999500Y-116840000D03*
X122999500Y-119380000D03*
X130619500Y-119380000D03*
X130619500Y-116840000D03*
X130619500Y-114300000D03*
X130619500Y-111760000D03*
X130619500Y-109220000D03*
X130619500Y-106680000D03*
X130619500Y-104140000D03*
X130619500Y-101600000D03*
X130619500Y-99060000D03*
D10*
X134068500Y-95504000D03*
X136568500Y-95504000D03*
D13*
X184677999Y-69849999D03*
D14*
X184678000Y-67310000D03*
X184678000Y-64770000D03*
X184678000Y-62230000D03*
X184678000Y-59690000D03*
X184678000Y-57150000D03*
X184678000Y-54610000D03*
X184678000Y-52070000D03*
X184678000Y-49530000D03*
X177058000Y-49530000D03*
X177058000Y-52070000D03*
X177058000Y-54610000D03*
X177058000Y-57150000D03*
X177058000Y-59690000D03*
X177058000Y-62230000D03*
X177058000Y-64770000D03*
X177058000Y-67310000D03*
X177058000Y-69850000D03*
D16*
X228747000Y-49530000D03*
X228747000Y-52070000D03*
X228747000Y-54610000D03*
X228747000Y-57150000D03*
X228747000Y-59690000D03*
X228747000Y-62230000D03*
X228747000Y-64770000D03*
X228747000Y-67310000D03*
X228747000Y-69850000D03*
D11*
X200425999Y-119443499D03*
D12*
X200426000Y-116903500D03*
X200426000Y-114363500D03*
X200426000Y-111823500D03*
X200426000Y-109283500D03*
X200426000Y-106743500D03*
X200426000Y-104203500D03*
X200426000Y-101663500D03*
X192806000Y-101663500D03*
X192806000Y-104203500D03*
X192806000Y-106743500D03*
X192806000Y-109283500D03*
X192806000Y-111823500D03*
X192806000Y-114363500D03*
X192806000Y-116903500D03*
X192806000Y-119443500D03*
D16*
X308744300Y-74295000D03*
X308744300Y-76835000D03*
X308744300Y-79375000D03*
X308744300Y-81915000D03*
X308744300Y-84455000D03*
X308744300Y-86995000D03*
X308744300Y-89535000D03*
X308744300Y-92075000D03*
X308744300Y-94615000D03*
D11*
X320428299Y-94678499D03*
D12*
X320428300Y-92138500D03*
X320428300Y-89598500D03*
X320428300Y-87058500D03*
X320428300Y-84518500D03*
X320428300Y-81978500D03*
X320428300Y-79438500D03*
X320428300Y-76898500D03*
X312808300Y-76898500D03*
X312808300Y-79438500D03*
X312808300Y-81978500D03*
X312808300Y-84518500D03*
X312808300Y-87058500D03*
X312808300Y-89598500D03*
X312808300Y-92138500D03*
X312808300Y-94678500D03*
D21*
X95757999Y-118109999D03*
D22*
X98298000Y-118110000D03*
X100838000Y-118110000D03*
D16*
X145605500Y-69850000D03*
X145605500Y-67310000D03*
X145605500Y-64770000D03*
X145605500Y-62230000D03*
X145605500Y-59690000D03*
X145605500Y-57150000D03*
X145605500Y-54610000D03*
X145605500Y-52070000D03*
X145605500Y-49530000D03*
D13*
X264675299Y-119379999D03*
D14*
X264675300Y-116840000D03*
X264675300Y-114300000D03*
X264675300Y-111760000D03*
X264675300Y-109220000D03*
X264675300Y-106680000D03*
X264675300Y-104140000D03*
X264675300Y-101600000D03*
X264675300Y-99060000D03*
X257055300Y-99060000D03*
X257055300Y-101600000D03*
X257055300Y-104140000D03*
X257055300Y-106680000D03*
X257055300Y-109220000D03*
X257055300Y-111760000D03*
X257055300Y-114300000D03*
X257055300Y-116840000D03*
X257055300Y-119380000D03*
D10*
X200533000Y-48514000D03*
X198033000Y-48514000D03*
D16*
X308744300Y-99060000D03*
X308744300Y-101600000D03*
X308744300Y-104140000D03*
X308744300Y-106680000D03*
X308744300Y-109220000D03*
X308744300Y-111760000D03*
X308744300Y-114300000D03*
X308744300Y-116840000D03*
X308744300Y-119380000D03*
D11*
X107251499Y-24701499D03*
D12*
X107251500Y-27241500D03*
X107251500Y-29781500D03*
X107251500Y-32321500D03*
X107251500Y-34861500D03*
X107251500Y-37401500D03*
X107251500Y-39941500D03*
X107251500Y-42481500D03*
X114871500Y-42481500D03*
X114871500Y-39941500D03*
X114871500Y-37401500D03*
X114871500Y-34861500D03*
X114871500Y-32321500D03*
X114871500Y-29781500D03*
X114871500Y-27241500D03*
X114871500Y-24701500D03*
D16*
X188742000Y-24765000D03*
X188742000Y-27305000D03*
X188742000Y-29845000D03*
X188742000Y-32385000D03*
X188742000Y-34925000D03*
X188742000Y-37465000D03*
X188742000Y-40005000D03*
X188742000Y-42545000D03*
X188742000Y-45085000D03*
D17*
X170053000Y-120650000D03*
X167513000Y-120650000D03*
X170053000Y-118110000D03*
X167513000Y-118110000D03*
X170053000Y-115570000D03*
X167513000Y-115570000D03*
X170053000Y-113030000D03*
X167513000Y-113030000D03*
X170053000Y-110490000D03*
X167513000Y-110490000D03*
X170053000Y-107950000D03*
X167513000Y-107950000D03*
X170053000Y-105410000D03*
X167513000Y-105410000D03*
X170053000Y-102870000D03*
X167513000Y-102870000D03*
X170053000Y-100330000D03*
X167513000Y-100330000D03*
X170053000Y-97790000D03*
X167513000Y-97790000D03*
D13*
X264675299Y-94614999D03*
D14*
X264675300Y-92075000D03*
X264675300Y-89535000D03*
X264675300Y-86995000D03*
X264675300Y-84455000D03*
X264675300Y-81915000D03*
X264675300Y-79375000D03*
X264675300Y-76835000D03*
X264675300Y-74295000D03*
X257055300Y-74295000D03*
X257055300Y-76835000D03*
X257055300Y-79375000D03*
X257055300Y-81915000D03*
X257055300Y-84455000D03*
X257055300Y-86995000D03*
X257055300Y-89535000D03*
X257055300Y-92075000D03*
X257055300Y-94615000D03*
D16*
X268739300Y-49530000D03*
X268739300Y-52070000D03*
X268739300Y-54610000D03*
X268739300Y-57150000D03*
X268739300Y-59690000D03*
X268739300Y-62230000D03*
X268739300Y-64770000D03*
X268739300Y-67310000D03*
X268739300Y-69850000D03*
D18*
X54102000Y-45974000D03*
X54102000Y-33274000D03*
X54102000Y-40894000D03*
X54102000Y-38354000D03*
X54102000Y-43434000D03*
X54102000Y-35814000D03*
D13*
X304680299Y-94614999D03*
D14*
X304680300Y-92075000D03*
X304680300Y-89535000D03*
X304680300Y-86995000D03*
X304680300Y-84455000D03*
X304680300Y-81915000D03*
X304680300Y-79375000D03*
X304680300Y-76835000D03*
X304680300Y-74295000D03*
X297060300Y-74295000D03*
X297060300Y-76835000D03*
X297060300Y-79375000D03*
X297060300Y-81915000D03*
X297060300Y-84455000D03*
X297060300Y-86995000D03*
X297060300Y-89535000D03*
X297060300Y-92075000D03*
X297060300Y-94615000D03*
D13*
X304680299Y-45084999D03*
D14*
X304680300Y-42545000D03*
X304680300Y-40005000D03*
X304680300Y-37465000D03*
X304680300Y-34925000D03*
X304680300Y-32385000D03*
X304680300Y-29845000D03*
X304680300Y-27305000D03*
X304680300Y-24765000D03*
X297060300Y-24765000D03*
X297060300Y-27305000D03*
X297060300Y-29845000D03*
X297060300Y-32385000D03*
X297060300Y-34925000D03*
X297060300Y-37465000D03*
X297060300Y-40005000D03*
X297060300Y-42545000D03*
X297060300Y-45085000D03*
D13*
X122999499Y-24764999D03*
D14*
X122999500Y-27305000D03*
X122999500Y-29845000D03*
X122999500Y-32385000D03*
X122999500Y-34925000D03*
X122999500Y-37465000D03*
X122999500Y-40005000D03*
X122999500Y-42545000D03*
X122999500Y-45085000D03*
X130619500Y-45085000D03*
X130619500Y-42545000D03*
X130619500Y-40005000D03*
X130619500Y-37465000D03*
X130619500Y-34925000D03*
X130619500Y-32385000D03*
X130619500Y-29845000D03*
X130619500Y-27305000D03*
X130619500Y-24765000D03*
D11*
X107251499Y-74231499D03*
D12*
X107251500Y-76771500D03*
X107251500Y-79311500D03*
X107251500Y-81851500D03*
X107251500Y-84391500D03*
X107251500Y-86931500D03*
X107251500Y-89471500D03*
X107251500Y-92011500D03*
X114871500Y-92011500D03*
X114871500Y-89471500D03*
X114871500Y-86931500D03*
X114871500Y-84391500D03*
X114871500Y-81851500D03*
X114871500Y-79311500D03*
X114871500Y-76771500D03*
X114871500Y-74231500D03*
D16*
X118935500Y-94615000D03*
X118935500Y-92075000D03*
X118935500Y-89535000D03*
X118935500Y-86995000D03*
X118935500Y-84455000D03*
X118935500Y-81915000D03*
X118935500Y-79375000D03*
X118935500Y-76835000D03*
X118935500Y-74295000D03*
D11*
X240430999Y-94678499D03*
D12*
X240431000Y-92138500D03*
X240431000Y-89598500D03*
X240431000Y-87058500D03*
X240431000Y-84518500D03*
X240431000Y-81978500D03*
X240431000Y-79438500D03*
X240431000Y-76898500D03*
X232811000Y-76898500D03*
X232811000Y-79438500D03*
X232811000Y-81978500D03*
X232811000Y-84518500D03*
X232811000Y-87058500D03*
X232811000Y-89598500D03*
X232811000Y-92138500D03*
X232811000Y-94678500D03*
D16*
X268739300Y-74295000D03*
X268739300Y-76835000D03*
X268739300Y-79375000D03*
X268739300Y-81915000D03*
X268739300Y-84455000D03*
X268739300Y-86995000D03*
X268739300Y-89535000D03*
X268739300Y-92075000D03*
X268739300Y-94615000D03*
X118935500Y-69850000D03*
X118935500Y-67310000D03*
X118935500Y-64770000D03*
X118935500Y-62230000D03*
X118935500Y-59690000D03*
X118935500Y-57150000D03*
X118935500Y-54610000D03*
X118935500Y-52070000D03*
X118935500Y-49530000D03*
D13*
X184677999Y-45084999D03*
D14*
X184678000Y-42545000D03*
X184678000Y-40005000D03*
X184678000Y-37465000D03*
X184678000Y-34925000D03*
X184678000Y-32385000D03*
X184678000Y-29845000D03*
X184678000Y-27305000D03*
X184678000Y-24765000D03*
X177058000Y-24765000D03*
X177058000Y-27305000D03*
X177058000Y-29845000D03*
X177058000Y-32385000D03*
X177058000Y-34925000D03*
X177058000Y-37465000D03*
X177058000Y-40005000D03*
X177058000Y-42545000D03*
X177058000Y-45085000D03*
D18*
X170053000Y-86995000D03*
X167513000Y-86995000D03*
X170053000Y-84455000D03*
X167513000Y-84455000D03*
X170053000Y-81915000D03*
X167513000Y-81915000D03*
X170053000Y-79375000D03*
X167513000Y-79375000D03*
X170053000Y-76835000D03*
X167513000Y-76835000D03*
X170053000Y-74295000D03*
X167513000Y-74295000D03*
X170053000Y-71755000D03*
X167513000Y-71755000D03*
X170053000Y-69215000D03*
X167513000Y-69215000D03*
X170053000Y-66675000D03*
X167513000Y-66675000D03*
X170053000Y-64135000D03*
X167513000Y-64135000D03*
X170053000Y-61595000D03*
X167513000Y-61595000D03*
X170053000Y-59055000D03*
X167513000Y-59055000D03*
X170053000Y-56515000D03*
X167513000Y-56515000D03*
X170053000Y-53975000D03*
X167513000Y-53975000D03*
X170053000Y-51435000D03*
X167513000Y-51435000D03*
X170053000Y-48895000D03*
X167513000Y-48895000D03*
X170053000Y-46355000D03*
X167513000Y-46355000D03*
X170053000Y-43815000D03*
X167513000Y-43815000D03*
X170053000Y-41275000D03*
X167513000Y-41275000D03*
X170053000Y-38735000D03*
X167513000Y-38735000D03*
X170053000Y-36195000D03*
X167513000Y-36195000D03*
X170053000Y-33655000D03*
X167513000Y-33655000D03*
X170053000Y-31115000D03*
X167513000Y-31115000D03*
X170053000Y-28575000D03*
X167513000Y-28575000D03*
X170053000Y-26035000D03*
X167513000Y-26035000D03*
D16*
X145605500Y-94615000D03*
X145605500Y-92075000D03*
X145605500Y-89535000D03*
X145605500Y-86995000D03*
X145605500Y-84455000D03*
X145605500Y-81915000D03*
X145605500Y-79375000D03*
X145605500Y-76835000D03*
X145605500Y-74295000D03*
X188742000Y-49530000D03*
X188742000Y-52070000D03*
X188742000Y-54610000D03*
X188742000Y-57150000D03*
X188742000Y-59690000D03*
X188742000Y-62230000D03*
X188742000Y-64770000D03*
X188742000Y-67310000D03*
X188742000Y-69850000D03*
D10*
X107144500Y-95504000D03*
X109644500Y-95504000D03*
D11*
X107251499Y-49466499D03*
D12*
X107251500Y-52006500D03*
X107251500Y-54546500D03*
X107251500Y-57086500D03*
X107251500Y-59626500D03*
X107251500Y-62166500D03*
X107251500Y-64706500D03*
X107251500Y-67246500D03*
X114871500Y-67246500D03*
X114871500Y-64706500D03*
X114871500Y-62166500D03*
X114871500Y-59626500D03*
X114871500Y-57086500D03*
X114871500Y-54546500D03*
X114871500Y-52006500D03*
X114871500Y-49466500D03*
D11*
X280423299Y-69913499D03*
D12*
X280423300Y-67373500D03*
X280423300Y-64833500D03*
X280423300Y-62293500D03*
X280423300Y-59753500D03*
X280423300Y-57213500D03*
X280423300Y-54673500D03*
X280423300Y-52133500D03*
X272803300Y-52133500D03*
X272803300Y-54673500D03*
X272803300Y-57213500D03*
X272803300Y-59753500D03*
X272803300Y-62293500D03*
X272803300Y-64833500D03*
X272803300Y-67373500D03*
X272803300Y-69913500D03*
D19*
X40304322Y-100075999D03*
D20*
X45304323Y-100076000D03*
D11*
X133921499Y-98996499D03*
D12*
X133921500Y-101536500D03*
X133921500Y-104076500D03*
X133921500Y-106616500D03*
X133921500Y-109156500D03*
X133921500Y-111696500D03*
X133921500Y-114236500D03*
X133921500Y-116776500D03*
X141541500Y-116776500D03*
X141541500Y-114236500D03*
X141541500Y-111696500D03*
X141541500Y-109156500D03*
X141541500Y-106616500D03*
X141541500Y-104076500D03*
X141541500Y-101536500D03*
X141541500Y-98996500D03*
D24*
X54101999Y-93471999D03*
X54101999Y-85851999D03*
X54101999Y-83311999D03*
X82041999Y-55244999D03*
X54101999Y-70611999D03*
X54101999Y-68071999D03*
X54101999Y-65531999D03*
X54101999Y-62991999D03*
X54101999Y-60451999D03*
X54101999Y-57911999D03*
X102361999Y-97535999D03*
X102361999Y-57911999D03*
X102361999Y-60451999D03*
X102361999Y-62991999D03*
X102361999Y-65531999D03*
X102361999Y-68071999D03*
X102361999Y-70611999D03*
X102361999Y-73151999D03*
X102361999Y-75691999D03*
X102361999Y-79755999D03*
X102361999Y-82295999D03*
X102361999Y-84835999D03*
X102361999Y-87375999D03*
X102361999Y-89915999D03*
X102361999Y-92455999D03*
D25*
X102361999Y-94995999D03*
X54101999Y-80771999D03*
X54101999Y-78231999D03*
X76961999Y-55244999D03*
D24*
X54101999Y-90931999D03*
X82041999Y-57784999D03*
X79501999Y-55244999D03*
X54101999Y-88391999D03*
X76961999Y-57784999D03*
X79501999Y-57784999D03*
X102361999Y-102615999D03*
X102361999Y-100075999D03*
X54101999Y-75691999D03*
D26*
X182562500Y-100330000D03*
D27*
X147764500Y-120269000D03*
X121094500Y-120269000D03*
D26*
X302564800Y-100330000D03*
X222567500Y-100330000D03*
X262559800Y-100330000D03*
X315475300Y-108585000D03*
X314840300Y-60960000D03*
X139509500Y-33655000D03*
X275470300Y-34290000D03*
X138239500Y-37465000D03*
X236113000Y-57150000D03*
X124904500Y-92075000D03*
X139509500Y-58420000D03*
X111569500Y-111760000D03*
X152844500Y-86995000D03*
X316110300Y-81915000D03*
X112204500Y-60325000D03*
X154114500Y-106680000D03*
D28*
X234843000Y-22892700D03*
D26*
X140144500Y-31750000D03*
X316110300Y-32385000D03*
X138239500Y-111760000D03*
X152844500Y-111760000D03*
D28*
X236131100Y-21336000D03*
D26*
X154114500Y-32385000D03*
X151574500Y-116840000D03*
X274200300Y-62865000D03*
X155384500Y-52070000D03*
D27*
X132270500Y-69850000D03*
D26*
X274200300Y-112395000D03*
X274835300Y-36195000D03*
X139509500Y-107950000D03*
X276105300Y-32385000D03*
X127444500Y-106680000D03*
D27*
X158940500Y-96774000D03*
D26*
X316110300Y-57150000D03*
X112204500Y-109855000D03*
D28*
X195465700Y-22098000D03*
D26*
X235478000Y-59055000D03*
X275470300Y-59055000D03*
X151574500Y-92075000D03*
X126174500Y-37465000D03*
X113474500Y-56515000D03*
D28*
X235470700Y-22098000D03*
D26*
X315475300Y-83820000D03*
D28*
X234200700Y-23622000D03*
D26*
X155384500Y-101600000D03*
X234208000Y-38100000D03*
X154114500Y-57150000D03*
X128079500Y-64770000D03*
X196108000Y-32385000D03*
X155384500Y-76835000D03*
X112204500Y-85090000D03*
X152844500Y-62230000D03*
X154749500Y-54610000D03*
X276105300Y-81915000D03*
X154749500Y-29845000D03*
X128714500Y-57150000D03*
X151574500Y-42545000D03*
X125539500Y-114300000D03*
X152844500Y-37465000D03*
X235478000Y-83820000D03*
X129349500Y-74295000D03*
X126809500Y-84455000D03*
X275470300Y-83820000D03*
X140144500Y-56515000D03*
X138874500Y-35560000D03*
D28*
X196126100Y-21336000D03*
X194838000Y-22892700D03*
D26*
X138239500Y-62230000D03*
X126174500Y-86995000D03*
X276105300Y-57150000D03*
X126809500Y-109220000D03*
X195473000Y-59055000D03*
X274835300Y-60960000D03*
X314840300Y-110490000D03*
D28*
X296354500Y-73025000D03*
D26*
X113474500Y-31750000D03*
X129349500Y-49530000D03*
D28*
X314185300Y-23596600D03*
D26*
X223075500Y-97790000D03*
X194203000Y-62865000D03*
X128079500Y-104140000D03*
X276105300Y-106680000D03*
D28*
X311086500Y-73025000D03*
D26*
X316110300Y-106680000D03*
X154749500Y-79375000D03*
X236113000Y-106680000D03*
X111569500Y-62230000D03*
X153479500Y-59690000D03*
X183070500Y-97790000D03*
D28*
X216471500Y-73025000D03*
D26*
X156019500Y-74295000D03*
X138874500Y-109855000D03*
X186362500Y-96774000D03*
X128079500Y-54610000D03*
D27*
X158940500Y-69850000D03*
D26*
X266359800Y-96774000D03*
X226377500Y-47244000D03*
X263067800Y-97790000D03*
X152209500Y-114300000D03*
X226367500Y-96774000D03*
X315475300Y-34290000D03*
X127444500Y-32385000D03*
X127444500Y-81915000D03*
X151574500Y-67310000D03*
X266369800Y-47244000D03*
X129349500Y-24765000D03*
X153479500Y-84455000D03*
X314205300Y-112395000D03*
X126809500Y-34925000D03*
X314840300Y-85725000D03*
D28*
X274822600Y-22892700D03*
D26*
X140144500Y-81280000D03*
X314205300Y-62865000D03*
X234208000Y-62865000D03*
X128714500Y-27305000D03*
X154749500Y-104140000D03*
X236113000Y-81915000D03*
X274200300Y-38100000D03*
X153479500Y-34925000D03*
X156019500Y-24765000D03*
D28*
X274180300Y-23622000D03*
D26*
X274200300Y-87630000D03*
D27*
X132270500Y-96774000D03*
D26*
X113474500Y-81280000D03*
X124904500Y-116840000D03*
X194838000Y-110490000D03*
X111569500Y-86995000D03*
X234208000Y-112395000D03*
X124904500Y-42545000D03*
X194203000Y-87630000D03*
X128079500Y-29845000D03*
X196108000Y-106680000D03*
X128714500Y-101600000D03*
D28*
X315455300Y-22072600D03*
D26*
X194203000Y-112395000D03*
X306374800Y-47244000D03*
D28*
X256476500Y-73025000D03*
X275450300Y-22098000D03*
D26*
X314205300Y-38100000D03*
D28*
X314827600Y-22867300D03*
D26*
X156019500Y-49530000D03*
X235478000Y-34290000D03*
X234208000Y-87630000D03*
X136588500Y-119507000D03*
X138874500Y-85090000D03*
X234843000Y-60960000D03*
X195473000Y-83820000D03*
X140144500Y-106045000D03*
X194203000Y-38100000D03*
X152209500Y-40005000D03*
X154114500Y-81915000D03*
X138239500Y-86995000D03*
D28*
X231203500Y-73025000D03*
D26*
X195473000Y-34290000D03*
X112839500Y-83185000D03*
X112204500Y-35560000D03*
X314205300Y-87630000D03*
X128079500Y-67310000D03*
X235478000Y-108585000D03*
X113474500Y-106045000D03*
X112839500Y-58420000D03*
X275470300Y-108585000D03*
X152209500Y-64770000D03*
D28*
X271208500Y-73025000D03*
D26*
X152209500Y-89535000D03*
X196108000Y-81915000D03*
X112839500Y-107950000D03*
X153479500Y-109220000D03*
X156019500Y-99060000D03*
X236113000Y-32385000D03*
D28*
X276110700Y-21336000D03*
X194195700Y-23622000D03*
D26*
X129349500Y-59690000D03*
X194838000Y-36195000D03*
X128714500Y-52070000D03*
X194838000Y-85725000D03*
X111569500Y-37465000D03*
X274835300Y-85725000D03*
X125539500Y-40005000D03*
X139509500Y-83185000D03*
X274835300Y-110490000D03*
X126174500Y-111760000D03*
D28*
X316115700Y-21310600D03*
D26*
X234843000Y-85725000D03*
X125539500Y-89535000D03*
X128714500Y-76835000D03*
X234843000Y-110490000D03*
X112839500Y-33655000D03*
X196108000Y-57150000D03*
X315475300Y-59055000D03*
X128079500Y-79375000D03*
X129349500Y-99060000D03*
X234843000Y-36195000D03*
X155384500Y-27305000D03*
X138874500Y-60325000D03*
X314840300Y-36195000D03*
X303072800Y-97790000D03*
X194838000Y-60960000D03*
X306364800Y-96774000D03*
X186372500Y-47244000D03*
X195473000Y-108585000D03*
X128079500Y-62230000D03*
D29*
X170708000Y-33655000D02*
X170053000Y-33655000D01*
D30*
X234208000Y-62865000D02*
X234208000Y-87630000D01*
X234208000Y-112395000D02*
X234208000Y-87630000D01*
X234208000Y-38100000D02*
X234208000Y-23730900D01*
X314205300Y-62865000D02*
X314205300Y-87630000D01*
X314205300Y-112395000D02*
X314205300Y-87630000D01*
D31*
X260019800Y-49530000D02*
X260019800Y-27729500D01*
X260019800Y-99060000D02*
X260019800Y-74295000D01*
X260019800Y-99060000D02*
X260019800Y-124066300D01*
D29*
X318035300Y-97790000D02*
X318035300Y-98806000D01*
D30*
X112839500Y-58420000D02*
X112839500Y-83185000D01*
X112839500Y-33655000D02*
X112839500Y-58420000D01*
X138874500Y-85090000D02*
X138874500Y-60325000D01*
X138874500Y-85090000D02*
X138874500Y-109855000D01*
D32*
X132270500Y-96774000D02*
X132270500Y-119380000D01*
X132270500Y-69850000D02*
X132270500Y-96774000D01*
D30*
X194203000Y-62865000D02*
X194203000Y-38100000D01*
X194203000Y-62865000D02*
X194203000Y-87630000D01*
X194203000Y-112395000D02*
X194203000Y-87630000D01*
D31*
X220027500Y-74295000D02*
X220027500Y-49530000D01*
X220027500Y-99060000D02*
X220027500Y-74295000D01*
X220027500Y-99060000D02*
X220027500Y-124079000D01*
D30*
X274200300Y-62865000D02*
X274200300Y-87630000D01*
X274200300Y-112395000D02*
X274200300Y-87630000D01*
D32*
X158940500Y-69850000D02*
X158940500Y-119380000D01*
D30*
X139509500Y-58420000D02*
X139509500Y-83185000D01*
X139509500Y-33655000D02*
X139509500Y-58420000D01*
X113474500Y-81280000D02*
X113474500Y-56515000D01*
X113474500Y-81280000D02*
X113474500Y-106045000D01*
D31*
X260019800Y-99060000D02*
X263067800Y-99060000D01*
D30*
X194838000Y-85725000D02*
X194838000Y-60960000D01*
X194838000Y-60960000D02*
X194838000Y-36195000D01*
X194838000Y-22892700D02*
X194838000Y-36195000D01*
X112204500Y-35560000D02*
X112204500Y-60325000D01*
X112204500Y-85090000D02*
X112204500Y-109855000D01*
X235478000Y-108585000D02*
X235478000Y-83820000D01*
X235478000Y-59055000D02*
X235478000Y-34290000D01*
X235478000Y-34290000D02*
X235478000Y-22105300D01*
X140144500Y-81280000D02*
X140144500Y-56515000D01*
X140144500Y-31750000D02*
X140144500Y-56515000D01*
D29*
X238038000Y-48260000D02*
X238038000Y-97790000D01*
D31*
X220027500Y-99060000D02*
X223075500Y-99060000D01*
D29*
X280530300Y-27261500D02*
X280423300Y-27368500D01*
D32*
X121094500Y-119380000D02*
X121094500Y-120269000D01*
D29*
X240431000Y-76898500D02*
X239288000Y-78041500D01*
D31*
X303072800Y-99060000D02*
X304680300Y-99060000D01*
D30*
X138239500Y-62230000D02*
X138239500Y-86995000D01*
X138239500Y-37465000D02*
X138239500Y-62230000D01*
D31*
X183070500Y-99060000D02*
X184678000Y-99060000D01*
D29*
X278030300Y-97790000D02*
X278030300Y-98806000D01*
X109644500Y-71120000D02*
X109644500Y-46355000D01*
X198033000Y-97790000D02*
X198033000Y-98806000D01*
D31*
X300024800Y-99060000D02*
X300024800Y-124193300D01*
D32*
X147764500Y-69850000D02*
X147764500Y-119380000D01*
D29*
X200426000Y-76898500D02*
X199283000Y-78041500D01*
D31*
X180022500Y-74295000D02*
X180022500Y-49530000D01*
X180022500Y-99060000D02*
X180022500Y-74295000D01*
X180022500Y-99060000D02*
X180022500Y-124206000D01*
D30*
X196108000Y-81915000D02*
X196108000Y-57150000D01*
X196108000Y-57150000D02*
X196108000Y-32385000D01*
X196108000Y-32385000D02*
X196108000Y-21354100D01*
X195473000Y-34290000D02*
X195473000Y-22105300D01*
X195473000Y-59055000D02*
X195473000Y-83820000D01*
X195473000Y-108585000D02*
X195473000Y-83820000D01*
D29*
X320535300Y-76791500D02*
X320428300Y-76898500D01*
D30*
X275470300Y-59055000D02*
X275470300Y-83820000D01*
X275470300Y-59055000D02*
X275470300Y-34290000D01*
D29*
X133814500Y-67353500D02*
X133921500Y-67246500D01*
D30*
X236113000Y-81915000D02*
X236113000Y-57150000D01*
X236113000Y-106680000D02*
X236113000Y-81915000D01*
X236113000Y-32385000D02*
X236113000Y-21354100D01*
X114871500Y-24701500D02*
X116433600Y-23139400D01*
D29*
X200533000Y-27261500D02*
X200426000Y-27368500D01*
D32*
X45441113Y-108458000D02*
X45441113Y-100212790D01*
X43942000Y-124206000D02*
X43942000Y-117856000D01*
D29*
X240538000Y-27261500D02*
X240431000Y-27368500D01*
X280530300Y-76791500D02*
X280423300Y-76898500D01*
D30*
X274835300Y-85725000D02*
X274835300Y-60960000D01*
X274835300Y-60960000D02*
X274835300Y-36195000D01*
D32*
X107251500Y-124206000D02*
X105727500Y-124206000D01*
D30*
X111569500Y-62230000D02*
X111569500Y-86995000D01*
X111569500Y-86995000D02*
X111569500Y-111760000D01*
X316110300Y-81915000D02*
X316110300Y-57150000D01*
X316110300Y-57150000D02*
X316110300Y-32385000D01*
D29*
X107144500Y-67353500D02*
X107251500Y-67246500D01*
D30*
X234843000Y-60960000D02*
X234843000Y-36195000D01*
X234843000Y-85725000D02*
X234843000Y-60960000D01*
X234843000Y-110490000D02*
X234843000Y-85725000D01*
X276105300Y-81915000D02*
X276105300Y-57150000D01*
X276105300Y-106680000D02*
X276105300Y-81915000D01*
X314840300Y-85725000D02*
X314840300Y-60960000D01*
X314840300Y-110490000D02*
X314840300Y-85725000D01*
D29*
X320535300Y-27261500D02*
X320428300Y-27368500D01*
D30*
X195473000Y-22105300D02*
X195465700Y-22098000D01*
X315475300Y-59055000D02*
X315475300Y-83820000D01*
X315475300Y-108585000D02*
X315475300Y-83820000D01*
D31*
X300024800Y-74295000D02*
X300024800Y-49530000D01*
X300024800Y-124193300D02*
X300024800Y-74295000D01*
X136568500Y-95504000D02*
X136568500Y-70866000D01*
X136568500Y-70866000D02*
X136568500Y-46228000D01*
D32*
X160972500Y-124206000D02*
X180022500Y-124206000D01*
D29*
X133921500Y-116776500D02*
X135064500Y-115633500D01*
D30*
X236131100Y-21336000D02*
X236113000Y-21317900D01*
D29*
X99822000Y-65532000D02*
X99568000Y-65278000D01*
D30*
X99314000Y-32766000D02*
X99060000Y-33020000D01*
X276110700Y-21336000D02*
X276092600Y-21317900D01*
D32*
X147764500Y-69850000D02*
X147764500Y-120269000D01*
D30*
X316115700Y-21310600D02*
X316097600Y-21292500D01*
X100584000Y-34798000D02*
X100584000Y-35052000D01*
X235470700Y-22098000D02*
X235478000Y-22090700D01*
X315455300Y-22072600D02*
X315462600Y-22065300D01*
D29*
X107144500Y-116883500D02*
X107251500Y-116776500D01*
D30*
X195465700Y-22098000D02*
X195473000Y-22090700D01*
X98044000Y-33274000D02*
X98298000Y-33020000D01*
D31*
X136588500Y-119507000D02*
X136588500Y-119634000D01*
D32*
X149669500Y-69850000D02*
X147764500Y-69850000D01*
D30*
X275450300Y-22098000D02*
X275457600Y-22090700D01*
D32*
X121094500Y-69850000D02*
X121094500Y-120269000D01*
X149669500Y-119380000D02*
X147764500Y-119380000D01*
X122999500Y-119380000D02*
X121094500Y-119380000D01*
X122999500Y-69850000D02*
X121094500Y-69850000D01*
D30*
X234208000Y-62865000D02*
X234208000Y-38100000D01*
X314205300Y-62865000D02*
X314205300Y-38100000D01*
D29*
X135044500Y-73045000D02*
X135064500Y-73025000D01*
D31*
X260019800Y-74295000D02*
X260019800Y-49530000D01*
D29*
X214122000Y-115570000D02*
X214757000Y-114935000D01*
X128079500Y-67310000D02*
X124904500Y-64135000D01*
X318035300Y-48260000D02*
X318035300Y-97790000D01*
D30*
X112839500Y-83185000D02*
X112839500Y-107950000D01*
D29*
X173609000Y-113030000D02*
X174244000Y-112395000D01*
D30*
X108712000Y-30988000D02*
X105664000Y-30988000D01*
D29*
X319285300Y-71775000D02*
X320535300Y-73025000D01*
X294754300Y-114935000D02*
X294754300Y-91841000D01*
X199283000Y-71775000D02*
X200533000Y-73025000D01*
D30*
X138874500Y-35560000D02*
X138874500Y-60325000D01*
X314192600Y-38074600D02*
X314192600Y-23705500D01*
X112522000Y-20574000D02*
X141439900Y-20574000D01*
D29*
X174244000Y-89809000D02*
X177058000Y-86995000D01*
D30*
X141439900Y-20574000D02*
X141947900Y-21082000D01*
D29*
X172593000Y-107950000D02*
X170053000Y-107950000D01*
D32*
X279336500Y-124206000D02*
X297434000Y-124206000D01*
D29*
X253225300Y-45720000D02*
X250050300Y-48895000D01*
D30*
X253733300Y-87777000D02*
X253733300Y-109855000D01*
D29*
X191028000Y-91376500D02*
X192806000Y-89598500D01*
X154114500Y-32385000D02*
X154114500Y-57150000D01*
D30*
X154749500Y-54610000D02*
X154749500Y-29845000D01*
D32*
X132270500Y-119380000D02*
X132270500Y-124206000D01*
D30*
X105664000Y-30988000D02*
X103124000Y-33528000D01*
D31*
X224683000Y-49530000D02*
X220027500Y-49530000D01*
D29*
X232811000Y-52133500D02*
X231775000Y-51097500D01*
X240431000Y-73132000D02*
X240538000Y-73025000D01*
X251828300Y-102870000D02*
X250050300Y-102870000D01*
X174244000Y-54864000D02*
X170053000Y-59055000D01*
D30*
X194203000Y-38100000D02*
X194203000Y-23730900D01*
D32*
X45304323Y-87468323D02*
X42164000Y-84328000D01*
D29*
X272803300Y-101663500D02*
X271025300Y-99885500D01*
D31*
X184678000Y-49530000D02*
X180022500Y-49530000D01*
X136568500Y-46228000D02*
X136314500Y-45974000D01*
D32*
X180022500Y-124206000D02*
X199453500Y-124206000D01*
D29*
X292595300Y-107950000D02*
X290055300Y-107950000D01*
X170053000Y-105410000D02*
X172339000Y-105410000D01*
X177058000Y-37465000D02*
X173228000Y-41295000D01*
X129349500Y-49530000D02*
X129349500Y-24765000D01*
X116649500Y-52768500D02*
X114871500Y-54546500D01*
D31*
X220027500Y-49530000D02*
X220027500Y-27729500D01*
D29*
X145605500Y-124079000D02*
X145732500Y-124206000D01*
D31*
X264675300Y-49530000D02*
X260019800Y-49530000D01*
D30*
X104648000Y-29464000D02*
X102108000Y-32004000D01*
X274200300Y-62865000D02*
X274200300Y-38100000D01*
D29*
X172212000Y-102489000D02*
X171831000Y-102870000D01*
X213233000Y-41295000D02*
X213233000Y-45720000D01*
D30*
X141439900Y-22098000D02*
X140931900Y-21590000D01*
D31*
X260019800Y-27729500D02*
X257055300Y-24765000D01*
D32*
X45304323Y-100076000D02*
X45304323Y-87468323D01*
D29*
X133901500Y-92011500D02*
X135044500Y-90868500D01*
D30*
X315462600Y-34264600D02*
X315462600Y-22079900D01*
D29*
X257055300Y-81915000D02*
X253225300Y-85745000D01*
X290710300Y-33655000D02*
X290055300Y-33655000D01*
X292722300Y-105029000D02*
X292722300Y-82423000D01*
X200446000Y-52133500D02*
X199303000Y-53276500D01*
D32*
X158940500Y-119380000D02*
X158940500Y-124079000D01*
D30*
X99060000Y-64770000D02*
X99822000Y-65532000D01*
D29*
X100584000Y-61214000D02*
X100584000Y-34798000D01*
X59182000Y-86868000D02*
X59182000Y-87376000D01*
X199283000Y-96540000D02*
X200533000Y-97790000D01*
D30*
X173101000Y-110490000D02*
X170053000Y-110490000D01*
D31*
X303072800Y-97790000D02*
X303072800Y-99060000D01*
D29*
X141541500Y-42481500D02*
X143319500Y-44259500D01*
D30*
X217063000Y-64770000D02*
X215900000Y-64770000D01*
X275457600Y-34290000D02*
X275457600Y-22105300D01*
D29*
X231775000Y-41104500D02*
X232811000Y-40068500D01*
X192806000Y-101663500D02*
X191028000Y-99885500D01*
D30*
X139509500Y-83185000D02*
X139509500Y-107950000D01*
D29*
X292722300Y-82423000D02*
X295770300Y-79375000D01*
D32*
X158940500Y-124079000D02*
X159067500Y-124206000D01*
D29*
X295262300Y-45085000D02*
X294246300Y-46101000D01*
X252209300Y-81681000D02*
X252209300Y-102489000D01*
X107144500Y-42588500D02*
X107251500Y-42481500D01*
D30*
X113474500Y-31750000D02*
X113474500Y-56515000D01*
D29*
X98298000Y-33782000D02*
X99314000Y-32766000D01*
D30*
X101854000Y-31496000D02*
X104140000Y-29210000D01*
D32*
X239331500Y-124206000D02*
X260159500Y-124206000D01*
D31*
X217063000Y-74295000D02*
X220027500Y-74295000D01*
D32*
X43942000Y-113792000D02*
X45441113Y-112292887D01*
D31*
X263067800Y-99060000D02*
X264675300Y-99060000D01*
D29*
X107231500Y-92011500D02*
X108374500Y-90868500D01*
D30*
X175260000Y-93873000D02*
X175260000Y-117475000D01*
X175260000Y-117475000D02*
X174625000Y-118110000D01*
D29*
X175133000Y-120650000D02*
X175768000Y-120015000D01*
D30*
X275457600Y-22105300D02*
X275450300Y-22098000D01*
X194838000Y-110490000D02*
X194838000Y-85725000D01*
D29*
X124904500Y-64135000D02*
X124904500Y-42545000D01*
X99822000Y-62992000D02*
X99822000Y-34036000D01*
D30*
X257055300Y-64770000D02*
X255892300Y-64770000D01*
D29*
X272803300Y-52133500D02*
X271767300Y-51097500D01*
X257055300Y-45085000D02*
X255257300Y-45085000D01*
X252590300Y-107950000D02*
X250050300Y-107950000D01*
X292341300Y-105410000D02*
X292722300Y-105029000D01*
D30*
X104902000Y-23876000D02*
X106172000Y-22606000D01*
D29*
X107251500Y-116776500D02*
X108394500Y-115633500D01*
X135064500Y-73025000D02*
X135064500Y-72370000D01*
X239288000Y-28511500D02*
X239288000Y-47010000D01*
D30*
X297060300Y-42545000D02*
X293738300Y-45867000D01*
D29*
X239308000Y-71100000D02*
X239288000Y-71120000D01*
X297060300Y-76835000D02*
X292214300Y-81681000D01*
D30*
X112204500Y-85090000D02*
X112204500Y-60325000D01*
D29*
X135064500Y-115633500D02*
X135064500Y-97135000D01*
D30*
X177058000Y-42545000D02*
X173672500Y-45930500D01*
X235478000Y-59055000D02*
X235478000Y-83820000D01*
D29*
X174752000Y-91841000D02*
X177058000Y-89535000D01*
X170053000Y-120650000D02*
X175133000Y-120650000D01*
D30*
X140144500Y-81280000D02*
X140144500Y-106045000D01*
D29*
X124904500Y-92075000D02*
X124904500Y-116840000D01*
D30*
X105918000Y-28194000D02*
X105156000Y-28956000D01*
X293992300Y-66675000D02*
X290055300Y-66675000D01*
D29*
X319305300Y-120630000D02*
X318770000Y-121165300D01*
X238038000Y-97790000D02*
X238038000Y-98806000D01*
D30*
X141185900Y-21082000D02*
X112776000Y-21082000D01*
D29*
X217063000Y-32385000D02*
X212725000Y-36723000D01*
X108394500Y-73025000D02*
X108394500Y-72370000D01*
X127444500Y-81915000D02*
X127444500Y-106680000D01*
X172212000Y-81681000D02*
X172212000Y-102489000D01*
D30*
X129349500Y-59690000D02*
X126809500Y-57150000D01*
X125539500Y-114300000D02*
X125539500Y-89535000D01*
D32*
X109283500Y-124206000D02*
X118935500Y-124206000D01*
D29*
X311772300Y-51097500D02*
X311772300Y-41104500D01*
D32*
X73152000Y-124206000D02*
X59182000Y-124206000D01*
D30*
X173736000Y-109855000D02*
X173101000Y-110490000D01*
D31*
X223075500Y-99060000D02*
X224683000Y-99060000D01*
D29*
X171831000Y-102870000D02*
X170053000Y-102870000D01*
X214757000Y-114935000D02*
X214757000Y-91841000D01*
D30*
X109220000Y-28448000D02*
X109220000Y-30480000D01*
X128079500Y-104140000D02*
X128079500Y-79375000D01*
D32*
X86868000Y-124206000D02*
X73152000Y-124206000D01*
D30*
X102108000Y-32004000D02*
X100076000Y-32004000D01*
D29*
X191028000Y-99885500D02*
X191028000Y-91376500D01*
X280423300Y-27368500D02*
X279280300Y-28511500D01*
X295770300Y-79375000D02*
X297060300Y-79375000D01*
D30*
X99060000Y-33782000D02*
X99060000Y-64770000D01*
X113792000Y-21590000D02*
X109474000Y-25908000D01*
D29*
X143319500Y-93789500D02*
X143319500Y-102298500D01*
X279280300Y-28511500D02*
X279280300Y-47010000D01*
X257055300Y-32385000D02*
X252717300Y-36723000D01*
X232811000Y-101663500D02*
X231033000Y-99885500D01*
X212344000Y-105410000D02*
X212725000Y-105029000D01*
X212598000Y-107950000D02*
X210058000Y-107950000D01*
D31*
X260019800Y-124066300D02*
X260159500Y-124206000D01*
D29*
X280423300Y-73132000D02*
X280530300Y-73025000D01*
D30*
X293738300Y-87777000D02*
X293738300Y-109855000D01*
D29*
X319305300Y-53276500D02*
X319305300Y-71100000D01*
X252209300Y-102489000D02*
X251828300Y-102870000D01*
X320428300Y-73132000D02*
X320535300Y-73025000D01*
D30*
X297060300Y-92075000D02*
X295262300Y-93873000D01*
D29*
X133814500Y-42588500D02*
X133921500Y-42481500D01*
X240538000Y-76791500D02*
X240431000Y-76898500D01*
X89916000Y-100584000D02*
X89916000Y-124206000D01*
X213233000Y-85745000D02*
X213233000Y-107315000D01*
D30*
X100330000Y-32512000D02*
X99060000Y-33782000D01*
D31*
X180022500Y-27729500D02*
X177058000Y-24765000D01*
D30*
X173672500Y-45930500D02*
X173672500Y-50355500D01*
D29*
X231033000Y-99885500D02*
X231033000Y-91376500D01*
X116649500Y-44259500D02*
X116649500Y-52768500D01*
D30*
X98298000Y-33020000D02*
X99822000Y-31496000D01*
D29*
X143319500Y-52768500D02*
X141541500Y-54546500D01*
D30*
X128714500Y-27305000D02*
X128714500Y-52070000D01*
X173990000Y-66675000D02*
X170053000Y-66675000D01*
D29*
X177058000Y-32385000D02*
X172720000Y-36723000D01*
D30*
X177058000Y-84455000D02*
X173736000Y-87777000D01*
D29*
X212217000Y-102489000D02*
X211836000Y-102870000D01*
X239308000Y-53276500D02*
X239308000Y-71100000D01*
X102362000Y-70612000D02*
X98298000Y-66548000D01*
X210058000Y-113030000D02*
X213614000Y-113030000D01*
X239288000Y-47010000D02*
X240538000Y-48260000D01*
X319285300Y-47010000D02*
X320535300Y-48260000D01*
X177058000Y-27305000D02*
X170708000Y-33655000D01*
D30*
X128714500Y-76835000D02*
X128714500Y-101600000D01*
D29*
X94234000Y-98573000D02*
X91927000Y-98573000D01*
D31*
X300024800Y-99060000D02*
X303072800Y-99060000D01*
D29*
X311030300Y-99885500D02*
X311030300Y-91376500D01*
D30*
X112776000Y-21082000D02*
X110744000Y-23114000D01*
D29*
X200426000Y-73132000D02*
X200533000Y-73025000D01*
X143319500Y-44259500D02*
X143319500Y-52768500D01*
D30*
X64516000Y-58674000D02*
X59182000Y-64008000D01*
X138239500Y-86995000D02*
X138239500Y-111760000D01*
D29*
X174117000Y-115570000D02*
X174752000Y-114935000D01*
X320448300Y-52133500D02*
X319305300Y-53276500D01*
X271767300Y-41104500D02*
X272803300Y-40068500D01*
X290055300Y-105410000D02*
X292341300Y-105410000D01*
X320535300Y-101556500D02*
X320428300Y-101663500D01*
X98298000Y-66548000D02*
X98298000Y-33782000D01*
X199283000Y-71120000D02*
X199283000Y-71775000D01*
D30*
X105410000Y-24130000D02*
X105410000Y-27940000D01*
D29*
X280530300Y-48260000D02*
X280530300Y-52026500D01*
D30*
X217063000Y-42545000D02*
X213741000Y-45867000D01*
D29*
X294246300Y-46101000D02*
X294246300Y-54864000D01*
X294246300Y-112395000D02*
X294246300Y-89809000D01*
D31*
X180022500Y-99060000D02*
X183070500Y-99060000D01*
D29*
X278030300Y-48260000D02*
X278030300Y-97790000D01*
X257055300Y-37465000D02*
X253225300Y-41295000D01*
D30*
X213995000Y-66675000D02*
X210058000Y-66675000D01*
D29*
X240431000Y-76898500D02*
X240431000Y-73132000D01*
X175768000Y-95885000D02*
X175788000Y-95885000D01*
X319305300Y-102806500D02*
X319305300Y-120630000D01*
D32*
X130619500Y-69850000D02*
X132270500Y-69850000D01*
D29*
X240451000Y-52133500D02*
X239308000Y-53276500D01*
X200533000Y-101556500D02*
X200426000Y-101663500D01*
X133814500Y-95885000D02*
X133814500Y-92118500D01*
X135064500Y-97135000D02*
X133814500Y-95885000D01*
X215773000Y-120015000D02*
X215773000Y-95885000D01*
D30*
X109644500Y-45974000D02*
X109644500Y-29928500D01*
X152209500Y-114300000D02*
X152209500Y-89535000D01*
D31*
X183070500Y-97790000D02*
X183070500Y-99060000D01*
D29*
X109644500Y-71120000D02*
X109644500Y-95885000D01*
X214249000Y-112395000D02*
X214249000Y-89809000D01*
D30*
X174625000Y-118110000D02*
X170053000Y-118110000D01*
X316097600Y-21328700D02*
X316115700Y-21310600D01*
D29*
X240538000Y-48260000D02*
X240538000Y-52026500D01*
D30*
X125539500Y-62230000D02*
X125539500Y-40005000D01*
X59182000Y-64008000D02*
X59182000Y-87376000D01*
D29*
X198033000Y-48260000D02*
X198033000Y-97790000D01*
D30*
X108204000Y-28448000D02*
X106680000Y-28448000D01*
D29*
X200533000Y-97790000D02*
X200533000Y-101556500D01*
X200446000Y-101663500D02*
X199303000Y-102806500D01*
X279300300Y-102806500D02*
X279300300Y-120630000D01*
X293230300Y-45720000D02*
X290055300Y-48895000D01*
X172720000Y-36723000D02*
X172720000Y-41148000D01*
D32*
X132270500Y-124206000D02*
X134048500Y-124206000D01*
D30*
X128079500Y-54610000D02*
X128079500Y-29845000D01*
D29*
X292722300Y-41148000D02*
X290055300Y-43815000D01*
X199283000Y-78041500D02*
X199283000Y-96540000D01*
X200533000Y-76791500D02*
X200426000Y-76898500D01*
D31*
X257055300Y-74295000D02*
X260019800Y-74295000D01*
D29*
X59182000Y-85852000D02*
X59182000Y-86868000D01*
D30*
X109220000Y-30480000D02*
X108712000Y-30988000D01*
X136314500Y-45974000D02*
X136314500Y-29928500D01*
D29*
X199303000Y-53276500D02*
X199303000Y-71100000D01*
D32*
X118935500Y-124206000D02*
X132270500Y-124206000D01*
D31*
X180022500Y-49530000D02*
X180022500Y-27729500D01*
D30*
X214630000Y-118110000D02*
X210058000Y-118110000D01*
D29*
X173228000Y-41295000D02*
X173228000Y-45720000D01*
D31*
X223075500Y-97790000D02*
X223075500Y-99060000D01*
D30*
X196108000Y-106680000D02*
X196108000Y-81915000D01*
D29*
X152844500Y-86995000D02*
X152844500Y-111760000D01*
X71141000Y-98573000D02*
X73152000Y-100584000D01*
X215265000Y-45085000D02*
X214249000Y-46101000D01*
D30*
X114554000Y-22098000D02*
X108204000Y-28448000D01*
X141947900Y-21082000D02*
X195872100Y-21082000D01*
D29*
X279280300Y-96540000D02*
X280530300Y-97790000D01*
D30*
X128079500Y-64770000D02*
X125539500Y-62230000D01*
D29*
X297060300Y-81915000D02*
X293230300Y-85745000D01*
X199303000Y-120630000D02*
X199283000Y-120650000D01*
D30*
X105918000Y-26670000D02*
X105918000Y-28194000D01*
D29*
X279280300Y-71775000D02*
X280530300Y-73025000D01*
X199283000Y-124035500D02*
X199453500Y-124206000D01*
X239288000Y-71775000D02*
X240538000Y-73025000D01*
X173228000Y-45720000D02*
X170053000Y-48895000D01*
D30*
X316097600Y-32359600D02*
X316097600Y-21328700D01*
X315462600Y-22079900D02*
X315455300Y-22072600D01*
X253987300Y-66675000D02*
X250050300Y-66675000D01*
X153479500Y-59690000D02*
X153479500Y-34925000D01*
X195473000Y-59055000D02*
X195473000Y-34290000D01*
D31*
X297060300Y-74295000D02*
X300024800Y-74295000D01*
D29*
X254241300Y-54864000D02*
X250050300Y-59055000D01*
D32*
X98298000Y-124206000D02*
X98298000Y-118110000D01*
D29*
X311030300Y-91376500D02*
X312808300Y-89598500D01*
X135064500Y-66103500D02*
X135064500Y-47605000D01*
X73152000Y-100584000D02*
X73152000Y-124206000D01*
X320428300Y-76898500D02*
X319285300Y-78041500D01*
X213233000Y-107315000D02*
X212598000Y-107950000D01*
X135064500Y-72370000D02*
X133814500Y-71120000D01*
D30*
X275470300Y-108585000D02*
X275470300Y-83820000D01*
X194195700Y-23622000D02*
X193179700Y-22606000D01*
D29*
X239288000Y-96540000D02*
X240538000Y-97790000D01*
D30*
X257055300Y-42545000D02*
X253733300Y-45867000D01*
X140652500Y-22098000D02*
X114554000Y-22098000D01*
D29*
X271025300Y-91376500D02*
X272803300Y-89598500D01*
D32*
X260159500Y-124206000D02*
X279336500Y-124206000D01*
D29*
X240538000Y-52026500D02*
X240431000Y-52133500D01*
X133921500Y-67246500D02*
X135064500Y-66103500D01*
D30*
X274187600Y-38100000D02*
X274187600Y-23730900D01*
D29*
X172339000Y-105410000D02*
X172720000Y-105029000D01*
D30*
X215265000Y-93873000D02*
X215265000Y-117475000D01*
X236113000Y-57150000D02*
X236113000Y-32385000D01*
X217063000Y-92075000D02*
X215265000Y-93873000D01*
D29*
X170708000Y-33655000D02*
X170053000Y-33655000D01*
X319285300Y-78041500D02*
X319285300Y-96540000D01*
X214249000Y-54864000D02*
X210058000Y-59055000D01*
D30*
X213741000Y-109855000D02*
X213106000Y-110490000D01*
X106680000Y-28448000D02*
X105664000Y-29464000D01*
X215900000Y-64770000D02*
X213995000Y-66675000D01*
D29*
X174244000Y-112395000D02*
X174244000Y-89809000D01*
X279280300Y-71120000D02*
X279280300Y-71775000D01*
X191770000Y-51097500D02*
X191770000Y-41104500D01*
D32*
X134048500Y-124206000D02*
X145732500Y-124206000D01*
D29*
X211836000Y-102870000D02*
X210058000Y-102870000D01*
X253225300Y-85745000D02*
X253225300Y-107315000D01*
D30*
X253733300Y-109855000D02*
X253098300Y-110490000D01*
X109644500Y-29928500D02*
X114871500Y-24701500D01*
X177058000Y-64770000D02*
X175895000Y-64770000D01*
D29*
X133921500Y-67246500D02*
X133921500Y-71013000D01*
X133814500Y-46355000D02*
X133814500Y-42588500D01*
X214249000Y-89809000D02*
X217063000Y-86995000D01*
X172720000Y-82423000D02*
X175768000Y-79375000D01*
X200426000Y-76898500D02*
X200426000Y-73132000D01*
X126174500Y-60325000D02*
X126174500Y-37465000D01*
X200426000Y-27368500D02*
X199283000Y-28511500D01*
X97536000Y-68326000D02*
X97536000Y-33782000D01*
X295770300Y-120015000D02*
X295770300Y-95885000D01*
X129349500Y-99060000D02*
X129349500Y-74295000D01*
D30*
X99822000Y-31496000D02*
X101854000Y-31496000D01*
X253733300Y-50292000D02*
X250050300Y-53975000D01*
D29*
X231033000Y-91376500D02*
X232811000Y-89598500D01*
D30*
X102616000Y-33020000D02*
X100838000Y-33020000D01*
D29*
X217063000Y-81915000D02*
X213233000Y-85745000D01*
D30*
X105156000Y-28956000D02*
X105156000Y-29718000D01*
D29*
X255257300Y-45085000D02*
X254241300Y-46101000D01*
X250705300Y-33655000D02*
X250050300Y-33655000D01*
D32*
X45441113Y-112292887D02*
X45441113Y-108458000D01*
D31*
X107251500Y-116776500D02*
X107251500Y-124206000D01*
D29*
X255765300Y-79375000D02*
X257055300Y-79375000D01*
X108374500Y-90868500D02*
X108374500Y-73045000D01*
D30*
X255892300Y-64770000D02*
X253987300Y-66675000D01*
D29*
X118935500Y-119380000D02*
X118935500Y-124206000D01*
D32*
X297434000Y-124206000D02*
X300037500Y-124206000D01*
D29*
X199283000Y-28511500D02*
X199283000Y-47010000D01*
X212725000Y-82423000D02*
X215773000Y-79375000D01*
X253606300Y-113030000D02*
X254241300Y-112395000D01*
X199303000Y-102806500D02*
X199303000Y-120630000D01*
D30*
X295262300Y-93873000D02*
X295262300Y-117475000D01*
D29*
X279280300Y-78041500D02*
X279280300Y-96540000D01*
X279300300Y-71100000D02*
X279280300Y-71120000D01*
X280423300Y-76898500D02*
X280423300Y-73132000D01*
D30*
X297060300Y-84455000D02*
X293738300Y-87777000D01*
D29*
X108374500Y-73045000D02*
X108394500Y-73025000D01*
X320535300Y-97790000D02*
X320535300Y-101556500D01*
D30*
X104902000Y-27686000D02*
X104902000Y-23876000D01*
X105664000Y-29464000D02*
X105664000Y-29972000D01*
D32*
X43942000Y-117856000D02*
X43942000Y-113792000D01*
D29*
X145605500Y-119380000D02*
X145605500Y-124079000D01*
X177058000Y-45085000D02*
X175260000Y-45085000D01*
X215773000Y-79375000D02*
X217063000Y-79375000D01*
X191770000Y-41104500D02*
X192806000Y-40068500D01*
X252717300Y-41148000D02*
X250050300Y-43815000D01*
X293230300Y-41295000D02*
X293230300Y-45720000D01*
X240431000Y-27368500D02*
X239288000Y-28511500D01*
X200533000Y-48260000D02*
X200533000Y-52026500D01*
X212217000Y-81681000D02*
X212217000Y-102489000D01*
X280423300Y-76898500D02*
X279280300Y-78041500D01*
D30*
X140906500Y-23114000D02*
X140398500Y-22606000D01*
D29*
X175768000Y-79375000D02*
X177058000Y-79375000D01*
D30*
X190944500Y-62972000D02*
X190944500Y-24130000D01*
D29*
X116649500Y-93789500D02*
X116649500Y-102298500D01*
D30*
X274835300Y-110490000D02*
X274835300Y-85725000D01*
D29*
X59182000Y-87376000D02*
X59182000Y-124206000D01*
X280530300Y-97790000D02*
X280530300Y-101556500D01*
D30*
X109474000Y-25908000D02*
X106680000Y-25908000D01*
D29*
X319285300Y-28511500D02*
X319285300Y-47010000D01*
D32*
X45441113Y-100212790D02*
X45304323Y-100076000D01*
D29*
X252717300Y-82423000D02*
X255765300Y-79375000D01*
D30*
X213741000Y-50292000D02*
X210058000Y-53975000D01*
X194043300Y-22098000D02*
X141439900Y-22098000D01*
D29*
X320448300Y-101663500D02*
X319305300Y-102806500D01*
X108394500Y-47605000D02*
X107144500Y-46355000D01*
D30*
X101092000Y-33528000D02*
X100584000Y-34036000D01*
X141693900Y-21590000D02*
X141185900Y-21082000D01*
D29*
X280443300Y-101663500D02*
X279300300Y-102806500D01*
X143319500Y-102298500D02*
X141541500Y-104076500D01*
D32*
X130619500Y-119380000D02*
X132270500Y-119380000D01*
D29*
X254749300Y-91841000D02*
X257055300Y-89535000D01*
X170053000Y-115570000D02*
X174117000Y-115570000D01*
D30*
X102362000Y-32512000D02*
X100330000Y-32512000D01*
D29*
X239288000Y-71120000D02*
X239288000Y-71775000D01*
X107144500Y-46355000D02*
X107144500Y-42588500D01*
D32*
X105727500Y-124206000D02*
X98298000Y-124206000D01*
D29*
X133921500Y-116776500D02*
X133921500Y-124079000D01*
X133814500Y-92118500D02*
X133921500Y-92011500D01*
X279280300Y-47010000D02*
X280530300Y-48260000D01*
X128714500Y-57150000D02*
X127444500Y-55880000D01*
X250050300Y-120650000D02*
X255130300Y-120650000D01*
D30*
X111569500Y-37465000D02*
X111569500Y-62230000D01*
D29*
X173228000Y-107315000D02*
X172593000Y-107950000D01*
X318770000Y-121165300D02*
X318770000Y-124206000D01*
X108394500Y-66103500D02*
X108394500Y-47605000D01*
D30*
X316110300Y-106680000D02*
X316110300Y-81915000D01*
X217063000Y-84455000D02*
X213741000Y-87777000D01*
D29*
X290055300Y-113030000D02*
X293611300Y-113030000D01*
X319285300Y-96540000D02*
X320535300Y-97790000D01*
X215773000Y-95885000D02*
X215793000Y-95885000D01*
D32*
X109283500Y-124206000D02*
X107251500Y-124206000D01*
D29*
X217063000Y-76835000D02*
X212217000Y-81681000D01*
D30*
X276092600Y-32385000D02*
X276092600Y-21354100D01*
X105664000Y-29972000D02*
X102616000Y-33020000D01*
X100838000Y-33020000D02*
X100076000Y-33782000D01*
X103124000Y-33528000D02*
X101092000Y-33528000D01*
X141160500Y-22606000D02*
X140652500Y-22098000D01*
D29*
X107251500Y-67246500D02*
X108394500Y-66103500D01*
X199303000Y-71100000D02*
X199283000Y-71120000D01*
D30*
X234843000Y-22892700D02*
X234843000Y-36195000D01*
D29*
X280530300Y-101556500D02*
X280423300Y-101663500D01*
X126174500Y-86995000D02*
X126174500Y-111760000D01*
D30*
X276105300Y-57150000D02*
X276105300Y-32385000D01*
D31*
X304680300Y-49530000D02*
X300024800Y-49530000D01*
D30*
X175895000Y-64770000D02*
X173990000Y-66675000D01*
D29*
X239288000Y-124162500D02*
X239331500Y-124206000D01*
X254241300Y-112395000D02*
X254241300Y-89809000D01*
X294119300Y-115570000D02*
X294754300Y-114935000D01*
X319305300Y-71100000D02*
X319285300Y-71120000D01*
D30*
X126809500Y-109220000D02*
X126809500Y-84455000D01*
X314840300Y-60960000D02*
X314840300Y-36195000D01*
D29*
X240538000Y-97790000D02*
X240538000Y-101556500D01*
X107144500Y-92118500D02*
X107251500Y-92011500D01*
D30*
X136314500Y-29928500D02*
X141541500Y-24701500D01*
D29*
X116649500Y-102298500D02*
X114871500Y-104076500D01*
X54102000Y-80772000D02*
X59182000Y-85852000D01*
D30*
X253733300Y-45867000D02*
X253733300Y-50292000D01*
D29*
X279280300Y-124149800D02*
X279336500Y-124206000D01*
D30*
X139979400Y-23139400D02*
X141541500Y-24701500D01*
D29*
X214757000Y-91841000D02*
X217063000Y-89535000D01*
X214249000Y-46101000D02*
X214249000Y-54864000D01*
D30*
X104140000Y-29210000D02*
X104140000Y-28448000D01*
D29*
X293230300Y-85745000D02*
X293230300Y-107315000D01*
X292214300Y-102489000D02*
X291833300Y-102870000D01*
X254114300Y-115570000D02*
X254749300Y-114935000D01*
X135044500Y-90868500D02*
X135044500Y-73045000D01*
D30*
X116433600Y-23139400D02*
X139979400Y-23139400D01*
X293738300Y-50292000D02*
X290055300Y-53975000D01*
X257055300Y-92075000D02*
X255257300Y-93873000D01*
D29*
X175768000Y-120015000D02*
X175768000Y-95885000D01*
D30*
X294627300Y-118110000D02*
X290055300Y-118110000D01*
D29*
X98298000Y-99060000D02*
X102362000Y-94996000D01*
X250050300Y-113030000D02*
X253606300Y-113030000D01*
D32*
X158940500Y-119380000D02*
X157289500Y-119380000D01*
D29*
X127444500Y-55880000D02*
X127444500Y-32385000D01*
D30*
X110490000Y-22606000D02*
X112522000Y-20574000D01*
D29*
X320428300Y-27368500D02*
X319285300Y-28511500D01*
D30*
X106680000Y-25908000D02*
X105918000Y-26670000D01*
D32*
X59182000Y-124206000D02*
X43942000Y-124206000D01*
D30*
X194838000Y-22892700D02*
X194043300Y-22098000D01*
X110744000Y-23114000D02*
X106426000Y-23114000D01*
X195465700Y-22098000D02*
X194957700Y-21590000D01*
X104140000Y-28448000D02*
X104902000Y-27686000D01*
X315475300Y-59055000D02*
X315475300Y-34290000D01*
D29*
X290055300Y-120650000D02*
X295135300Y-120650000D01*
X240538000Y-101556500D02*
X240431000Y-101663500D01*
X212725000Y-36723000D02*
X212725000Y-41148000D01*
X271767300Y-51097500D02*
X271767300Y-41104500D01*
D30*
X190944500Y-24130000D02*
X189928500Y-23114000D01*
D29*
X257055300Y-76835000D02*
X252209300Y-81681000D01*
D32*
X297434000Y-124206000D02*
X318770000Y-124206000D01*
D29*
X319285300Y-71120000D02*
X319285300Y-71775000D01*
X128079500Y-62230000D02*
X126174500Y-60325000D01*
X210713000Y-33655000D02*
X210058000Y-33655000D01*
D30*
X189928500Y-23114000D02*
X140906500Y-23114000D01*
X255257300Y-117475000D02*
X254622300Y-118110000D01*
X213106000Y-110490000D02*
X210058000Y-110490000D01*
D31*
X300024800Y-49530000D02*
X300024800Y-27729500D01*
D29*
X102362000Y-68072000D02*
X99822000Y-65532000D01*
X210058000Y-120650000D02*
X215138000Y-120650000D01*
X294246300Y-54864000D02*
X290055300Y-59055000D01*
D30*
X173736000Y-87777000D02*
X173736000Y-109855000D01*
D29*
X320535300Y-48260000D02*
X320535300Y-52026500D01*
X294754300Y-91841000D02*
X297060300Y-89535000D01*
X170053000Y-113030000D02*
X173609000Y-113030000D01*
X320428300Y-76898500D02*
X320428300Y-73132000D01*
D30*
X193179700Y-22606000D02*
X141160500Y-22606000D01*
X295897300Y-64770000D02*
X293992300Y-66675000D01*
D31*
X177058000Y-74295000D02*
X180022500Y-74295000D01*
D29*
X215138000Y-120650000D02*
X215773000Y-120015000D01*
X108394500Y-115633500D02*
X108394500Y-97135000D01*
D32*
X98298000Y-124206000D02*
X86868000Y-124206000D01*
D29*
X294246300Y-89809000D02*
X297060300Y-86995000D01*
D30*
X257055300Y-84455000D02*
X253733300Y-87777000D01*
D29*
X255765300Y-120015000D02*
X255765300Y-95885000D01*
X312808300Y-52133500D02*
X311772300Y-51097500D01*
D30*
X274822600Y-22892700D02*
X274822600Y-36195000D01*
D29*
X312808300Y-101663500D02*
X311030300Y-99885500D01*
D30*
X155384500Y-76835000D02*
X155384500Y-101600000D01*
X153479500Y-109220000D02*
X153479500Y-84455000D01*
D29*
X255765300Y-95885000D02*
X255785300Y-95885000D01*
X174244000Y-46101000D02*
X174244000Y-54864000D01*
D32*
X220154500Y-124206000D02*
X239331500Y-124206000D01*
D29*
X240451000Y-101663500D02*
X239308000Y-102806500D01*
X97536000Y-33782000D02*
X98298000Y-33020000D01*
X295135300Y-120650000D02*
X295770300Y-120015000D01*
X292722300Y-36723000D02*
X292722300Y-41148000D01*
D31*
X263067800Y-97790000D02*
X263067800Y-99060000D01*
D29*
X213614000Y-113030000D02*
X214249000Y-112395000D01*
X239308000Y-102806500D02*
X239308000Y-120630000D01*
X114871500Y-92011500D02*
X116649500Y-93789500D01*
D31*
X136588500Y-119507000D02*
X136568500Y-119487000D01*
D30*
X140931900Y-21590000D02*
X113792000Y-21590000D01*
X105156000Y-29718000D02*
X102362000Y-32512000D01*
D29*
X108394500Y-72370000D02*
X107144500Y-71120000D01*
X279300300Y-120630000D02*
X279280300Y-120650000D01*
X239288000Y-120650000D02*
X239288000Y-124162500D01*
X68834000Y-98573000D02*
X71141000Y-98573000D01*
D30*
X100076000Y-32004000D02*
X99314000Y-32766000D01*
D29*
X217063000Y-27305000D02*
X210713000Y-33655000D01*
D30*
X115062000Y-22606000D02*
X109220000Y-28448000D01*
D29*
X108394500Y-97135000D02*
X107144500Y-95885000D01*
D30*
X154749500Y-104140000D02*
X154749500Y-79375000D01*
D29*
X239288000Y-78041500D02*
X239288000Y-96540000D01*
X292214300Y-81681000D02*
X292214300Y-102489000D01*
D31*
X136568500Y-119487000D02*
X136568500Y-95504000D01*
D30*
X276092600Y-21354100D02*
X276110700Y-21336000D01*
X140398500Y-22606000D02*
X115062000Y-22606000D01*
D29*
X280443300Y-52133500D02*
X279300300Y-53276500D01*
D30*
X173672500Y-50355500D02*
X170053000Y-53975000D01*
D29*
X177058000Y-81915000D02*
X173228000Y-85745000D01*
D30*
X100584000Y-34036000D02*
X100584000Y-34798000D01*
D29*
X255785300Y-95885000D02*
X257055300Y-94615000D01*
X217063000Y-45085000D02*
X215265000Y-45085000D01*
X250050300Y-105410000D02*
X252336300Y-105410000D01*
X297060300Y-32385000D02*
X292722300Y-36723000D01*
X151574500Y-92075000D02*
X151574500Y-116840000D01*
D30*
X297060300Y-64770000D02*
X295897300Y-64770000D01*
D29*
X295790300Y-95885000D02*
X297060300Y-94615000D01*
X253225300Y-41295000D02*
X253225300Y-45720000D01*
X107251500Y-71013000D02*
X107144500Y-71120000D01*
D30*
X254622300Y-118110000D02*
X250050300Y-118110000D01*
X192806000Y-64833500D02*
X190944500Y-62972000D01*
D29*
X175260000Y-45085000D02*
X174244000Y-46101000D01*
X320535300Y-52026500D02*
X320428300Y-52133500D01*
D30*
X177058000Y-92075000D02*
X175260000Y-93873000D01*
X295262300Y-117475000D02*
X294627300Y-118110000D01*
D29*
X107251500Y-67246500D02*
X107251500Y-71013000D01*
D31*
X300024800Y-27729500D02*
X297060300Y-24765000D01*
D32*
X159067500Y-124206000D02*
X160972500Y-124206000D01*
D29*
X199283000Y-47010000D02*
X200533000Y-48260000D01*
X254749300Y-114935000D02*
X254749300Y-91841000D01*
X200533000Y-52026500D02*
X200426000Y-52133500D01*
D30*
X314827600Y-22867300D02*
X314827600Y-36169600D01*
D29*
X254241300Y-89809000D02*
X257055300Y-86995000D01*
X172720000Y-41148000D02*
X170053000Y-43815000D01*
D30*
X213741000Y-87777000D02*
X213741000Y-109855000D01*
X195872100Y-21082000D02*
X196126100Y-21336000D01*
D31*
X300024800Y-124193300D02*
X300037500Y-124206000D01*
D29*
X133814500Y-116883500D02*
X133921500Y-116776500D01*
X141541500Y-92011500D02*
X143319500Y-93789500D01*
X210058000Y-105410000D02*
X212344000Y-105410000D01*
X102362000Y-65532000D02*
X99822000Y-62992000D01*
X212725000Y-41148000D02*
X210058000Y-43815000D01*
X254241300Y-46101000D02*
X254241300Y-54864000D01*
X174752000Y-114935000D02*
X174752000Y-91841000D01*
X133921500Y-124079000D02*
X134048500Y-124206000D01*
D30*
X293103300Y-110490000D02*
X290055300Y-110490000D01*
X152209500Y-64770000D02*
X152209500Y-40005000D01*
X155384500Y-27305000D02*
X155384500Y-52070000D01*
X105410000Y-27940000D02*
X104648000Y-28702000D01*
D29*
X133921500Y-71013000D02*
X133814500Y-71120000D01*
D30*
X236113000Y-21354100D02*
X236131100Y-21336000D01*
X194957700Y-21590000D02*
X141693900Y-21590000D01*
D31*
X220027500Y-124079000D02*
X220154500Y-124206000D01*
D29*
X107144500Y-95885000D02*
X107144500Y-92118500D01*
X297060300Y-45085000D02*
X295262300Y-45085000D01*
X280530300Y-52026500D02*
X280423300Y-52133500D01*
D30*
X253098300Y-110490000D02*
X250050300Y-110490000D01*
X106172000Y-22606000D02*
X110490000Y-22606000D01*
D29*
X215793000Y-95885000D02*
X217063000Y-94615000D01*
X217063000Y-37465000D02*
X213233000Y-41295000D01*
X91927000Y-98573000D02*
X89916000Y-100584000D01*
D30*
X64516000Y-43434000D02*
X64516000Y-58674000D01*
X104648000Y-28702000D02*
X104648000Y-29464000D01*
D32*
X145732500Y-124206000D02*
X159067500Y-124206000D01*
D29*
X255130300Y-120650000D02*
X255765300Y-120015000D01*
X172720000Y-105029000D02*
X172720000Y-82423000D01*
X177058000Y-76835000D02*
X172212000Y-81681000D01*
D30*
X196108000Y-21354100D02*
X196126100Y-21336000D01*
D29*
X156019500Y-49530000D02*
X156019500Y-24765000D01*
X295770300Y-95885000D02*
X295790300Y-95885000D01*
X297060300Y-37465000D02*
X293230300Y-41295000D01*
X156019500Y-99060000D02*
X156019500Y-74295000D01*
D32*
X157289500Y-69850000D02*
X158940500Y-69850000D01*
D29*
X135064500Y-47605000D02*
X133814500Y-46355000D01*
X210058000Y-115570000D02*
X214122000Y-115570000D01*
X192806000Y-52133500D02*
X191770000Y-51097500D01*
D32*
X199453500Y-124206000D02*
X220154500Y-124206000D01*
D29*
X279280300Y-120650000D02*
X279280300Y-124149800D01*
X154114500Y-81915000D02*
X154114500Y-106680000D01*
X297060300Y-27305000D02*
X290710300Y-33655000D01*
X175788000Y-95885000D02*
X177058000Y-94615000D01*
D30*
X213741000Y-45867000D02*
X213741000Y-50292000D01*
X293738300Y-109855000D02*
X293103300Y-110490000D01*
D29*
X99822000Y-34036000D02*
X100076000Y-33782000D01*
X199283000Y-120650000D02*
X199283000Y-124035500D01*
X253225300Y-107315000D02*
X252590300Y-107950000D01*
X114871500Y-42481500D02*
X116649500Y-44259500D01*
X279300300Y-53276500D02*
X279300300Y-71100000D01*
X98298000Y-118110000D02*
X98298000Y-99060000D01*
D30*
X255257300Y-93873000D02*
X255257300Y-117475000D01*
D29*
X291833300Y-102870000D02*
X290055300Y-102870000D01*
X293230300Y-107315000D02*
X292595300Y-107950000D01*
X173228000Y-85745000D02*
X173228000Y-107315000D01*
D30*
X106426000Y-23114000D02*
X105410000Y-24130000D01*
X235478000Y-22105300D02*
X235470700Y-22098000D01*
D29*
X290055300Y-115570000D02*
X294119300Y-115570000D01*
X293611300Y-113030000D02*
X294246300Y-112395000D01*
D31*
X220027500Y-27729500D02*
X217063000Y-24765000D01*
D29*
X311772300Y-41104500D02*
X312808300Y-40068500D01*
X252336300Y-105410000D02*
X252717300Y-105029000D01*
X250050300Y-115570000D02*
X254114300Y-115570000D01*
D30*
X215265000Y-117475000D02*
X214630000Y-118110000D01*
D29*
X271025300Y-99885500D02*
X271025300Y-91376500D01*
D30*
X54356000Y-33274000D02*
X64516000Y-43434000D01*
D29*
X212725000Y-105029000D02*
X212725000Y-82423000D01*
X102362000Y-73152000D02*
X97536000Y-68326000D01*
X252717300Y-36723000D02*
X252717300Y-41148000D01*
X239308000Y-120630000D02*
X239288000Y-120650000D01*
X151574500Y-42545000D02*
X151574500Y-67310000D01*
X257055300Y-27305000D02*
X250705300Y-33655000D01*
X213233000Y-45720000D02*
X210058000Y-48895000D01*
D30*
X293738300Y-45867000D02*
X293738300Y-50292000D01*
D29*
X231775000Y-51097500D02*
X231775000Y-41104500D01*
D30*
X126809500Y-57150000D02*
X126809500Y-34925000D01*
D29*
X252717300Y-105029000D02*
X252717300Y-82423000D01*
X102362000Y-62992000D02*
X100584000Y-61214000D01*
X152844500Y-37465000D02*
X152844500Y-62230000D01*
M02*
