%TF.GenerationSoftware,KiCad,Pcbnew,(7.0.0)*%
%TF.CreationDate,2023-03-13T22:40:24-04:00*%
%TF.ProjectId,luminator,6c756d69-6e61-4746-9f72-2e6b69636164,rev?*%
%TF.SameCoordinates,Original*%
%TF.FileFunction,Copper,L3,Inr*%
%TF.FilePolarity,Positive*%
%FSLAX46Y46*%
G04 Gerber Fmt 4.6, Leading zero omitted, Abs format (unit mm)*
G04 Created by KiCad (PCBNEW (7.0.0)) date 2023-03-13 22:40:24*
%MOMM*%
%LPD*%
G01*
G04 APERTURE LIST*
%TA.AperFunction,ComponentPad*%
%ADD10C,1.600000*%
%TD*%
%TA.AperFunction,ComponentPad*%
%ADD11R,1.295400X1.295400*%
%TD*%
%TA.AperFunction,ComponentPad*%
%ADD12C,1.295400*%
%TD*%
%TA.AperFunction,ComponentPad*%
%ADD13R,1.227074X1.227074*%
%TD*%
%TA.AperFunction,ComponentPad*%
%ADD14C,1.227074*%
%TD*%
%TA.AperFunction,ComponentPad*%
%ADD15R,1.600000X1.600000*%
%TD*%
%TA.AperFunction,ComponentPad*%
%ADD16C,1.200000*%
%TD*%
%TA.AperFunction,ComponentPad*%
%ADD17C,1.498600*%
%TD*%
%TA.AperFunction,ComponentPad*%
%ADD18C,1.524000*%
%TD*%
%TA.AperFunction,ComponentPad*%
%ADD19R,2.000000X2.000000*%
%TD*%
%TA.AperFunction,ComponentPad*%
%ADD20C,2.000000*%
%TD*%
%TA.AperFunction,ComponentPad*%
%ADD21R,1.508000X1.508000*%
%TD*%
%TA.AperFunction,ComponentPad*%
%ADD22C,1.508000*%
%TD*%
%TA.AperFunction,ComponentPad*%
%ADD23C,1.803400*%
%TD*%
%TA.AperFunction,ComponentPad*%
%ADD24O,1.727200X1.727200*%
%TD*%
%TA.AperFunction,ComponentPad*%
%ADD25R,1.727200X1.727200*%
%TD*%
%TA.AperFunction,ViaPad*%
%ADD26C,0.800000*%
%TD*%
%TA.AperFunction,ViaPad*%
%ADD27C,1.000000*%
%TD*%
%TA.AperFunction,ViaPad*%
%ADD28C,0.500000*%
%TD*%
%TA.AperFunction,Conductor*%
%ADD29C,0.400000*%
%TD*%
%TA.AperFunction,Conductor*%
%ADD30C,0.250000*%
%TD*%
%TA.AperFunction,Conductor*%
%ADD31C,0.200000*%
%TD*%
G04 APERTURE END LIST*
D10*
X240538000Y-98806000D03*
X238038000Y-98806000D03*
D11*
X133921499Y-74231499D03*
D12*
X133921500Y-76771500D03*
X133921500Y-79311500D03*
X133921500Y-81851500D03*
X133921500Y-84391500D03*
X133921500Y-86931500D03*
X133921500Y-89471500D03*
X133921500Y-92011500D03*
X141541500Y-92011500D03*
X141541500Y-89471500D03*
X141541500Y-86931500D03*
X141541500Y-84391500D03*
X141541500Y-81851500D03*
X141541500Y-79311500D03*
X141541500Y-76771500D03*
X141541500Y-74231500D03*
D13*
X224682999Y-45084999D03*
D14*
X224683000Y-42545000D03*
X224683000Y-40005000D03*
X224683000Y-37465000D03*
X224683000Y-34925000D03*
X224683000Y-32385000D03*
X224683000Y-29845000D03*
X224683000Y-27305000D03*
X224683000Y-24765000D03*
X217063000Y-24765000D03*
X217063000Y-27305000D03*
X217063000Y-29845000D03*
X217063000Y-32385000D03*
X217063000Y-34925000D03*
X217063000Y-37465000D03*
X217063000Y-40005000D03*
X217063000Y-42545000D03*
X217063000Y-45085000D03*
D11*
X320428299Y-119443499D03*
D12*
X320428300Y-116903500D03*
X320428300Y-114363500D03*
X320428300Y-111823500D03*
X320428300Y-109283500D03*
X320428300Y-106743500D03*
X320428300Y-104203500D03*
X320428300Y-101663500D03*
X312808300Y-101663500D03*
X312808300Y-104203500D03*
X312808300Y-106743500D03*
X312808300Y-109283500D03*
X312808300Y-111823500D03*
X312808300Y-114363500D03*
X312808300Y-116903500D03*
X312808300Y-119443500D03*
D10*
X200533000Y-73406000D03*
X198033000Y-73406000D03*
D15*
X47941112Y-108457999D03*
D10*
X45441113Y-108458000D03*
X240538000Y-73406000D03*
X238038000Y-73406000D03*
D13*
X224682999Y-119379999D03*
D14*
X224683000Y-116840000D03*
X224683000Y-114300000D03*
X224683000Y-111760000D03*
X224683000Y-109220000D03*
X224683000Y-106680000D03*
X224683000Y-104140000D03*
X224683000Y-101600000D03*
X224683000Y-99060000D03*
X217063000Y-99060000D03*
X217063000Y-101600000D03*
X217063000Y-104140000D03*
X217063000Y-106680000D03*
X217063000Y-109220000D03*
X217063000Y-111760000D03*
X217063000Y-114300000D03*
X217063000Y-116840000D03*
X217063000Y-119380000D03*
D16*
X228747000Y-99060000D03*
X228747000Y-101600000D03*
X228747000Y-104140000D03*
X228747000Y-106680000D03*
X228747000Y-109220000D03*
X228747000Y-111760000D03*
X228747000Y-114300000D03*
X228747000Y-116840000D03*
X228747000Y-119380000D03*
D17*
X290055300Y-120650000D03*
X287515300Y-120650000D03*
X290055300Y-118110000D03*
X287515300Y-118110000D03*
X290055300Y-115570000D03*
X287515300Y-115570000D03*
X290055300Y-113030000D03*
X287515300Y-113030000D03*
X290055300Y-110490000D03*
X287515300Y-110490000D03*
X290055300Y-107950000D03*
X287515300Y-107950000D03*
X290055300Y-105410000D03*
X287515300Y-105410000D03*
X290055300Y-102870000D03*
X287515300Y-102870000D03*
X290055300Y-100330000D03*
X287515300Y-100330000D03*
X290055300Y-97790000D03*
X287515300Y-97790000D03*
D10*
X107144500Y-70612000D03*
X109644500Y-70612000D03*
D16*
X118935500Y-119380000D03*
X118935500Y-116840000D03*
X118935500Y-114300000D03*
X118935500Y-111760000D03*
X118935500Y-109220000D03*
X118935500Y-106680000D03*
X118935500Y-104140000D03*
X118935500Y-101600000D03*
X118935500Y-99060000D03*
D18*
X250050300Y-86995000D03*
X247510300Y-86995000D03*
X250050300Y-84455000D03*
X247510300Y-84455000D03*
X250050300Y-81915000D03*
X247510300Y-81915000D03*
X250050300Y-79375000D03*
X247510300Y-79375000D03*
X250050300Y-76835000D03*
X247510300Y-76835000D03*
X250050300Y-74295000D03*
X247510300Y-74295000D03*
X250050300Y-71755000D03*
X247510300Y-71755000D03*
X250050300Y-69215000D03*
X247510300Y-69215000D03*
X250050300Y-66675000D03*
X247510300Y-66675000D03*
X250050300Y-64135000D03*
X247510300Y-64135000D03*
X250050300Y-61595000D03*
X247510300Y-61595000D03*
X250050300Y-59055000D03*
X247510300Y-59055000D03*
X250050300Y-56515000D03*
X247510300Y-56515000D03*
X250050300Y-53975000D03*
X247510300Y-53975000D03*
X250050300Y-51435000D03*
X247510300Y-51435000D03*
X250050300Y-48895000D03*
X247510300Y-48895000D03*
X250050300Y-46355000D03*
X247510300Y-46355000D03*
X250050300Y-43815000D03*
X247510300Y-43815000D03*
X250050300Y-41275000D03*
X247510300Y-41275000D03*
X250050300Y-38735000D03*
X247510300Y-38735000D03*
X250050300Y-36195000D03*
X247510300Y-36195000D03*
X250050300Y-33655000D03*
X247510300Y-33655000D03*
X250050300Y-31115000D03*
X247510300Y-31115000D03*
X250050300Y-28575000D03*
X247510300Y-28575000D03*
X250050300Y-26035000D03*
X247510300Y-26035000D03*
D17*
X210058000Y-120650000D03*
X207518000Y-120650000D03*
X210058000Y-118110000D03*
X207518000Y-118110000D03*
X210058000Y-115570000D03*
X207518000Y-115570000D03*
X210058000Y-113030000D03*
X207518000Y-113030000D03*
X210058000Y-110490000D03*
X207518000Y-110490000D03*
X210058000Y-107950000D03*
X207518000Y-107950000D03*
X210058000Y-105410000D03*
X207518000Y-105410000D03*
X210058000Y-102870000D03*
X207518000Y-102870000D03*
X210058000Y-100330000D03*
X207518000Y-100330000D03*
X210058000Y-97790000D03*
X207518000Y-97790000D03*
D11*
X200425999Y-45148499D03*
D12*
X200426000Y-42608500D03*
X200426000Y-40068500D03*
X200426000Y-37528500D03*
X200426000Y-34988500D03*
X200426000Y-32448500D03*
X200426000Y-29908500D03*
X200426000Y-27368500D03*
X192806000Y-27368500D03*
X192806000Y-29908500D03*
X192806000Y-32448500D03*
X192806000Y-34988500D03*
X192806000Y-37528500D03*
X192806000Y-40068500D03*
X192806000Y-42608500D03*
X192806000Y-45148500D03*
D11*
X280423299Y-119443499D03*
D12*
X280423300Y-116903500D03*
X280423300Y-114363500D03*
X280423300Y-111823500D03*
X280423300Y-109283500D03*
X280423300Y-106743500D03*
X280423300Y-104203500D03*
X280423300Y-101663500D03*
X272803300Y-101663500D03*
X272803300Y-104203500D03*
X272803300Y-106743500D03*
X272803300Y-109283500D03*
X272803300Y-111823500D03*
X272803300Y-114363500D03*
X272803300Y-116903500D03*
X272803300Y-119443500D03*
D16*
X268739300Y-24765000D03*
X268739300Y-27305000D03*
X268739300Y-29845000D03*
X268739300Y-32385000D03*
X268739300Y-34925000D03*
X268739300Y-37465000D03*
X268739300Y-40005000D03*
X268739300Y-42545000D03*
X268739300Y-45085000D03*
D10*
X133814500Y-45974000D03*
X136314500Y-45974000D03*
D11*
X280423299Y-45148499D03*
D12*
X280423300Y-42608500D03*
X280423300Y-40068500D03*
X280423300Y-37528500D03*
X280423300Y-34988500D03*
X280423300Y-32448500D03*
X280423300Y-29908500D03*
X280423300Y-27368500D03*
X272803300Y-27368500D03*
X272803300Y-29908500D03*
X272803300Y-32448500D03*
X272803300Y-34988500D03*
X272803300Y-37528500D03*
X272803300Y-40068500D03*
X272803300Y-42608500D03*
X272803300Y-45148500D03*
D10*
X240538000Y-48514000D03*
X238038000Y-48514000D03*
D13*
X122999499Y-74294999D03*
D14*
X122999500Y-76835000D03*
X122999500Y-79375000D03*
X122999500Y-81915000D03*
X122999500Y-84455000D03*
X122999500Y-86995000D03*
X122999500Y-89535000D03*
X122999500Y-92075000D03*
X122999500Y-94615000D03*
X130619500Y-94615000D03*
X130619500Y-92075000D03*
X130619500Y-89535000D03*
X130619500Y-86995000D03*
X130619500Y-84455000D03*
X130619500Y-81915000D03*
X130619500Y-79375000D03*
X130619500Y-76835000D03*
X130619500Y-74295000D03*
D13*
X304680299Y-119379999D03*
D14*
X304680300Y-116840000D03*
X304680300Y-114300000D03*
X304680300Y-111760000D03*
X304680300Y-109220000D03*
X304680300Y-106680000D03*
X304680300Y-104140000D03*
X304680300Y-101600000D03*
X304680300Y-99060000D03*
X297060300Y-99060000D03*
X297060300Y-101600000D03*
X297060300Y-104140000D03*
X297060300Y-106680000D03*
X297060300Y-109220000D03*
X297060300Y-111760000D03*
X297060300Y-114300000D03*
X297060300Y-116840000D03*
X297060300Y-119380000D03*
D13*
X304680299Y-69849999D03*
D14*
X304680300Y-67310000D03*
X304680300Y-64770000D03*
X304680300Y-62230000D03*
X304680300Y-59690000D03*
X304680300Y-57150000D03*
X304680300Y-54610000D03*
X304680300Y-52070000D03*
X304680300Y-49530000D03*
X297060300Y-49530000D03*
X297060300Y-52070000D03*
X297060300Y-54610000D03*
X297060300Y-57150000D03*
X297060300Y-59690000D03*
X297060300Y-62230000D03*
X297060300Y-64770000D03*
X297060300Y-67310000D03*
X297060300Y-69850000D03*
D10*
X200533000Y-98806000D03*
X198033000Y-98806000D03*
D17*
X250050300Y-120650000D03*
X247510300Y-120650000D03*
X250050300Y-118110000D03*
X247510300Y-118110000D03*
X250050300Y-115570000D03*
X247510300Y-115570000D03*
X250050300Y-113030000D03*
X247510300Y-113030000D03*
X250050300Y-110490000D03*
X247510300Y-110490000D03*
X250050300Y-107950000D03*
X247510300Y-107950000D03*
X250050300Y-105410000D03*
X247510300Y-105410000D03*
X250050300Y-102870000D03*
X247510300Y-102870000D03*
X250050300Y-100330000D03*
X247510300Y-100330000D03*
X250050300Y-97790000D03*
X247510300Y-97790000D03*
D10*
X280530300Y-73406000D03*
X278030300Y-73406000D03*
D11*
X240430999Y-69913499D03*
D12*
X240431000Y-67373500D03*
X240431000Y-64833500D03*
X240431000Y-62293500D03*
X240431000Y-59753500D03*
X240431000Y-57213500D03*
X240431000Y-54673500D03*
X240431000Y-52133500D03*
X232811000Y-52133500D03*
X232811000Y-54673500D03*
X232811000Y-57213500D03*
X232811000Y-59753500D03*
X232811000Y-62293500D03*
X232811000Y-64833500D03*
X232811000Y-67373500D03*
X232811000Y-69913500D03*
D16*
X268739300Y-99060000D03*
X268739300Y-101600000D03*
X268739300Y-104140000D03*
X268739300Y-106680000D03*
X268739300Y-109220000D03*
X268739300Y-111760000D03*
X268739300Y-114300000D03*
X268739300Y-116840000D03*
X268739300Y-119380000D03*
X308744300Y-49530000D03*
X308744300Y-52070000D03*
X308744300Y-54610000D03*
X308744300Y-57150000D03*
X308744300Y-59690000D03*
X308744300Y-62230000D03*
X308744300Y-64770000D03*
X308744300Y-67310000D03*
X308744300Y-69850000D03*
D13*
X149669499Y-49529999D03*
D14*
X149669500Y-52070000D03*
X149669500Y-54610000D03*
X149669500Y-57150000D03*
X149669500Y-59690000D03*
X149669500Y-62230000D03*
X149669500Y-64770000D03*
X149669500Y-67310000D03*
X149669500Y-69850000D03*
X157289500Y-69850000D03*
X157289500Y-67310000D03*
X157289500Y-64770000D03*
X157289500Y-62230000D03*
X157289500Y-59690000D03*
X157289500Y-57150000D03*
X157289500Y-54610000D03*
X157289500Y-52070000D03*
X157289500Y-49530000D03*
D11*
X107251499Y-98996499D03*
D12*
X107251500Y-101536500D03*
X107251500Y-104076500D03*
X107251500Y-106616500D03*
X107251500Y-109156500D03*
X107251500Y-111696500D03*
X107251500Y-114236500D03*
X107251500Y-116776500D03*
X114871500Y-116776500D03*
X114871500Y-114236500D03*
X114871500Y-111696500D03*
X114871500Y-109156500D03*
X114871500Y-106616500D03*
X114871500Y-104076500D03*
X114871500Y-101536500D03*
X114871500Y-98996500D03*
D11*
X200425999Y-69913499D03*
D12*
X200426000Y-67373500D03*
X200426000Y-64833500D03*
X200426000Y-62293500D03*
X200426000Y-59753500D03*
X200426000Y-57213500D03*
X200426000Y-54673500D03*
X200426000Y-52133500D03*
X192806000Y-52133500D03*
X192806000Y-54673500D03*
X192806000Y-57213500D03*
X192806000Y-59753500D03*
X192806000Y-62293500D03*
X192806000Y-64833500D03*
X192806000Y-67373500D03*
X192806000Y-69913500D03*
D19*
X94233999Y-101112999D03*
D20*
X94234000Y-98573000D03*
X94234000Y-96033000D03*
X94234000Y-93493000D03*
X94234000Y-90953000D03*
X94234000Y-88413000D03*
X94234000Y-85873000D03*
X94234000Y-83333000D03*
X94234000Y-80793000D03*
X94234000Y-78253000D03*
X94234000Y-75713000D03*
X94234000Y-73173000D03*
X94234000Y-70633000D03*
X94234000Y-68093000D03*
X94234000Y-65553000D03*
X68834000Y-65553000D03*
X68834000Y-68093000D03*
X68834000Y-70633000D03*
X68834000Y-73173000D03*
X68834000Y-75713000D03*
X68834000Y-78253000D03*
X68834000Y-80793000D03*
X68834000Y-83333000D03*
X68834000Y-85873000D03*
X68834000Y-88413000D03*
X68834000Y-90953000D03*
X68834000Y-93493000D03*
X68834000Y-96033000D03*
X68834000Y-98573000D03*
X68834000Y-101113000D03*
D13*
X122999499Y-49529999D03*
D14*
X122999500Y-52070000D03*
X122999500Y-54610000D03*
X122999500Y-57150000D03*
X122999500Y-59690000D03*
X122999500Y-62230000D03*
X122999500Y-64770000D03*
X122999500Y-67310000D03*
X122999500Y-69850000D03*
X130619500Y-69850000D03*
X130619500Y-67310000D03*
X130619500Y-64770000D03*
X130619500Y-62230000D03*
X130619500Y-59690000D03*
X130619500Y-57150000D03*
X130619500Y-54610000D03*
X130619500Y-52070000D03*
X130619500Y-49530000D03*
D11*
X240430999Y-45148499D03*
D12*
X240431000Y-42608500D03*
X240431000Y-40068500D03*
X240431000Y-37528500D03*
X240431000Y-34988500D03*
X240431000Y-32448500D03*
X240431000Y-29908500D03*
X240431000Y-27368500D03*
X232811000Y-27368500D03*
X232811000Y-29908500D03*
X232811000Y-32448500D03*
X232811000Y-34988500D03*
X232811000Y-37528500D03*
X232811000Y-40068500D03*
X232811000Y-42608500D03*
X232811000Y-45148500D03*
D11*
X133921499Y-24701499D03*
D12*
X133921500Y-27241500D03*
X133921500Y-29781500D03*
X133921500Y-32321500D03*
X133921500Y-34861500D03*
X133921500Y-37401500D03*
X133921500Y-39941500D03*
X133921500Y-42481500D03*
X141541500Y-42481500D03*
X141541500Y-39941500D03*
X141541500Y-37401500D03*
X141541500Y-34861500D03*
X141541500Y-32321500D03*
X141541500Y-29781500D03*
X141541500Y-27241500D03*
X141541500Y-24701500D03*
D16*
X188742000Y-99060000D03*
X188742000Y-101600000D03*
X188742000Y-104140000D03*
X188742000Y-106680000D03*
X188742000Y-109220000D03*
X188742000Y-111760000D03*
X188742000Y-114300000D03*
X188742000Y-116840000D03*
X188742000Y-119380000D03*
X188742000Y-74295000D03*
X188742000Y-76835000D03*
X188742000Y-79375000D03*
X188742000Y-81915000D03*
X188742000Y-84455000D03*
X188742000Y-86995000D03*
X188742000Y-89535000D03*
X188742000Y-92075000D03*
X188742000Y-94615000D03*
X145605500Y-45085000D03*
X145605500Y-42545000D03*
X145605500Y-40005000D03*
X145605500Y-37465000D03*
X145605500Y-34925000D03*
X145605500Y-32385000D03*
X145605500Y-29845000D03*
X145605500Y-27305000D03*
X145605500Y-24765000D03*
X145605500Y-119380000D03*
X145605500Y-116840000D03*
X145605500Y-114300000D03*
X145605500Y-111760000D03*
X145605500Y-109220000D03*
X145605500Y-106680000D03*
X145605500Y-104140000D03*
X145605500Y-101600000D03*
X145605500Y-99060000D03*
D10*
X320535300Y-98806000D03*
X318035300Y-98806000D03*
D16*
X228747000Y-24765000D03*
X228747000Y-27305000D03*
X228747000Y-29845000D03*
X228747000Y-32385000D03*
X228747000Y-34925000D03*
X228747000Y-37465000D03*
X228747000Y-40005000D03*
X228747000Y-42545000D03*
X228747000Y-45085000D03*
D13*
X149669499Y-24764999D03*
D14*
X149669500Y-27305000D03*
X149669500Y-29845000D03*
X149669500Y-32385000D03*
X149669500Y-34925000D03*
X149669500Y-37465000D03*
X149669500Y-40005000D03*
X149669500Y-42545000D03*
X149669500Y-45085000D03*
X157289500Y-45085000D03*
X157289500Y-42545000D03*
X157289500Y-40005000D03*
X157289500Y-37465000D03*
X157289500Y-34925000D03*
X157289500Y-32385000D03*
X157289500Y-29845000D03*
X157289500Y-27305000D03*
X157289500Y-24765000D03*
D13*
X264675299Y-69849999D03*
D14*
X264675300Y-67310000D03*
X264675300Y-64770000D03*
X264675300Y-62230000D03*
X264675300Y-59690000D03*
X264675300Y-57150000D03*
X264675300Y-54610000D03*
X264675300Y-52070000D03*
X264675300Y-49530000D03*
X257055300Y-49530000D03*
X257055300Y-52070000D03*
X257055300Y-54610000D03*
X257055300Y-57150000D03*
X257055300Y-59690000D03*
X257055300Y-62230000D03*
X257055300Y-64770000D03*
X257055300Y-67310000D03*
X257055300Y-69850000D03*
D13*
X184677999Y-94614999D03*
D14*
X184678000Y-92075000D03*
X184678000Y-89535000D03*
X184678000Y-86995000D03*
X184678000Y-84455000D03*
X184678000Y-81915000D03*
X184678000Y-79375000D03*
X184678000Y-76835000D03*
X184678000Y-74295000D03*
X177058000Y-74295000D03*
X177058000Y-76835000D03*
X177058000Y-79375000D03*
X177058000Y-81915000D03*
X177058000Y-84455000D03*
X177058000Y-86995000D03*
X177058000Y-89535000D03*
X177058000Y-92075000D03*
X177058000Y-94615000D03*
D10*
X134068500Y-70866000D03*
X136568500Y-70866000D03*
D11*
X240430999Y-119443499D03*
D12*
X240431000Y-116903500D03*
X240431000Y-114363500D03*
X240431000Y-111823500D03*
X240431000Y-109283500D03*
X240431000Y-106743500D03*
X240431000Y-104203500D03*
X240431000Y-101663500D03*
X232811000Y-101663500D03*
X232811000Y-104203500D03*
X232811000Y-106743500D03*
X232811000Y-109283500D03*
X232811000Y-111823500D03*
X232811000Y-114363500D03*
X232811000Y-116903500D03*
X232811000Y-119443500D03*
D13*
X149669499Y-99059999D03*
D14*
X149669500Y-101600000D03*
X149669500Y-104140000D03*
X149669500Y-106680000D03*
X149669500Y-109220000D03*
X149669500Y-111760000D03*
X149669500Y-114300000D03*
X149669500Y-116840000D03*
X149669500Y-119380000D03*
X157289500Y-119380000D03*
X157289500Y-116840000D03*
X157289500Y-114300000D03*
X157289500Y-111760000D03*
X157289500Y-109220000D03*
X157289500Y-106680000D03*
X157289500Y-104140000D03*
X157289500Y-101600000D03*
X157289500Y-99060000D03*
D18*
X210058000Y-86995000D03*
X207518000Y-86995000D03*
X210058000Y-84455000D03*
X207518000Y-84455000D03*
X210058000Y-81915000D03*
X207518000Y-81915000D03*
X210058000Y-79375000D03*
X207518000Y-79375000D03*
X210058000Y-76835000D03*
X207518000Y-76835000D03*
X210058000Y-74295000D03*
X207518000Y-74295000D03*
X210058000Y-71755000D03*
X207518000Y-71755000D03*
X210058000Y-69215000D03*
X207518000Y-69215000D03*
X210058000Y-66675000D03*
X207518000Y-66675000D03*
X210058000Y-64135000D03*
X207518000Y-64135000D03*
X210058000Y-61595000D03*
X207518000Y-61595000D03*
X210058000Y-59055000D03*
X207518000Y-59055000D03*
X210058000Y-56515000D03*
X207518000Y-56515000D03*
X210058000Y-53975000D03*
X207518000Y-53975000D03*
X210058000Y-51435000D03*
X207518000Y-51435000D03*
X210058000Y-48895000D03*
X207518000Y-48895000D03*
X210058000Y-46355000D03*
X207518000Y-46355000D03*
X210058000Y-43815000D03*
X207518000Y-43815000D03*
X210058000Y-41275000D03*
X207518000Y-41275000D03*
X210058000Y-38735000D03*
X207518000Y-38735000D03*
X210058000Y-36195000D03*
X207518000Y-36195000D03*
X210058000Y-33655000D03*
X207518000Y-33655000D03*
X210058000Y-31115000D03*
X207518000Y-31115000D03*
X210058000Y-28575000D03*
X207518000Y-28575000D03*
X210058000Y-26035000D03*
X207518000Y-26035000D03*
D13*
X264675299Y-45084999D03*
D14*
X264675300Y-42545000D03*
X264675300Y-40005000D03*
X264675300Y-37465000D03*
X264675300Y-34925000D03*
X264675300Y-32385000D03*
X264675300Y-29845000D03*
X264675300Y-27305000D03*
X264675300Y-24765000D03*
X257055300Y-24765000D03*
X257055300Y-27305000D03*
X257055300Y-29845000D03*
X257055300Y-32385000D03*
X257055300Y-34925000D03*
X257055300Y-37465000D03*
X257055300Y-40005000D03*
X257055300Y-42545000D03*
X257055300Y-45085000D03*
D13*
X184677999Y-119379999D03*
D14*
X184678000Y-116840000D03*
X184678000Y-114300000D03*
X184678000Y-111760000D03*
X184678000Y-109220000D03*
X184678000Y-106680000D03*
X184678000Y-104140000D03*
X184678000Y-101600000D03*
X184678000Y-99060000D03*
X177058000Y-99060000D03*
X177058000Y-101600000D03*
X177058000Y-104140000D03*
X177058000Y-106680000D03*
X177058000Y-109220000D03*
X177058000Y-111760000D03*
X177058000Y-114300000D03*
X177058000Y-116840000D03*
X177058000Y-119380000D03*
D11*
X320428299Y-45148499D03*
D12*
X320428300Y-42608500D03*
X320428300Y-40068500D03*
X320428300Y-37528500D03*
X320428300Y-34988500D03*
X320428300Y-32448500D03*
X320428300Y-29908500D03*
X320428300Y-27368500D03*
X312808300Y-27368500D03*
X312808300Y-29908500D03*
X312808300Y-32448500D03*
X312808300Y-34988500D03*
X312808300Y-37528500D03*
X312808300Y-40068500D03*
X312808300Y-42608500D03*
X312808300Y-45148500D03*
D10*
X107144500Y-45974000D03*
X109644500Y-45974000D03*
D21*
X41401999Y-117855999D03*
D22*
X43942000Y-117856000D03*
X46482000Y-117856000D03*
D16*
X308744300Y-24765000D03*
X308744300Y-27305000D03*
X308744300Y-29845000D03*
X308744300Y-32385000D03*
X308744300Y-34925000D03*
X308744300Y-37465000D03*
X308744300Y-40005000D03*
X308744300Y-42545000D03*
X308744300Y-45085000D03*
D13*
X149669499Y-74294999D03*
D14*
X149669500Y-76835000D03*
X149669500Y-79375000D03*
X149669500Y-81915000D03*
X149669500Y-84455000D03*
X149669500Y-86995000D03*
X149669500Y-89535000D03*
X149669500Y-92075000D03*
X149669500Y-94615000D03*
X157289500Y-94615000D03*
X157289500Y-92075000D03*
X157289500Y-89535000D03*
X157289500Y-86995000D03*
X157289500Y-84455000D03*
X157289500Y-81915000D03*
X157289500Y-79375000D03*
X157289500Y-76835000D03*
X157289500Y-74295000D03*
D10*
X280530300Y-48514000D03*
X278030300Y-48514000D03*
D23*
X42164000Y-84328000D03*
X42164000Y-89408000D03*
D13*
X224682999Y-94614999D03*
D14*
X224683000Y-92075000D03*
X224683000Y-89535000D03*
X224683000Y-86995000D03*
X224683000Y-84455000D03*
X224683000Y-81915000D03*
X224683000Y-79375000D03*
X224683000Y-76835000D03*
X224683000Y-74295000D03*
X217063000Y-74295000D03*
X217063000Y-76835000D03*
X217063000Y-79375000D03*
X217063000Y-81915000D03*
X217063000Y-84455000D03*
X217063000Y-86995000D03*
X217063000Y-89535000D03*
X217063000Y-92075000D03*
X217063000Y-94615000D03*
D11*
X133921499Y-49466499D03*
D12*
X133921500Y-52006500D03*
X133921500Y-54546500D03*
X133921500Y-57086500D03*
X133921500Y-59626500D03*
X133921500Y-62166500D03*
X133921500Y-64706500D03*
X133921500Y-67246500D03*
X141541500Y-67246500D03*
X141541500Y-64706500D03*
X141541500Y-62166500D03*
X141541500Y-59626500D03*
X141541500Y-57086500D03*
X141541500Y-54546500D03*
X141541500Y-52006500D03*
X141541500Y-49466500D03*
D11*
X200425999Y-94678499D03*
D12*
X200426000Y-92138500D03*
X200426000Y-89598500D03*
X200426000Y-87058500D03*
X200426000Y-84518500D03*
X200426000Y-81978500D03*
X200426000Y-79438500D03*
X200426000Y-76898500D03*
X192806000Y-76898500D03*
X192806000Y-79438500D03*
X192806000Y-81978500D03*
X192806000Y-84518500D03*
X192806000Y-87058500D03*
X192806000Y-89598500D03*
X192806000Y-92138500D03*
X192806000Y-94678500D03*
D10*
X280530300Y-98806000D03*
X278030300Y-98806000D03*
D18*
X290055300Y-86995000D03*
X287515300Y-86995000D03*
X290055300Y-84455000D03*
X287515300Y-84455000D03*
X290055300Y-81915000D03*
X287515300Y-81915000D03*
X290055300Y-79375000D03*
X287515300Y-79375000D03*
X290055300Y-76835000D03*
X287515300Y-76835000D03*
X290055300Y-74295000D03*
X287515300Y-74295000D03*
X290055300Y-71755000D03*
X287515300Y-71755000D03*
X290055300Y-69215000D03*
X287515300Y-69215000D03*
X290055300Y-66675000D03*
X287515300Y-66675000D03*
X290055300Y-64135000D03*
X287515300Y-64135000D03*
X290055300Y-61595000D03*
X287515300Y-61595000D03*
X290055300Y-59055000D03*
X287515300Y-59055000D03*
X290055300Y-56515000D03*
X287515300Y-56515000D03*
X290055300Y-53975000D03*
X287515300Y-53975000D03*
X290055300Y-51435000D03*
X287515300Y-51435000D03*
X290055300Y-48895000D03*
X287515300Y-48895000D03*
X290055300Y-46355000D03*
X287515300Y-46355000D03*
X290055300Y-43815000D03*
X287515300Y-43815000D03*
X290055300Y-41275000D03*
X287515300Y-41275000D03*
X290055300Y-38735000D03*
X287515300Y-38735000D03*
X290055300Y-36195000D03*
X287515300Y-36195000D03*
X290055300Y-33655000D03*
X287515300Y-33655000D03*
X290055300Y-31115000D03*
X287515300Y-31115000D03*
X290055300Y-28575000D03*
X287515300Y-28575000D03*
X290055300Y-26035000D03*
X287515300Y-26035000D03*
D11*
X280423299Y-94678499D03*
D12*
X280423300Y-92138500D03*
X280423300Y-89598500D03*
X280423300Y-87058500D03*
X280423300Y-84518500D03*
X280423300Y-81978500D03*
X280423300Y-79438500D03*
X280423300Y-76898500D03*
X272803300Y-76898500D03*
X272803300Y-79438500D03*
X272803300Y-81978500D03*
X272803300Y-84518500D03*
X272803300Y-87058500D03*
X272803300Y-89598500D03*
X272803300Y-92138500D03*
X272803300Y-94678500D03*
D16*
X228747000Y-74295000D03*
X228747000Y-76835000D03*
X228747000Y-79375000D03*
X228747000Y-81915000D03*
X228747000Y-84455000D03*
X228747000Y-86995000D03*
X228747000Y-89535000D03*
X228747000Y-92075000D03*
X228747000Y-94615000D03*
D11*
X320428299Y-69913499D03*
D12*
X320428300Y-67373500D03*
X320428300Y-64833500D03*
X320428300Y-62293500D03*
X320428300Y-59753500D03*
X320428300Y-57213500D03*
X320428300Y-54673500D03*
X320428300Y-52133500D03*
X312808300Y-52133500D03*
X312808300Y-54673500D03*
X312808300Y-57213500D03*
X312808300Y-59753500D03*
X312808300Y-62293500D03*
X312808300Y-64833500D03*
X312808300Y-67373500D03*
X312808300Y-69913500D03*
D10*
X320535300Y-73406000D03*
X318035300Y-73406000D03*
X320535300Y-48514000D03*
X318035300Y-48514000D03*
D13*
X224682999Y-69849999D03*
D14*
X224683000Y-67310000D03*
X224683000Y-64770000D03*
X224683000Y-62230000D03*
X224683000Y-59690000D03*
X224683000Y-57150000D03*
X224683000Y-54610000D03*
X224683000Y-52070000D03*
X224683000Y-49530000D03*
X217063000Y-49530000D03*
X217063000Y-52070000D03*
X217063000Y-54610000D03*
X217063000Y-57150000D03*
X217063000Y-59690000D03*
X217063000Y-62230000D03*
X217063000Y-64770000D03*
X217063000Y-67310000D03*
X217063000Y-69850000D03*
D16*
X118935500Y-45085000D03*
X118935500Y-42545000D03*
X118935500Y-40005000D03*
X118935500Y-37465000D03*
X118935500Y-34925000D03*
X118935500Y-32385000D03*
X118935500Y-29845000D03*
X118935500Y-27305000D03*
X118935500Y-24765000D03*
D13*
X122999499Y-99059999D03*
D14*
X122999500Y-101600000D03*
X122999500Y-104140000D03*
X122999500Y-106680000D03*
X122999500Y-109220000D03*
X122999500Y-111760000D03*
X122999500Y-114300000D03*
X122999500Y-116840000D03*
X122999500Y-119380000D03*
X130619500Y-119380000D03*
X130619500Y-116840000D03*
X130619500Y-114300000D03*
X130619500Y-111760000D03*
X130619500Y-109220000D03*
X130619500Y-106680000D03*
X130619500Y-104140000D03*
X130619500Y-101600000D03*
X130619500Y-99060000D03*
D10*
X134068500Y-95504000D03*
X136568500Y-95504000D03*
D13*
X184677999Y-69849999D03*
D14*
X184678000Y-67310000D03*
X184678000Y-64770000D03*
X184678000Y-62230000D03*
X184678000Y-59690000D03*
X184678000Y-57150000D03*
X184678000Y-54610000D03*
X184678000Y-52070000D03*
X184678000Y-49530000D03*
X177058000Y-49530000D03*
X177058000Y-52070000D03*
X177058000Y-54610000D03*
X177058000Y-57150000D03*
X177058000Y-59690000D03*
X177058000Y-62230000D03*
X177058000Y-64770000D03*
X177058000Y-67310000D03*
X177058000Y-69850000D03*
D16*
X228747000Y-49530000D03*
X228747000Y-52070000D03*
X228747000Y-54610000D03*
X228747000Y-57150000D03*
X228747000Y-59690000D03*
X228747000Y-62230000D03*
X228747000Y-64770000D03*
X228747000Y-67310000D03*
X228747000Y-69850000D03*
D11*
X200425999Y-119443499D03*
D12*
X200426000Y-116903500D03*
X200426000Y-114363500D03*
X200426000Y-111823500D03*
X200426000Y-109283500D03*
X200426000Y-106743500D03*
X200426000Y-104203500D03*
X200426000Y-101663500D03*
X192806000Y-101663500D03*
X192806000Y-104203500D03*
X192806000Y-106743500D03*
X192806000Y-109283500D03*
X192806000Y-111823500D03*
X192806000Y-114363500D03*
X192806000Y-116903500D03*
X192806000Y-119443500D03*
D16*
X308744300Y-74295000D03*
X308744300Y-76835000D03*
X308744300Y-79375000D03*
X308744300Y-81915000D03*
X308744300Y-84455000D03*
X308744300Y-86995000D03*
X308744300Y-89535000D03*
X308744300Y-92075000D03*
X308744300Y-94615000D03*
D11*
X320428299Y-94678499D03*
D12*
X320428300Y-92138500D03*
X320428300Y-89598500D03*
X320428300Y-87058500D03*
X320428300Y-84518500D03*
X320428300Y-81978500D03*
X320428300Y-79438500D03*
X320428300Y-76898500D03*
X312808300Y-76898500D03*
X312808300Y-79438500D03*
X312808300Y-81978500D03*
X312808300Y-84518500D03*
X312808300Y-87058500D03*
X312808300Y-89598500D03*
X312808300Y-92138500D03*
X312808300Y-94678500D03*
D21*
X95757999Y-118109999D03*
D22*
X98298000Y-118110000D03*
X100838000Y-118110000D03*
D16*
X145605500Y-69850000D03*
X145605500Y-67310000D03*
X145605500Y-64770000D03*
X145605500Y-62230000D03*
X145605500Y-59690000D03*
X145605500Y-57150000D03*
X145605500Y-54610000D03*
X145605500Y-52070000D03*
X145605500Y-49530000D03*
D13*
X264675299Y-119379999D03*
D14*
X264675300Y-116840000D03*
X264675300Y-114300000D03*
X264675300Y-111760000D03*
X264675300Y-109220000D03*
X264675300Y-106680000D03*
X264675300Y-104140000D03*
X264675300Y-101600000D03*
X264675300Y-99060000D03*
X257055300Y-99060000D03*
X257055300Y-101600000D03*
X257055300Y-104140000D03*
X257055300Y-106680000D03*
X257055300Y-109220000D03*
X257055300Y-111760000D03*
X257055300Y-114300000D03*
X257055300Y-116840000D03*
X257055300Y-119380000D03*
D10*
X200533000Y-48514000D03*
X198033000Y-48514000D03*
D16*
X308744300Y-99060000D03*
X308744300Y-101600000D03*
X308744300Y-104140000D03*
X308744300Y-106680000D03*
X308744300Y-109220000D03*
X308744300Y-111760000D03*
X308744300Y-114300000D03*
X308744300Y-116840000D03*
X308744300Y-119380000D03*
D11*
X107251499Y-24701499D03*
D12*
X107251500Y-27241500D03*
X107251500Y-29781500D03*
X107251500Y-32321500D03*
X107251500Y-34861500D03*
X107251500Y-37401500D03*
X107251500Y-39941500D03*
X107251500Y-42481500D03*
X114871500Y-42481500D03*
X114871500Y-39941500D03*
X114871500Y-37401500D03*
X114871500Y-34861500D03*
X114871500Y-32321500D03*
X114871500Y-29781500D03*
X114871500Y-27241500D03*
X114871500Y-24701500D03*
D16*
X188742000Y-24765000D03*
X188742000Y-27305000D03*
X188742000Y-29845000D03*
X188742000Y-32385000D03*
X188742000Y-34925000D03*
X188742000Y-37465000D03*
X188742000Y-40005000D03*
X188742000Y-42545000D03*
X188742000Y-45085000D03*
D17*
X170053000Y-120650000D03*
X167513000Y-120650000D03*
X170053000Y-118110000D03*
X167513000Y-118110000D03*
X170053000Y-115570000D03*
X167513000Y-115570000D03*
X170053000Y-113030000D03*
X167513000Y-113030000D03*
X170053000Y-110490000D03*
X167513000Y-110490000D03*
X170053000Y-107950000D03*
X167513000Y-107950000D03*
X170053000Y-105410000D03*
X167513000Y-105410000D03*
X170053000Y-102870000D03*
X167513000Y-102870000D03*
X170053000Y-100330000D03*
X167513000Y-100330000D03*
X170053000Y-97790000D03*
X167513000Y-97790000D03*
D13*
X264675299Y-94614999D03*
D14*
X264675300Y-92075000D03*
X264675300Y-89535000D03*
X264675300Y-86995000D03*
X264675300Y-84455000D03*
X264675300Y-81915000D03*
X264675300Y-79375000D03*
X264675300Y-76835000D03*
X264675300Y-74295000D03*
X257055300Y-74295000D03*
X257055300Y-76835000D03*
X257055300Y-79375000D03*
X257055300Y-81915000D03*
X257055300Y-84455000D03*
X257055300Y-86995000D03*
X257055300Y-89535000D03*
X257055300Y-92075000D03*
X257055300Y-94615000D03*
D16*
X268739300Y-49530000D03*
X268739300Y-52070000D03*
X268739300Y-54610000D03*
X268739300Y-57150000D03*
X268739300Y-59690000D03*
X268739300Y-62230000D03*
X268739300Y-64770000D03*
X268739300Y-67310000D03*
X268739300Y-69850000D03*
D18*
X54102000Y-45974000D03*
X54102000Y-33274000D03*
X54102000Y-40894000D03*
X54102000Y-38354000D03*
X54102000Y-43434000D03*
X54102000Y-35814000D03*
D13*
X304680299Y-94614999D03*
D14*
X304680300Y-92075000D03*
X304680300Y-89535000D03*
X304680300Y-86995000D03*
X304680300Y-84455000D03*
X304680300Y-81915000D03*
X304680300Y-79375000D03*
X304680300Y-76835000D03*
X304680300Y-74295000D03*
X297060300Y-74295000D03*
X297060300Y-76835000D03*
X297060300Y-79375000D03*
X297060300Y-81915000D03*
X297060300Y-84455000D03*
X297060300Y-86995000D03*
X297060300Y-89535000D03*
X297060300Y-92075000D03*
X297060300Y-94615000D03*
D13*
X304680299Y-45084999D03*
D14*
X304680300Y-42545000D03*
X304680300Y-40005000D03*
X304680300Y-37465000D03*
X304680300Y-34925000D03*
X304680300Y-32385000D03*
X304680300Y-29845000D03*
X304680300Y-27305000D03*
X304680300Y-24765000D03*
X297060300Y-24765000D03*
X297060300Y-27305000D03*
X297060300Y-29845000D03*
X297060300Y-32385000D03*
X297060300Y-34925000D03*
X297060300Y-37465000D03*
X297060300Y-40005000D03*
X297060300Y-42545000D03*
X297060300Y-45085000D03*
D13*
X122999499Y-24764999D03*
D14*
X122999500Y-27305000D03*
X122999500Y-29845000D03*
X122999500Y-32385000D03*
X122999500Y-34925000D03*
X122999500Y-37465000D03*
X122999500Y-40005000D03*
X122999500Y-42545000D03*
X122999500Y-45085000D03*
X130619500Y-45085000D03*
X130619500Y-42545000D03*
X130619500Y-40005000D03*
X130619500Y-37465000D03*
X130619500Y-34925000D03*
X130619500Y-32385000D03*
X130619500Y-29845000D03*
X130619500Y-27305000D03*
X130619500Y-24765000D03*
D11*
X107251499Y-74231499D03*
D12*
X107251500Y-76771500D03*
X107251500Y-79311500D03*
X107251500Y-81851500D03*
X107251500Y-84391500D03*
X107251500Y-86931500D03*
X107251500Y-89471500D03*
X107251500Y-92011500D03*
X114871500Y-92011500D03*
X114871500Y-89471500D03*
X114871500Y-86931500D03*
X114871500Y-84391500D03*
X114871500Y-81851500D03*
X114871500Y-79311500D03*
X114871500Y-76771500D03*
X114871500Y-74231500D03*
D16*
X118935500Y-94615000D03*
X118935500Y-92075000D03*
X118935500Y-89535000D03*
X118935500Y-86995000D03*
X118935500Y-84455000D03*
X118935500Y-81915000D03*
X118935500Y-79375000D03*
X118935500Y-76835000D03*
X118935500Y-74295000D03*
D11*
X240430999Y-94678499D03*
D12*
X240431000Y-92138500D03*
X240431000Y-89598500D03*
X240431000Y-87058500D03*
X240431000Y-84518500D03*
X240431000Y-81978500D03*
X240431000Y-79438500D03*
X240431000Y-76898500D03*
X232811000Y-76898500D03*
X232811000Y-79438500D03*
X232811000Y-81978500D03*
X232811000Y-84518500D03*
X232811000Y-87058500D03*
X232811000Y-89598500D03*
X232811000Y-92138500D03*
X232811000Y-94678500D03*
D16*
X268739300Y-74295000D03*
X268739300Y-76835000D03*
X268739300Y-79375000D03*
X268739300Y-81915000D03*
X268739300Y-84455000D03*
X268739300Y-86995000D03*
X268739300Y-89535000D03*
X268739300Y-92075000D03*
X268739300Y-94615000D03*
X118935500Y-69850000D03*
X118935500Y-67310000D03*
X118935500Y-64770000D03*
X118935500Y-62230000D03*
X118935500Y-59690000D03*
X118935500Y-57150000D03*
X118935500Y-54610000D03*
X118935500Y-52070000D03*
X118935500Y-49530000D03*
D13*
X184677999Y-45084999D03*
D14*
X184678000Y-42545000D03*
X184678000Y-40005000D03*
X184678000Y-37465000D03*
X184678000Y-34925000D03*
X184678000Y-32385000D03*
X184678000Y-29845000D03*
X184678000Y-27305000D03*
X184678000Y-24765000D03*
X177058000Y-24765000D03*
X177058000Y-27305000D03*
X177058000Y-29845000D03*
X177058000Y-32385000D03*
X177058000Y-34925000D03*
X177058000Y-37465000D03*
X177058000Y-40005000D03*
X177058000Y-42545000D03*
X177058000Y-45085000D03*
D18*
X170053000Y-86995000D03*
X167513000Y-86995000D03*
X170053000Y-84455000D03*
X167513000Y-84455000D03*
X170053000Y-81915000D03*
X167513000Y-81915000D03*
X170053000Y-79375000D03*
X167513000Y-79375000D03*
X170053000Y-76835000D03*
X167513000Y-76835000D03*
X170053000Y-74295000D03*
X167513000Y-74295000D03*
X170053000Y-71755000D03*
X167513000Y-71755000D03*
X170053000Y-69215000D03*
X167513000Y-69215000D03*
X170053000Y-66675000D03*
X167513000Y-66675000D03*
X170053000Y-64135000D03*
X167513000Y-64135000D03*
X170053000Y-61595000D03*
X167513000Y-61595000D03*
X170053000Y-59055000D03*
X167513000Y-59055000D03*
X170053000Y-56515000D03*
X167513000Y-56515000D03*
X170053000Y-53975000D03*
X167513000Y-53975000D03*
X170053000Y-51435000D03*
X167513000Y-51435000D03*
X170053000Y-48895000D03*
X167513000Y-48895000D03*
X170053000Y-46355000D03*
X167513000Y-46355000D03*
X170053000Y-43815000D03*
X167513000Y-43815000D03*
X170053000Y-41275000D03*
X167513000Y-41275000D03*
X170053000Y-38735000D03*
X167513000Y-38735000D03*
X170053000Y-36195000D03*
X167513000Y-36195000D03*
X170053000Y-33655000D03*
X167513000Y-33655000D03*
X170053000Y-31115000D03*
X167513000Y-31115000D03*
X170053000Y-28575000D03*
X167513000Y-28575000D03*
X170053000Y-26035000D03*
X167513000Y-26035000D03*
D16*
X145605500Y-94615000D03*
X145605500Y-92075000D03*
X145605500Y-89535000D03*
X145605500Y-86995000D03*
X145605500Y-84455000D03*
X145605500Y-81915000D03*
X145605500Y-79375000D03*
X145605500Y-76835000D03*
X145605500Y-74295000D03*
X188742000Y-49530000D03*
X188742000Y-52070000D03*
X188742000Y-54610000D03*
X188742000Y-57150000D03*
X188742000Y-59690000D03*
X188742000Y-62230000D03*
X188742000Y-64770000D03*
X188742000Y-67310000D03*
X188742000Y-69850000D03*
D10*
X107144500Y-95504000D03*
X109644500Y-95504000D03*
D11*
X107251499Y-49466499D03*
D12*
X107251500Y-52006500D03*
X107251500Y-54546500D03*
X107251500Y-57086500D03*
X107251500Y-59626500D03*
X107251500Y-62166500D03*
X107251500Y-64706500D03*
X107251500Y-67246500D03*
X114871500Y-67246500D03*
X114871500Y-64706500D03*
X114871500Y-62166500D03*
X114871500Y-59626500D03*
X114871500Y-57086500D03*
X114871500Y-54546500D03*
X114871500Y-52006500D03*
X114871500Y-49466500D03*
D11*
X280423299Y-69913499D03*
D12*
X280423300Y-67373500D03*
X280423300Y-64833500D03*
X280423300Y-62293500D03*
X280423300Y-59753500D03*
X280423300Y-57213500D03*
X280423300Y-54673500D03*
X280423300Y-52133500D03*
X272803300Y-52133500D03*
X272803300Y-54673500D03*
X272803300Y-57213500D03*
X272803300Y-59753500D03*
X272803300Y-62293500D03*
X272803300Y-64833500D03*
X272803300Y-67373500D03*
X272803300Y-69913500D03*
D19*
X40304322Y-100075999D03*
D20*
X45304323Y-100076000D03*
D11*
X133921499Y-98996499D03*
D12*
X133921500Y-101536500D03*
X133921500Y-104076500D03*
X133921500Y-106616500D03*
X133921500Y-109156500D03*
X133921500Y-111696500D03*
X133921500Y-114236500D03*
X133921500Y-116776500D03*
X141541500Y-116776500D03*
X141541500Y-114236500D03*
X141541500Y-111696500D03*
X141541500Y-109156500D03*
X141541500Y-106616500D03*
X141541500Y-104076500D03*
X141541500Y-101536500D03*
X141541500Y-98996500D03*
D24*
X54101999Y-93471999D03*
X54101999Y-85851999D03*
X54101999Y-83311999D03*
X82041999Y-55244999D03*
X54101999Y-70611999D03*
X54101999Y-68071999D03*
X54101999Y-65531999D03*
X54101999Y-62991999D03*
X54101999Y-60451999D03*
X54101999Y-57911999D03*
X102361999Y-97535999D03*
X102361999Y-57911999D03*
X102361999Y-60451999D03*
X102361999Y-62991999D03*
X102361999Y-65531999D03*
X102361999Y-68071999D03*
X102361999Y-70611999D03*
X102361999Y-73151999D03*
X102361999Y-75691999D03*
X102361999Y-79755999D03*
X102361999Y-82295999D03*
X102361999Y-84835999D03*
X102361999Y-87375999D03*
X102361999Y-89915999D03*
X102361999Y-92455999D03*
D25*
X102361999Y-94995999D03*
X54101999Y-80771999D03*
X54101999Y-78231999D03*
X76961999Y-55244999D03*
D24*
X54101999Y-90931999D03*
X82041999Y-57784999D03*
X79501999Y-55244999D03*
X54101999Y-88391999D03*
X76961999Y-57784999D03*
X79501999Y-57784999D03*
X102361999Y-102615999D03*
X102361999Y-100075999D03*
X54101999Y-75691999D03*
D26*
X182562500Y-100330000D03*
D27*
X147764500Y-120269000D03*
X121094500Y-120269000D03*
D26*
X302564800Y-100330000D03*
X222567500Y-100330000D03*
X262559800Y-100330000D03*
X315475300Y-108585000D03*
X314840300Y-60960000D03*
X139509500Y-33655000D03*
X275470300Y-34290000D03*
X138239500Y-37465000D03*
X236113000Y-57150000D03*
X124904500Y-92075000D03*
X139509500Y-58420000D03*
X111569500Y-111760000D03*
X152844500Y-86995000D03*
X316110300Y-81915000D03*
X112204500Y-60325000D03*
X154114500Y-106680000D03*
D28*
X234843000Y-22892700D03*
D26*
X140144500Y-31750000D03*
X316110300Y-32385000D03*
X138239500Y-111760000D03*
X152844500Y-111760000D03*
D28*
X236131100Y-21336000D03*
D26*
X154114500Y-32385000D03*
X151574500Y-116840000D03*
X274200300Y-62865000D03*
X155384500Y-52070000D03*
D27*
X132270500Y-69850000D03*
D26*
X274200300Y-112395000D03*
X274835300Y-36195000D03*
X139509500Y-107950000D03*
X276105300Y-32385000D03*
X127444500Y-106680000D03*
D27*
X158940500Y-96774000D03*
D26*
X316110300Y-57150000D03*
X112204500Y-109855000D03*
D28*
X195465700Y-22098000D03*
D26*
X235478000Y-59055000D03*
X275470300Y-59055000D03*
X151574500Y-92075000D03*
X126174500Y-37465000D03*
X113474500Y-56515000D03*
D28*
X235470700Y-22098000D03*
D26*
X315475300Y-83820000D03*
D28*
X234200700Y-23622000D03*
D26*
X155384500Y-101600000D03*
X234208000Y-38100000D03*
X154114500Y-57150000D03*
X128079500Y-64770000D03*
X196108000Y-32385000D03*
X155384500Y-76835000D03*
X112204500Y-85090000D03*
X152844500Y-62230000D03*
X154749500Y-54610000D03*
X276105300Y-81915000D03*
X154749500Y-29845000D03*
X128714500Y-57150000D03*
X151574500Y-42545000D03*
X125539500Y-114300000D03*
X152844500Y-37465000D03*
X235478000Y-83820000D03*
X129349500Y-74295000D03*
X126809500Y-84455000D03*
X275470300Y-83820000D03*
X140144500Y-56515000D03*
X138874500Y-35560000D03*
D28*
X196126100Y-21336000D03*
X194838000Y-22892700D03*
D26*
X138239500Y-62230000D03*
X126174500Y-86995000D03*
X276105300Y-57150000D03*
X126809500Y-109220000D03*
X195473000Y-59055000D03*
X274835300Y-60960000D03*
X314840300Y-110490000D03*
D28*
X296354500Y-73025000D03*
D26*
X113474500Y-31750000D03*
X129349500Y-49530000D03*
D28*
X314185300Y-23596600D03*
D26*
X223075500Y-97790000D03*
X194203000Y-62865000D03*
X128079500Y-104140000D03*
X276105300Y-106680000D03*
D28*
X311086500Y-73025000D03*
D26*
X316110300Y-106680000D03*
X154749500Y-79375000D03*
X236113000Y-106680000D03*
X111569500Y-62230000D03*
X153479500Y-59690000D03*
X183070500Y-97790000D03*
D28*
X216471500Y-73025000D03*
D26*
X156019500Y-74295000D03*
X138874500Y-109855000D03*
X186362500Y-96774000D03*
X128079500Y-54610000D03*
D27*
X158940500Y-69850000D03*
D26*
X266359800Y-96774000D03*
X226377500Y-47244000D03*
X263067800Y-97790000D03*
X152209500Y-114300000D03*
X226367500Y-96774000D03*
X315475300Y-34290000D03*
X127444500Y-32385000D03*
X127444500Y-81915000D03*
X151574500Y-67310000D03*
X266369800Y-47244000D03*
X129349500Y-24765000D03*
X153479500Y-84455000D03*
X314205300Y-112395000D03*
X126809500Y-34925000D03*
X314840300Y-85725000D03*
D28*
X274822600Y-22892700D03*
D26*
X140144500Y-81280000D03*
X314205300Y-62865000D03*
X234208000Y-62865000D03*
X128714500Y-27305000D03*
X154749500Y-104140000D03*
X236113000Y-81915000D03*
X274200300Y-38100000D03*
X153479500Y-34925000D03*
X156019500Y-24765000D03*
D28*
X274180300Y-23622000D03*
D26*
X274200300Y-87630000D03*
D27*
X132270500Y-96774000D03*
D26*
X113474500Y-81280000D03*
X124904500Y-116840000D03*
X194838000Y-110490000D03*
X111569500Y-86995000D03*
X234208000Y-112395000D03*
X124904500Y-42545000D03*
X194203000Y-87630000D03*
X128079500Y-29845000D03*
X196108000Y-106680000D03*
X128714500Y-101600000D03*
D28*
X315455300Y-22072600D03*
D26*
X194203000Y-112395000D03*
X306374800Y-47244000D03*
D28*
X256476500Y-73025000D03*
X275450300Y-22098000D03*
D26*
X314205300Y-38100000D03*
D28*
X314827600Y-22867300D03*
D26*
X156019500Y-49530000D03*
X235478000Y-34290000D03*
X234208000Y-87630000D03*
X136588500Y-119507000D03*
X138874500Y-85090000D03*
X234843000Y-60960000D03*
X195473000Y-83820000D03*
X140144500Y-106045000D03*
X194203000Y-38100000D03*
X152209500Y-40005000D03*
X154114500Y-81915000D03*
X138239500Y-86995000D03*
D28*
X231203500Y-73025000D03*
D26*
X195473000Y-34290000D03*
X112839500Y-83185000D03*
X112204500Y-35560000D03*
X314205300Y-87630000D03*
X128079500Y-67310000D03*
X235478000Y-108585000D03*
X113474500Y-106045000D03*
X112839500Y-58420000D03*
X275470300Y-108585000D03*
X152209500Y-64770000D03*
D28*
X271208500Y-73025000D03*
D26*
X152209500Y-89535000D03*
X196108000Y-81915000D03*
X112839500Y-107950000D03*
X153479500Y-109220000D03*
X156019500Y-99060000D03*
X236113000Y-32385000D03*
D28*
X276110700Y-21336000D03*
X194195700Y-23622000D03*
D26*
X129349500Y-59690000D03*
X194838000Y-36195000D03*
X128714500Y-52070000D03*
X194838000Y-85725000D03*
X111569500Y-37465000D03*
X274835300Y-85725000D03*
X125539500Y-40005000D03*
X139509500Y-83185000D03*
X274835300Y-110490000D03*
X126174500Y-111760000D03*
D28*
X316115700Y-21310600D03*
D26*
X234843000Y-85725000D03*
X125539500Y-89535000D03*
X128714500Y-76835000D03*
X234843000Y-110490000D03*
X112839500Y-33655000D03*
X196108000Y-57150000D03*
X315475300Y-59055000D03*
X128079500Y-79375000D03*
X129349500Y-99060000D03*
X234843000Y-36195000D03*
X155384500Y-27305000D03*
X138874500Y-60325000D03*
X314840300Y-36195000D03*
X303072800Y-97790000D03*
X194838000Y-60960000D03*
X306364800Y-96774000D03*
X186372500Y-47244000D03*
X195473000Y-108585000D03*
X128079500Y-62230000D03*
D29*
X207518000Y-97790000D02*
X210058000Y-97790000D01*
X290055300Y-100330000D02*
X287515300Y-100330000D01*
D30*
X169481500Y-79375000D02*
X170116500Y-79375000D01*
D29*
X287515300Y-97790000D02*
X290055300Y-97790000D01*
D30*
X169481500Y-36195000D02*
X170116500Y-36195000D01*
X169481500Y-41275000D02*
X170116500Y-41275000D01*
X169481500Y-31115000D02*
X170116500Y-31115000D01*
X169481500Y-84455000D02*
X170116500Y-84455000D01*
X169481500Y-86995000D02*
X170116500Y-86995000D01*
X169481500Y-74295000D02*
X170116500Y-74295000D01*
D29*
X207518000Y-100330000D02*
X210058000Y-100330000D01*
D30*
X210058000Y-79375000D02*
X211201000Y-79375000D01*
X209359500Y-79375000D02*
X209994500Y-79375000D01*
D29*
X247510300Y-100330000D02*
X250050300Y-100330000D01*
X250050300Y-100330000D02*
X262559800Y-100330000D01*
X262559800Y-100330000D02*
X287515300Y-100330000D01*
X222567500Y-100330000D02*
X247523000Y-100330000D01*
X210058000Y-100330000D02*
X222567500Y-100330000D01*
X287515300Y-100330000D02*
X290055300Y-100330000D01*
X290055300Y-100330000D02*
X302564800Y-100330000D01*
X210058000Y-100330000D02*
X207518000Y-100330000D01*
X182562500Y-100330000D02*
X207518000Y-100330000D01*
X170053000Y-100330000D02*
X182562500Y-100330000D01*
X167513000Y-100330000D02*
X170053000Y-100330000D01*
D30*
X209994500Y-26035000D02*
X209359500Y-26035000D01*
X211201000Y-26035000D02*
X210058000Y-26035000D01*
D29*
X250050300Y-97790000D02*
X263067800Y-97790000D01*
X247523000Y-97790000D02*
X250063000Y-97790000D01*
X242887500Y-97790000D02*
X247523000Y-97790000D01*
X263067800Y-97790000D02*
X276148800Y-97790000D01*
D30*
X169481500Y-28575000D02*
X170116500Y-28575000D01*
X168084500Y-31115000D02*
X167449500Y-31115000D01*
X210058000Y-31115000D02*
X211201000Y-31115000D01*
X209359500Y-31115000D02*
X209994500Y-31115000D01*
X289356800Y-31115000D02*
X289991800Y-31115000D01*
X250050300Y-79375000D02*
X251193300Y-79375000D01*
X249364500Y-79375000D02*
X249999500Y-79375000D01*
D29*
X287515300Y-97790000D02*
X290055300Y-97790000D01*
X282879800Y-97790000D02*
X287515300Y-97790000D01*
D30*
X250050300Y-41275000D02*
X251193300Y-41275000D01*
X249478800Y-41275000D02*
X250113800Y-41275000D01*
X169481500Y-74295000D02*
X170116500Y-74295000D01*
X289356800Y-86995000D02*
X289991800Y-86995000D01*
X289356800Y-79375000D02*
X289991800Y-79375000D01*
X249364500Y-74295000D02*
X249999500Y-74295000D01*
X250050300Y-74295000D02*
X251193300Y-74295000D01*
X210058000Y-36195000D02*
X211201000Y-36195000D01*
X209486500Y-36195000D02*
X210121500Y-36195000D01*
X289483800Y-41275000D02*
X290118800Y-41275000D01*
X249999500Y-26035000D02*
X249364500Y-26035000D01*
X251193300Y-26035000D02*
X250050300Y-26035000D01*
X289483800Y-36195000D02*
X290118800Y-36195000D01*
X169481500Y-36195000D02*
X170116500Y-36195000D01*
X249478800Y-31115000D02*
X250113800Y-31115000D01*
X250050300Y-31115000D02*
X251193300Y-31115000D01*
X169481500Y-79375000D02*
X170116500Y-79375000D01*
X169481500Y-31115000D02*
X170116500Y-31115000D01*
X289356800Y-28575000D02*
X289991800Y-28575000D01*
X209359500Y-41275000D02*
X209994500Y-41275000D01*
X209486500Y-41275000D02*
X210121500Y-41275000D01*
X209486500Y-86995000D02*
X210121500Y-86995000D01*
X209359500Y-86995000D02*
X209994500Y-86995000D01*
X289483800Y-84455000D02*
X290118800Y-84455000D01*
X169481500Y-26035000D02*
X170116500Y-26035000D01*
X249364500Y-28575000D02*
X249999500Y-28575000D01*
X249478800Y-28575000D02*
X250113800Y-28575000D01*
X289991800Y-26035000D02*
X289356800Y-26035000D01*
X209359500Y-28575000D02*
X209994500Y-28575000D01*
X209486500Y-28575000D02*
X210121500Y-28575000D01*
X209486500Y-84455000D02*
X210121500Y-84455000D01*
X209359500Y-84455000D02*
X209994500Y-84455000D01*
D29*
X210058000Y-97790000D02*
X223075500Y-97790000D01*
X207518000Y-97790000D02*
X210058000Y-97790000D01*
X202882500Y-97790000D02*
X207518000Y-97790000D01*
D30*
X250050300Y-84455000D02*
X251193300Y-84455000D01*
X249478800Y-84455000D02*
X250113800Y-84455000D01*
X209486500Y-74295000D02*
X210121500Y-74295000D01*
X210058000Y-74295000D02*
X211201000Y-74295000D01*
X249364500Y-36195000D02*
X249999500Y-36195000D01*
X250050300Y-36195000D02*
X251193300Y-36195000D01*
X169481500Y-84455000D02*
X170116500Y-84455000D01*
X170053000Y-41275000D02*
X171196000Y-41275000D01*
D29*
X170053000Y-97790000D02*
X183070500Y-97790000D01*
X167513000Y-97790000D02*
X170053000Y-97790000D01*
D30*
X249364500Y-86995000D02*
X249999500Y-86995000D01*
X250050300Y-86995000D02*
X251193300Y-86995000D01*
X169481500Y-86995000D02*
X170116500Y-86995000D01*
D29*
X167513000Y-100330000D02*
X302564800Y-100330000D01*
D30*
X168211500Y-81915000D02*
X169481500Y-83185000D01*
X170688000Y-27305000D02*
X169481500Y-27305000D01*
X210693000Y-42545000D02*
X209486500Y-42545000D01*
X249478800Y-42545000D02*
X248208800Y-41275000D01*
X276148800Y-35941000D02*
X284022800Y-35941000D01*
X172974000Y-78359000D02*
X205295500Y-78359000D01*
X211455000Y-28321000D02*
X243967000Y-28321000D01*
X208089500Y-83185000D02*
X209359500Y-84455000D01*
X250685300Y-67945000D02*
X252463300Y-66167000D01*
X170688000Y-50165000D02*
X172847000Y-48006000D01*
X193802000Y-61087000D02*
X194564000Y-61849000D01*
X251193300Y-31115000D02*
X251447300Y-30861000D01*
X195389500Y-37211000D02*
X196151500Y-36449000D01*
D29*
X201866500Y-98806000D02*
X202882500Y-97790000D01*
D30*
X249478800Y-65405000D02*
X250685300Y-65405000D01*
X250685300Y-40005000D02*
X251701300Y-38989000D01*
X274815300Y-58039000D02*
X278625300Y-58039000D01*
D31*
X108597700Y-41135300D02*
X107251500Y-42481500D01*
D30*
X208089500Y-26035000D02*
X205232000Y-26035000D01*
X168211500Y-31115000D02*
X169481500Y-32385000D01*
X249478800Y-78105000D02*
X250685300Y-78105000D01*
X169481500Y-70485000D02*
X170688000Y-70485000D01*
X208216500Y-53975000D02*
X209486500Y-55245000D01*
X168084500Y-76835000D02*
X167449500Y-76835000D01*
X246570500Y-77851000D02*
X246824500Y-78105000D01*
X190246000Y-85979000D02*
X190754000Y-86487000D01*
X251701300Y-31369000D02*
X284975300Y-31369000D01*
X168211500Y-84455000D02*
X169481500Y-85725000D01*
X288785300Y-73025000D02*
X290055300Y-74295000D01*
X274561300Y-35179000D02*
X275386800Y-35179000D01*
X205232000Y-31115000D02*
X208089500Y-31115000D01*
X168084500Y-61595000D02*
X167449500Y-61595000D01*
X250685300Y-65405000D02*
X252463300Y-63627000D01*
X204978000Y-26289000D02*
X171704000Y-26289000D01*
D29*
X196151500Y-97790000D02*
X196913500Y-97028000D01*
D30*
X209486500Y-79375000D02*
X210121500Y-79375000D01*
X277101300Y-49911000D02*
X284784800Y-49911000D01*
X193548000Y-85471000D02*
X194818000Y-86741000D01*
X168211500Y-66675000D02*
X169481500Y-67945000D01*
X163004500Y-32385000D02*
X164274500Y-31115000D01*
X209486500Y-34925000D02*
X210693000Y-34925000D01*
X246062500Y-81915000D02*
X248094500Y-81915000D01*
X248208800Y-53975000D02*
X249478800Y-55245000D01*
X211709000Y-31369000D02*
X244983000Y-31369000D01*
X210693000Y-57785000D02*
X212471000Y-56007000D01*
X205549500Y-51435000D02*
X208089500Y-51435000D01*
D31*
X256476500Y-73025000D02*
X271208500Y-73025000D01*
D30*
X251447300Y-28321000D02*
X283959300Y-28321000D01*
X285546800Y-51435000D02*
X288086800Y-51435000D01*
X204216000Y-66167000D02*
X204724000Y-66675000D01*
X168084500Y-84455000D02*
X167449500Y-84455000D01*
X171450000Y-25781000D02*
X171196000Y-26035000D01*
X171704000Y-44069000D02*
X205009750Y-44069000D01*
X250685300Y-57785000D02*
X252463300Y-56007000D01*
X284467300Y-53975000D02*
X288086800Y-53975000D01*
X235394500Y-37211000D02*
X236156500Y-36449000D01*
X210693000Y-52705000D02*
X212725000Y-50673000D01*
X171704000Y-41529000D02*
X170688000Y-42545000D01*
X234569000Y-58293000D02*
X234823000Y-58039000D01*
X205009750Y-44069000D02*
X205263750Y-43815000D01*
X239649000Y-61087000D02*
X244252750Y-61087000D01*
X171450000Y-35941000D02*
X193802000Y-35941000D01*
X248208800Y-81915000D02*
X249478800Y-83185000D01*
X210693000Y-60325000D02*
X212725000Y-58293000D01*
X168084500Y-41275000D02*
X167449500Y-41275000D01*
X284784800Y-80645000D02*
X286054800Y-81915000D01*
X243967000Y-53467000D02*
X244475000Y-53975000D01*
X234823000Y-58039000D02*
X238633000Y-58039000D01*
X209486500Y-55245000D02*
X210693000Y-55245000D01*
X209486500Y-26035000D02*
X210121500Y-26035000D01*
X169481500Y-62865000D02*
X170688000Y-62865000D01*
X249364500Y-26035000D02*
X248094500Y-24765000D01*
D29*
X247510300Y-97790000D02*
X250050300Y-97790000D01*
D30*
X285261050Y-43815000D02*
X288086800Y-43815000D01*
X210693000Y-88265000D02*
X212979000Y-85979000D01*
X170688000Y-47625000D02*
X169481500Y-47625000D01*
X171196000Y-28575000D02*
X170053000Y-28575000D01*
X194627500Y-37211000D02*
X195389500Y-37211000D01*
X251447300Y-35941000D02*
X273799300Y-35941000D01*
X288086800Y-85725000D02*
X289356800Y-86995000D01*
X248094500Y-27305000D02*
X249364500Y-28575000D01*
X252717300Y-77851000D02*
X286562800Y-77851000D01*
D31*
X120078500Y-28702000D02*
X118554500Y-28702000D01*
D30*
X245014750Y-44069000D02*
X245268750Y-43815000D01*
X246316500Y-84455000D02*
X248094500Y-84455000D01*
X288086800Y-29845000D02*
X289356800Y-31115000D01*
X204787500Y-50673000D02*
X205549500Y-51435000D01*
X204978000Y-29845000D02*
X208089500Y-29845000D01*
X164274500Y-31115000D02*
X167449500Y-31115000D01*
X206057500Y-83185000D02*
X208089500Y-83185000D01*
X212471000Y-61087000D02*
X233807000Y-61087000D01*
X236347000Y-86741000D02*
X237363000Y-85725000D01*
X172720000Y-58293000D02*
X194564000Y-58293000D01*
X169481500Y-57785000D02*
X170688000Y-57785000D01*
X284213300Y-68707000D02*
X284721300Y-69215000D01*
X245808500Y-82931000D02*
X246062500Y-83185000D01*
X209486500Y-31115000D02*
X210121500Y-31115000D01*
X285038800Y-34925000D02*
X288086800Y-34925000D01*
X210693000Y-40005000D02*
X211709000Y-38989000D01*
D31*
X157289500Y-79375000D02*
X163639500Y-79375000D01*
D30*
X208216500Y-81915000D02*
X209486500Y-83185000D01*
X279387300Y-83439000D02*
X285292800Y-83439000D01*
D31*
X120332500Y-28956000D02*
X120078500Y-28702000D01*
X133921500Y-42481500D02*
X132270500Y-40830500D01*
D30*
X289356800Y-26035000D02*
X288086800Y-24765000D01*
X249478800Y-57785000D02*
X250685300Y-57785000D01*
X210693000Y-50165000D02*
X212852000Y-48006000D01*
X244252750Y-61087000D02*
X244760750Y-61595000D01*
X288086800Y-26035000D02*
X285229300Y-26035000D01*
X252717300Y-50673000D02*
X284784800Y-50673000D01*
X289483800Y-31115000D02*
X290118800Y-31115000D01*
X248094500Y-78105000D02*
X249364500Y-79375000D01*
X273545300Y-85471000D02*
X274815300Y-86741000D01*
X203327000Y-71374000D02*
X204978000Y-73025000D01*
X249478800Y-88265000D02*
X250685300Y-88265000D01*
X209486500Y-60325000D02*
X210693000Y-60325000D01*
X251701300Y-33909000D02*
X274815300Y-33909000D01*
X270751300Y-87757000D02*
X271513300Y-88519000D01*
X249478800Y-79375000D02*
X250113800Y-79375000D01*
X210693000Y-78105000D02*
X213487000Y-75311000D01*
X208216500Y-84455000D02*
X209486500Y-85725000D01*
X212471000Y-63627000D02*
X244379750Y-63627000D01*
X244983000Y-29845000D02*
X248094500Y-29845000D01*
X209486500Y-57785000D02*
X210693000Y-57785000D01*
D29*
X290055300Y-97790000D02*
X303072800Y-97790000D01*
D30*
X209486500Y-88265000D02*
X210693000Y-88265000D01*
X285229300Y-31115000D02*
X288086800Y-31115000D01*
D29*
X200533000Y-98806000D02*
X201866500Y-98806000D01*
D30*
X249364500Y-41275000D02*
X249999500Y-41275000D01*
X237363000Y-85725000D02*
X248094500Y-85725000D01*
X209486500Y-78105000D02*
X210693000Y-78105000D01*
X243967000Y-30861000D02*
X244983000Y-29845000D01*
X209486500Y-50165000D02*
X210693000Y-50165000D01*
X172974000Y-83439000D02*
X193802000Y-83439000D01*
X285292800Y-38735000D02*
X288086800Y-38735000D01*
X210693000Y-83185000D02*
X213233000Y-80645000D01*
X248094500Y-41275000D02*
X245300500Y-41275000D01*
D29*
X280530300Y-98806000D02*
X281863800Y-98806000D01*
D30*
X170053000Y-74295000D02*
X171196000Y-74295000D01*
X238633000Y-58039000D02*
X239141000Y-58547000D01*
X289483800Y-86995000D02*
X290118800Y-86995000D01*
X211709000Y-38989000D02*
X245046500Y-38989000D01*
X209486500Y-47625000D02*
X208216500Y-46355000D01*
X206311500Y-79375000D02*
X208089500Y-79375000D01*
X211709000Y-44069000D02*
X245014750Y-44069000D01*
X169481500Y-85725000D02*
X170688000Y-85725000D01*
X212852000Y-48006000D02*
X235204000Y-48006000D01*
X168084500Y-79375000D02*
X167449500Y-79375000D01*
X230251000Y-85979000D02*
X230759000Y-86487000D01*
X212725000Y-50673000D02*
X244792500Y-50673000D01*
X213487000Y-75311000D02*
X243459000Y-75311000D01*
X169481500Y-60325000D02*
X170688000Y-60325000D01*
X248094500Y-85725000D02*
X249364500Y-86995000D01*
X170688000Y-60325000D02*
X172720000Y-58293000D01*
X211201000Y-36195000D02*
X211455000Y-35941000D01*
X210693000Y-27305000D02*
X209486500Y-27305000D01*
X169481500Y-80645000D02*
X170688000Y-80645000D01*
X248094500Y-34925000D02*
X249364500Y-36195000D01*
X274624800Y-37211000D02*
X275386800Y-37211000D01*
X190754000Y-87757000D02*
X191516000Y-88519000D01*
X194564000Y-35179000D02*
X195389500Y-35179000D01*
X193802000Y-35941000D02*
X194564000Y-35179000D01*
X193802000Y-83439000D02*
X195072000Y-84709000D01*
X234823000Y-86741000D02*
X236347000Y-86741000D01*
X252971300Y-78359000D02*
X285292800Y-78359000D01*
X204025500Y-35941000D02*
X205041500Y-34925000D01*
X250685300Y-80645000D02*
X252971300Y-78359000D01*
X231521000Y-88519000D02*
X244538500Y-88519000D01*
X172466000Y-56007000D02*
X203962000Y-56007000D01*
X168211500Y-69215000D02*
X169481500Y-70485000D01*
X204882750Y-64135000D02*
X208089500Y-64135000D01*
X170688000Y-40005000D02*
X171704000Y-38989000D01*
X285038800Y-41529000D02*
X251701300Y-41529000D01*
X170688000Y-85725000D02*
X172974000Y-83439000D01*
X251701300Y-28829000D02*
X250685300Y-29845000D01*
X289483800Y-79375000D02*
X290118800Y-79375000D01*
X245046500Y-34925000D02*
X248094500Y-34925000D01*
X233807000Y-35941000D02*
X234569000Y-35179000D01*
X239395000Y-83439000D02*
X245300500Y-83439000D01*
X168211500Y-36195000D02*
X169481500Y-37465000D01*
X195072000Y-33655000D02*
X208089500Y-33655000D01*
X285292800Y-41275000D02*
X285038800Y-41529000D01*
X284245050Y-41021000D02*
X285261050Y-40005000D01*
X197358000Y-85725000D02*
X208089500Y-85725000D01*
X173482000Y-75311000D02*
X203454000Y-75311000D01*
X168084500Y-56515000D02*
X167449500Y-56515000D01*
X249478800Y-74295000D02*
X250113800Y-74295000D01*
X172466000Y-68707000D02*
X204216000Y-68707000D01*
X244252750Y-41021000D02*
X245268750Y-40005000D01*
X275386800Y-37211000D02*
X276148800Y-36449000D01*
X245237000Y-28575000D02*
X244983000Y-28829000D01*
D31*
X118554500Y-28702000D02*
X117475000Y-29781500D01*
D30*
X208089500Y-24765000D02*
X204978000Y-24765000D01*
X172466000Y-53467000D02*
X203962000Y-53467000D01*
X209486500Y-65405000D02*
X210693000Y-65405000D01*
X252717300Y-85471000D02*
X273545300Y-85471000D01*
X284975300Y-73025000D02*
X288785300Y-73025000D01*
X212725000Y-58293000D02*
X234569000Y-58293000D01*
X209486500Y-52705000D02*
X210693000Y-52705000D01*
X288086800Y-24765000D02*
X284975300Y-24765000D01*
X194818000Y-33909000D02*
X195072000Y-33655000D01*
X71882000Y-59182000D02*
X80793000Y-68093000D01*
X284975300Y-31369000D02*
X285229300Y-31115000D01*
X286054800Y-83185000D02*
X288086800Y-83185000D01*
X208216500Y-51435000D02*
X209486500Y-52705000D01*
X248094500Y-40005000D02*
X249364500Y-41275000D01*
X170688000Y-45085000D02*
X171704000Y-44069000D01*
X209359500Y-36195000D02*
X209994500Y-36195000D01*
X274561300Y-61849000D02*
X278879300Y-61849000D01*
X210693000Y-70485000D02*
X212471000Y-68707000D01*
X210693000Y-34925000D02*
X211709000Y-33909000D01*
X204978000Y-31369000D02*
X205232000Y-31115000D01*
D29*
X281863800Y-98806000D02*
X282879800Y-97790000D01*
D30*
X252971300Y-83439000D02*
X273799300Y-83439000D01*
X208216500Y-86995000D02*
X209486500Y-88265000D01*
X289356800Y-41275000D02*
X289991800Y-41275000D01*
X249478800Y-26035000D02*
X250113800Y-26035000D01*
X169481500Y-50165000D02*
X170688000Y-50165000D01*
X171704000Y-33909000D02*
X194818000Y-33909000D01*
X173228000Y-80645000D02*
X204787500Y-80645000D01*
X168211500Y-48895000D02*
X169481500Y-50165000D01*
X244538500Y-88519000D02*
X246062500Y-86995000D01*
X206057500Y-81915000D02*
X208089500Y-81915000D01*
X211455000Y-30861000D02*
X243967000Y-30861000D01*
X237109000Y-49911000D02*
X244792500Y-49911000D01*
X283197300Y-71247000D02*
X284975300Y-73025000D01*
X199644000Y-61087000D02*
X204247750Y-61087000D01*
X285292800Y-83439000D02*
X286308800Y-84455000D01*
X203962000Y-25781000D02*
X171450000Y-25781000D01*
D31*
X216471500Y-73025000D02*
X231203500Y-73025000D01*
D30*
X204724000Y-69215000D02*
X208089500Y-69215000D01*
X289356800Y-36195000D02*
X289991800Y-36195000D01*
X170053000Y-36195000D02*
X171196000Y-36195000D01*
X244221000Y-66167000D02*
X244729000Y-66675000D01*
X168211500Y-61595000D02*
X169481500Y-62865000D01*
X250685300Y-47625000D02*
X249478800Y-47625000D01*
X250685300Y-37465000D02*
X251701300Y-36449000D01*
X208216500Y-31115000D02*
X209486500Y-32385000D01*
X244792500Y-50673000D02*
X245554500Y-51435000D01*
X211455000Y-28321000D02*
X211201000Y-28575000D01*
X206057500Y-86995000D02*
X208089500Y-86995000D01*
X248094500Y-29845000D02*
X249364500Y-31115000D01*
X249364500Y-31115000D02*
X249999500Y-31115000D01*
D31*
X165544500Y-68580000D02*
X167449500Y-66675000D01*
D30*
X204470000Y-53975000D02*
X208089500Y-53975000D01*
X212471000Y-56007000D02*
X243967000Y-56007000D01*
X248208800Y-56515000D02*
X249478800Y-57785000D01*
X271513300Y-88519000D02*
X284530800Y-88519000D01*
X212725000Y-85471000D02*
X233553000Y-85471000D01*
X170053000Y-79375000D02*
X171196000Y-79375000D01*
X170053000Y-31115000D02*
X171196000Y-31115000D01*
X251193300Y-84455000D02*
X252717300Y-82931000D01*
X233807000Y-61087000D02*
X234569000Y-61849000D01*
X205295500Y-36195000D02*
X208089500Y-36195000D01*
X248094500Y-73025000D02*
X249364500Y-74295000D01*
X171196000Y-41275000D02*
X171450000Y-41021000D01*
X254241300Y-71247000D02*
X283197300Y-71247000D01*
X251701300Y-26289000D02*
X250685300Y-27305000D01*
X209486500Y-85725000D02*
X210693000Y-85725000D01*
X285229300Y-26035000D02*
X284975300Y-26289000D01*
X288086800Y-78105000D02*
X289356800Y-79375000D01*
X169481500Y-32385000D02*
X170688000Y-32385000D01*
X204470000Y-56515000D02*
X208089500Y-56515000D01*
X204978000Y-76835000D02*
X208089500Y-76835000D01*
X204374750Y-63627000D02*
X204882750Y-64135000D01*
X249478800Y-29845000D02*
X248208800Y-28575000D01*
X250685300Y-32385000D02*
X251701300Y-31369000D01*
X235077000Y-84709000D02*
X238125000Y-84709000D01*
X205041500Y-38989000D02*
X205295500Y-38735000D01*
X204978000Y-73025000D02*
X208089500Y-73025000D01*
X249478800Y-40005000D02*
X250685300Y-40005000D01*
X289483800Y-28575000D02*
X290118800Y-28575000D01*
X284372050Y-63627000D02*
X284880050Y-64135000D01*
X168211500Y-53975000D02*
X169481500Y-55245000D01*
X168211500Y-43815000D02*
X169481500Y-45085000D01*
X169481500Y-83185000D02*
X170688000Y-83185000D01*
X245268750Y-43815000D02*
X248094500Y-43815000D01*
D31*
X108597700Y-25171400D02*
X108597700Y-41135300D01*
D30*
X251193300Y-74295000D02*
X254241300Y-71247000D01*
X244983000Y-76835000D02*
X248094500Y-76835000D01*
X206565500Y-77851000D02*
X206819500Y-78105000D01*
X243967000Y-25781000D02*
X211455000Y-25781000D01*
X238887000Y-61849000D02*
X239649000Y-61087000D01*
X66802000Y-60452000D02*
X67564000Y-59690000D01*
X244887750Y-64135000D02*
X248094500Y-64135000D01*
X252717300Y-58293000D02*
X274561300Y-58293000D01*
X250685300Y-88265000D02*
X252971300Y-85979000D01*
X204755750Y-61595000D02*
X208089500Y-61595000D01*
X210693000Y-37465000D02*
X211709000Y-36449000D01*
X169481500Y-52705000D02*
X170688000Y-52705000D01*
X283959300Y-56007000D02*
X284467300Y-56515000D01*
X210058000Y-41275000D02*
X211201000Y-41275000D01*
X211455000Y-25781000D02*
X211201000Y-26035000D01*
X168211500Y-59055000D02*
X169481500Y-60325000D01*
X168084500Y-59055000D02*
X167449500Y-59055000D01*
D29*
X196913500Y-97028000D02*
X202120500Y-97028000D01*
D30*
X248208800Y-64135000D02*
X249478800Y-65405000D01*
X172720000Y-77851000D02*
X206565500Y-77851000D01*
X208089500Y-34925000D02*
X209359500Y-36195000D01*
X251447300Y-25781000D02*
X251193300Y-26035000D01*
X170688000Y-88265000D02*
X172974000Y-85979000D01*
X251193300Y-41275000D02*
X251447300Y-41021000D01*
X209486500Y-27305000D02*
X208216500Y-26035000D01*
X169481500Y-34925000D02*
X170688000Y-34925000D01*
X249478800Y-37465000D02*
X250685300Y-37465000D01*
X197104000Y-49911000D02*
X204787500Y-49911000D01*
X245300500Y-41275000D02*
X245046500Y-41529000D01*
X274815300Y-33909000D02*
X275069300Y-33655000D01*
X249478800Y-32385000D02*
X250685300Y-32385000D01*
X209486500Y-37465000D02*
X210693000Y-37465000D01*
X156019500Y-82550000D02*
X156654500Y-83185000D01*
X194564000Y-58293000D02*
X194818000Y-58039000D01*
X235394500Y-35179000D02*
X236156500Y-35941000D01*
X211709000Y-26289000D02*
X210693000Y-27305000D01*
X210058000Y-86995000D02*
X211201000Y-86995000D01*
X251193300Y-36195000D02*
X251447300Y-35941000D01*
X170688000Y-32385000D02*
X171704000Y-31369000D01*
X206819500Y-78105000D02*
X208089500Y-78105000D01*
X168084500Y-28575000D02*
X167449500Y-28575000D01*
X208216500Y-79375000D02*
X209486500Y-80645000D01*
X289356800Y-84455000D02*
X289991800Y-84455000D01*
X233553000Y-85471000D02*
X234823000Y-86741000D01*
X250685300Y-83185000D02*
X253225300Y-80645000D01*
X156019500Y-74295000D02*
X156019500Y-82550000D01*
X243459000Y-75311000D02*
X244983000Y-76835000D01*
X204978000Y-59055000D02*
X208089500Y-59055000D01*
X245300500Y-78359000D02*
X246316500Y-79375000D01*
X169481500Y-27305000D02*
X168211500Y-26035000D01*
X171196000Y-26035000D02*
X170053000Y-26035000D01*
X168084500Y-53975000D02*
X167449500Y-53975000D01*
X251193300Y-28575000D02*
X250050300Y-28575000D01*
X244792500Y-49911000D02*
X245808500Y-48895000D01*
X234569000Y-61849000D02*
X238887000Y-61849000D01*
X284245050Y-61087000D02*
X284753050Y-61595000D01*
X212725000Y-82931000D02*
X245808500Y-82931000D01*
X289483800Y-26035000D02*
X290118800Y-26035000D01*
X211201000Y-79375000D02*
X212725000Y-77851000D01*
X244792500Y-80645000D02*
X246062500Y-81915000D01*
X198628000Y-58039000D02*
X199136000Y-58547000D01*
X284721300Y-69215000D02*
X288086800Y-69215000D01*
X230759000Y-86487000D02*
X230759000Y-87757000D01*
X210693000Y-85725000D02*
X212979000Y-83439000D01*
X245300500Y-38735000D02*
X248094500Y-38735000D01*
X205041500Y-34925000D02*
X208089500Y-34925000D01*
X209486500Y-80645000D02*
X210693000Y-80645000D01*
X171704000Y-36449000D02*
X193865500Y-36449000D01*
X169481500Y-45085000D02*
X170688000Y-45085000D01*
X211455000Y-35941000D02*
X233807000Y-35941000D01*
X243205000Y-71247000D02*
X244983000Y-73025000D01*
X70866000Y-59690000D02*
X86889000Y-75713000D01*
X208216500Y-38735000D02*
X209486500Y-40005000D01*
X195389500Y-35179000D02*
X196151500Y-35941000D01*
X276148800Y-36449000D02*
X285038800Y-36449000D01*
X168211500Y-76835000D02*
X169481500Y-78105000D01*
D29*
X202120500Y-97028000D02*
X202882500Y-97790000D01*
D30*
X249478800Y-80645000D02*
X250685300Y-80645000D01*
X171196000Y-86995000D02*
X172720000Y-85471000D01*
X191516000Y-88519000D02*
X204533500Y-88519000D01*
X168211500Y-51435000D02*
X169481500Y-52705000D01*
X230759000Y-87757000D02*
X231521000Y-88519000D01*
X213233000Y-80645000D02*
X244792500Y-80645000D01*
X211201000Y-28575000D02*
X210058000Y-28575000D01*
X250685300Y-42545000D02*
X249478800Y-42545000D01*
X248208800Y-59055000D02*
X249478800Y-60325000D01*
X283959300Y-53467000D02*
X284467300Y-53975000D01*
X244983000Y-31369000D02*
X245237000Y-31115000D01*
X169481500Y-67945000D02*
X170688000Y-67945000D01*
X244983000Y-28829000D02*
X211709000Y-28829000D01*
D31*
X141097000Y-116776500D02*
X137096500Y-112776000D01*
D30*
X170688000Y-57785000D02*
X172466000Y-56007000D01*
X244379750Y-63627000D02*
X244887750Y-64135000D01*
X251447300Y-28321000D02*
X251193300Y-28575000D01*
X210693000Y-55245000D02*
X212471000Y-53467000D01*
X245300500Y-36195000D02*
X248094500Y-36195000D01*
X252463300Y-61087000D02*
X273799300Y-61087000D01*
X198882000Y-61849000D02*
X199644000Y-61087000D01*
X236156500Y-36449000D02*
X245046500Y-36449000D01*
X171196000Y-79375000D02*
X172720000Y-77851000D01*
X199390000Y-83439000D02*
X205295500Y-83439000D01*
X251955300Y-46355000D02*
X250685300Y-47625000D01*
X204724000Y-66675000D02*
X208089500Y-66675000D01*
X288086800Y-27305000D02*
X289356800Y-28575000D01*
X208089500Y-73025000D02*
X209359500Y-74295000D01*
X167449500Y-26035000D02*
X168084500Y-26035000D01*
X249478800Y-60325000D02*
X250685300Y-60325000D01*
X172466000Y-66167000D02*
X204216000Y-66167000D01*
X210058000Y-84455000D02*
X211201000Y-84455000D01*
X251447300Y-41021000D02*
X284245050Y-41021000D01*
X208216500Y-56515000D02*
X209486500Y-57785000D01*
X170688000Y-78105000D02*
X173482000Y-75311000D01*
D29*
X282117800Y-97028000D02*
X282879800Y-97790000D01*
D30*
X168084500Y-86995000D02*
X167449500Y-86995000D01*
X250685300Y-52705000D02*
X252717300Y-50673000D01*
X249478800Y-83185000D02*
X250685300Y-83185000D01*
X279133300Y-58547000D02*
X284467300Y-58547000D01*
X277355300Y-85725000D02*
X288086800Y-85725000D01*
X209359500Y-26035000D02*
X208089500Y-24765000D01*
X234823000Y-33909000D02*
X235077000Y-33655000D01*
X278879300Y-61849000D02*
X279641300Y-61087000D01*
X209486500Y-83185000D02*
X210693000Y-83185000D01*
X285292800Y-78359000D02*
X286308800Y-79375000D01*
D29*
X223075500Y-97790000D02*
X236156500Y-97790000D01*
D30*
X252844300Y-48006000D02*
X275196300Y-48006000D01*
X245046500Y-38989000D02*
X245300500Y-38735000D01*
X252971300Y-85979000D02*
X270243300Y-85979000D01*
X249364500Y-84455000D02*
X249999500Y-84455000D01*
X209486500Y-70485000D02*
X210693000Y-70485000D01*
X284880050Y-64135000D02*
X288086800Y-64135000D01*
X54102000Y-60452000D02*
X66802000Y-60452000D01*
X284784800Y-49911000D02*
X285800800Y-48895000D01*
X208089500Y-46355000D02*
X171958000Y-46355000D01*
X288086800Y-46355000D02*
X251955300Y-46355000D01*
X212979000Y-78359000D02*
X245300500Y-78359000D01*
X244729000Y-66675000D02*
X248094500Y-66675000D01*
X278117300Y-84709000D02*
X279387300Y-83439000D01*
X199136000Y-58547000D02*
X204470000Y-58547000D01*
X172847000Y-48006000D02*
X195199000Y-48006000D01*
X248208800Y-33655000D02*
X249478800Y-34925000D01*
X284022800Y-35941000D02*
X285038800Y-34925000D01*
X203962000Y-56007000D02*
X204470000Y-56515000D01*
X168084500Y-66675000D02*
X167449500Y-66675000D01*
X205803500Y-82931000D02*
X206057500Y-83185000D01*
X167449500Y-38735000D02*
X168084500Y-38735000D01*
X211201000Y-31115000D02*
X211455000Y-30861000D01*
X168211500Y-64135000D02*
X169481500Y-65405000D01*
X204978000Y-24765000D02*
X203962000Y-25781000D01*
X171196000Y-31115000D02*
X171450000Y-30861000D01*
X285800800Y-48895000D02*
X288086800Y-48895000D01*
X168211500Y-86995000D02*
X169481500Y-88265000D01*
X248208800Y-84455000D02*
X249478800Y-85725000D01*
D31*
X132270500Y-24257000D02*
X131483100Y-23469600D01*
D30*
X196342000Y-86741000D02*
X197358000Y-85725000D01*
X250685300Y-70485000D02*
X252463300Y-68707000D01*
X212979000Y-85979000D02*
X230251000Y-85979000D01*
X170688000Y-65405000D02*
X172466000Y-63627000D01*
X168084500Y-64135000D02*
X167449500Y-64135000D01*
X193865500Y-36449000D02*
X194627500Y-37211000D01*
X205232000Y-26035000D02*
X204978000Y-26289000D01*
X169481500Y-40005000D02*
X170688000Y-40005000D01*
X203962000Y-28321000D02*
X204978000Y-27305000D01*
X245046500Y-36449000D02*
X245300500Y-36195000D01*
X245300500Y-83439000D02*
X246316500Y-84455000D01*
X169481500Y-88265000D02*
X170688000Y-88265000D01*
X248208800Y-43815000D02*
X249478800Y-45085000D01*
X248208800Y-79375000D02*
X249478800Y-80645000D01*
X209486500Y-62865000D02*
X210693000Y-62865000D01*
X244983000Y-27305000D02*
X248094500Y-27305000D01*
X245268750Y-40005000D02*
X248094500Y-40005000D01*
X208089500Y-29845000D02*
X209359500Y-31115000D01*
X171450000Y-41021000D02*
X204247750Y-41021000D01*
D31*
X122110500Y-112776000D02*
X120332500Y-110998000D01*
D30*
X168084500Y-43815000D02*
X167449500Y-43815000D01*
X205295500Y-41275000D02*
X205041500Y-41529000D01*
X168084500Y-81915000D02*
X167449500Y-81915000D01*
X211709000Y-33909000D02*
X234823000Y-33909000D01*
X210693000Y-67945000D02*
X212471000Y-66167000D01*
X170688000Y-83185000D02*
X173228000Y-80645000D01*
X234569000Y-35179000D02*
X235394500Y-35179000D01*
X248094500Y-46355000D02*
X211963000Y-46355000D01*
X251701300Y-38989000D02*
X285038800Y-38989000D01*
X250685300Y-34925000D02*
X251701300Y-33909000D01*
X246824500Y-78105000D02*
X248094500Y-78105000D01*
X168084500Y-69215000D02*
X167449500Y-69215000D01*
X170688000Y-67945000D02*
X172466000Y-66167000D01*
X212471000Y-68707000D02*
X244221000Y-68707000D01*
X203962000Y-53467000D02*
X204470000Y-53975000D01*
X210693000Y-29845000D02*
X209486500Y-29845000D01*
X194818000Y-86741000D02*
X196342000Y-86741000D01*
X253479300Y-75311000D02*
X283451300Y-75311000D01*
X171704000Y-28829000D02*
X170688000Y-29845000D01*
X210693000Y-65405000D02*
X212471000Y-63627000D01*
X208216500Y-64135000D02*
X209486500Y-65405000D01*
X209359500Y-74295000D02*
X209994500Y-74295000D01*
X249478800Y-67945000D02*
X250685300Y-67945000D01*
D31*
X110299500Y-23469600D02*
X108597700Y-25171400D01*
D30*
X249478800Y-47625000D02*
X248208800Y-46355000D01*
X172720000Y-85471000D02*
X193548000Y-85471000D01*
X244983000Y-24765000D02*
X243967000Y-25781000D01*
X284467300Y-56515000D02*
X288086800Y-56515000D01*
X244729000Y-69215000D02*
X248094500Y-69215000D01*
X168084500Y-48895000D02*
X167449500Y-48895000D01*
X244030500Y-35941000D02*
X245046500Y-34925000D01*
D29*
X242125500Y-97028000D02*
X242887500Y-97790000D01*
D30*
X210693000Y-62865000D02*
X212471000Y-61087000D01*
X57150000Y-59182000D02*
X71882000Y-59182000D01*
X276339300Y-86741000D02*
X277355300Y-85725000D01*
X169481500Y-42545000D02*
X168211500Y-41275000D01*
X284784800Y-50673000D02*
X285546800Y-51435000D01*
D31*
X137096500Y-112776000D02*
X122110500Y-112776000D01*
D30*
X286308800Y-84455000D02*
X288086800Y-84455000D01*
X250685300Y-78105000D02*
X253479300Y-75311000D01*
X209486500Y-32385000D02*
X210693000Y-32385000D01*
X273799300Y-61087000D02*
X274561300Y-61849000D01*
X250685300Y-50165000D02*
X252844300Y-48006000D01*
X244221000Y-68707000D02*
X244729000Y-69215000D01*
X249478800Y-36195000D02*
X250113800Y-36195000D01*
X251701300Y-41529000D02*
X250685300Y-42545000D01*
X196151500Y-36449000D02*
X205041500Y-36449000D01*
X248208800Y-66675000D02*
X249478800Y-67945000D01*
X288086800Y-83185000D02*
X289356800Y-84455000D01*
X170688000Y-80645000D02*
X172974000Y-78359000D01*
X249478800Y-45085000D02*
X250685300Y-45085000D01*
X284721300Y-66675000D02*
X288086800Y-66675000D01*
X275196300Y-48006000D02*
X277101300Y-49911000D01*
X174117000Y-71374000D02*
X203327000Y-71374000D01*
X248094500Y-24765000D02*
X244983000Y-24765000D01*
X208216500Y-61595000D02*
X209486500Y-62865000D01*
X170053000Y-84455000D02*
X171196000Y-84455000D01*
D29*
X241871500Y-98806000D02*
X242887500Y-97790000D01*
D30*
X274561300Y-58293000D02*
X274815300Y-58039000D01*
X203454000Y-75311000D02*
X204978000Y-76835000D01*
X250685300Y-27305000D02*
X249478800Y-27305000D01*
X170688000Y-37465000D02*
X171704000Y-36449000D01*
X208216500Y-36195000D02*
X209486500Y-37465000D01*
X239141000Y-58547000D02*
X244475000Y-58547000D01*
D29*
X236156500Y-97790000D02*
X236918500Y-97028000D01*
D30*
X211201000Y-41275000D02*
X211455000Y-41021000D01*
X169481500Y-41275000D02*
X170116500Y-41275000D01*
X278625300Y-58039000D02*
X279133300Y-58547000D01*
X210693000Y-32385000D02*
X211709000Y-31369000D01*
X209486500Y-42545000D02*
X208216500Y-41275000D01*
X251193300Y-86995000D02*
X252717300Y-85471000D01*
X244475000Y-58547000D02*
X244983000Y-59055000D01*
D31*
X131483100Y-23469600D02*
X110299500Y-23469600D01*
D30*
X209486500Y-29845000D02*
X208216500Y-28575000D01*
D29*
X276910800Y-97028000D02*
X282117800Y-97028000D01*
D31*
X132270500Y-40830500D02*
X132270500Y-24257000D01*
D30*
X285038800Y-36449000D02*
X285292800Y-36195000D01*
X248208800Y-51435000D02*
X249478800Y-52705000D01*
X208216500Y-59055000D02*
X209486500Y-60325000D01*
X211201000Y-74295000D02*
X214249000Y-71247000D01*
X204787500Y-49911000D02*
X205803500Y-48895000D01*
X284975300Y-28829000D02*
X251701300Y-28829000D01*
D29*
X183070500Y-97790000D02*
X196151500Y-97790000D01*
D30*
X250685300Y-85725000D02*
X252971300Y-83439000D01*
X250685300Y-55245000D02*
X252463300Y-53467000D01*
X162369500Y-83185000D02*
X166179500Y-79375000D01*
X198120000Y-84709000D02*
X199390000Y-83439000D01*
X170688000Y-52705000D02*
X172720000Y-50673000D01*
X210693000Y-47625000D02*
X209486500Y-47625000D01*
X284213300Y-66167000D02*
X284721300Y-66675000D01*
D29*
X240538000Y-98806000D02*
X241871500Y-98806000D01*
D30*
X166814500Y-75565000D02*
X168719500Y-75565000D01*
X236156500Y-35941000D02*
X244030500Y-35941000D01*
X168719500Y-75565000D02*
X169989500Y-74295000D01*
X270751300Y-86487000D02*
X270751300Y-87757000D01*
X212471000Y-53467000D02*
X243967000Y-53467000D01*
X275386800Y-35179000D02*
X276148800Y-35941000D01*
X248208800Y-86995000D02*
X249478800Y-88265000D01*
X208089500Y-41275000D02*
X205295500Y-41275000D01*
X211963000Y-46355000D02*
X210693000Y-47625000D01*
X253225300Y-80645000D02*
X284784800Y-80645000D01*
X238125000Y-84709000D02*
X239395000Y-83439000D01*
X250685300Y-62865000D02*
X252463300Y-61087000D01*
X169481500Y-29845000D02*
X168211500Y-28575000D01*
X170688000Y-55245000D02*
X172466000Y-53467000D01*
X205295500Y-83439000D02*
X206311500Y-84455000D01*
X248208800Y-48895000D02*
X249478800Y-50165000D01*
X195072000Y-84709000D02*
X198120000Y-84709000D01*
X279641300Y-61087000D02*
X284245050Y-61087000D01*
X284530800Y-88519000D02*
X286054800Y-86995000D01*
X249478800Y-86995000D02*
X250113800Y-86995000D01*
X204787500Y-80645000D02*
X206057500Y-81915000D01*
X285292800Y-36195000D02*
X288086800Y-36195000D01*
X288086800Y-40005000D02*
X289356800Y-41275000D01*
X86889000Y-75713000D02*
X94234000Y-75713000D01*
X196151500Y-35941000D02*
X204025500Y-35941000D01*
X54102000Y-57912000D02*
X55880000Y-57912000D01*
X210693000Y-45085000D02*
X211709000Y-44069000D01*
X208089500Y-40005000D02*
X209359500Y-41275000D01*
X210693000Y-80645000D02*
X212979000Y-78359000D01*
X274815300Y-86741000D02*
X276339300Y-86741000D01*
X171958000Y-46355000D02*
X170688000Y-47625000D01*
X288086800Y-28575000D02*
X285229300Y-28575000D01*
X168084500Y-36195000D02*
X167449500Y-36195000D01*
X249478800Y-27305000D02*
X248208800Y-26035000D01*
X172466000Y-61087000D02*
X193802000Y-61087000D01*
X252463300Y-56007000D02*
X283959300Y-56007000D01*
X246062500Y-83185000D02*
X248094500Y-83185000D01*
X283959300Y-30861000D02*
X284975300Y-29845000D01*
X205295500Y-78359000D02*
X206311500Y-79375000D01*
X208089500Y-78105000D02*
X209359500Y-79375000D01*
X170688000Y-29845000D02*
X169481500Y-29845000D01*
X170688000Y-34925000D02*
X171704000Y-33909000D01*
X252717300Y-82931000D02*
X285800800Y-82931000D01*
X244983000Y-73025000D02*
X248094500Y-73025000D01*
X209486500Y-67945000D02*
X210693000Y-67945000D01*
X285261050Y-40005000D02*
X288086800Y-40005000D01*
X204533500Y-88519000D02*
X206057500Y-86995000D01*
X284975300Y-27305000D02*
X288086800Y-27305000D01*
X285038800Y-38989000D02*
X285292800Y-38735000D01*
X171196000Y-84455000D02*
X172720000Y-82931000D01*
X169481500Y-55245000D02*
X170688000Y-55245000D01*
X234632500Y-37211000D02*
X235394500Y-37211000D01*
X235204000Y-48006000D02*
X237109000Y-49911000D01*
X284975300Y-26289000D02*
X251701300Y-26289000D01*
X245237000Y-31115000D02*
X248094500Y-31115000D01*
X211709000Y-36449000D02*
X233870500Y-36449000D01*
X171450000Y-28321000D02*
X171196000Y-28575000D01*
X284975300Y-76835000D02*
X288086800Y-76835000D01*
X171704000Y-38989000D02*
X205041500Y-38989000D01*
X245808500Y-48895000D02*
X248094500Y-48895000D01*
X205803500Y-48895000D02*
X208089500Y-48895000D01*
X248094500Y-26035000D02*
X245237000Y-26035000D01*
X211455000Y-41021000D02*
X244252750Y-41021000D01*
X205041500Y-41529000D02*
X171704000Y-41529000D01*
X273862800Y-36449000D02*
X274624800Y-37211000D01*
X250685300Y-60325000D02*
X252717300Y-58293000D01*
D31*
X296354500Y-73025000D02*
X311086500Y-73025000D01*
D30*
X172466000Y-63627000D02*
X204374750Y-63627000D01*
X286816800Y-78105000D02*
X288086800Y-78105000D01*
X246062500Y-86995000D02*
X248094500Y-86995000D01*
X246316500Y-79375000D02*
X248094500Y-79375000D01*
D31*
X165544500Y-77470000D02*
X165544500Y-68580000D01*
D30*
X205295500Y-38735000D02*
X208089500Y-38735000D01*
X208089500Y-27305000D02*
X209359500Y-28575000D01*
X171196000Y-36195000D02*
X171450000Y-35941000D01*
X284467300Y-58547000D02*
X284975300Y-59055000D01*
X209486500Y-40005000D02*
X210693000Y-40005000D01*
X204247750Y-41021000D02*
X205263750Y-40005000D01*
D29*
X236918500Y-97028000D02*
X242125500Y-97028000D01*
D30*
X208216500Y-33655000D02*
X209486500Y-34925000D01*
X244475000Y-53975000D02*
X248094500Y-53975000D01*
X288086800Y-34925000D02*
X289356800Y-36195000D01*
X171450000Y-30861000D02*
X203962000Y-30861000D01*
X286308800Y-79375000D02*
X288086800Y-79375000D01*
X248208800Y-31115000D02*
X249478800Y-32385000D01*
X245237000Y-26035000D02*
X244983000Y-26289000D01*
X233807000Y-83439000D02*
X235077000Y-84709000D01*
X283959300Y-25781000D02*
X251447300Y-25781000D01*
X275069300Y-33655000D02*
X288086800Y-33655000D01*
X194564000Y-61849000D02*
X198882000Y-61849000D01*
X204978000Y-27305000D02*
X208089500Y-27305000D01*
X251701300Y-36449000D02*
X273862800Y-36449000D01*
X172720000Y-82931000D02*
X205803500Y-82931000D01*
X168211500Y-33655000D02*
X169481500Y-34925000D01*
X171704000Y-31369000D02*
X204978000Y-31369000D01*
X249478800Y-70485000D02*
X250685300Y-70485000D01*
X212979000Y-83439000D02*
X233807000Y-83439000D01*
X168211500Y-38735000D02*
X169481500Y-40005000D01*
X170053000Y-86995000D02*
X171196000Y-86995000D01*
X248208800Y-69215000D02*
X249478800Y-70485000D01*
X206311500Y-84455000D02*
X208089500Y-84455000D01*
X275069300Y-84709000D02*
X278117300Y-84709000D01*
X205232000Y-28575000D02*
X204978000Y-28829000D01*
X168211500Y-56515000D02*
X169481500Y-57785000D01*
X156654500Y-83185000D02*
X162369500Y-83185000D01*
X208216500Y-48895000D02*
X209486500Y-50165000D01*
X205263750Y-43815000D02*
X208089500Y-43815000D01*
X190754000Y-86487000D02*
X190754000Y-87757000D01*
X284975300Y-59055000D02*
X288086800Y-59055000D01*
X244983000Y-59055000D02*
X248094500Y-59055000D01*
X249478800Y-52705000D02*
X250685300Y-52705000D01*
X172720000Y-50673000D02*
X204787500Y-50673000D01*
X204470000Y-58547000D02*
X204978000Y-59055000D01*
X211709000Y-41529000D02*
X210693000Y-42545000D01*
X245046500Y-41529000D02*
X211709000Y-41529000D01*
X203962000Y-30861000D02*
X204978000Y-29845000D01*
X249478800Y-85725000D02*
X250685300Y-85725000D01*
X248208800Y-61595000D02*
X249478800Y-62865000D01*
X211201000Y-86995000D02*
X212725000Y-85471000D01*
X244760750Y-61595000D02*
X248094500Y-61595000D01*
X208089500Y-28575000D02*
X205232000Y-28575000D01*
X208216500Y-76835000D02*
X209486500Y-78105000D01*
X166179500Y-79375000D02*
X166179500Y-76200000D01*
X284753050Y-61595000D02*
X288086800Y-61595000D01*
X285800800Y-82931000D02*
X286054800Y-83185000D01*
D31*
X120332500Y-110998000D02*
X120332500Y-28956000D01*
D30*
X195199000Y-48006000D02*
X197104000Y-49911000D01*
X67564000Y-59690000D02*
X70866000Y-59690000D01*
X248208800Y-38735000D02*
X249478800Y-40005000D01*
X166179500Y-76200000D02*
X166814500Y-75565000D01*
X286054800Y-81915000D02*
X288086800Y-81915000D01*
X169481500Y-37465000D02*
X170688000Y-37465000D01*
X249478800Y-34925000D02*
X250685300Y-34925000D01*
X208216500Y-66675000D02*
X209486500Y-67945000D01*
X169481500Y-47625000D02*
X168211500Y-46355000D01*
X208089500Y-85725000D02*
X209359500Y-86995000D01*
X284975300Y-29845000D02*
X288086800Y-29845000D01*
X170688000Y-62865000D02*
X172466000Y-61087000D01*
X235077000Y-33655000D02*
X248094500Y-33655000D01*
X171450000Y-28321000D02*
X203962000Y-28321000D01*
X214249000Y-71247000D02*
X243205000Y-71247000D01*
X243967000Y-28321000D02*
X244983000Y-27305000D01*
X270243300Y-85979000D02*
X270751300Y-86487000D01*
X250685300Y-45085000D02*
X251701300Y-44069000D01*
X233870500Y-36449000D02*
X234632500Y-37211000D01*
X283451300Y-75311000D02*
X284975300Y-76835000D01*
X205041500Y-36449000D02*
X205295500Y-36195000D01*
D31*
X117475000Y-29781500D02*
X114871500Y-29781500D01*
D30*
X209486500Y-45085000D02*
X210693000Y-45085000D01*
X252463300Y-53467000D02*
X283959300Y-53467000D01*
X168084500Y-33655000D02*
X167449500Y-33655000D01*
X284975300Y-24765000D02*
X283959300Y-25781000D01*
D31*
X141541500Y-116776500D02*
X141097000Y-116776500D01*
D30*
X249478800Y-55245000D02*
X250685300Y-55245000D01*
X205263750Y-40005000D02*
X208089500Y-40005000D01*
X208216500Y-69215000D02*
X209486500Y-70485000D01*
X283959300Y-28321000D02*
X284975300Y-27305000D01*
D31*
X163639500Y-79375000D02*
X165544500Y-77470000D01*
D30*
X248094500Y-83185000D02*
X249364500Y-84455000D01*
X249478800Y-62865000D02*
X250685300Y-62865000D01*
X211201000Y-84455000D02*
X212725000Y-82931000D01*
X249478800Y-50165000D02*
X250685300Y-50165000D01*
X285229300Y-28575000D02*
X284975300Y-28829000D01*
X172974000Y-85979000D02*
X190246000Y-85979000D01*
X194818000Y-58039000D02*
X198628000Y-58039000D01*
X251701300Y-44069000D02*
X285007050Y-44069000D01*
X169481500Y-65405000D02*
X170688000Y-65405000D01*
X243967000Y-56007000D02*
X244475000Y-56515000D01*
X157289500Y-32385000D02*
X163004500Y-32385000D01*
X212725000Y-77851000D02*
X246570500Y-77851000D01*
X248094500Y-28575000D02*
X245237000Y-28575000D01*
X168084500Y-51435000D02*
X167449500Y-51435000D01*
X204216000Y-68707000D02*
X204724000Y-69215000D01*
X244475000Y-56515000D02*
X248094500Y-56515000D01*
X208216500Y-43815000D02*
X209486500Y-45085000D01*
X286562800Y-77851000D02*
X286816800Y-78105000D01*
X212471000Y-66167000D02*
X244221000Y-66167000D01*
X248208800Y-36195000D02*
X249478800Y-37465000D01*
X252463300Y-68707000D02*
X284213300Y-68707000D01*
X288086800Y-41275000D02*
X285292800Y-41275000D01*
X251447300Y-30861000D02*
X283959300Y-30861000D01*
X285007050Y-44069000D02*
X285261050Y-43815000D01*
X251193300Y-79375000D02*
X252717300Y-77851000D01*
X171196000Y-74295000D02*
X174117000Y-71374000D01*
X252463300Y-63627000D02*
X284372050Y-63627000D01*
X244983000Y-26289000D02*
X211709000Y-26289000D01*
X245554500Y-51435000D02*
X248094500Y-51435000D01*
X211709000Y-28829000D02*
X210693000Y-29845000D01*
X169481500Y-78105000D02*
X170688000Y-78105000D01*
X55880000Y-57912000D02*
X57150000Y-59182000D01*
X170688000Y-42545000D02*
X169481500Y-42545000D01*
X170688000Y-70485000D02*
X172466000Y-68707000D01*
X168084500Y-46355000D02*
X167449500Y-46355000D01*
X80793000Y-68093000D02*
X94234000Y-68093000D01*
X286054800Y-86995000D02*
X288086800Y-86995000D01*
X248208800Y-76835000D02*
X249478800Y-78105000D01*
D29*
X276148800Y-97790000D02*
X276910800Y-97028000D01*
D30*
X250685300Y-29845000D02*
X249478800Y-29845000D01*
X168211500Y-79375000D02*
X169481500Y-80645000D01*
X252463300Y-66167000D02*
X284213300Y-66167000D01*
X204247750Y-61087000D02*
X204755750Y-61595000D01*
X273799300Y-83439000D02*
X275069300Y-84709000D01*
X204978000Y-28829000D02*
X171704000Y-28829000D01*
X273799300Y-35941000D02*
X274561300Y-35179000D01*
X171704000Y-26289000D02*
X170688000Y-27305000D01*
M02*
