%TF.GenerationSoftware,KiCad,Pcbnew,(7.0.0)*%
%TF.CreationDate,2023-03-13T22:40:24-04:00*%
%TF.ProjectId,luminator,6c756d69-6e61-4746-9f72-2e6b69636164,rev?*%
%TF.SameCoordinates,Original*%
%TF.FileFunction,Legend,Bot*%
%TF.FilePolarity,Positive*%
%FSLAX46Y46*%
G04 Gerber Fmt 4.6, Leading zero omitted, Abs format (unit mm)*
G04 Created by KiCad (PCBNEW (7.0.0)) date 2023-03-13 22:40:24*
%MOMM*%
%LPD*%
G01*
G04 APERTURE LIST*
%ADD10C,0.075000*%
%ADD11C,0.150000*%
%ADD12C,0.508000*%
%ADD13C,1.600000*%
%ADD14R,1.295400X1.295400*%
%ADD15C,1.295400*%
%ADD16R,1.227074X1.227074*%
%ADD17C,1.227074*%
%ADD18R,1.600000X1.600000*%
%ADD19C,1.200000*%
%ADD20C,1.498600*%
%ADD21C,1.524000*%
%ADD22C,3.000000*%
%ADD23R,2.000000X2.000000*%
%ADD24C,2.000000*%
%ADD25R,1.508000X1.508000*%
%ADD26C,1.508000*%
%ADD27C,1.803400*%
%ADD28C,3.200000*%
%ADD29O,1.727200X1.727200*%
%ADD30R,1.727200X1.727200*%
G04 APERTURE END LIST*
D10*
X100273309Y-58281047D02*
X100773309Y-58281047D01*
X100773309Y-58281047D02*
X100773309Y-58161999D01*
X100773309Y-58161999D02*
X100749500Y-58090571D01*
X100749500Y-58090571D02*
X100701880Y-58042952D01*
X100701880Y-58042952D02*
X100654261Y-58019142D01*
X100654261Y-58019142D02*
X100559023Y-57995333D01*
X100559023Y-57995333D02*
X100487595Y-57995333D01*
X100487595Y-57995333D02*
X100392357Y-58019142D01*
X100392357Y-58019142D02*
X100344738Y-58042952D01*
X100344738Y-58042952D02*
X100297119Y-58090571D01*
X100297119Y-58090571D02*
X100273309Y-58161999D01*
X100273309Y-58161999D02*
X100273309Y-58281047D01*
X100773309Y-57685809D02*
X100773309Y-57638190D01*
X100773309Y-57638190D02*
X100749500Y-57590571D01*
X100749500Y-57590571D02*
X100725690Y-57566761D01*
X100725690Y-57566761D02*
X100678071Y-57542952D01*
X100678071Y-57542952D02*
X100582833Y-57519142D01*
X100582833Y-57519142D02*
X100463785Y-57519142D01*
X100463785Y-57519142D02*
X100368547Y-57542952D01*
X100368547Y-57542952D02*
X100320928Y-57566761D01*
X100320928Y-57566761D02*
X100297119Y-57590571D01*
X100297119Y-57590571D02*
X100273309Y-57638190D01*
X100273309Y-57638190D02*
X100273309Y-57685809D01*
X100273309Y-57685809D02*
X100297119Y-57733428D01*
X100297119Y-57733428D02*
X100320928Y-57757237D01*
X100320928Y-57757237D02*
X100368547Y-57781047D01*
X100368547Y-57781047D02*
X100463785Y-57804856D01*
X100463785Y-57804856D02*
X100582833Y-57804856D01*
X100582833Y-57804856D02*
X100678071Y-57781047D01*
X100678071Y-57781047D02*
X100725690Y-57757237D01*
X100725690Y-57757237D02*
X100749500Y-57733428D01*
X100749500Y-57733428D02*
X100773309Y-57685809D01*
D11*
X83838142Y-58928000D02*
X83885761Y-58975619D01*
X83885761Y-58975619D02*
X83933380Y-58928000D01*
X83933380Y-58928000D02*
X83885761Y-58880381D01*
X83885761Y-58880381D02*
X83838142Y-58928000D01*
X83838142Y-58928000D02*
X83933380Y-58928000D01*
D12*
X42545000Y-81026000D02*
G75*
G03*
X42545000Y-81026000I-381000J0D01*
G01*
%LPC*%
D13*
X240538000Y-98806000D03*
X238038000Y-98806000D03*
D14*
X133921499Y-74231499D03*
D15*
X133921500Y-76771500D03*
X133921500Y-79311500D03*
X133921500Y-81851500D03*
X133921500Y-84391500D03*
X133921500Y-86931500D03*
X133921500Y-89471500D03*
X133921500Y-92011500D03*
X141541500Y-92011500D03*
X141541500Y-89471500D03*
X141541500Y-86931500D03*
X141541500Y-84391500D03*
X141541500Y-81851500D03*
X141541500Y-79311500D03*
X141541500Y-76771500D03*
X141541500Y-74231500D03*
D16*
X224682999Y-45084999D03*
D17*
X224683000Y-42545000D03*
X224683000Y-40005000D03*
X224683000Y-37465000D03*
X224683000Y-34925000D03*
X224683000Y-32385000D03*
X224683000Y-29845000D03*
X224683000Y-27305000D03*
X224683000Y-24765000D03*
X217063000Y-24765000D03*
X217063000Y-27305000D03*
X217063000Y-29845000D03*
X217063000Y-32385000D03*
X217063000Y-34925000D03*
X217063000Y-37465000D03*
X217063000Y-40005000D03*
X217063000Y-42545000D03*
X217063000Y-45085000D03*
D14*
X320428299Y-119443499D03*
D15*
X320428300Y-116903500D03*
X320428300Y-114363500D03*
X320428300Y-111823500D03*
X320428300Y-109283500D03*
X320428300Y-106743500D03*
X320428300Y-104203500D03*
X320428300Y-101663500D03*
X312808300Y-101663500D03*
X312808300Y-104203500D03*
X312808300Y-106743500D03*
X312808300Y-109283500D03*
X312808300Y-111823500D03*
X312808300Y-114363500D03*
X312808300Y-116903500D03*
X312808300Y-119443500D03*
D13*
X200533000Y-73406000D03*
X198033000Y-73406000D03*
D18*
X47941112Y-108457999D03*
D13*
X45441113Y-108458000D03*
X240538000Y-73406000D03*
X238038000Y-73406000D03*
D16*
X224682999Y-119379999D03*
D17*
X224683000Y-116840000D03*
X224683000Y-114300000D03*
X224683000Y-111760000D03*
X224683000Y-109220000D03*
X224683000Y-106680000D03*
X224683000Y-104140000D03*
X224683000Y-101600000D03*
X224683000Y-99060000D03*
X217063000Y-99060000D03*
X217063000Y-101600000D03*
X217063000Y-104140000D03*
X217063000Y-106680000D03*
X217063000Y-109220000D03*
X217063000Y-111760000D03*
X217063000Y-114300000D03*
X217063000Y-116840000D03*
X217063000Y-119380000D03*
D19*
X228747000Y-99060000D03*
X228747000Y-101600000D03*
X228747000Y-104140000D03*
X228747000Y-106680000D03*
X228747000Y-109220000D03*
X228747000Y-111760000D03*
X228747000Y-114300000D03*
X228747000Y-116840000D03*
X228747000Y-119380000D03*
D20*
X290055300Y-120650000D03*
X287515300Y-120650000D03*
X290055300Y-118110000D03*
X287515300Y-118110000D03*
X290055300Y-115570000D03*
X287515300Y-115570000D03*
X290055300Y-113030000D03*
X287515300Y-113030000D03*
X290055300Y-110490000D03*
X287515300Y-110490000D03*
X290055300Y-107950000D03*
X287515300Y-107950000D03*
X290055300Y-105410000D03*
X287515300Y-105410000D03*
X290055300Y-102870000D03*
X287515300Y-102870000D03*
X290055300Y-100330000D03*
X287515300Y-100330000D03*
X290055300Y-97790000D03*
X287515300Y-97790000D03*
D13*
X107144500Y-70612000D03*
X109644500Y-70612000D03*
D19*
X118935500Y-119380000D03*
X118935500Y-116840000D03*
X118935500Y-114300000D03*
X118935500Y-111760000D03*
X118935500Y-109220000D03*
X118935500Y-106680000D03*
X118935500Y-104140000D03*
X118935500Y-101600000D03*
X118935500Y-99060000D03*
D21*
X250050300Y-86995000D03*
X247510300Y-86995000D03*
X250050300Y-84455000D03*
X247510300Y-84455000D03*
X250050300Y-81915000D03*
X247510300Y-81915000D03*
X250050300Y-79375000D03*
X247510300Y-79375000D03*
X250050300Y-76835000D03*
X247510300Y-76835000D03*
X250050300Y-74295000D03*
X247510300Y-74295000D03*
X250050300Y-71755000D03*
X247510300Y-71755000D03*
X250050300Y-69215000D03*
X247510300Y-69215000D03*
X250050300Y-66675000D03*
X247510300Y-66675000D03*
X250050300Y-64135000D03*
X247510300Y-64135000D03*
X250050300Y-61595000D03*
X247510300Y-61595000D03*
X250050300Y-59055000D03*
X247510300Y-59055000D03*
X250050300Y-56515000D03*
X247510300Y-56515000D03*
X250050300Y-53975000D03*
X247510300Y-53975000D03*
X250050300Y-51435000D03*
X247510300Y-51435000D03*
X250050300Y-48895000D03*
X247510300Y-48895000D03*
X250050300Y-46355000D03*
X247510300Y-46355000D03*
X250050300Y-43815000D03*
X247510300Y-43815000D03*
X250050300Y-41275000D03*
X247510300Y-41275000D03*
X250050300Y-38735000D03*
X247510300Y-38735000D03*
X250050300Y-36195000D03*
X247510300Y-36195000D03*
X250050300Y-33655000D03*
X247510300Y-33655000D03*
X250050300Y-31115000D03*
X247510300Y-31115000D03*
X250050300Y-28575000D03*
X247510300Y-28575000D03*
X250050300Y-26035000D03*
X247510300Y-26035000D03*
D20*
X210058000Y-120650000D03*
X207518000Y-120650000D03*
X210058000Y-118110000D03*
X207518000Y-118110000D03*
X210058000Y-115570000D03*
X207518000Y-115570000D03*
X210058000Y-113030000D03*
X207518000Y-113030000D03*
X210058000Y-110490000D03*
X207518000Y-110490000D03*
X210058000Y-107950000D03*
X207518000Y-107950000D03*
X210058000Y-105410000D03*
X207518000Y-105410000D03*
X210058000Y-102870000D03*
X207518000Y-102870000D03*
X210058000Y-100330000D03*
X207518000Y-100330000D03*
X210058000Y-97790000D03*
X207518000Y-97790000D03*
D14*
X200425999Y-45148499D03*
D15*
X200426000Y-42608500D03*
X200426000Y-40068500D03*
X200426000Y-37528500D03*
X200426000Y-34988500D03*
X200426000Y-32448500D03*
X200426000Y-29908500D03*
X200426000Y-27368500D03*
X192806000Y-27368500D03*
X192806000Y-29908500D03*
X192806000Y-32448500D03*
X192806000Y-34988500D03*
X192806000Y-37528500D03*
X192806000Y-40068500D03*
X192806000Y-42608500D03*
X192806000Y-45148500D03*
D14*
X280423299Y-119443499D03*
D15*
X280423300Y-116903500D03*
X280423300Y-114363500D03*
X280423300Y-111823500D03*
X280423300Y-109283500D03*
X280423300Y-106743500D03*
X280423300Y-104203500D03*
X280423300Y-101663500D03*
X272803300Y-101663500D03*
X272803300Y-104203500D03*
X272803300Y-106743500D03*
X272803300Y-109283500D03*
X272803300Y-111823500D03*
X272803300Y-114363500D03*
X272803300Y-116903500D03*
X272803300Y-119443500D03*
D19*
X268739300Y-24765000D03*
X268739300Y-27305000D03*
X268739300Y-29845000D03*
X268739300Y-32385000D03*
X268739300Y-34925000D03*
X268739300Y-37465000D03*
X268739300Y-40005000D03*
X268739300Y-42545000D03*
X268739300Y-45085000D03*
D13*
X133814500Y-45974000D03*
X136314500Y-45974000D03*
D14*
X280423299Y-45148499D03*
D15*
X280423300Y-42608500D03*
X280423300Y-40068500D03*
X280423300Y-37528500D03*
X280423300Y-34988500D03*
X280423300Y-32448500D03*
X280423300Y-29908500D03*
X280423300Y-27368500D03*
X272803300Y-27368500D03*
X272803300Y-29908500D03*
X272803300Y-32448500D03*
X272803300Y-34988500D03*
X272803300Y-37528500D03*
X272803300Y-40068500D03*
X272803300Y-42608500D03*
X272803300Y-45148500D03*
D13*
X240538000Y-48514000D03*
X238038000Y-48514000D03*
D16*
X122999499Y-74294999D03*
D17*
X122999500Y-76835000D03*
X122999500Y-79375000D03*
X122999500Y-81915000D03*
X122999500Y-84455000D03*
X122999500Y-86995000D03*
X122999500Y-89535000D03*
X122999500Y-92075000D03*
X122999500Y-94615000D03*
X130619500Y-94615000D03*
X130619500Y-92075000D03*
X130619500Y-89535000D03*
X130619500Y-86995000D03*
X130619500Y-84455000D03*
X130619500Y-81915000D03*
X130619500Y-79375000D03*
X130619500Y-76835000D03*
X130619500Y-74295000D03*
D16*
X304680299Y-119379999D03*
D17*
X304680300Y-116840000D03*
X304680300Y-114300000D03*
X304680300Y-111760000D03*
X304680300Y-109220000D03*
X304680300Y-106680000D03*
X304680300Y-104140000D03*
X304680300Y-101600000D03*
X304680300Y-99060000D03*
X297060300Y-99060000D03*
X297060300Y-101600000D03*
X297060300Y-104140000D03*
X297060300Y-106680000D03*
X297060300Y-109220000D03*
X297060300Y-111760000D03*
X297060300Y-114300000D03*
X297060300Y-116840000D03*
X297060300Y-119380000D03*
D16*
X304680299Y-69849999D03*
D17*
X304680300Y-67310000D03*
X304680300Y-64770000D03*
X304680300Y-62230000D03*
X304680300Y-59690000D03*
X304680300Y-57150000D03*
X304680300Y-54610000D03*
X304680300Y-52070000D03*
X304680300Y-49530000D03*
X297060300Y-49530000D03*
X297060300Y-52070000D03*
X297060300Y-54610000D03*
X297060300Y-57150000D03*
X297060300Y-59690000D03*
X297060300Y-62230000D03*
X297060300Y-64770000D03*
X297060300Y-67310000D03*
X297060300Y-69850000D03*
D13*
X200533000Y-98806000D03*
X198033000Y-98806000D03*
D20*
X250050300Y-120650000D03*
X247510300Y-120650000D03*
X250050300Y-118110000D03*
X247510300Y-118110000D03*
X250050300Y-115570000D03*
X247510300Y-115570000D03*
X250050300Y-113030000D03*
X247510300Y-113030000D03*
X250050300Y-110490000D03*
X247510300Y-110490000D03*
X250050300Y-107950000D03*
X247510300Y-107950000D03*
X250050300Y-105410000D03*
X247510300Y-105410000D03*
X250050300Y-102870000D03*
X247510300Y-102870000D03*
X250050300Y-100330000D03*
X247510300Y-100330000D03*
X250050300Y-97790000D03*
X247510300Y-97790000D03*
D13*
X280530300Y-73406000D03*
X278030300Y-73406000D03*
D14*
X240430999Y-69913499D03*
D15*
X240431000Y-67373500D03*
X240431000Y-64833500D03*
X240431000Y-62293500D03*
X240431000Y-59753500D03*
X240431000Y-57213500D03*
X240431000Y-54673500D03*
X240431000Y-52133500D03*
X232811000Y-52133500D03*
X232811000Y-54673500D03*
X232811000Y-57213500D03*
X232811000Y-59753500D03*
X232811000Y-62293500D03*
X232811000Y-64833500D03*
X232811000Y-67373500D03*
X232811000Y-69913500D03*
D19*
X268739300Y-99060000D03*
X268739300Y-101600000D03*
X268739300Y-104140000D03*
X268739300Y-106680000D03*
X268739300Y-109220000D03*
X268739300Y-111760000D03*
X268739300Y-114300000D03*
X268739300Y-116840000D03*
X268739300Y-119380000D03*
X308744300Y-49530000D03*
X308744300Y-52070000D03*
X308744300Y-54610000D03*
X308744300Y-57150000D03*
X308744300Y-59690000D03*
X308744300Y-62230000D03*
X308744300Y-64770000D03*
X308744300Y-67310000D03*
X308744300Y-69850000D03*
D16*
X149669499Y-49529999D03*
D17*
X149669500Y-52070000D03*
X149669500Y-54610000D03*
X149669500Y-57150000D03*
X149669500Y-59690000D03*
X149669500Y-62230000D03*
X149669500Y-64770000D03*
X149669500Y-67310000D03*
X149669500Y-69850000D03*
X157289500Y-69850000D03*
X157289500Y-67310000D03*
X157289500Y-64770000D03*
X157289500Y-62230000D03*
X157289500Y-59690000D03*
X157289500Y-57150000D03*
X157289500Y-54610000D03*
X157289500Y-52070000D03*
X157289500Y-49530000D03*
D14*
X107251499Y-98996499D03*
D15*
X107251500Y-101536500D03*
X107251500Y-104076500D03*
X107251500Y-106616500D03*
X107251500Y-109156500D03*
X107251500Y-111696500D03*
X107251500Y-114236500D03*
X107251500Y-116776500D03*
X114871500Y-116776500D03*
X114871500Y-114236500D03*
X114871500Y-111696500D03*
X114871500Y-109156500D03*
X114871500Y-106616500D03*
X114871500Y-104076500D03*
X114871500Y-101536500D03*
X114871500Y-98996500D03*
D14*
X200425999Y-69913499D03*
D15*
X200426000Y-67373500D03*
X200426000Y-64833500D03*
X200426000Y-62293500D03*
X200426000Y-59753500D03*
X200426000Y-57213500D03*
X200426000Y-54673500D03*
X200426000Y-52133500D03*
X192806000Y-52133500D03*
X192806000Y-54673500D03*
X192806000Y-57213500D03*
X192806000Y-59753500D03*
X192806000Y-62293500D03*
X192806000Y-64833500D03*
X192806000Y-67373500D03*
X192806000Y-69913500D03*
D22*
X69304000Y-62123000D03*
X69304000Y-109073000D03*
X93814000Y-62123000D03*
X93814000Y-109073000D03*
D23*
X94233999Y-101112999D03*
D24*
X94234000Y-98573000D03*
X94234000Y-96033000D03*
X94234000Y-93493000D03*
X94234000Y-90953000D03*
X94234000Y-88413000D03*
X94234000Y-85873000D03*
X94234000Y-83333000D03*
X94234000Y-80793000D03*
X94234000Y-78253000D03*
X94234000Y-75713000D03*
X94234000Y-73173000D03*
X94234000Y-70633000D03*
X94234000Y-68093000D03*
X94234000Y-65553000D03*
X68834000Y-65553000D03*
X68834000Y-68093000D03*
X68834000Y-70633000D03*
X68834000Y-73173000D03*
X68834000Y-75713000D03*
X68834000Y-78253000D03*
X68834000Y-80793000D03*
X68834000Y-83333000D03*
X68834000Y-85873000D03*
X68834000Y-88413000D03*
X68834000Y-90953000D03*
X68834000Y-93493000D03*
X68834000Y-96033000D03*
X68834000Y-98573000D03*
X68834000Y-101113000D03*
D16*
X122999499Y-49529999D03*
D17*
X122999500Y-52070000D03*
X122999500Y-54610000D03*
X122999500Y-57150000D03*
X122999500Y-59690000D03*
X122999500Y-62230000D03*
X122999500Y-64770000D03*
X122999500Y-67310000D03*
X122999500Y-69850000D03*
X130619500Y-69850000D03*
X130619500Y-67310000D03*
X130619500Y-64770000D03*
X130619500Y-62230000D03*
X130619500Y-59690000D03*
X130619500Y-57150000D03*
X130619500Y-54610000D03*
X130619500Y-52070000D03*
X130619500Y-49530000D03*
D14*
X240430999Y-45148499D03*
D15*
X240431000Y-42608500D03*
X240431000Y-40068500D03*
X240431000Y-37528500D03*
X240431000Y-34988500D03*
X240431000Y-32448500D03*
X240431000Y-29908500D03*
X240431000Y-27368500D03*
X232811000Y-27368500D03*
X232811000Y-29908500D03*
X232811000Y-32448500D03*
X232811000Y-34988500D03*
X232811000Y-37528500D03*
X232811000Y-40068500D03*
X232811000Y-42608500D03*
X232811000Y-45148500D03*
D14*
X133921499Y-24701499D03*
D15*
X133921500Y-27241500D03*
X133921500Y-29781500D03*
X133921500Y-32321500D03*
X133921500Y-34861500D03*
X133921500Y-37401500D03*
X133921500Y-39941500D03*
X133921500Y-42481500D03*
X141541500Y-42481500D03*
X141541500Y-39941500D03*
X141541500Y-37401500D03*
X141541500Y-34861500D03*
X141541500Y-32321500D03*
X141541500Y-29781500D03*
X141541500Y-27241500D03*
X141541500Y-24701500D03*
D19*
X188742000Y-99060000D03*
X188742000Y-101600000D03*
X188742000Y-104140000D03*
X188742000Y-106680000D03*
X188742000Y-109220000D03*
X188742000Y-111760000D03*
X188742000Y-114300000D03*
X188742000Y-116840000D03*
X188742000Y-119380000D03*
X188742000Y-74295000D03*
X188742000Y-76835000D03*
X188742000Y-79375000D03*
X188742000Y-81915000D03*
X188742000Y-84455000D03*
X188742000Y-86995000D03*
X188742000Y-89535000D03*
X188742000Y-92075000D03*
X188742000Y-94615000D03*
X145605500Y-45085000D03*
X145605500Y-42545000D03*
X145605500Y-40005000D03*
X145605500Y-37465000D03*
X145605500Y-34925000D03*
X145605500Y-32385000D03*
X145605500Y-29845000D03*
X145605500Y-27305000D03*
X145605500Y-24765000D03*
X145605500Y-119380000D03*
X145605500Y-116840000D03*
X145605500Y-114300000D03*
X145605500Y-111760000D03*
X145605500Y-109220000D03*
X145605500Y-106680000D03*
X145605500Y-104140000D03*
X145605500Y-101600000D03*
X145605500Y-99060000D03*
D13*
X320535300Y-98806000D03*
X318035300Y-98806000D03*
D19*
X228747000Y-24765000D03*
X228747000Y-27305000D03*
X228747000Y-29845000D03*
X228747000Y-32385000D03*
X228747000Y-34925000D03*
X228747000Y-37465000D03*
X228747000Y-40005000D03*
X228747000Y-42545000D03*
X228747000Y-45085000D03*
D16*
X149669499Y-24764999D03*
D17*
X149669500Y-27305000D03*
X149669500Y-29845000D03*
X149669500Y-32385000D03*
X149669500Y-34925000D03*
X149669500Y-37465000D03*
X149669500Y-40005000D03*
X149669500Y-42545000D03*
X149669500Y-45085000D03*
X157289500Y-45085000D03*
X157289500Y-42545000D03*
X157289500Y-40005000D03*
X157289500Y-37465000D03*
X157289500Y-34925000D03*
X157289500Y-32385000D03*
X157289500Y-29845000D03*
X157289500Y-27305000D03*
X157289500Y-24765000D03*
D16*
X264675299Y-69849999D03*
D17*
X264675300Y-67310000D03*
X264675300Y-64770000D03*
X264675300Y-62230000D03*
X264675300Y-59690000D03*
X264675300Y-57150000D03*
X264675300Y-54610000D03*
X264675300Y-52070000D03*
X264675300Y-49530000D03*
X257055300Y-49530000D03*
X257055300Y-52070000D03*
X257055300Y-54610000D03*
X257055300Y-57150000D03*
X257055300Y-59690000D03*
X257055300Y-62230000D03*
X257055300Y-64770000D03*
X257055300Y-67310000D03*
X257055300Y-69850000D03*
D16*
X184677999Y-94614999D03*
D17*
X184678000Y-92075000D03*
X184678000Y-89535000D03*
X184678000Y-86995000D03*
X184678000Y-84455000D03*
X184678000Y-81915000D03*
X184678000Y-79375000D03*
X184678000Y-76835000D03*
X184678000Y-74295000D03*
X177058000Y-74295000D03*
X177058000Y-76835000D03*
X177058000Y-79375000D03*
X177058000Y-81915000D03*
X177058000Y-84455000D03*
X177058000Y-86995000D03*
X177058000Y-89535000D03*
X177058000Y-92075000D03*
X177058000Y-94615000D03*
D13*
X134068500Y-70866000D03*
X136568500Y-70866000D03*
D14*
X240430999Y-119443499D03*
D15*
X240431000Y-116903500D03*
X240431000Y-114363500D03*
X240431000Y-111823500D03*
X240431000Y-109283500D03*
X240431000Y-106743500D03*
X240431000Y-104203500D03*
X240431000Y-101663500D03*
X232811000Y-101663500D03*
X232811000Y-104203500D03*
X232811000Y-106743500D03*
X232811000Y-109283500D03*
X232811000Y-111823500D03*
X232811000Y-114363500D03*
X232811000Y-116903500D03*
X232811000Y-119443500D03*
D16*
X149669499Y-99059999D03*
D17*
X149669500Y-101600000D03*
X149669500Y-104140000D03*
X149669500Y-106680000D03*
X149669500Y-109220000D03*
X149669500Y-111760000D03*
X149669500Y-114300000D03*
X149669500Y-116840000D03*
X149669500Y-119380000D03*
X157289500Y-119380000D03*
X157289500Y-116840000D03*
X157289500Y-114300000D03*
X157289500Y-111760000D03*
X157289500Y-109220000D03*
X157289500Y-106680000D03*
X157289500Y-104140000D03*
X157289500Y-101600000D03*
X157289500Y-99060000D03*
D21*
X210058000Y-86995000D03*
X207518000Y-86995000D03*
X210058000Y-84455000D03*
X207518000Y-84455000D03*
X210058000Y-81915000D03*
X207518000Y-81915000D03*
X210058000Y-79375000D03*
X207518000Y-79375000D03*
X210058000Y-76835000D03*
X207518000Y-76835000D03*
X210058000Y-74295000D03*
X207518000Y-74295000D03*
X210058000Y-71755000D03*
X207518000Y-71755000D03*
X210058000Y-69215000D03*
X207518000Y-69215000D03*
X210058000Y-66675000D03*
X207518000Y-66675000D03*
X210058000Y-64135000D03*
X207518000Y-64135000D03*
X210058000Y-61595000D03*
X207518000Y-61595000D03*
X210058000Y-59055000D03*
X207518000Y-59055000D03*
X210058000Y-56515000D03*
X207518000Y-56515000D03*
X210058000Y-53975000D03*
X207518000Y-53975000D03*
X210058000Y-51435000D03*
X207518000Y-51435000D03*
X210058000Y-48895000D03*
X207518000Y-48895000D03*
X210058000Y-46355000D03*
X207518000Y-46355000D03*
X210058000Y-43815000D03*
X207518000Y-43815000D03*
X210058000Y-41275000D03*
X207518000Y-41275000D03*
X210058000Y-38735000D03*
X207518000Y-38735000D03*
X210058000Y-36195000D03*
X207518000Y-36195000D03*
X210058000Y-33655000D03*
X207518000Y-33655000D03*
X210058000Y-31115000D03*
X207518000Y-31115000D03*
X210058000Y-28575000D03*
X207518000Y-28575000D03*
X210058000Y-26035000D03*
X207518000Y-26035000D03*
D16*
X264675299Y-45084999D03*
D17*
X264675300Y-42545000D03*
X264675300Y-40005000D03*
X264675300Y-37465000D03*
X264675300Y-34925000D03*
X264675300Y-32385000D03*
X264675300Y-29845000D03*
X264675300Y-27305000D03*
X264675300Y-24765000D03*
X257055300Y-24765000D03*
X257055300Y-27305000D03*
X257055300Y-29845000D03*
X257055300Y-32385000D03*
X257055300Y-34925000D03*
X257055300Y-37465000D03*
X257055300Y-40005000D03*
X257055300Y-42545000D03*
X257055300Y-45085000D03*
D16*
X184677999Y-119379999D03*
D17*
X184678000Y-116840000D03*
X184678000Y-114300000D03*
X184678000Y-111760000D03*
X184678000Y-109220000D03*
X184678000Y-106680000D03*
X184678000Y-104140000D03*
X184678000Y-101600000D03*
X184678000Y-99060000D03*
X177058000Y-99060000D03*
X177058000Y-101600000D03*
X177058000Y-104140000D03*
X177058000Y-106680000D03*
X177058000Y-109220000D03*
X177058000Y-111760000D03*
X177058000Y-114300000D03*
X177058000Y-116840000D03*
X177058000Y-119380000D03*
D14*
X320428299Y-45148499D03*
D15*
X320428300Y-42608500D03*
X320428300Y-40068500D03*
X320428300Y-37528500D03*
X320428300Y-34988500D03*
X320428300Y-32448500D03*
X320428300Y-29908500D03*
X320428300Y-27368500D03*
X312808300Y-27368500D03*
X312808300Y-29908500D03*
X312808300Y-32448500D03*
X312808300Y-34988500D03*
X312808300Y-37528500D03*
X312808300Y-40068500D03*
X312808300Y-42608500D03*
X312808300Y-45148500D03*
D13*
X107144500Y-45974000D03*
X109644500Y-45974000D03*
D25*
X41401999Y-117855999D03*
D26*
X43942000Y-117856000D03*
X46482000Y-117856000D03*
D19*
X308744300Y-24765000D03*
X308744300Y-27305000D03*
X308744300Y-29845000D03*
X308744300Y-32385000D03*
X308744300Y-34925000D03*
X308744300Y-37465000D03*
X308744300Y-40005000D03*
X308744300Y-42545000D03*
X308744300Y-45085000D03*
D16*
X149669499Y-74294999D03*
D17*
X149669500Y-76835000D03*
X149669500Y-79375000D03*
X149669500Y-81915000D03*
X149669500Y-84455000D03*
X149669500Y-86995000D03*
X149669500Y-89535000D03*
X149669500Y-92075000D03*
X149669500Y-94615000D03*
X157289500Y-94615000D03*
X157289500Y-92075000D03*
X157289500Y-89535000D03*
X157289500Y-86995000D03*
X157289500Y-84455000D03*
X157289500Y-81915000D03*
X157289500Y-79375000D03*
X157289500Y-76835000D03*
X157289500Y-74295000D03*
D13*
X280530300Y-48514000D03*
X278030300Y-48514000D03*
D27*
X42164000Y-84328000D03*
X42164000Y-89408000D03*
D16*
X224682999Y-94614999D03*
D17*
X224683000Y-92075000D03*
X224683000Y-89535000D03*
X224683000Y-86995000D03*
X224683000Y-84455000D03*
X224683000Y-81915000D03*
X224683000Y-79375000D03*
X224683000Y-76835000D03*
X224683000Y-74295000D03*
X217063000Y-74295000D03*
X217063000Y-76835000D03*
X217063000Y-79375000D03*
X217063000Y-81915000D03*
X217063000Y-84455000D03*
X217063000Y-86995000D03*
X217063000Y-89535000D03*
X217063000Y-92075000D03*
X217063000Y-94615000D03*
D14*
X133921499Y-49466499D03*
D15*
X133921500Y-52006500D03*
X133921500Y-54546500D03*
X133921500Y-57086500D03*
X133921500Y-59626500D03*
X133921500Y-62166500D03*
X133921500Y-64706500D03*
X133921500Y-67246500D03*
X141541500Y-67246500D03*
X141541500Y-64706500D03*
X141541500Y-62166500D03*
X141541500Y-59626500D03*
X141541500Y-57086500D03*
X141541500Y-54546500D03*
X141541500Y-52006500D03*
X141541500Y-49466500D03*
D14*
X200425999Y-94678499D03*
D15*
X200426000Y-92138500D03*
X200426000Y-89598500D03*
X200426000Y-87058500D03*
X200426000Y-84518500D03*
X200426000Y-81978500D03*
X200426000Y-79438500D03*
X200426000Y-76898500D03*
X192806000Y-76898500D03*
X192806000Y-79438500D03*
X192806000Y-81978500D03*
X192806000Y-84518500D03*
X192806000Y-87058500D03*
X192806000Y-89598500D03*
X192806000Y-92138500D03*
X192806000Y-94678500D03*
D13*
X280530300Y-98806000D03*
X278030300Y-98806000D03*
D21*
X290055300Y-86995000D03*
X287515300Y-86995000D03*
X290055300Y-84455000D03*
X287515300Y-84455000D03*
X290055300Y-81915000D03*
X287515300Y-81915000D03*
X290055300Y-79375000D03*
X287515300Y-79375000D03*
X290055300Y-76835000D03*
X287515300Y-76835000D03*
X290055300Y-74295000D03*
X287515300Y-74295000D03*
X290055300Y-71755000D03*
X287515300Y-71755000D03*
X290055300Y-69215000D03*
X287515300Y-69215000D03*
X290055300Y-66675000D03*
X287515300Y-66675000D03*
X290055300Y-64135000D03*
X287515300Y-64135000D03*
X290055300Y-61595000D03*
X287515300Y-61595000D03*
X290055300Y-59055000D03*
X287515300Y-59055000D03*
X290055300Y-56515000D03*
X287515300Y-56515000D03*
X290055300Y-53975000D03*
X287515300Y-53975000D03*
X290055300Y-51435000D03*
X287515300Y-51435000D03*
X290055300Y-48895000D03*
X287515300Y-48895000D03*
X290055300Y-46355000D03*
X287515300Y-46355000D03*
X290055300Y-43815000D03*
X287515300Y-43815000D03*
X290055300Y-41275000D03*
X287515300Y-41275000D03*
X290055300Y-38735000D03*
X287515300Y-38735000D03*
X290055300Y-36195000D03*
X287515300Y-36195000D03*
X290055300Y-33655000D03*
X287515300Y-33655000D03*
X290055300Y-31115000D03*
X287515300Y-31115000D03*
X290055300Y-28575000D03*
X287515300Y-28575000D03*
X290055300Y-26035000D03*
X287515300Y-26035000D03*
D14*
X280423299Y-94678499D03*
D15*
X280423300Y-92138500D03*
X280423300Y-89598500D03*
X280423300Y-87058500D03*
X280423300Y-84518500D03*
X280423300Y-81978500D03*
X280423300Y-79438500D03*
X280423300Y-76898500D03*
X272803300Y-76898500D03*
X272803300Y-79438500D03*
X272803300Y-81978500D03*
X272803300Y-84518500D03*
X272803300Y-87058500D03*
X272803300Y-89598500D03*
X272803300Y-92138500D03*
X272803300Y-94678500D03*
D19*
X228747000Y-74295000D03*
X228747000Y-76835000D03*
X228747000Y-79375000D03*
X228747000Y-81915000D03*
X228747000Y-84455000D03*
X228747000Y-86995000D03*
X228747000Y-89535000D03*
X228747000Y-92075000D03*
X228747000Y-94615000D03*
D14*
X320428299Y-69913499D03*
D15*
X320428300Y-67373500D03*
X320428300Y-64833500D03*
X320428300Y-62293500D03*
X320428300Y-59753500D03*
X320428300Y-57213500D03*
X320428300Y-54673500D03*
X320428300Y-52133500D03*
X312808300Y-52133500D03*
X312808300Y-54673500D03*
X312808300Y-57213500D03*
X312808300Y-59753500D03*
X312808300Y-62293500D03*
X312808300Y-64833500D03*
X312808300Y-67373500D03*
X312808300Y-69913500D03*
D13*
X320535300Y-73406000D03*
X318035300Y-73406000D03*
X320535300Y-48514000D03*
X318035300Y-48514000D03*
D16*
X224682999Y-69849999D03*
D17*
X224683000Y-67310000D03*
X224683000Y-64770000D03*
X224683000Y-62230000D03*
X224683000Y-59690000D03*
X224683000Y-57150000D03*
X224683000Y-54610000D03*
X224683000Y-52070000D03*
X224683000Y-49530000D03*
X217063000Y-49530000D03*
X217063000Y-52070000D03*
X217063000Y-54610000D03*
X217063000Y-57150000D03*
X217063000Y-59690000D03*
X217063000Y-62230000D03*
X217063000Y-64770000D03*
X217063000Y-67310000D03*
X217063000Y-69850000D03*
D19*
X118935500Y-45085000D03*
X118935500Y-42545000D03*
X118935500Y-40005000D03*
X118935500Y-37465000D03*
X118935500Y-34925000D03*
X118935500Y-32385000D03*
X118935500Y-29845000D03*
X118935500Y-27305000D03*
X118935500Y-24765000D03*
D16*
X122999499Y-99059999D03*
D17*
X122999500Y-101600000D03*
X122999500Y-104140000D03*
X122999500Y-106680000D03*
X122999500Y-109220000D03*
X122999500Y-111760000D03*
X122999500Y-114300000D03*
X122999500Y-116840000D03*
X122999500Y-119380000D03*
X130619500Y-119380000D03*
X130619500Y-116840000D03*
X130619500Y-114300000D03*
X130619500Y-111760000D03*
X130619500Y-109220000D03*
X130619500Y-106680000D03*
X130619500Y-104140000D03*
X130619500Y-101600000D03*
X130619500Y-99060000D03*
D13*
X134068500Y-95504000D03*
X136568500Y-95504000D03*
D16*
X184677999Y-69849999D03*
D17*
X184678000Y-67310000D03*
X184678000Y-64770000D03*
X184678000Y-62230000D03*
X184678000Y-59690000D03*
X184678000Y-57150000D03*
X184678000Y-54610000D03*
X184678000Y-52070000D03*
X184678000Y-49530000D03*
X177058000Y-49530000D03*
X177058000Y-52070000D03*
X177058000Y-54610000D03*
X177058000Y-57150000D03*
X177058000Y-59690000D03*
X177058000Y-62230000D03*
X177058000Y-64770000D03*
X177058000Y-67310000D03*
X177058000Y-69850000D03*
D19*
X228747000Y-49530000D03*
X228747000Y-52070000D03*
X228747000Y-54610000D03*
X228747000Y-57150000D03*
X228747000Y-59690000D03*
X228747000Y-62230000D03*
X228747000Y-64770000D03*
X228747000Y-67310000D03*
X228747000Y-69850000D03*
D14*
X200425999Y-119443499D03*
D15*
X200426000Y-116903500D03*
X200426000Y-114363500D03*
X200426000Y-111823500D03*
X200426000Y-109283500D03*
X200426000Y-106743500D03*
X200426000Y-104203500D03*
X200426000Y-101663500D03*
X192806000Y-101663500D03*
X192806000Y-104203500D03*
X192806000Y-106743500D03*
X192806000Y-109283500D03*
X192806000Y-111823500D03*
X192806000Y-114363500D03*
X192806000Y-116903500D03*
X192806000Y-119443500D03*
D19*
X308744300Y-74295000D03*
X308744300Y-76835000D03*
X308744300Y-79375000D03*
X308744300Y-81915000D03*
X308744300Y-84455000D03*
X308744300Y-86995000D03*
X308744300Y-89535000D03*
X308744300Y-92075000D03*
X308744300Y-94615000D03*
D14*
X320428299Y-94678499D03*
D15*
X320428300Y-92138500D03*
X320428300Y-89598500D03*
X320428300Y-87058500D03*
X320428300Y-84518500D03*
X320428300Y-81978500D03*
X320428300Y-79438500D03*
X320428300Y-76898500D03*
X312808300Y-76898500D03*
X312808300Y-79438500D03*
X312808300Y-81978500D03*
X312808300Y-84518500D03*
X312808300Y-87058500D03*
X312808300Y-89598500D03*
X312808300Y-92138500D03*
X312808300Y-94678500D03*
D25*
X95757999Y-118109999D03*
D26*
X98298000Y-118110000D03*
X100838000Y-118110000D03*
D19*
X145605500Y-69850000D03*
X145605500Y-67310000D03*
X145605500Y-64770000D03*
X145605500Y-62230000D03*
X145605500Y-59690000D03*
X145605500Y-57150000D03*
X145605500Y-54610000D03*
X145605500Y-52070000D03*
X145605500Y-49530000D03*
D16*
X264675299Y-119379999D03*
D17*
X264675300Y-116840000D03*
X264675300Y-114300000D03*
X264675300Y-111760000D03*
X264675300Y-109220000D03*
X264675300Y-106680000D03*
X264675300Y-104140000D03*
X264675300Y-101600000D03*
X264675300Y-99060000D03*
X257055300Y-99060000D03*
X257055300Y-101600000D03*
X257055300Y-104140000D03*
X257055300Y-106680000D03*
X257055300Y-109220000D03*
X257055300Y-111760000D03*
X257055300Y-114300000D03*
X257055300Y-116840000D03*
X257055300Y-119380000D03*
D13*
X200533000Y-48514000D03*
X198033000Y-48514000D03*
D19*
X308744300Y-99060000D03*
X308744300Y-101600000D03*
X308744300Y-104140000D03*
X308744300Y-106680000D03*
X308744300Y-109220000D03*
X308744300Y-111760000D03*
X308744300Y-114300000D03*
X308744300Y-116840000D03*
X308744300Y-119380000D03*
D14*
X107251499Y-24701499D03*
D15*
X107251500Y-27241500D03*
X107251500Y-29781500D03*
X107251500Y-32321500D03*
X107251500Y-34861500D03*
X107251500Y-37401500D03*
X107251500Y-39941500D03*
X107251500Y-42481500D03*
X114871500Y-42481500D03*
X114871500Y-39941500D03*
X114871500Y-37401500D03*
X114871500Y-34861500D03*
X114871500Y-32321500D03*
X114871500Y-29781500D03*
X114871500Y-27241500D03*
X114871500Y-24701500D03*
D19*
X188742000Y-24765000D03*
X188742000Y-27305000D03*
X188742000Y-29845000D03*
X188742000Y-32385000D03*
X188742000Y-34925000D03*
X188742000Y-37465000D03*
X188742000Y-40005000D03*
X188742000Y-42545000D03*
X188742000Y-45085000D03*
D20*
X170053000Y-120650000D03*
X167513000Y-120650000D03*
X170053000Y-118110000D03*
X167513000Y-118110000D03*
X170053000Y-115570000D03*
X167513000Y-115570000D03*
X170053000Y-113030000D03*
X167513000Y-113030000D03*
X170053000Y-110490000D03*
X167513000Y-110490000D03*
X170053000Y-107950000D03*
X167513000Y-107950000D03*
X170053000Y-105410000D03*
X167513000Y-105410000D03*
X170053000Y-102870000D03*
X167513000Y-102870000D03*
X170053000Y-100330000D03*
X167513000Y-100330000D03*
X170053000Y-97790000D03*
X167513000Y-97790000D03*
D16*
X264675299Y-94614999D03*
D17*
X264675300Y-92075000D03*
X264675300Y-89535000D03*
X264675300Y-86995000D03*
X264675300Y-84455000D03*
X264675300Y-81915000D03*
X264675300Y-79375000D03*
X264675300Y-76835000D03*
X264675300Y-74295000D03*
X257055300Y-74295000D03*
X257055300Y-76835000D03*
X257055300Y-79375000D03*
X257055300Y-81915000D03*
X257055300Y-84455000D03*
X257055300Y-86995000D03*
X257055300Y-89535000D03*
X257055300Y-92075000D03*
X257055300Y-94615000D03*
D19*
X268739300Y-49530000D03*
X268739300Y-52070000D03*
X268739300Y-54610000D03*
X268739300Y-57150000D03*
X268739300Y-59690000D03*
X268739300Y-62230000D03*
X268739300Y-64770000D03*
X268739300Y-67310000D03*
X268739300Y-69850000D03*
D21*
X54102000Y-45974000D03*
X54102000Y-33274000D03*
X54102000Y-40894000D03*
X54102000Y-38354000D03*
X54102000Y-43434000D03*
X54102000Y-35814000D03*
D16*
X304680299Y-94614999D03*
D17*
X304680300Y-92075000D03*
X304680300Y-89535000D03*
X304680300Y-86995000D03*
X304680300Y-84455000D03*
X304680300Y-81915000D03*
X304680300Y-79375000D03*
X304680300Y-76835000D03*
X304680300Y-74295000D03*
X297060300Y-74295000D03*
X297060300Y-76835000D03*
X297060300Y-79375000D03*
X297060300Y-81915000D03*
X297060300Y-84455000D03*
X297060300Y-86995000D03*
X297060300Y-89535000D03*
X297060300Y-92075000D03*
X297060300Y-94615000D03*
D16*
X304680299Y-45084999D03*
D17*
X304680300Y-42545000D03*
X304680300Y-40005000D03*
X304680300Y-37465000D03*
X304680300Y-34925000D03*
X304680300Y-32385000D03*
X304680300Y-29845000D03*
X304680300Y-27305000D03*
X304680300Y-24765000D03*
X297060300Y-24765000D03*
X297060300Y-27305000D03*
X297060300Y-29845000D03*
X297060300Y-32385000D03*
X297060300Y-34925000D03*
X297060300Y-37465000D03*
X297060300Y-40005000D03*
X297060300Y-42545000D03*
X297060300Y-45085000D03*
D16*
X122999499Y-24764999D03*
D17*
X122999500Y-27305000D03*
X122999500Y-29845000D03*
X122999500Y-32385000D03*
X122999500Y-34925000D03*
X122999500Y-37465000D03*
X122999500Y-40005000D03*
X122999500Y-42545000D03*
X122999500Y-45085000D03*
X130619500Y-45085000D03*
X130619500Y-42545000D03*
X130619500Y-40005000D03*
X130619500Y-37465000D03*
X130619500Y-34925000D03*
X130619500Y-32385000D03*
X130619500Y-29845000D03*
X130619500Y-27305000D03*
X130619500Y-24765000D03*
D14*
X107251499Y-74231499D03*
D15*
X107251500Y-76771500D03*
X107251500Y-79311500D03*
X107251500Y-81851500D03*
X107251500Y-84391500D03*
X107251500Y-86931500D03*
X107251500Y-89471500D03*
X107251500Y-92011500D03*
X114871500Y-92011500D03*
X114871500Y-89471500D03*
X114871500Y-86931500D03*
X114871500Y-84391500D03*
X114871500Y-81851500D03*
X114871500Y-79311500D03*
X114871500Y-76771500D03*
X114871500Y-74231500D03*
D19*
X118935500Y-94615000D03*
X118935500Y-92075000D03*
X118935500Y-89535000D03*
X118935500Y-86995000D03*
X118935500Y-84455000D03*
X118935500Y-81915000D03*
X118935500Y-79375000D03*
X118935500Y-76835000D03*
X118935500Y-74295000D03*
D14*
X240430999Y-94678499D03*
D15*
X240431000Y-92138500D03*
X240431000Y-89598500D03*
X240431000Y-87058500D03*
X240431000Y-84518500D03*
X240431000Y-81978500D03*
X240431000Y-79438500D03*
X240431000Y-76898500D03*
X232811000Y-76898500D03*
X232811000Y-79438500D03*
X232811000Y-81978500D03*
X232811000Y-84518500D03*
X232811000Y-87058500D03*
X232811000Y-89598500D03*
X232811000Y-92138500D03*
X232811000Y-94678500D03*
D19*
X268739300Y-74295000D03*
X268739300Y-76835000D03*
X268739300Y-79375000D03*
X268739300Y-81915000D03*
X268739300Y-84455000D03*
X268739300Y-86995000D03*
X268739300Y-89535000D03*
X268739300Y-92075000D03*
X268739300Y-94615000D03*
X118935500Y-69850000D03*
X118935500Y-67310000D03*
X118935500Y-64770000D03*
X118935500Y-62230000D03*
X118935500Y-59690000D03*
X118935500Y-57150000D03*
X118935500Y-54610000D03*
X118935500Y-52070000D03*
X118935500Y-49530000D03*
D16*
X184677999Y-45084999D03*
D17*
X184678000Y-42545000D03*
X184678000Y-40005000D03*
X184678000Y-37465000D03*
X184678000Y-34925000D03*
X184678000Y-32385000D03*
X184678000Y-29845000D03*
X184678000Y-27305000D03*
X184678000Y-24765000D03*
X177058000Y-24765000D03*
X177058000Y-27305000D03*
X177058000Y-29845000D03*
X177058000Y-32385000D03*
X177058000Y-34925000D03*
X177058000Y-37465000D03*
X177058000Y-40005000D03*
X177058000Y-42545000D03*
X177058000Y-45085000D03*
D21*
X170053000Y-86995000D03*
X167513000Y-86995000D03*
X170053000Y-84455000D03*
X167513000Y-84455000D03*
X170053000Y-81915000D03*
X167513000Y-81915000D03*
X170053000Y-79375000D03*
X167513000Y-79375000D03*
X170053000Y-76835000D03*
X167513000Y-76835000D03*
X170053000Y-74295000D03*
X167513000Y-74295000D03*
X170053000Y-71755000D03*
X167513000Y-71755000D03*
X170053000Y-69215000D03*
X167513000Y-69215000D03*
X170053000Y-66675000D03*
X167513000Y-66675000D03*
X170053000Y-64135000D03*
X167513000Y-64135000D03*
X170053000Y-61595000D03*
X167513000Y-61595000D03*
X170053000Y-59055000D03*
X167513000Y-59055000D03*
X170053000Y-56515000D03*
X167513000Y-56515000D03*
X170053000Y-53975000D03*
X167513000Y-53975000D03*
X170053000Y-51435000D03*
X167513000Y-51435000D03*
X170053000Y-48895000D03*
X167513000Y-48895000D03*
X170053000Y-46355000D03*
X167513000Y-46355000D03*
X170053000Y-43815000D03*
X167513000Y-43815000D03*
X170053000Y-41275000D03*
X167513000Y-41275000D03*
X170053000Y-38735000D03*
X167513000Y-38735000D03*
X170053000Y-36195000D03*
X167513000Y-36195000D03*
X170053000Y-33655000D03*
X167513000Y-33655000D03*
X170053000Y-31115000D03*
X167513000Y-31115000D03*
X170053000Y-28575000D03*
X167513000Y-28575000D03*
X170053000Y-26035000D03*
X167513000Y-26035000D03*
D19*
X145605500Y-94615000D03*
X145605500Y-92075000D03*
X145605500Y-89535000D03*
X145605500Y-86995000D03*
X145605500Y-84455000D03*
X145605500Y-81915000D03*
X145605500Y-79375000D03*
X145605500Y-76835000D03*
X145605500Y-74295000D03*
X188742000Y-49530000D03*
X188742000Y-52070000D03*
X188742000Y-54610000D03*
X188742000Y-57150000D03*
X188742000Y-59690000D03*
X188742000Y-62230000D03*
X188742000Y-64770000D03*
X188742000Y-67310000D03*
X188742000Y-69850000D03*
D13*
X107144500Y-95504000D03*
X109644500Y-95504000D03*
D14*
X107251499Y-49466499D03*
D15*
X107251500Y-52006500D03*
X107251500Y-54546500D03*
X107251500Y-57086500D03*
X107251500Y-59626500D03*
X107251500Y-62166500D03*
X107251500Y-64706500D03*
X107251500Y-67246500D03*
X114871500Y-67246500D03*
X114871500Y-64706500D03*
X114871500Y-62166500D03*
X114871500Y-59626500D03*
X114871500Y-57086500D03*
X114871500Y-54546500D03*
X114871500Y-52006500D03*
X114871500Y-49466500D03*
D14*
X280423299Y-69913499D03*
D15*
X280423300Y-67373500D03*
X280423300Y-64833500D03*
X280423300Y-62293500D03*
X280423300Y-59753500D03*
X280423300Y-57213500D03*
X280423300Y-54673500D03*
X280423300Y-52133500D03*
X272803300Y-52133500D03*
X272803300Y-54673500D03*
X272803300Y-57213500D03*
X272803300Y-59753500D03*
X272803300Y-62293500D03*
X272803300Y-64833500D03*
X272803300Y-67373500D03*
X272803300Y-69913500D03*
D23*
X40304322Y-100075999D03*
D24*
X45304323Y-100076000D03*
D14*
X133921499Y-98996499D03*
D15*
X133921500Y-101536500D03*
X133921500Y-104076500D03*
X133921500Y-106616500D03*
X133921500Y-109156500D03*
X133921500Y-111696500D03*
X133921500Y-114236500D03*
X133921500Y-116776500D03*
X141541500Y-116776500D03*
X141541500Y-114236500D03*
X141541500Y-111696500D03*
X141541500Y-109156500D03*
X141541500Y-106616500D03*
X141541500Y-104076500D03*
X141541500Y-101536500D03*
X141541500Y-98996500D03*
D28*
X54102000Y-107442000D03*
X102362000Y-106172000D03*
D29*
X54101999Y-93471999D03*
D28*
X59182000Y-55372000D03*
X87122000Y-55372000D03*
D29*
X54101999Y-85851999D03*
X54101999Y-83311999D03*
X82041999Y-55244999D03*
X54101999Y-70611999D03*
X54101999Y-68071999D03*
X54101999Y-65531999D03*
X54101999Y-62991999D03*
X54101999Y-60451999D03*
X54101999Y-57911999D03*
X102361999Y-97535999D03*
X102361999Y-57911999D03*
X102361999Y-60451999D03*
X102361999Y-62991999D03*
X102361999Y-65531999D03*
X102361999Y-68071999D03*
X102361999Y-70611999D03*
X102361999Y-73151999D03*
X102361999Y-75691999D03*
X102361999Y-79755999D03*
X102361999Y-82295999D03*
X102361999Y-84835999D03*
X102361999Y-87375999D03*
X102361999Y-89915999D03*
X102361999Y-92455999D03*
D30*
X102361999Y-94995999D03*
X54101999Y-80771999D03*
X54101999Y-78231999D03*
X76961999Y-55244999D03*
D29*
X54101999Y-90931999D03*
X82041999Y-57784999D03*
X79501999Y-55244999D03*
X54101999Y-88391999D03*
X76961999Y-57784999D03*
X79501999Y-57784999D03*
X102361999Y-102615999D03*
X102361999Y-100075999D03*
X54101999Y-75691999D03*
M02*
